G04 #@! TF.GenerationSoftware,KiCad,Pcbnew,5.0.0-rc2-unknown-d03e92a~65~ubuntu16.04.1*
G04 #@! TF.CreationDate,2018-06-02T21:30:31+05:30*
G04 #@! TF.ProjectId,ClockIOT,436C6F636B494F542E6B696361645F70,rev 1*
G04 #@! TF.SameCoordinates,PX2fd7508PY2fd7508*
G04 #@! TF.FileFunction,Soldermask,Top*
G04 #@! TF.FilePolarity,Negative*
%FSLAX46Y46*%
G04 Gerber Fmt 4.6, Leading zero omitted, Abs format (unit mm)*
G04 Created by KiCad (PCBNEW 5.0.0-rc2-unknown-d03e92a~65~ubuntu16.04.1) date Sat Jun  2 21:30:31 2018*
%MOMM*%
%LPD*%
G01*
G04 APERTURE LIST*
%ADD10C,0.500000*%
%ADD11C,18.796000*%
%ADD12R,5.080000X2.794000*%
%ADD13C,2.000000*%
%ADD14R,1.300480X1.498600*%
%ADD15C,1.270000*%
%ADD16R,1.900000X1.500000*%
%ADD17C,1.450000*%
%ADD18R,1.350000X0.400000*%
%ADD19O,1.900000X1.200000*%
%ADD20R,1.900000X1.200000*%
%ADD21C,0.800000*%
%ADD22C,6.400000*%
%ADD23C,3.200000*%
%ADD24C,0.127000*%
%ADD25C,1.600000*%
%ADD26C,5.200000*%
%ADD27C,1.524000*%
%ADD28R,1.524000X1.524000*%
%ADD29C,1.800000*%
%ADD30O,1.000000X2.000000*%
%ADD31O,2.000000X1.000000*%
%ADD32C,0.508000*%
%ADD33R,2.000000X2.000000*%
%ADD34O,2.000000X2.000000*%
%ADD35R,1.400000X1.400000*%
%ADD36C,2.082800*%
G04 APERTURE END LIST*
D10*
X4192142Y-14156428D02*
X4049285Y-14299285D01*
X3620714Y-14442142D01*
X3335000Y-14442142D01*
X2906428Y-14299285D01*
X2620714Y-14013571D01*
X2477857Y-13727857D01*
X2335000Y-13156428D01*
X2335000Y-12727857D01*
X2477857Y-12156428D01*
X2620714Y-11870714D01*
X2906428Y-11585000D01*
X3335000Y-11442142D01*
X3620714Y-11442142D01*
X4049285Y-11585000D01*
X4192142Y-11727857D01*
X5906428Y-14442142D02*
X5620714Y-14299285D01*
X5477857Y-14013571D01*
X5477857Y-11442142D01*
X7477857Y-14442142D02*
X7192142Y-14299285D01*
X7049285Y-14156428D01*
X6906428Y-13870714D01*
X6906428Y-13013571D01*
X7049285Y-12727857D01*
X7192142Y-12585000D01*
X7477857Y-12442142D01*
X7906428Y-12442142D01*
X8192142Y-12585000D01*
X8335000Y-12727857D01*
X8477857Y-13013571D01*
X8477857Y-13870714D01*
X8335000Y-14156428D01*
X8192142Y-14299285D01*
X7906428Y-14442142D01*
X7477857Y-14442142D01*
X11049285Y-14299285D02*
X10763571Y-14442142D01*
X10192142Y-14442142D01*
X9906428Y-14299285D01*
X9763571Y-14156428D01*
X9620714Y-13870714D01*
X9620714Y-13013571D01*
X9763571Y-12727857D01*
X9906428Y-12585000D01*
X10192142Y-12442142D01*
X10763571Y-12442142D01*
X11049285Y-12585000D01*
X12335000Y-14442142D02*
X12335000Y-11442142D01*
X12620714Y-13299285D02*
X13477857Y-14442142D01*
X13477857Y-12442142D02*
X12335000Y-13585000D01*
X14763571Y-14442142D02*
X14763571Y-11442142D01*
X16763571Y-11442142D02*
X17335000Y-11442142D01*
X17620714Y-11585000D01*
X17906428Y-11870714D01*
X18049285Y-12442142D01*
X18049285Y-13442142D01*
X17906428Y-14013571D01*
X17620714Y-14299285D01*
X17335000Y-14442142D01*
X16763571Y-14442142D01*
X16477857Y-14299285D01*
X16192142Y-14013571D01*
X16049285Y-13442142D01*
X16049285Y-12442142D01*
X16192142Y-11870714D01*
X16477857Y-11585000D01*
X16763571Y-11442142D01*
X18906428Y-11442142D02*
X20620714Y-11442142D01*
X19763571Y-14442142D02*
X19763571Y-11442142D01*
D11*
G04 #@! TO.C,BT1*
X149860000Y-19050000D03*
D12*
X149860000Y-29972000D03*
X149860000Y-8128000D03*
G04 #@! TD*
D13*
G04 #@! TO.C,LDR1*
X33020000Y-3810000D03*
X38100000Y-3810000D03*
D14*
X37060000Y-3810000D03*
X34060000Y-3810000D03*
D15*
X35560000Y-3810000D03*
G04 #@! TD*
D13*
G04 #@! TO.C,LDR2*
X129540000Y-3810000D03*
X124460000Y-3810000D03*
D14*
X125500000Y-3810000D03*
X128500000Y-3810000D03*
D15*
X127000000Y-3810000D03*
G04 #@! TD*
D16*
G04 #@! TO.C,P1*
X2185000Y-28335000D03*
D17*
X4885000Y-24835000D03*
D18*
X4885000Y-26685000D03*
X4885000Y-26035000D03*
X4885000Y-28635000D03*
X4885000Y-27985000D03*
X4885000Y-27335000D03*
D17*
X4885000Y-29835000D03*
D16*
X2185000Y-26335000D03*
D19*
X2185000Y-23835000D03*
X2185000Y-30835000D03*
D20*
X2185000Y-30235000D03*
X2185000Y-24435000D03*
G04 #@! TD*
D21*
G04 #@! TO.C,HB47*
X6777056Y-35767944D03*
X5080000Y-35065000D03*
X3382944Y-35767944D03*
X2680000Y-37465000D03*
X3382944Y-39162056D03*
X5080000Y-39865000D03*
X6777056Y-39162056D03*
X7480000Y-37465000D03*
D22*
X5080000Y-37465000D03*
G04 #@! TD*
D21*
G04 #@! TO.C,U132*
X29845000Y-27305000D03*
X29210000Y-26670000D03*
X30480000Y-26670000D03*
X30480000Y-27940000D03*
X29210000Y-27940000D03*
G04 #@! TD*
D23*
G04 #@! TO.C,HB45*
X3810000Y-3175000D03*
G04 #@! TD*
G04 #@! TO.C,HB46*
X158750000Y-3175000D03*
G04 #@! TD*
D24*
G04 #@! TO.C,TP1*
G36*
X141409207Y-3011926D02*
X141448036Y-3017686D01*
X141486114Y-3027224D01*
X141523073Y-3040448D01*
X141558559Y-3057231D01*
X141592228Y-3077412D01*
X141623757Y-3100796D01*
X141652843Y-3127157D01*
X141679204Y-3156243D01*
X141702588Y-3187772D01*
X141722769Y-3221441D01*
X141739552Y-3256927D01*
X141752776Y-3293886D01*
X141762314Y-3331964D01*
X141768074Y-3370793D01*
X141770000Y-3410000D01*
X141770000Y-4210000D01*
X141768074Y-4249207D01*
X141762314Y-4288036D01*
X141752776Y-4326114D01*
X141739552Y-4363073D01*
X141722769Y-4398559D01*
X141702588Y-4432228D01*
X141679204Y-4463757D01*
X141652843Y-4492843D01*
X141623757Y-4519204D01*
X141592228Y-4542588D01*
X141558559Y-4562769D01*
X141523073Y-4579552D01*
X141486114Y-4592776D01*
X141448036Y-4602314D01*
X141409207Y-4608074D01*
X141370000Y-4610000D01*
X140570000Y-4610000D01*
X140530793Y-4608074D01*
X140491964Y-4602314D01*
X140453886Y-4592776D01*
X140416927Y-4579552D01*
X140381441Y-4562769D01*
X140347772Y-4542588D01*
X140316243Y-4519204D01*
X140287157Y-4492843D01*
X140260796Y-4463757D01*
X140237412Y-4432228D01*
X140217231Y-4398559D01*
X140200448Y-4363073D01*
X140187224Y-4326114D01*
X140177686Y-4288036D01*
X140171926Y-4249207D01*
X140170000Y-4210000D01*
X140170000Y-3410000D01*
X140171926Y-3370793D01*
X140177686Y-3331964D01*
X140187224Y-3293886D01*
X140200448Y-3256927D01*
X140217231Y-3221441D01*
X140237412Y-3187772D01*
X140260796Y-3156243D01*
X140287157Y-3127157D01*
X140316243Y-3100796D01*
X140347772Y-3077412D01*
X140381441Y-3057231D01*
X140416927Y-3040448D01*
X140453886Y-3027224D01*
X140491964Y-3017686D01*
X140530793Y-3011926D01*
X140570000Y-3010000D01*
X141370000Y-3010000D01*
X141409207Y-3011926D01*
X141409207Y-3011926D01*
G37*
D25*
X140970000Y-3810000D03*
G04 #@! TD*
D21*
G04 #@! TO.C,HB48*
X159177056Y-35767944D03*
X157480000Y-35065000D03*
X155782944Y-35767944D03*
X155080000Y-37465000D03*
X155782944Y-39162056D03*
X157480000Y-39865000D03*
X159177056Y-39162056D03*
X159880000Y-37465000D03*
D22*
X157480000Y-37465000D03*
G04 #@! TD*
D26*
G04 #@! TO.C,J8*
X86360000Y-38100000D03*
G04 #@! TD*
G04 #@! TO.C,J7*
X96520000Y-38100000D03*
G04 #@! TD*
D24*
G04 #@! TO.C,J23*
G36*
X132519207Y-37936926D02*
X132558036Y-37942686D01*
X132596114Y-37952224D01*
X132633073Y-37965448D01*
X132668559Y-37982231D01*
X132702228Y-38002412D01*
X132733757Y-38025796D01*
X132762843Y-38052157D01*
X132789204Y-38081243D01*
X132812588Y-38112772D01*
X132832769Y-38146441D01*
X132849552Y-38181927D01*
X132862776Y-38218886D01*
X132872314Y-38256964D01*
X132878074Y-38295793D01*
X132880000Y-38335000D01*
X132880000Y-39135000D01*
X132878074Y-39174207D01*
X132872314Y-39213036D01*
X132862776Y-39251114D01*
X132849552Y-39288073D01*
X132832769Y-39323559D01*
X132812588Y-39357228D01*
X132789204Y-39388757D01*
X132762843Y-39417843D01*
X132733757Y-39444204D01*
X132702228Y-39467588D01*
X132668559Y-39487769D01*
X132633073Y-39504552D01*
X132596114Y-39517776D01*
X132558036Y-39527314D01*
X132519207Y-39533074D01*
X132480000Y-39535000D01*
X131680000Y-39535000D01*
X131640793Y-39533074D01*
X131601964Y-39527314D01*
X131563886Y-39517776D01*
X131526927Y-39504552D01*
X131491441Y-39487769D01*
X131457772Y-39467588D01*
X131426243Y-39444204D01*
X131397157Y-39417843D01*
X131370796Y-39388757D01*
X131347412Y-39357228D01*
X131327231Y-39323559D01*
X131310448Y-39288073D01*
X131297224Y-39251114D01*
X131287686Y-39213036D01*
X131281926Y-39174207D01*
X131280000Y-39135000D01*
X131280000Y-38335000D01*
X131281926Y-38295793D01*
X131287686Y-38256964D01*
X131297224Y-38218886D01*
X131310448Y-38181927D01*
X131327231Y-38146441D01*
X131347412Y-38112772D01*
X131370796Y-38081243D01*
X131397157Y-38052157D01*
X131426243Y-38025796D01*
X131457772Y-38002412D01*
X131491441Y-37982231D01*
X131526927Y-37965448D01*
X131563886Y-37952224D01*
X131601964Y-37942686D01*
X131640793Y-37936926D01*
X131680000Y-37935000D01*
X132480000Y-37935000D01*
X132519207Y-37936926D01*
X132519207Y-37936926D01*
G37*
D25*
X132080000Y-38735000D03*
G04 #@! TD*
D24*
G04 #@! TO.C,J22*
G36*
X124899207Y-37936926D02*
X124938036Y-37942686D01*
X124976114Y-37952224D01*
X125013073Y-37965448D01*
X125048559Y-37982231D01*
X125082228Y-38002412D01*
X125113757Y-38025796D01*
X125142843Y-38052157D01*
X125169204Y-38081243D01*
X125192588Y-38112772D01*
X125212769Y-38146441D01*
X125229552Y-38181927D01*
X125242776Y-38218886D01*
X125252314Y-38256964D01*
X125258074Y-38295793D01*
X125260000Y-38335000D01*
X125260000Y-39135000D01*
X125258074Y-39174207D01*
X125252314Y-39213036D01*
X125242776Y-39251114D01*
X125229552Y-39288073D01*
X125212769Y-39323559D01*
X125192588Y-39357228D01*
X125169204Y-39388757D01*
X125142843Y-39417843D01*
X125113757Y-39444204D01*
X125082228Y-39467588D01*
X125048559Y-39487769D01*
X125013073Y-39504552D01*
X124976114Y-39517776D01*
X124938036Y-39527314D01*
X124899207Y-39533074D01*
X124860000Y-39535000D01*
X124060000Y-39535000D01*
X124020793Y-39533074D01*
X123981964Y-39527314D01*
X123943886Y-39517776D01*
X123906927Y-39504552D01*
X123871441Y-39487769D01*
X123837772Y-39467588D01*
X123806243Y-39444204D01*
X123777157Y-39417843D01*
X123750796Y-39388757D01*
X123727412Y-39357228D01*
X123707231Y-39323559D01*
X123690448Y-39288073D01*
X123677224Y-39251114D01*
X123667686Y-39213036D01*
X123661926Y-39174207D01*
X123660000Y-39135000D01*
X123660000Y-38335000D01*
X123661926Y-38295793D01*
X123667686Y-38256964D01*
X123677224Y-38218886D01*
X123690448Y-38181927D01*
X123707231Y-38146441D01*
X123727412Y-38112772D01*
X123750796Y-38081243D01*
X123777157Y-38052157D01*
X123806243Y-38025796D01*
X123837772Y-38002412D01*
X123871441Y-37982231D01*
X123906927Y-37965448D01*
X123943886Y-37952224D01*
X123981964Y-37942686D01*
X124020793Y-37936926D01*
X124060000Y-37935000D01*
X124860000Y-37935000D01*
X124899207Y-37936926D01*
X124899207Y-37936926D01*
G37*
D25*
X124460000Y-38735000D03*
G04 #@! TD*
D24*
G04 #@! TO.C,J21*
G36*
X132519207Y-35396926D02*
X132558036Y-35402686D01*
X132596114Y-35412224D01*
X132633073Y-35425448D01*
X132668559Y-35442231D01*
X132702228Y-35462412D01*
X132733757Y-35485796D01*
X132762843Y-35512157D01*
X132789204Y-35541243D01*
X132812588Y-35572772D01*
X132832769Y-35606441D01*
X132849552Y-35641927D01*
X132862776Y-35678886D01*
X132872314Y-35716964D01*
X132878074Y-35755793D01*
X132880000Y-35795000D01*
X132880000Y-36595000D01*
X132878074Y-36634207D01*
X132872314Y-36673036D01*
X132862776Y-36711114D01*
X132849552Y-36748073D01*
X132832769Y-36783559D01*
X132812588Y-36817228D01*
X132789204Y-36848757D01*
X132762843Y-36877843D01*
X132733757Y-36904204D01*
X132702228Y-36927588D01*
X132668559Y-36947769D01*
X132633073Y-36964552D01*
X132596114Y-36977776D01*
X132558036Y-36987314D01*
X132519207Y-36993074D01*
X132480000Y-36995000D01*
X131680000Y-36995000D01*
X131640793Y-36993074D01*
X131601964Y-36987314D01*
X131563886Y-36977776D01*
X131526927Y-36964552D01*
X131491441Y-36947769D01*
X131457772Y-36927588D01*
X131426243Y-36904204D01*
X131397157Y-36877843D01*
X131370796Y-36848757D01*
X131347412Y-36817228D01*
X131327231Y-36783559D01*
X131310448Y-36748073D01*
X131297224Y-36711114D01*
X131287686Y-36673036D01*
X131281926Y-36634207D01*
X131280000Y-36595000D01*
X131280000Y-35795000D01*
X131281926Y-35755793D01*
X131287686Y-35716964D01*
X131297224Y-35678886D01*
X131310448Y-35641927D01*
X131327231Y-35606441D01*
X131347412Y-35572772D01*
X131370796Y-35541243D01*
X131397157Y-35512157D01*
X131426243Y-35485796D01*
X131457772Y-35462412D01*
X131491441Y-35442231D01*
X131526927Y-35425448D01*
X131563886Y-35412224D01*
X131601964Y-35402686D01*
X131640793Y-35396926D01*
X131680000Y-35395000D01*
X132480000Y-35395000D01*
X132519207Y-35396926D01*
X132519207Y-35396926D01*
G37*
D25*
X132080000Y-36195000D03*
G04 #@! TD*
D27*
G04 #@! TO.C,J20*
X129540000Y-33655000D03*
X127000000Y-33655000D03*
X129540000Y-36195000D03*
X127000000Y-36195000D03*
D28*
X129540000Y-38735000D03*
D27*
X127000000Y-38735000D03*
G04 #@! TD*
D24*
G04 #@! TO.C,J19*
G36*
X124899207Y-35396926D02*
X124938036Y-35402686D01*
X124976114Y-35412224D01*
X125013073Y-35425448D01*
X125048559Y-35442231D01*
X125082228Y-35462412D01*
X125113757Y-35485796D01*
X125142843Y-35512157D01*
X125169204Y-35541243D01*
X125192588Y-35572772D01*
X125212769Y-35606441D01*
X125229552Y-35641927D01*
X125242776Y-35678886D01*
X125252314Y-35716964D01*
X125258074Y-35755793D01*
X125260000Y-35795000D01*
X125260000Y-36595000D01*
X125258074Y-36634207D01*
X125252314Y-36673036D01*
X125242776Y-36711114D01*
X125229552Y-36748073D01*
X125212769Y-36783559D01*
X125192588Y-36817228D01*
X125169204Y-36848757D01*
X125142843Y-36877843D01*
X125113757Y-36904204D01*
X125082228Y-36927588D01*
X125048559Y-36947769D01*
X125013073Y-36964552D01*
X124976114Y-36977776D01*
X124938036Y-36987314D01*
X124899207Y-36993074D01*
X124860000Y-36995000D01*
X124060000Y-36995000D01*
X124020793Y-36993074D01*
X123981964Y-36987314D01*
X123943886Y-36977776D01*
X123906927Y-36964552D01*
X123871441Y-36947769D01*
X123837772Y-36927588D01*
X123806243Y-36904204D01*
X123777157Y-36877843D01*
X123750796Y-36848757D01*
X123727412Y-36817228D01*
X123707231Y-36783559D01*
X123690448Y-36748073D01*
X123677224Y-36711114D01*
X123667686Y-36673036D01*
X123661926Y-36634207D01*
X123660000Y-36595000D01*
X123660000Y-35795000D01*
X123661926Y-35755793D01*
X123667686Y-35716964D01*
X123677224Y-35678886D01*
X123690448Y-35641927D01*
X123707231Y-35606441D01*
X123727412Y-35572772D01*
X123750796Y-35541243D01*
X123777157Y-35512157D01*
X123806243Y-35485796D01*
X123837772Y-35462412D01*
X123871441Y-35442231D01*
X123906927Y-35425448D01*
X123943886Y-35412224D01*
X123981964Y-35402686D01*
X124020793Y-35396926D01*
X124060000Y-35395000D01*
X124860000Y-35395000D01*
X124899207Y-35396926D01*
X124899207Y-35396926D01*
G37*
D25*
X124460000Y-36195000D03*
G04 #@! TD*
D24*
G04 #@! TO.C,J18*
G36*
X132519207Y-32856926D02*
X132558036Y-32862686D01*
X132596114Y-32872224D01*
X132633073Y-32885448D01*
X132668559Y-32902231D01*
X132702228Y-32922412D01*
X132733757Y-32945796D01*
X132762843Y-32972157D01*
X132789204Y-33001243D01*
X132812588Y-33032772D01*
X132832769Y-33066441D01*
X132849552Y-33101927D01*
X132862776Y-33138886D01*
X132872314Y-33176964D01*
X132878074Y-33215793D01*
X132880000Y-33255000D01*
X132880000Y-34055000D01*
X132878074Y-34094207D01*
X132872314Y-34133036D01*
X132862776Y-34171114D01*
X132849552Y-34208073D01*
X132832769Y-34243559D01*
X132812588Y-34277228D01*
X132789204Y-34308757D01*
X132762843Y-34337843D01*
X132733757Y-34364204D01*
X132702228Y-34387588D01*
X132668559Y-34407769D01*
X132633073Y-34424552D01*
X132596114Y-34437776D01*
X132558036Y-34447314D01*
X132519207Y-34453074D01*
X132480000Y-34455000D01*
X131680000Y-34455000D01*
X131640793Y-34453074D01*
X131601964Y-34447314D01*
X131563886Y-34437776D01*
X131526927Y-34424552D01*
X131491441Y-34407769D01*
X131457772Y-34387588D01*
X131426243Y-34364204D01*
X131397157Y-34337843D01*
X131370796Y-34308757D01*
X131347412Y-34277228D01*
X131327231Y-34243559D01*
X131310448Y-34208073D01*
X131297224Y-34171114D01*
X131287686Y-34133036D01*
X131281926Y-34094207D01*
X131280000Y-34055000D01*
X131280000Y-33255000D01*
X131281926Y-33215793D01*
X131287686Y-33176964D01*
X131297224Y-33138886D01*
X131310448Y-33101927D01*
X131327231Y-33066441D01*
X131347412Y-33032772D01*
X131370796Y-33001243D01*
X131397157Y-32972157D01*
X131426243Y-32945796D01*
X131457772Y-32922412D01*
X131491441Y-32902231D01*
X131526927Y-32885448D01*
X131563886Y-32872224D01*
X131601964Y-32862686D01*
X131640793Y-32856926D01*
X131680000Y-32855000D01*
X132480000Y-32855000D01*
X132519207Y-32856926D01*
X132519207Y-32856926D01*
G37*
D25*
X132080000Y-33655000D03*
G04 #@! TD*
D24*
G04 #@! TO.C,J17*
G36*
X124899207Y-32856926D02*
X124938036Y-32862686D01*
X124976114Y-32872224D01*
X125013073Y-32885448D01*
X125048559Y-32902231D01*
X125082228Y-32922412D01*
X125113757Y-32945796D01*
X125142843Y-32972157D01*
X125169204Y-33001243D01*
X125192588Y-33032772D01*
X125212769Y-33066441D01*
X125229552Y-33101927D01*
X125242776Y-33138886D01*
X125252314Y-33176964D01*
X125258074Y-33215793D01*
X125260000Y-33255000D01*
X125260000Y-34055000D01*
X125258074Y-34094207D01*
X125252314Y-34133036D01*
X125242776Y-34171114D01*
X125229552Y-34208073D01*
X125212769Y-34243559D01*
X125192588Y-34277228D01*
X125169204Y-34308757D01*
X125142843Y-34337843D01*
X125113757Y-34364204D01*
X125082228Y-34387588D01*
X125048559Y-34407769D01*
X125013073Y-34424552D01*
X124976114Y-34437776D01*
X124938036Y-34447314D01*
X124899207Y-34453074D01*
X124860000Y-34455000D01*
X124060000Y-34455000D01*
X124020793Y-34453074D01*
X123981964Y-34447314D01*
X123943886Y-34437776D01*
X123906927Y-34424552D01*
X123871441Y-34407769D01*
X123837772Y-34387588D01*
X123806243Y-34364204D01*
X123777157Y-34337843D01*
X123750796Y-34308757D01*
X123727412Y-34277228D01*
X123707231Y-34243559D01*
X123690448Y-34208073D01*
X123677224Y-34171114D01*
X123667686Y-34133036D01*
X123661926Y-34094207D01*
X123660000Y-34055000D01*
X123660000Y-33255000D01*
X123661926Y-33215793D01*
X123667686Y-33176964D01*
X123677224Y-33138886D01*
X123690448Y-33101927D01*
X123707231Y-33066441D01*
X123727412Y-33032772D01*
X123750796Y-33001243D01*
X123777157Y-32972157D01*
X123806243Y-32945796D01*
X123837772Y-32922412D01*
X123871441Y-32902231D01*
X123906927Y-32885448D01*
X123943886Y-32872224D01*
X123981964Y-32862686D01*
X124020793Y-32856926D01*
X124060000Y-32855000D01*
X124860000Y-32855000D01*
X124899207Y-32856926D01*
X124899207Y-32856926D01*
G37*
D25*
X124460000Y-33655000D03*
G04 #@! TD*
D24*
G04 #@! TO.C,TP3*
G36*
X146489207Y-3011926D02*
X146528036Y-3017686D01*
X146566114Y-3027224D01*
X146603073Y-3040448D01*
X146638559Y-3057231D01*
X146672228Y-3077412D01*
X146703757Y-3100796D01*
X146732843Y-3127157D01*
X146759204Y-3156243D01*
X146782588Y-3187772D01*
X146802769Y-3221441D01*
X146819552Y-3256927D01*
X146832776Y-3293886D01*
X146842314Y-3331964D01*
X146848074Y-3370793D01*
X146850000Y-3410000D01*
X146850000Y-4210000D01*
X146848074Y-4249207D01*
X146842314Y-4288036D01*
X146832776Y-4326114D01*
X146819552Y-4363073D01*
X146802769Y-4398559D01*
X146782588Y-4432228D01*
X146759204Y-4463757D01*
X146732843Y-4492843D01*
X146703757Y-4519204D01*
X146672228Y-4542588D01*
X146638559Y-4562769D01*
X146603073Y-4579552D01*
X146566114Y-4592776D01*
X146528036Y-4602314D01*
X146489207Y-4608074D01*
X146450000Y-4610000D01*
X145650000Y-4610000D01*
X145610793Y-4608074D01*
X145571964Y-4602314D01*
X145533886Y-4592776D01*
X145496927Y-4579552D01*
X145461441Y-4562769D01*
X145427772Y-4542588D01*
X145396243Y-4519204D01*
X145367157Y-4492843D01*
X145340796Y-4463757D01*
X145317412Y-4432228D01*
X145297231Y-4398559D01*
X145280448Y-4363073D01*
X145267224Y-4326114D01*
X145257686Y-4288036D01*
X145251926Y-4249207D01*
X145250000Y-4210000D01*
X145250000Y-3410000D01*
X145251926Y-3370793D01*
X145257686Y-3331964D01*
X145267224Y-3293886D01*
X145280448Y-3256927D01*
X145297231Y-3221441D01*
X145317412Y-3187772D01*
X145340796Y-3156243D01*
X145367157Y-3127157D01*
X145396243Y-3100796D01*
X145427772Y-3077412D01*
X145461441Y-3057231D01*
X145496927Y-3040448D01*
X145533886Y-3027224D01*
X145571964Y-3017686D01*
X145610793Y-3011926D01*
X145650000Y-3010000D01*
X146450000Y-3010000D01*
X146489207Y-3011926D01*
X146489207Y-3011926D01*
G37*
D25*
X146050000Y-3810000D03*
G04 #@! TD*
D24*
G04 #@! TO.C,TP2*
G36*
X143949207Y-3011926D02*
X143988036Y-3017686D01*
X144026114Y-3027224D01*
X144063073Y-3040448D01*
X144098559Y-3057231D01*
X144132228Y-3077412D01*
X144163757Y-3100796D01*
X144192843Y-3127157D01*
X144219204Y-3156243D01*
X144242588Y-3187772D01*
X144262769Y-3221441D01*
X144279552Y-3256927D01*
X144292776Y-3293886D01*
X144302314Y-3331964D01*
X144308074Y-3370793D01*
X144310000Y-3410000D01*
X144310000Y-4210000D01*
X144308074Y-4249207D01*
X144302314Y-4288036D01*
X144292776Y-4326114D01*
X144279552Y-4363073D01*
X144262769Y-4398559D01*
X144242588Y-4432228D01*
X144219204Y-4463757D01*
X144192843Y-4492843D01*
X144163757Y-4519204D01*
X144132228Y-4542588D01*
X144098559Y-4562769D01*
X144063073Y-4579552D01*
X144026114Y-4592776D01*
X143988036Y-4602314D01*
X143949207Y-4608074D01*
X143910000Y-4610000D01*
X143110000Y-4610000D01*
X143070793Y-4608074D01*
X143031964Y-4602314D01*
X142993886Y-4592776D01*
X142956927Y-4579552D01*
X142921441Y-4562769D01*
X142887772Y-4542588D01*
X142856243Y-4519204D01*
X142827157Y-4492843D01*
X142800796Y-4463757D01*
X142777412Y-4432228D01*
X142757231Y-4398559D01*
X142740448Y-4363073D01*
X142727224Y-4326114D01*
X142717686Y-4288036D01*
X142711926Y-4249207D01*
X142710000Y-4210000D01*
X142710000Y-3410000D01*
X142711926Y-3370793D01*
X142717686Y-3331964D01*
X142727224Y-3293886D01*
X142740448Y-3256927D01*
X142757231Y-3221441D01*
X142777412Y-3187772D01*
X142800796Y-3156243D01*
X142827157Y-3127157D01*
X142856243Y-3100796D01*
X142887772Y-3077412D01*
X142921441Y-3057231D01*
X142956927Y-3040448D01*
X142993886Y-3027224D01*
X143031964Y-3017686D01*
X143070793Y-3011926D01*
X143110000Y-3010000D01*
X143910000Y-3010000D01*
X143949207Y-3011926D01*
X143949207Y-3011926D01*
G37*
D25*
X143510000Y-3810000D03*
G04 #@! TD*
D29*
G04 #@! TO.C,J25*
X13970000Y-37465000D03*
X16510000Y-37465000D03*
X19050000Y-37465000D03*
X21590000Y-37465000D03*
G04 #@! TD*
G04 #@! TO.C,J24*
X140970000Y-37465000D03*
X143510000Y-37465000D03*
X146050000Y-37465000D03*
X148590000Y-37465000D03*
G04 #@! TD*
D26*
G04 #@! TO.C,J2*
X55880000Y-38100000D03*
G04 #@! TD*
G04 #@! TO.C,J1*
X45720000Y-38100000D03*
G04 #@! TD*
D30*
G04 #@! TO.C,U129*
X108585000Y-27315000D03*
X103505000Y-27315000D03*
X104775000Y-27315000D03*
X106045000Y-27315000D03*
X107315000Y-27315000D03*
X109855000Y-27315000D03*
X111125000Y-27315000D03*
X112395000Y-27315000D03*
X113665000Y-27315000D03*
X114935000Y-27315000D03*
D31*
X97720000Y-9355000D03*
X97720000Y-20785000D03*
X97720000Y-11895000D03*
X97720000Y-14435000D03*
X97720000Y-15705000D03*
X97720000Y-22055000D03*
X97720000Y-23325000D03*
X97720000Y-13165000D03*
X97720000Y-19515000D03*
X97720000Y-6815000D03*
X97720000Y-10625000D03*
X97720000Y-18245000D03*
X97720000Y-16975000D03*
X97720000Y-8085000D03*
X120720000Y-23325000D03*
X120720000Y-22055000D03*
X120720000Y-20785000D03*
X120720000Y-19515000D03*
X120720000Y-18245000D03*
X120720000Y-16975000D03*
X120720000Y-15705000D03*
X120720000Y-14435000D03*
X120720000Y-13165000D03*
X120720000Y-11895000D03*
X120720000Y-10625000D03*
X120720000Y-9355000D03*
X120720000Y-8085000D03*
X120720000Y-6815000D03*
G04 #@! TD*
D22*
G04 #@! TO.C,HB49*
X5080000Y-189865000D03*
D21*
X7480000Y-189865000D03*
X6777056Y-191562056D03*
X5080000Y-192265000D03*
X3382944Y-191562056D03*
X2680000Y-189865000D03*
X3382944Y-188167944D03*
X5080000Y-187465000D03*
X6777056Y-188167944D03*
G04 #@! TD*
D22*
G04 #@! TO.C,HB50*
X157480000Y-189865000D03*
D21*
X159880000Y-189865000D03*
X159177056Y-191562056D03*
X157480000Y-192265000D03*
X155782944Y-191562056D03*
X155080000Y-189865000D03*
X155782944Y-188167944D03*
X157480000Y-187465000D03*
X159177056Y-188167944D03*
G04 #@! TD*
D22*
G04 #@! TO.C,HB51*
X45720000Y-99060000D03*
D21*
X48120000Y-99060000D03*
X47417056Y-100757056D03*
X45720000Y-101460000D03*
X44022944Y-100757056D03*
X43320000Y-99060000D03*
X44022944Y-97362944D03*
X45720000Y-96660000D03*
X47417056Y-97362944D03*
G04 #@! TD*
D22*
G04 #@! TO.C,HB52*
X116840000Y-99060000D03*
D21*
X119240000Y-99060000D03*
X118537056Y-100757056D03*
X116840000Y-101460000D03*
X115142944Y-100757056D03*
X114440000Y-99060000D03*
X115142944Y-97362944D03*
X116840000Y-96660000D03*
X118537056Y-97362944D03*
G04 #@! TD*
D22*
G04 #@! TO.C,HB53*
X116840000Y-170180000D03*
D21*
X119240000Y-170180000D03*
X118537056Y-171877056D03*
X116840000Y-172580000D03*
X115142944Y-171877056D03*
X114440000Y-170180000D03*
X115142944Y-168482944D03*
X116840000Y-167780000D03*
X118537056Y-168482944D03*
G04 #@! TD*
D22*
G04 #@! TO.C,HB54*
X45720000Y-170180000D03*
D21*
X48120000Y-170180000D03*
X47417056Y-171877056D03*
X45720000Y-172580000D03*
X44022944Y-171877056D03*
X43320000Y-170180000D03*
X44022944Y-168482944D03*
X45720000Y-167780000D03*
X47417056Y-168482944D03*
G04 #@! TD*
D26*
G04 #@! TO.C,J9*
X45720000Y-81280000D03*
G04 #@! TD*
G04 #@! TO.C,J10*
X55880000Y-81280000D03*
G04 #@! TD*
G04 #@! TO.C,J15*
X96520000Y-81280000D03*
G04 #@! TD*
G04 #@! TO.C,J16*
X86360000Y-81280000D03*
G04 #@! TD*
D32*
G04 #@! TO.C,BITE1*
X3810000Y-41529000D03*
X3810000Y-43561000D03*
X4826000Y-41529000D03*
X2794000Y-41529000D03*
X2794000Y-43561000D03*
X4826000Y-43561000D03*
G04 #@! TD*
G04 #@! TO.C,BITE2*
X158750000Y-41529000D03*
X158750000Y-43561000D03*
X159766000Y-41529000D03*
X157734000Y-41529000D03*
X157734000Y-43561000D03*
X159766000Y-43561000D03*
G04 #@! TD*
G04 #@! TO.C,BITE3*
X3175000Y-183769000D03*
X3175000Y-185801000D03*
X4191000Y-183769000D03*
X2159000Y-183769000D03*
X2159000Y-185801000D03*
X4191000Y-185801000D03*
G04 #@! TD*
G04 #@! TO.C,BITE4*
X45720000Y-183769000D03*
X45720000Y-185801000D03*
X46736000Y-183769000D03*
X44704000Y-183769000D03*
X44704000Y-185801000D03*
X46736000Y-185801000D03*
G04 #@! TD*
G04 #@! TO.C,BITE5*
X76200000Y-183769000D03*
X76200000Y-185801000D03*
X77216000Y-183769000D03*
X75184000Y-183769000D03*
X75184000Y-185801000D03*
X77216000Y-185801000D03*
G04 #@! TD*
G04 #@! TO.C,BITE6*
X86360000Y-183769000D03*
X86360000Y-185801000D03*
X87376000Y-183769000D03*
X85344000Y-183769000D03*
X85344000Y-185801000D03*
X87376000Y-185801000D03*
G04 #@! TD*
G04 #@! TO.C,BITE7*
X116840000Y-183769000D03*
X116840000Y-185801000D03*
X117856000Y-183769000D03*
X115824000Y-183769000D03*
X115824000Y-185801000D03*
X117856000Y-185801000D03*
G04 #@! TD*
G04 #@! TO.C,BITE8*
X159385000Y-183769000D03*
X159385000Y-185801000D03*
X160401000Y-183769000D03*
X158369000Y-183769000D03*
X158369000Y-185801000D03*
X160401000Y-185801000D03*
G04 #@! TD*
D33*
G04 #@! TO.C,P2*
X6350000Y-181610000D03*
D34*
X3810000Y-181610000D03*
G04 #@! TD*
D35*
G04 #@! TO.C,U127*
X13040000Y-177495000D03*
X17440000Y-177495000D03*
X17440000Y-175895000D03*
X13040000Y-175895000D03*
X13040000Y-174295000D03*
X17440000Y-174295000D03*
G04 #@! TD*
G04 #@! TO.C,U18*
X145120000Y-70815000D03*
X149520000Y-70815000D03*
X149520000Y-69215000D03*
X145120000Y-69215000D03*
X145120000Y-67615000D03*
X149520000Y-67615000D03*
G04 #@! TD*
G04 #@! TO.C,U1*
X7280000Y-49835000D03*
X2880000Y-49835000D03*
X2880000Y-51435000D03*
X7280000Y-51435000D03*
X7280000Y-53035000D03*
X2880000Y-53035000D03*
G04 #@! TD*
G04 #@! TO.C,U3*
X27600000Y-49835000D03*
X23200000Y-49835000D03*
X23200000Y-51435000D03*
X27600000Y-51435000D03*
X27600000Y-53035000D03*
X23200000Y-53035000D03*
G04 #@! TD*
G04 #@! TO.C,U4*
X37760000Y-49835000D03*
X33360000Y-49835000D03*
X33360000Y-51435000D03*
X37760000Y-51435000D03*
X37760000Y-53035000D03*
X33360000Y-53035000D03*
G04 #@! TD*
G04 #@! TO.C,U5*
X47920000Y-49835000D03*
X43520000Y-49835000D03*
X43520000Y-51435000D03*
X47920000Y-51435000D03*
X47920000Y-53035000D03*
X43520000Y-53035000D03*
G04 #@! TD*
G04 #@! TO.C,U6*
X58080000Y-49835000D03*
X53680000Y-49835000D03*
X53680000Y-51435000D03*
X58080000Y-51435000D03*
X58080000Y-53035000D03*
X53680000Y-53035000D03*
G04 #@! TD*
G04 #@! TO.C,U7*
X68240000Y-49835000D03*
X63840000Y-49835000D03*
X63840000Y-51435000D03*
X68240000Y-51435000D03*
X68240000Y-53035000D03*
X63840000Y-53035000D03*
G04 #@! TD*
G04 #@! TO.C,U8*
X78400000Y-49835000D03*
X74000000Y-49835000D03*
X74000000Y-51435000D03*
X78400000Y-51435000D03*
X78400000Y-53035000D03*
X74000000Y-53035000D03*
G04 #@! TD*
G04 #@! TO.C,U9*
X88560000Y-49835000D03*
X84160000Y-49835000D03*
X84160000Y-51435000D03*
X88560000Y-51435000D03*
X88560000Y-53035000D03*
X84160000Y-53035000D03*
G04 #@! TD*
G04 #@! TO.C,U10*
X98720000Y-49835000D03*
X94320000Y-49835000D03*
X94320000Y-51435000D03*
X98720000Y-51435000D03*
X98720000Y-53035000D03*
X94320000Y-53035000D03*
G04 #@! TD*
G04 #@! TO.C,U11*
X108880000Y-49835000D03*
X104480000Y-49835000D03*
X104480000Y-51435000D03*
X108880000Y-51435000D03*
X108880000Y-53035000D03*
X104480000Y-53035000D03*
G04 #@! TD*
G04 #@! TO.C,U12*
X119040000Y-49835000D03*
X114640000Y-49835000D03*
X114640000Y-51435000D03*
X119040000Y-51435000D03*
X119040000Y-53035000D03*
X114640000Y-53035000D03*
G04 #@! TD*
G04 #@! TO.C,U13*
X129200000Y-49835000D03*
X124800000Y-49835000D03*
X124800000Y-51435000D03*
X129200000Y-51435000D03*
X129200000Y-53035000D03*
X124800000Y-53035000D03*
G04 #@! TD*
G04 #@! TO.C,U14*
X139360000Y-49835000D03*
X134960000Y-49835000D03*
X134960000Y-51435000D03*
X139360000Y-51435000D03*
X139360000Y-53035000D03*
X134960000Y-53035000D03*
G04 #@! TD*
G04 #@! TO.C,U15*
X149520000Y-49835000D03*
X145120000Y-49835000D03*
X145120000Y-51435000D03*
X149520000Y-51435000D03*
X149520000Y-53035000D03*
X145120000Y-53035000D03*
G04 #@! TD*
G04 #@! TO.C,U16*
X159680000Y-49835000D03*
X155280000Y-49835000D03*
X155280000Y-51435000D03*
X159680000Y-51435000D03*
X159680000Y-53035000D03*
X155280000Y-53035000D03*
G04 #@! TD*
G04 #@! TO.C,U17*
X155280000Y-70815000D03*
X159680000Y-70815000D03*
X159680000Y-69215000D03*
X155280000Y-69215000D03*
X155280000Y-67615000D03*
X159680000Y-67615000D03*
G04 #@! TD*
G04 #@! TO.C,U19*
X134960000Y-70815000D03*
X139360000Y-70815000D03*
X139360000Y-69215000D03*
X134960000Y-69215000D03*
X134960000Y-67615000D03*
X139360000Y-67615000D03*
G04 #@! TD*
G04 #@! TO.C,U20*
X124800000Y-70815000D03*
X129200000Y-70815000D03*
X129200000Y-69215000D03*
X124800000Y-69215000D03*
X124800000Y-67615000D03*
X129200000Y-67615000D03*
G04 #@! TD*
G04 #@! TO.C,U21*
X114640000Y-70815000D03*
X119040000Y-70815000D03*
X119040000Y-69215000D03*
X114640000Y-69215000D03*
X114640000Y-67615000D03*
X119040000Y-67615000D03*
G04 #@! TD*
G04 #@! TO.C,U22*
X104480000Y-70815000D03*
X108880000Y-70815000D03*
X108880000Y-69215000D03*
X104480000Y-69215000D03*
X104480000Y-67615000D03*
X108880000Y-67615000D03*
G04 #@! TD*
G04 #@! TO.C,U23*
X94320000Y-70815000D03*
X98720000Y-70815000D03*
X98720000Y-69215000D03*
X94320000Y-69215000D03*
X94320000Y-67615000D03*
X98720000Y-67615000D03*
G04 #@! TD*
G04 #@! TO.C,U24*
X84160000Y-70815000D03*
X88560000Y-70815000D03*
X88560000Y-69215000D03*
X84160000Y-69215000D03*
X84160000Y-67615000D03*
X88560000Y-67615000D03*
G04 #@! TD*
G04 #@! TO.C,U25*
X74000000Y-70815000D03*
X78400000Y-70815000D03*
X78400000Y-69215000D03*
X74000000Y-69215000D03*
X74000000Y-67615000D03*
X78400000Y-67615000D03*
G04 #@! TD*
G04 #@! TO.C,U26*
X63840000Y-70815000D03*
X68240000Y-70815000D03*
X68240000Y-69215000D03*
X63840000Y-69215000D03*
X63840000Y-67615000D03*
X68240000Y-67615000D03*
G04 #@! TD*
G04 #@! TO.C,U27*
X53680000Y-70815000D03*
X58080000Y-70815000D03*
X58080000Y-69215000D03*
X53680000Y-69215000D03*
X53680000Y-67615000D03*
X58080000Y-67615000D03*
G04 #@! TD*
G04 #@! TO.C,U28*
X43520000Y-70815000D03*
X47920000Y-70815000D03*
X47920000Y-69215000D03*
X43520000Y-69215000D03*
X43520000Y-67615000D03*
X47920000Y-67615000D03*
G04 #@! TD*
G04 #@! TO.C,U29*
X33360000Y-70815000D03*
X37760000Y-70815000D03*
X37760000Y-69215000D03*
X33360000Y-69215000D03*
X33360000Y-67615000D03*
X37760000Y-67615000D03*
G04 #@! TD*
G04 #@! TO.C,U30*
X23200000Y-70815000D03*
X27600000Y-70815000D03*
X27600000Y-69215000D03*
X23200000Y-69215000D03*
X23200000Y-67615000D03*
X27600000Y-67615000D03*
G04 #@! TD*
G04 #@! TO.C,U31*
X13040000Y-70815000D03*
X17440000Y-70815000D03*
X17440000Y-69215000D03*
X13040000Y-69215000D03*
X13040000Y-67615000D03*
X17440000Y-67615000D03*
G04 #@! TD*
G04 #@! TO.C,U32*
X2880000Y-70815000D03*
X7280000Y-70815000D03*
X7280000Y-69215000D03*
X2880000Y-69215000D03*
X2880000Y-67615000D03*
X7280000Y-67615000D03*
G04 #@! TD*
G04 #@! TO.C,U33*
X7280000Y-85395000D03*
X2880000Y-85395000D03*
X2880000Y-86995000D03*
X7280000Y-86995000D03*
X7280000Y-88595000D03*
X2880000Y-88595000D03*
G04 #@! TD*
G04 #@! TO.C,U34*
X17440000Y-85395000D03*
X13040000Y-85395000D03*
X13040000Y-86995000D03*
X17440000Y-86995000D03*
X17440000Y-88595000D03*
X13040000Y-88595000D03*
G04 #@! TD*
G04 #@! TO.C,U35*
X27600000Y-85395000D03*
X23200000Y-85395000D03*
X23200000Y-86995000D03*
X27600000Y-86995000D03*
X27600000Y-88595000D03*
X23200000Y-88595000D03*
G04 #@! TD*
G04 #@! TO.C,U36*
X37760000Y-85395000D03*
X33360000Y-85395000D03*
X33360000Y-86995000D03*
X37760000Y-86995000D03*
X37760000Y-88595000D03*
X33360000Y-88595000D03*
G04 #@! TD*
G04 #@! TO.C,U37*
X47920000Y-85395000D03*
X43520000Y-85395000D03*
X43520000Y-86995000D03*
X47920000Y-86995000D03*
X47920000Y-88595000D03*
X43520000Y-88595000D03*
G04 #@! TD*
G04 #@! TO.C,U38*
X58080000Y-85395000D03*
X53680000Y-85395000D03*
X53680000Y-86995000D03*
X58080000Y-86995000D03*
X58080000Y-88595000D03*
X53680000Y-88595000D03*
G04 #@! TD*
G04 #@! TO.C,U39*
X68240000Y-85395000D03*
X63840000Y-85395000D03*
X63840000Y-86995000D03*
X68240000Y-86995000D03*
X68240000Y-88595000D03*
X63840000Y-88595000D03*
G04 #@! TD*
G04 #@! TO.C,U40*
X78400000Y-85395000D03*
X74000000Y-85395000D03*
X74000000Y-86995000D03*
X78400000Y-86995000D03*
X78400000Y-88595000D03*
X74000000Y-88595000D03*
G04 #@! TD*
G04 #@! TO.C,U41*
X88560000Y-85395000D03*
X84160000Y-85395000D03*
X84160000Y-86995000D03*
X88560000Y-86995000D03*
X88560000Y-88595000D03*
X84160000Y-88595000D03*
G04 #@! TD*
G04 #@! TO.C,U42*
X98720000Y-85395000D03*
X94320000Y-85395000D03*
X94320000Y-86995000D03*
X98720000Y-86995000D03*
X98720000Y-88595000D03*
X94320000Y-88595000D03*
G04 #@! TD*
G04 #@! TO.C,U43*
X108880000Y-85395000D03*
X104480000Y-85395000D03*
X104480000Y-86995000D03*
X108880000Y-86995000D03*
X108880000Y-88595000D03*
X104480000Y-88595000D03*
G04 #@! TD*
G04 #@! TO.C,U44*
X119040000Y-85395000D03*
X114640000Y-85395000D03*
X114640000Y-86995000D03*
X119040000Y-86995000D03*
X119040000Y-88595000D03*
X114640000Y-88595000D03*
G04 #@! TD*
G04 #@! TO.C,U45*
X129200000Y-85395000D03*
X124800000Y-85395000D03*
X124800000Y-86995000D03*
X129200000Y-86995000D03*
X129200000Y-88595000D03*
X124800000Y-88595000D03*
G04 #@! TD*
G04 #@! TO.C,U46*
X139360000Y-85395000D03*
X134960000Y-85395000D03*
X134960000Y-86995000D03*
X139360000Y-86995000D03*
X139360000Y-88595000D03*
X134960000Y-88595000D03*
G04 #@! TD*
G04 #@! TO.C,U47*
X149520000Y-85395000D03*
X145120000Y-85395000D03*
X145120000Y-86995000D03*
X149520000Y-86995000D03*
X149520000Y-88595000D03*
X145120000Y-88595000D03*
G04 #@! TD*
G04 #@! TO.C,U48*
X159680000Y-85395000D03*
X155280000Y-85395000D03*
X155280000Y-86995000D03*
X159680000Y-86995000D03*
X159680000Y-88595000D03*
X155280000Y-88595000D03*
G04 #@! TD*
G04 #@! TO.C,U49*
X155280000Y-106375000D03*
X159680000Y-106375000D03*
X159680000Y-104775000D03*
X155280000Y-104775000D03*
X155280000Y-103175000D03*
X159680000Y-103175000D03*
G04 #@! TD*
G04 #@! TO.C,U50*
X145120000Y-106375000D03*
X149520000Y-106375000D03*
X149520000Y-104775000D03*
X145120000Y-104775000D03*
X145120000Y-103175000D03*
X149520000Y-103175000D03*
G04 #@! TD*
G04 #@! TO.C,U51*
X134960000Y-106375000D03*
X139360000Y-106375000D03*
X139360000Y-104775000D03*
X134960000Y-104775000D03*
X134960000Y-103175000D03*
X139360000Y-103175000D03*
G04 #@! TD*
G04 #@! TO.C,U52*
X124800000Y-106375000D03*
X129200000Y-106375000D03*
X129200000Y-104775000D03*
X124800000Y-104775000D03*
X124800000Y-103175000D03*
X129200000Y-103175000D03*
G04 #@! TD*
G04 #@! TO.C,U53*
X114640000Y-106375000D03*
X119040000Y-106375000D03*
X119040000Y-104775000D03*
X114640000Y-104775000D03*
X114640000Y-103175000D03*
X119040000Y-103175000D03*
G04 #@! TD*
G04 #@! TO.C,U54*
X104480000Y-106375000D03*
X108880000Y-106375000D03*
X108880000Y-104775000D03*
X104480000Y-104775000D03*
X104480000Y-103175000D03*
X108880000Y-103175000D03*
G04 #@! TD*
G04 #@! TO.C,U55*
X94320000Y-106375000D03*
X98720000Y-106375000D03*
X98720000Y-104775000D03*
X94320000Y-104775000D03*
X94320000Y-103175000D03*
X98720000Y-103175000D03*
G04 #@! TD*
G04 #@! TO.C,U56*
X84160000Y-106375000D03*
X88560000Y-106375000D03*
X88560000Y-104775000D03*
X84160000Y-104775000D03*
X84160000Y-103175000D03*
X88560000Y-103175000D03*
G04 #@! TD*
G04 #@! TO.C,U57*
X74000000Y-106375000D03*
X78400000Y-106375000D03*
X78400000Y-104775000D03*
X74000000Y-104775000D03*
X74000000Y-103175000D03*
X78400000Y-103175000D03*
G04 #@! TD*
G04 #@! TO.C,U58*
X63840000Y-106375000D03*
X68240000Y-106375000D03*
X68240000Y-104775000D03*
X63840000Y-104775000D03*
X63840000Y-103175000D03*
X68240000Y-103175000D03*
G04 #@! TD*
G04 #@! TO.C,U59*
X53680000Y-106375000D03*
X58080000Y-106375000D03*
X58080000Y-104775000D03*
X53680000Y-104775000D03*
X53680000Y-103175000D03*
X58080000Y-103175000D03*
G04 #@! TD*
G04 #@! TO.C,U60*
X43520000Y-106375000D03*
X47920000Y-106375000D03*
X47920000Y-104775000D03*
X43520000Y-104775000D03*
X43520000Y-103175000D03*
X47920000Y-103175000D03*
G04 #@! TD*
G04 #@! TO.C,U61*
X33360000Y-106375000D03*
X37760000Y-106375000D03*
X37760000Y-104775000D03*
X33360000Y-104775000D03*
X33360000Y-103175000D03*
X37760000Y-103175000D03*
G04 #@! TD*
G04 #@! TO.C,U62*
X23200000Y-106375000D03*
X27600000Y-106375000D03*
X27600000Y-104775000D03*
X23200000Y-104775000D03*
X23200000Y-103175000D03*
X27600000Y-103175000D03*
G04 #@! TD*
G04 #@! TO.C,U63*
X13040000Y-106375000D03*
X17440000Y-106375000D03*
X17440000Y-104775000D03*
X13040000Y-104775000D03*
X13040000Y-103175000D03*
X17440000Y-103175000D03*
G04 #@! TD*
G04 #@! TO.C,U64*
X2880000Y-106375000D03*
X7280000Y-106375000D03*
X7280000Y-104775000D03*
X2880000Y-104775000D03*
X2880000Y-103175000D03*
X7280000Y-103175000D03*
G04 #@! TD*
G04 #@! TO.C,U65*
X7280000Y-120955000D03*
X2880000Y-120955000D03*
X2880000Y-122555000D03*
X7280000Y-122555000D03*
X7280000Y-124155000D03*
X2880000Y-124155000D03*
G04 #@! TD*
G04 #@! TO.C,U66*
X17440000Y-120955000D03*
X13040000Y-120955000D03*
X13040000Y-122555000D03*
X17440000Y-122555000D03*
X17440000Y-124155000D03*
X13040000Y-124155000D03*
G04 #@! TD*
G04 #@! TO.C,U67*
X27600000Y-120955000D03*
X23200000Y-120955000D03*
X23200000Y-122555000D03*
X27600000Y-122555000D03*
X27600000Y-124155000D03*
X23200000Y-124155000D03*
G04 #@! TD*
G04 #@! TO.C,U68*
X37760000Y-120955000D03*
X33360000Y-120955000D03*
X33360000Y-122555000D03*
X37760000Y-122555000D03*
X37760000Y-124155000D03*
X33360000Y-124155000D03*
G04 #@! TD*
G04 #@! TO.C,U69*
X47920000Y-120955000D03*
X43520000Y-120955000D03*
X43520000Y-122555000D03*
X47920000Y-122555000D03*
X47920000Y-124155000D03*
X43520000Y-124155000D03*
G04 #@! TD*
G04 #@! TO.C,U70*
X58080000Y-120955000D03*
X53680000Y-120955000D03*
X53680000Y-122555000D03*
X58080000Y-122555000D03*
X58080000Y-124155000D03*
X53680000Y-124155000D03*
G04 #@! TD*
G04 #@! TO.C,U71*
X68240000Y-120955000D03*
X63840000Y-120955000D03*
X63840000Y-122555000D03*
X68240000Y-122555000D03*
X68240000Y-124155000D03*
X63840000Y-124155000D03*
G04 #@! TD*
G04 #@! TO.C,U72*
X78400000Y-120955000D03*
X74000000Y-120955000D03*
X74000000Y-122555000D03*
X78400000Y-122555000D03*
X78400000Y-124155000D03*
X74000000Y-124155000D03*
G04 #@! TD*
G04 #@! TO.C,U73*
X88560000Y-120955000D03*
X84160000Y-120955000D03*
X84160000Y-122555000D03*
X88560000Y-122555000D03*
X88560000Y-124155000D03*
X84160000Y-124155000D03*
G04 #@! TD*
G04 #@! TO.C,U74*
X98720000Y-120955000D03*
X94320000Y-120955000D03*
X94320000Y-122555000D03*
X98720000Y-122555000D03*
X98720000Y-124155000D03*
X94320000Y-124155000D03*
G04 #@! TD*
G04 #@! TO.C,U75*
X108880000Y-120955000D03*
X104480000Y-120955000D03*
X104480000Y-122555000D03*
X108880000Y-122555000D03*
X108880000Y-124155000D03*
X104480000Y-124155000D03*
G04 #@! TD*
G04 #@! TO.C,U76*
X119040000Y-120955000D03*
X114640000Y-120955000D03*
X114640000Y-122555000D03*
X119040000Y-122555000D03*
X119040000Y-124155000D03*
X114640000Y-124155000D03*
G04 #@! TD*
G04 #@! TO.C,U77*
X129200000Y-120955000D03*
X124800000Y-120955000D03*
X124800000Y-122555000D03*
X129200000Y-122555000D03*
X129200000Y-124155000D03*
X124800000Y-124155000D03*
G04 #@! TD*
G04 #@! TO.C,U78*
X139360000Y-120955000D03*
X134960000Y-120955000D03*
X134960000Y-122555000D03*
X139360000Y-122555000D03*
X139360000Y-124155000D03*
X134960000Y-124155000D03*
G04 #@! TD*
G04 #@! TO.C,U79*
X149520000Y-120955000D03*
X145120000Y-120955000D03*
X145120000Y-122555000D03*
X149520000Y-122555000D03*
X149520000Y-124155000D03*
X145120000Y-124155000D03*
G04 #@! TD*
G04 #@! TO.C,U80*
X159680000Y-120955000D03*
X155280000Y-120955000D03*
X155280000Y-122555000D03*
X159680000Y-122555000D03*
X159680000Y-124155000D03*
X155280000Y-124155000D03*
G04 #@! TD*
G04 #@! TO.C,U81*
X155280000Y-141935000D03*
X159680000Y-141935000D03*
X159680000Y-140335000D03*
X155280000Y-140335000D03*
X155280000Y-138735000D03*
X159680000Y-138735000D03*
G04 #@! TD*
G04 #@! TO.C,U82*
X145120000Y-141935000D03*
X149520000Y-141935000D03*
X149520000Y-140335000D03*
X145120000Y-140335000D03*
X145120000Y-138735000D03*
X149520000Y-138735000D03*
G04 #@! TD*
G04 #@! TO.C,U83*
X134960000Y-141935000D03*
X139360000Y-141935000D03*
X139360000Y-140335000D03*
X134960000Y-140335000D03*
X134960000Y-138735000D03*
X139360000Y-138735000D03*
G04 #@! TD*
G04 #@! TO.C,U84*
X124800000Y-141935000D03*
X129200000Y-141935000D03*
X129200000Y-140335000D03*
X124800000Y-140335000D03*
X124800000Y-138735000D03*
X129200000Y-138735000D03*
G04 #@! TD*
G04 #@! TO.C,U85*
X114640000Y-141935000D03*
X119040000Y-141935000D03*
X119040000Y-140335000D03*
X114640000Y-140335000D03*
X114640000Y-138735000D03*
X119040000Y-138735000D03*
G04 #@! TD*
G04 #@! TO.C,U86*
X104480000Y-141935000D03*
X108880000Y-141935000D03*
X108880000Y-140335000D03*
X104480000Y-140335000D03*
X104480000Y-138735000D03*
X108880000Y-138735000D03*
G04 #@! TD*
G04 #@! TO.C,U87*
X94320000Y-141935000D03*
X98720000Y-141935000D03*
X98720000Y-140335000D03*
X94320000Y-140335000D03*
X94320000Y-138735000D03*
X98720000Y-138735000D03*
G04 #@! TD*
G04 #@! TO.C,U88*
X84160000Y-141935000D03*
X88560000Y-141935000D03*
X88560000Y-140335000D03*
X84160000Y-140335000D03*
X84160000Y-138735000D03*
X88560000Y-138735000D03*
G04 #@! TD*
G04 #@! TO.C,U89*
X74000000Y-141935000D03*
X78400000Y-141935000D03*
X78400000Y-140335000D03*
X74000000Y-140335000D03*
X74000000Y-138735000D03*
X78400000Y-138735000D03*
G04 #@! TD*
G04 #@! TO.C,U90*
X63840000Y-141935000D03*
X68240000Y-141935000D03*
X68240000Y-140335000D03*
X63840000Y-140335000D03*
X63840000Y-138735000D03*
X68240000Y-138735000D03*
G04 #@! TD*
G04 #@! TO.C,U91*
X53680000Y-141935000D03*
X58080000Y-141935000D03*
X58080000Y-140335000D03*
X53680000Y-140335000D03*
X53680000Y-138735000D03*
X58080000Y-138735000D03*
G04 #@! TD*
G04 #@! TO.C,U92*
X43520000Y-141935000D03*
X47920000Y-141935000D03*
X47920000Y-140335000D03*
X43520000Y-140335000D03*
X43520000Y-138735000D03*
X47920000Y-138735000D03*
G04 #@! TD*
G04 #@! TO.C,U93*
X33360000Y-141935000D03*
X37760000Y-141935000D03*
X37760000Y-140335000D03*
X33360000Y-140335000D03*
X33360000Y-138735000D03*
X37760000Y-138735000D03*
G04 #@! TD*
G04 #@! TO.C,U94*
X23200000Y-141935000D03*
X27600000Y-141935000D03*
X27600000Y-140335000D03*
X23200000Y-140335000D03*
X23200000Y-138735000D03*
X27600000Y-138735000D03*
G04 #@! TD*
G04 #@! TO.C,U95*
X13040000Y-141935000D03*
X17440000Y-141935000D03*
X17440000Y-140335000D03*
X13040000Y-140335000D03*
X13040000Y-138735000D03*
X17440000Y-138735000D03*
G04 #@! TD*
G04 #@! TO.C,U96*
X2880000Y-141935000D03*
X7280000Y-141935000D03*
X7280000Y-140335000D03*
X2880000Y-140335000D03*
X2880000Y-138735000D03*
X7280000Y-138735000D03*
G04 #@! TD*
G04 #@! TO.C,U97*
X7280000Y-156515000D03*
X2880000Y-156515000D03*
X2880000Y-158115000D03*
X7280000Y-158115000D03*
X7280000Y-159715000D03*
X2880000Y-159715000D03*
G04 #@! TD*
G04 #@! TO.C,U98*
X17440000Y-156515000D03*
X13040000Y-156515000D03*
X13040000Y-158115000D03*
X17440000Y-158115000D03*
X17440000Y-159715000D03*
X13040000Y-159715000D03*
G04 #@! TD*
G04 #@! TO.C,U99*
X27600000Y-156515000D03*
X23200000Y-156515000D03*
X23200000Y-158115000D03*
X27600000Y-158115000D03*
X27600000Y-159715000D03*
X23200000Y-159715000D03*
G04 #@! TD*
G04 #@! TO.C,U100*
X37760000Y-156515000D03*
X33360000Y-156515000D03*
X33360000Y-158115000D03*
X37760000Y-158115000D03*
X37760000Y-159715000D03*
X33360000Y-159715000D03*
G04 #@! TD*
G04 #@! TO.C,U101*
X47920000Y-156515000D03*
X43520000Y-156515000D03*
X43520000Y-158115000D03*
X47920000Y-158115000D03*
X47920000Y-159715000D03*
X43520000Y-159715000D03*
G04 #@! TD*
G04 #@! TO.C,U102*
X58080000Y-156515000D03*
X53680000Y-156515000D03*
X53680000Y-158115000D03*
X58080000Y-158115000D03*
X58080000Y-159715000D03*
X53680000Y-159715000D03*
G04 #@! TD*
G04 #@! TO.C,U103*
X68240000Y-156515000D03*
X63840000Y-156515000D03*
X63840000Y-158115000D03*
X68240000Y-158115000D03*
X68240000Y-159715000D03*
X63840000Y-159715000D03*
G04 #@! TD*
G04 #@! TO.C,U104*
X78400000Y-156515000D03*
X74000000Y-156515000D03*
X74000000Y-158115000D03*
X78400000Y-158115000D03*
X78400000Y-159715000D03*
X74000000Y-159715000D03*
G04 #@! TD*
G04 #@! TO.C,U105*
X88560000Y-156515000D03*
X84160000Y-156515000D03*
X84160000Y-158115000D03*
X88560000Y-158115000D03*
X88560000Y-159715000D03*
X84160000Y-159715000D03*
G04 #@! TD*
G04 #@! TO.C,U106*
X98720000Y-156515000D03*
X94320000Y-156515000D03*
X94320000Y-158115000D03*
X98720000Y-158115000D03*
X98720000Y-159715000D03*
X94320000Y-159715000D03*
G04 #@! TD*
G04 #@! TO.C,U107*
X108880000Y-156515000D03*
X104480000Y-156515000D03*
X104480000Y-158115000D03*
X108880000Y-158115000D03*
X108880000Y-159715000D03*
X104480000Y-159715000D03*
G04 #@! TD*
G04 #@! TO.C,U108*
X119040000Y-156515000D03*
X114640000Y-156515000D03*
X114640000Y-158115000D03*
X119040000Y-158115000D03*
X119040000Y-159715000D03*
X114640000Y-159715000D03*
G04 #@! TD*
G04 #@! TO.C,U109*
X129200000Y-156515000D03*
X124800000Y-156515000D03*
X124800000Y-158115000D03*
X129200000Y-158115000D03*
X129200000Y-159715000D03*
X124800000Y-159715000D03*
G04 #@! TD*
G04 #@! TO.C,U110*
X139360000Y-156515000D03*
X134960000Y-156515000D03*
X134960000Y-158115000D03*
X139360000Y-158115000D03*
X139360000Y-159715000D03*
X134960000Y-159715000D03*
G04 #@! TD*
G04 #@! TO.C,U111*
X149520000Y-156515000D03*
X145120000Y-156515000D03*
X145120000Y-158115000D03*
X149520000Y-158115000D03*
X149520000Y-159715000D03*
X145120000Y-159715000D03*
G04 #@! TD*
G04 #@! TO.C,U112*
X159680000Y-156515000D03*
X155280000Y-156515000D03*
X155280000Y-158115000D03*
X159680000Y-158115000D03*
X159680000Y-159715000D03*
X155280000Y-159715000D03*
G04 #@! TD*
G04 #@! TO.C,U113*
X155280000Y-177495000D03*
X159680000Y-177495000D03*
X159680000Y-175895000D03*
X155280000Y-175895000D03*
X155280000Y-174295000D03*
X159680000Y-174295000D03*
G04 #@! TD*
G04 #@! TO.C,U114*
X145120000Y-177495000D03*
X149520000Y-177495000D03*
X149520000Y-175895000D03*
X145120000Y-175895000D03*
X145120000Y-174295000D03*
X149520000Y-174295000D03*
G04 #@! TD*
G04 #@! TO.C,U115*
X134960000Y-177495000D03*
X139360000Y-177495000D03*
X139360000Y-175895000D03*
X134960000Y-175895000D03*
X134960000Y-174295000D03*
X139360000Y-174295000D03*
G04 #@! TD*
G04 #@! TO.C,U116*
X124800000Y-177495000D03*
X129200000Y-177495000D03*
X129200000Y-175895000D03*
X124800000Y-175895000D03*
X124800000Y-174295000D03*
X129200000Y-174295000D03*
G04 #@! TD*
G04 #@! TO.C,U117*
X114640000Y-177495000D03*
X119040000Y-177495000D03*
X119040000Y-175895000D03*
X114640000Y-175895000D03*
X114640000Y-174295000D03*
X119040000Y-174295000D03*
G04 #@! TD*
G04 #@! TO.C,U118*
X104480000Y-177495000D03*
X108880000Y-177495000D03*
X108880000Y-175895000D03*
X104480000Y-175895000D03*
X104480000Y-174295000D03*
X108880000Y-174295000D03*
G04 #@! TD*
G04 #@! TO.C,U119*
X94320000Y-177495000D03*
X98720000Y-177495000D03*
X98720000Y-175895000D03*
X94320000Y-175895000D03*
X94320000Y-174295000D03*
X98720000Y-174295000D03*
G04 #@! TD*
G04 #@! TO.C,U120*
X84160000Y-177495000D03*
X88560000Y-177495000D03*
X88560000Y-175895000D03*
X84160000Y-175895000D03*
X84160000Y-174295000D03*
X88560000Y-174295000D03*
G04 #@! TD*
G04 #@! TO.C,U121*
X74000000Y-177495000D03*
X78400000Y-177495000D03*
X78400000Y-175895000D03*
X74000000Y-175895000D03*
X74000000Y-174295000D03*
X78400000Y-174295000D03*
G04 #@! TD*
G04 #@! TO.C,U122*
X63840000Y-177495000D03*
X68240000Y-177495000D03*
X68240000Y-175895000D03*
X63840000Y-175895000D03*
X63840000Y-174295000D03*
X68240000Y-174295000D03*
G04 #@! TD*
G04 #@! TO.C,U123*
X53680000Y-177495000D03*
X58080000Y-177495000D03*
X58080000Y-175895000D03*
X53680000Y-175895000D03*
X53680000Y-174295000D03*
X58080000Y-174295000D03*
G04 #@! TD*
G04 #@! TO.C,U124*
X43520000Y-177495000D03*
X47920000Y-177495000D03*
X47920000Y-175895000D03*
X43520000Y-175895000D03*
X43520000Y-174295000D03*
X47920000Y-174295000D03*
G04 #@! TD*
G04 #@! TO.C,U125*
X33360000Y-177495000D03*
X37760000Y-177495000D03*
X37760000Y-175895000D03*
X33360000Y-175895000D03*
X33360000Y-174295000D03*
X37760000Y-174295000D03*
G04 #@! TD*
G04 #@! TO.C,U126*
X23200000Y-177495000D03*
X27600000Y-177495000D03*
X27600000Y-175895000D03*
X23200000Y-175895000D03*
X23200000Y-174295000D03*
X27600000Y-174295000D03*
G04 #@! TD*
G04 #@! TO.C,U128*
X2880000Y-177495000D03*
X7280000Y-177495000D03*
X7280000Y-175895000D03*
X2880000Y-175895000D03*
X2880000Y-174295000D03*
X7280000Y-174295000D03*
G04 #@! TD*
G04 #@! TO.C,U2*
X17440000Y-49835000D03*
X13040000Y-49835000D03*
X13040000Y-51435000D03*
X17440000Y-51435000D03*
X17440000Y-53035000D03*
X13040000Y-53035000D03*
G04 #@! TD*
D36*
G04 #@! TO.C,HB44*
X137160000Y-167005000D03*
G04 #@! TD*
G04 #@! TO.C,HB43*
X137160000Y-149225000D03*
G04 #@! TD*
G04 #@! TO.C,HB42*
X137160000Y-131445000D03*
G04 #@! TD*
G04 #@! TO.C,HB41*
X137160000Y-113665000D03*
G04 #@! TD*
G04 #@! TO.C,HB40*
X137160000Y-95885000D03*
G04 #@! TD*
G04 #@! TO.C,HB39*
X137160000Y-78105000D03*
G04 #@! TD*
G04 #@! TO.C,HB38*
X137160000Y-60325000D03*
G04 #@! TD*
G04 #@! TO.C,HB37*
X25400000Y-167005000D03*
G04 #@! TD*
G04 #@! TO.C,HB36*
X25400000Y-149225000D03*
G04 #@! TD*
G04 #@! TO.C,HB35*
X25400000Y-131445000D03*
G04 #@! TD*
G04 #@! TO.C,HB34*
X25400000Y-113665000D03*
G04 #@! TD*
G04 #@! TO.C,HB33*
X25400000Y-95885000D03*
G04 #@! TD*
G04 #@! TO.C,HB32*
X25400000Y-78105000D03*
G04 #@! TD*
G04 #@! TO.C,HB31*
X25400000Y-60325000D03*
G04 #@! TD*
G04 #@! TO.C,HB30*
X152400000Y-149225000D03*
G04 #@! TD*
G04 #@! TO.C,HB29*
X142240000Y-149225000D03*
G04 #@! TD*
G04 #@! TO.C,HB28*
X132080000Y-149225000D03*
G04 #@! TD*
G04 #@! TO.C,HB27*
X121920000Y-149225000D03*
G04 #@! TD*
G04 #@! TO.C,HB26*
X111760000Y-149225000D03*
G04 #@! TD*
G04 #@! TO.C,HB25*
X101600000Y-149225000D03*
G04 #@! TD*
G04 #@! TO.C,HB24*
X91440000Y-149225000D03*
G04 #@! TD*
G04 #@! TO.C,HB23*
X81280000Y-149225000D03*
G04 #@! TD*
G04 #@! TO.C,HB22*
X71120000Y-149225000D03*
G04 #@! TD*
G04 #@! TO.C,HB21*
X60960000Y-149225000D03*
G04 #@! TD*
G04 #@! TO.C,HB20*
X50800000Y-149225000D03*
G04 #@! TD*
G04 #@! TO.C,HB19*
X40640000Y-149225000D03*
G04 #@! TD*
G04 #@! TO.C,HB18*
X30480000Y-149225000D03*
G04 #@! TD*
G04 #@! TO.C,HB17*
X20320000Y-149225000D03*
G04 #@! TD*
G04 #@! TO.C,HB16*
X10160000Y-149225000D03*
G04 #@! TD*
G04 #@! TO.C,HB15*
X152400000Y-78105000D03*
G04 #@! TD*
G04 #@! TO.C,HB14*
X142240000Y-78105000D03*
G04 #@! TD*
G04 #@! TO.C,HB13*
X132080000Y-78105000D03*
G04 #@! TD*
G04 #@! TO.C,HB12*
X121920000Y-78105000D03*
G04 #@! TD*
G04 #@! TO.C,HB11*
X111760000Y-78105000D03*
G04 #@! TD*
G04 #@! TO.C,HB10*
X101600000Y-78105000D03*
G04 #@! TD*
G04 #@! TO.C,HB9*
X91440000Y-78105000D03*
G04 #@! TD*
G04 #@! TO.C,HB8*
X81280000Y-78105000D03*
G04 #@! TD*
G04 #@! TO.C,HB7*
X71120000Y-78105000D03*
G04 #@! TD*
G04 #@! TO.C,HB6*
X60960000Y-78105000D03*
G04 #@! TD*
G04 #@! TO.C,HB5*
X50800000Y-78105000D03*
G04 #@! TD*
G04 #@! TO.C,HB4*
X40640000Y-78105000D03*
G04 #@! TD*
G04 #@! TO.C,HB3*
X30480000Y-78105000D03*
G04 #@! TD*
G04 #@! TO.C,HB2*
X20320000Y-78105000D03*
G04 #@! TD*
G04 #@! TO.C,HB1*
X10160000Y-78105000D03*
G04 #@! TD*
M02*
