M48
INCH,TZ
T1C0.0197
T2C0.0236
T3C0.0250
T4C0.0335
T5C0.0400
T6C0.0402
T7C0.0472
T8C0.1260
T9C0.0200
T10C0.0500
T11C0.0800
T12C0.1260
%
G90
G05
T1
X000500Y-018250
X000500Y-019000
X000500Y-020250
X002463Y-011278
X002467Y-010030
X003250Y-018250
X003281Y-010762
X003675Y-010467
X004266Y-007711
X005053Y-011254
X005250Y-008301
X006400Y-009600
X006400Y-011650
X007500Y-011000
X007800Y-010250
X008200Y-012144
X010250Y-004250
X010450Y-006500
X010500Y-002250
X011000Y-004250
X012400Y-008500
X013300Y-006000
X013650Y-014900
X014150Y-014900
X014650Y-014900
X016500Y-018250
X017000Y-004250
X017250Y-009650
X017250Y-010200
X017250Y-010750
X017750Y-009650
X017750Y-010200
X017750Y-010750
X018250Y-009650
X018250Y-010200
X018250Y-010750
X020000Y-006500
X020000Y-009500
X020750Y-018250
X021000Y-006500
X021000Y-007250
X021000Y-008000
X021000Y-008750
X021000Y-009500
X022000Y-006500
X022000Y-009500
X023000Y-004250
X023000Y-006500
X023000Y-009500
X023500Y-007750
X023500Y-008250
X023500Y-008750
X024000Y-006500
X024000Y-007250
X024000Y-009500
X024500Y-007250
X024900Y-015750
X025000Y-006500
X025000Y-007250
X025000Y-009500
X025450Y-015750
X025500Y-007250
X026000Y-006500
X026000Y-007250
X026000Y-009500
X026500Y-007750
X026500Y-008250
X026500Y-008750
X026800Y-013900
X026800Y-014400
X027000Y-006500
X027000Y-009500
X028000Y-006500
X028000Y-009500
X029000Y-003750
X029000Y-006500
X029000Y-009500
X030000Y-006500
X030000Y-007250
X030000Y-008000
X030000Y-008750
X030000Y-009500
X032000Y-006500
X032809Y-006136
X033250Y-007500
X034000Y-008000
X034000Y-009250
X034064Y-011064
X035000Y-011000
X035750Y-011000
X036000Y-008250
X036500Y-011000
X037500Y-022250
X038124Y-010368
X038715Y-010368
X041500Y-022250
X045500Y-022250
X046234Y-010211
X046746Y-010211
X049500Y-022250
X050919Y-005447
X051215Y-008203
X052250Y-008000
X052500Y-008500
X052750Y-007000
X055250Y-011549
X061055Y-074750
X061332Y-074082
X061332Y-075418
X062000Y-073805
X062000Y-075695
X062668Y-074082
X062668Y-075418
X062945Y-074750
X001055Y-014750
X001332Y-014082
X001332Y-015418
X002000Y-013805
X002000Y-015695
X002668Y-014082
X002668Y-015418
X002945Y-014750
X011500Y-010500
X011500Y-011000
X011750Y-010750
X012000Y-010500
X012000Y-011000
X045055Y-067000
X045332Y-066332
X045332Y-067668
X046000Y-066055
X046000Y-067945
X046668Y-066332
X046668Y-067668
X046945Y-067000
X017055Y-039000
X017332Y-038332
X017332Y-039668
X018000Y-038055
X018000Y-039945
X018668Y-038332
X018668Y-039668
X018945Y-039000
X001055Y-074750
X001332Y-074082
X001332Y-075418
X002000Y-073805
X002000Y-075695
X002668Y-074082
X002668Y-075418
X002945Y-074750
X045055Y-039000
X045332Y-038332
X045332Y-039668
X046000Y-038055
X046000Y-039945
X046668Y-038332
X046668Y-039668
X046945Y-039000
X038472Y-002683
X038472Y-003183
X038472Y-003683
X038472Y-004183
X038472Y-004683
X038472Y-005183
X038472Y-005683
X038472Y-006183
X038472Y-006683
X038472Y-007183
X038472Y-007683
X038472Y-008183
X038472Y-008683
X038472Y-009183
X040750Y-010754
X041250Y-010754
X041750Y-010754
X042250Y-010754
X042750Y-010754
X043250Y-010754
X043750Y-010754
X044250Y-010754
X044750Y-010754
X045250Y-010754
X047528Y-002683
X047528Y-003183
X047528Y-003683
X047528Y-004183
X047528Y-004683
X047528Y-005183
X047528Y-005683
X047528Y-006183
X047528Y-006683
X047528Y-007183
X047528Y-007683
X047528Y-008183
X047528Y-008683
X047528Y-009183
X017055Y-067000
X017332Y-066332
X017332Y-067668
X018000Y-066055
X018000Y-067945
X018668Y-066332
X018668Y-067668
X018945Y-067000
X061055Y-014750
X061332Y-014082
X061332Y-015418
X062000Y-013805
X062000Y-015695
X062668Y-014082
X062668Y-015418
X062945Y-014750
T3
X009646Y-054659
X010354Y-054659
X029646Y-034841
X030354Y-034841
X037646Y-048841
X038354Y-048841
X049646Y-062841
X050354Y-062841
X045646Y-054659
X046354Y-054659
X005646Y-034841
X006354Y-034841
X033646Y-048841
X034354Y-048841
X061646Y-048841
X062354Y-048841
X029646Y-068659
X030354Y-068659
X049646Y-026659
X050354Y-026659
X053646Y-034841
X054354Y-034841
X017646Y-054659
X018354Y-054659
X017646Y-068659
X018354Y-068659
X057646Y-068659
X058354Y-068659
X013646Y-068659
X014354Y-068659
X021646Y-026659
X022354Y-026659
X001646Y-026659
X002354Y-026659
X025646Y-040659
X026354Y-040659
X041646Y-026659
X042354Y-026659
X061646Y-026659
X062354Y-026659
X037646Y-054659
X038354Y-054659
X025646Y-054659
X026354Y-054659
X041646Y-062841
X042354Y-062841
X021646Y-062841
X022354Y-062841
X033646Y-026659
X034354Y-026659
X009646Y-026659
X010354Y-026659
X045646Y-040659
X046354Y-040659
X033646Y-040659
X034354Y-040659
X037646Y-068659
X038354Y-068659
X057646Y-054659
X058354Y-054659
X057646Y-020841
X058354Y-020841
X053646Y-040659
X054354Y-040659
X033646Y-054659
X034354Y-054659
X045646Y-048841
X046354Y-048841
X041646Y-054659
X042354Y-054659
X001646Y-040659
X002354Y-040659
X009646Y-048841
X010354Y-048841
X021646Y-048841
X022354Y-048841
X009646Y-062841
X010354Y-062841
X061646Y-062841
X062354Y-062841
X017646Y-020841
X018354Y-020841
X017646Y-026659
X018354Y-026659
X041646Y-040659
X042354Y-040659
X005646Y-068659
X006354Y-068659
X049646Y-020841
X050354Y-020841
X041646Y-034841
X042354Y-034841
X001646Y-062841
X002354Y-062841
X045646Y-068659
X046354Y-068659
X009646Y-068659
X010354Y-068659
X017646Y-034841
X018354Y-034841
X033646Y-034841
X034354Y-034841
X053646Y-062841
X054354Y-062841
X037646Y-020841
X038354Y-020841
X061646Y-040659
X062354Y-040659
X005646Y-054659
X006354Y-054659
X025646Y-068659
X026354Y-068659
X009646Y-034841
X010354Y-034841
X029646Y-062841
X030354Y-062841
X053646Y-054659
X054354Y-054659
X041646Y-048841
X042354Y-048841
X029646Y-020841
X030354Y-020841
X013646Y-020841
X014354Y-020841
X045646Y-026659
X046354Y-026659
X017646Y-040659
X018354Y-040659
X057646Y-034841
X058354Y-034841
X053646Y-048841
X054354Y-048841
X013646Y-054659
X014354Y-054659
X053646Y-068659
X054354Y-068659
X025646Y-034841
X026354Y-034841
X029646Y-048841
X030354Y-048841
X025646Y-020841
X026354Y-020841
X001646Y-034841
X002354Y-034841
X021646Y-040659
X022354Y-040659
X045646Y-062841
X046354Y-062841
X021646Y-020841
X022354Y-020841
X025646Y-026659
X026354Y-026659
X009646Y-040659
X010354Y-040659
X001646Y-048841
X002354Y-048841
X013646Y-048841
X014354Y-048841
X025646Y-048841
X026354Y-048841
X053646Y-026659
X054354Y-026659
X045646Y-034841
X046354Y-034841
X049646Y-034841
X050354Y-034841
X021646Y-054659
X022354Y-054659
X009646Y-020841
X010354Y-020841
X049646Y-048841
X050354Y-048841
X033646Y-068659
X034354Y-068659
X001646Y-068659
X002354Y-068659
X029646Y-026659
X030354Y-026659
X005646Y-026659
X006354Y-026659
X029646Y-040659
X030354Y-040659
X033646Y-062841
X034354Y-062841
X061646Y-068659
X062354Y-068659
X061646Y-020841
X062354Y-020841
X029646Y-054659
X030354Y-054659
X025646Y-062841
X026354Y-062841
X013646Y-062841
X014354Y-062841
X037646Y-062841
X038354Y-062841
X013646Y-026659
X014354Y-026659
X037646Y-040659
X038354Y-040659
X049646Y-054659
X050354Y-054659
X053646Y-020841
X054354Y-020841
X057646Y-048841
X058354Y-048841
X041646Y-068659
X042354Y-068659
X005646Y-062841
X006354Y-062841
X001646Y-020841
X002354Y-020841
X049646Y-040659
X050354Y-040659
X057646Y-062841
X058354Y-062841
X021646Y-034841
X022354Y-034841
X005646Y-020841
X006354Y-020841
X057646Y-040659
X058354Y-040659
X045646Y-020841
X046354Y-020841
X037646Y-034841
X038354Y-034841
X013646Y-040659
X014354Y-040659
X001646Y-054659
X002354Y-054659
X021646Y-068659
X022354Y-068659
X041646Y-020841
X042354Y-020841
X005646Y-040659
X006354Y-040659
X005646Y-048841
X006354Y-048841
X017646Y-048841
X018354Y-048841
X013646Y-034841
X014354Y-034841
X017646Y-062841
X018354Y-062841
X049646Y-068659
X050354Y-068659
X057646Y-026659
X058354Y-026659
X033646Y-020841
X034354Y-020841
X061646Y-054659
X062354Y-054659
X037646Y-026659
X038354Y-026659
X061646Y-034841
X062354Y-034841
T4
X001923Y-009778
X001923Y-011746
T5
X050000Y-013250
X050000Y-014250
X050000Y-015250
X051000Y-013250
X051000Y-014250
X051000Y-015250
T6
X052000Y-015250
X001500Y-071500
X002500Y-071500
X049000Y-015250
X005500Y-014750
X006500Y-014750
X007500Y-014750
X008500Y-014750
X052000Y-014250
X052000Y-013250
X055500Y-001500
X057500Y-001500
X056500Y-001500
X049000Y-013250
X055500Y-014750
X056500Y-014750
X057500Y-014750
X058500Y-014750
X049000Y-014250
T7
X049000Y-001500
X051000Y-001500
X013000Y-001500
X015000Y-001500
T8
X022000Y-032000
X062000Y-074750
X018000Y-015000
X002000Y-014750
X038000Y-015000
X038000Y-032000
X046000Y-067000
X034000Y-015000
X018000Y-039000
X034000Y-032000
X002000Y-074750
X046000Y-039000
X018000Y-032000
X018000Y-067000
X062000Y-014750
X022000Y-015000
T9
X033600Y-072350
X033600Y-073150
X034000Y-072350
X034000Y-073150
X034400Y-072350
X034400Y-073150
X029600Y-072350
X029600Y-073150
X030000Y-072350
X030000Y-073150
X030400Y-072350
X030400Y-073150
X045600Y-072350
X045600Y-073150
X046000Y-072350
X046000Y-073150
X046400Y-072350
X046400Y-073150
X017600Y-072350
X017600Y-073150
X018000Y-072350
X018000Y-073150
X018400Y-072350
X018400Y-073150
X062350Y-072350
X062350Y-073150
X062750Y-072350
X062750Y-073150
X063150Y-072350
X063150Y-073150
X001100Y-016350
X001100Y-017150
X001500Y-016350
X001500Y-017150
X001900Y-016350
X001900Y-017150
X062100Y-016350
X062100Y-017150
X062500Y-016350
X062500Y-017150
X062900Y-016350
X062900Y-017150
X000850Y-072350
X000850Y-073150
X001250Y-072350
X001250Y-073150
X001650Y-072350
X001650Y-073150
T10
X050000Y-001500
X014000Y-001500
T11
X020000Y-030750
X008000Y-058750
X054000Y-065750
X010000Y-051750
X052000Y-058750
X036000Y-058750
X010000Y-058750
X056000Y-030750
X040000Y-030750
X032000Y-030750
X054000Y-058750
X024000Y-030750
X010000Y-065750
X048000Y-030750
X028000Y-030750
X054000Y-030750
X044000Y-058750
X054000Y-023750
X052000Y-030750
X036000Y-030750
X054000Y-037750
X060000Y-058750
X004000Y-030750
X010000Y-044750
X010000Y-023750
X020000Y-058750
X054000Y-044750
X008000Y-030750
X048000Y-058750
X010000Y-030750
X024000Y-058750
X012000Y-058750
X012000Y-030750
X056000Y-058750
X040000Y-058750
X028000Y-058750
X010000Y-037750
X060000Y-030750
X054000Y-051750
X016000Y-058750
X016000Y-030750
X004000Y-058750
X044000Y-030750
X032000Y-058750
T12
X062500Y-001250
X001500Y-001250
T2
X000722Y-009384G85X000998Y-009384
G05
X000998Y-012140G85X000722Y-012140
G05
T0
M30
