G04 #@! TF.GenerationSoftware,KiCad,Pcbnew,5.0.0-rc2-unknown-d03e92a~65~ubuntu16.04.1*
G04 #@! TF.CreationDate,2018-06-02T21:30:31+05:30*
G04 #@! TF.ProjectId,ClockIOT,436C6F636B494F542E6B696361645F70,rev 1*
G04 #@! TF.SameCoordinates,PX2fd7508PY2fd7508*
G04 #@! TF.FileFunction,Paste,Bot*
G04 #@! TF.FilePolarity,Positive*
%FSLAX46Y46*%
G04 Gerber Fmt 4.6, Leading zero omitted, Abs format (unit mm)*
G04 Created by KiCad (PCBNEW 5.0.0-rc2-unknown-d03e92a~65~ubuntu16.04.1) date Sat Jun  2 21:30:31 2018*
%MOMM*%
%LPD*%
G01*
G04 APERTURE LIST*
%ADD10R,1.498600X1.300480*%
%ADD11R,2.100000X1.400000*%
%ADD12R,3.048000X3.048000*%
%ADD13R,1.400000X1.200000*%
%ADD14R,1.400000X1.400000*%
%ADD15O,0.850000X0.300000*%
%ADD16O,0.300000X0.850000*%
%ADD17R,1.005000X1.005000*%
%ADD18R,1.550000X1.350000*%
%ADD19R,1.350000X1.550000*%
%ADD20R,1.500000X2.000000*%
%ADD21R,3.800000X2.000000*%
%ADD22R,1.300480X1.498600*%
%ADD23R,0.400000X0.650000*%
%ADD24R,1.998980X0.599440*%
%ADD25R,0.400000X0.600000*%
%ADD26R,4.000000X4.000000*%
%ADD27R,2.000000X1.000000*%
%ADD28R,1.000000X2.000000*%
%ADD29R,1.198880X1.198880*%
G04 APERTURE END LIST*
D10*
G04 #@! TO.C,L2*
X10835000Y-31787500D03*
X10835000Y-29882500D03*
G04 #@! TD*
D11*
G04 #@! TO.C,S5*
X38630000Y-7275000D03*
X47730000Y-7275000D03*
X47730000Y-11775000D03*
X38630000Y-11775000D03*
G04 #@! TD*
D12*
G04 #@! TO.C,C17*
X41656000Y-21590000D03*
X49784000Y-21590000D03*
G04 #@! TD*
D13*
G04 #@! TO.C,D1*
X24922000Y-30945000D03*
X24922000Y-28745000D03*
X22322000Y-28745000D03*
D14*
X22322000Y-30845000D03*
G04 #@! TD*
D11*
G04 #@! TO.C,S6*
X23390000Y-7275000D03*
X32490000Y-7275000D03*
X32490000Y-11775000D03*
X23390000Y-11775000D03*
G04 #@! TD*
D12*
G04 #@! TO.C,C27*
X136144000Y-8128000D03*
X128016000Y-8128000D03*
G04 #@! TD*
D15*
G04 #@! TO.C,U132*
X27395000Y-28805000D03*
X27395000Y-28305000D03*
X27395000Y-27805000D03*
X27395000Y-27305000D03*
X27395000Y-26805000D03*
X27395000Y-26305000D03*
X27395000Y-25805000D03*
D16*
X28345000Y-24855000D03*
X28845000Y-24855000D03*
X29345000Y-24855000D03*
X29845000Y-24855000D03*
X30345000Y-24855000D03*
X30845000Y-24855000D03*
X31345000Y-24855000D03*
D15*
X32295000Y-25805000D03*
X32295000Y-26305000D03*
X32295000Y-26805000D03*
X32295000Y-27305000D03*
X32295000Y-27805000D03*
X32295000Y-28305000D03*
X32295000Y-28805000D03*
D16*
X31345000Y-29755000D03*
X30845000Y-29755000D03*
X30345000Y-29755000D03*
X29845000Y-29755000D03*
X29345000Y-29755000D03*
X28845000Y-29755000D03*
X28345000Y-29755000D03*
D17*
X30682500Y-26467500D03*
X30682500Y-28142500D03*
X29007500Y-26467500D03*
X29007500Y-28142500D03*
G04 #@! TD*
D10*
G04 #@! TO.C,R25*
X20320000Y-11747500D03*
X20320000Y-13652500D03*
G04 #@! TD*
G04 #@! TO.C,R24*
X35560000Y-11747500D03*
X35560000Y-13652500D03*
G04 #@! TD*
D18*
G04 #@! TO.C,C31*
X33020000Y-37830000D03*
X33020000Y-35830000D03*
G04 #@! TD*
D11*
G04 #@! TO.C,S4*
X93450000Y-11775000D03*
X84350000Y-11775000D03*
X84350000Y-7275000D03*
X93450000Y-7275000D03*
G04 #@! TD*
D12*
G04 #@! TO.C,C18*
X72517000Y-28829000D03*
X72517000Y-20701000D03*
G04 #@! TD*
D19*
G04 #@! TO.C,C22*
X132445000Y-29210000D03*
X130445000Y-29210000D03*
G04 #@! TD*
D10*
G04 #@! TO.C,R11*
X50800000Y-11747500D03*
X50800000Y-13652500D03*
G04 #@! TD*
G04 #@! TO.C,R10*
X66040000Y-11747500D03*
X66040000Y-13652500D03*
G04 #@! TD*
G04 #@! TO.C,R9*
X30085000Y-35882500D03*
X30085000Y-37787500D03*
G04 #@! TD*
D20*
G04 #@! TO.C,U131*
X65800000Y-26645000D03*
X61200000Y-26645000D03*
X63500000Y-26645000D03*
D21*
X63500000Y-20345000D03*
G04 #@! TD*
D22*
G04 #@! TO.C,R23*
X89852500Y-18415000D03*
X87947500Y-18415000D03*
G04 #@! TD*
G04 #@! TO.C,R22*
X87947500Y-20955000D03*
X89852500Y-20955000D03*
G04 #@! TD*
G04 #@! TO.C,R20*
X89852500Y-23495000D03*
X87947500Y-23495000D03*
G04 #@! TD*
G04 #@! TO.C,R19*
X89852500Y-26035000D03*
X87947500Y-26035000D03*
G04 #@! TD*
D10*
G04 #@! TO.C,R18*
X81280000Y-13652500D03*
X81280000Y-11747500D03*
G04 #@! TD*
G04 #@! TO.C,R16*
X5080000Y-13652500D03*
X5080000Y-11747500D03*
G04 #@! TD*
D22*
G04 #@! TO.C,R4*
X47688500Y-27305000D03*
X49593500Y-27305000D03*
G04 #@! TD*
D10*
G04 #@! TO.C,R3*
X81280000Y-17462500D03*
X81280000Y-19367500D03*
G04 #@! TD*
D23*
G04 #@! TO.C,Q1*
X83805000Y-21905000D03*
X85105000Y-21905000D03*
X84455000Y-20005000D03*
X84455000Y-21905000D03*
X85105000Y-20005000D03*
X83805000Y-20005000D03*
G04 #@! TD*
D19*
G04 #@! TO.C,C28*
X133620000Y-3810000D03*
X135620000Y-3810000D03*
G04 #@! TD*
G04 #@! TO.C,C26*
X28210000Y-17780000D03*
X30210000Y-17780000D03*
G04 #@! TD*
D12*
G04 #@! TO.C,C25*
X37084000Y-21590000D03*
X28956000Y-21590000D03*
G04 #@! TD*
D19*
G04 #@! TO.C,C24*
X25130000Y-17780000D03*
X23130000Y-17780000D03*
G04 #@! TD*
D12*
G04 #@! TO.C,C23*
X16256000Y-21590000D03*
X24384000Y-21590000D03*
G04 #@! TD*
D18*
G04 #@! TO.C,C21*
X81280000Y-7350000D03*
X81280000Y-5350000D03*
G04 #@! TD*
G04 #@! TO.C,C20*
X5080000Y-16272000D03*
X5080000Y-18272000D03*
G04 #@! TD*
D10*
G04 #@! TO.C,R8*
X27085000Y-35882500D03*
X27085000Y-37787500D03*
G04 #@! TD*
G04 #@! TO.C,R7*
X135255000Y-13017500D03*
X135255000Y-14922500D03*
G04 #@! TD*
G04 #@! TO.C,R6*
X132715000Y-13017500D03*
X132715000Y-14922500D03*
G04 #@! TD*
D11*
G04 #@! TO.C,S2*
X53870000Y-7275000D03*
X62970000Y-7275000D03*
X62970000Y-11775000D03*
X53870000Y-11775000D03*
G04 #@! TD*
D24*
G04 #@! TO.C,U130*
X126794260Y-17780000D03*
X126794260Y-19050000D03*
X126794260Y-20320000D03*
X126794260Y-21590000D03*
X126794260Y-22860000D03*
X126794260Y-24130000D03*
X126794260Y-25400000D03*
X126794260Y-26670000D03*
X136095740Y-26670000D03*
X136095740Y-25400000D03*
X136095740Y-24130000D03*
X136095740Y-22860000D03*
X136095740Y-21590000D03*
X136095740Y-20320000D03*
X136095740Y-19050000D03*
X136095740Y-17780000D03*
G04 #@! TD*
D11*
G04 #@! TO.C,S3*
X17250000Y-11775000D03*
X8150000Y-11775000D03*
X8150000Y-7275000D03*
X17250000Y-7275000D03*
G04 #@! TD*
D18*
G04 #@! TO.C,C29*
X135890000Y-37195000D03*
X135890000Y-35195000D03*
G04 #@! TD*
D19*
G04 #@! TO.C,C30*
X146320000Y-34925000D03*
X148320000Y-34925000D03*
G04 #@! TD*
D25*
G04 #@! TO.C,JP1*
X57981000Y-27305000D03*
X57081000Y-27305000D03*
G04 #@! TD*
D26*
G04 #@! TO.C,U129*
X109920000Y-14215000D03*
D27*
X100220000Y-6815000D03*
X100220000Y-8085000D03*
X100220000Y-9355000D03*
X100220000Y-10625000D03*
X100220000Y-11895000D03*
X100220000Y-13165000D03*
X100220000Y-14435000D03*
X100220000Y-15705000D03*
X100220000Y-16975000D03*
X100220000Y-18245000D03*
X100220000Y-19515000D03*
X100220000Y-20785000D03*
X100220000Y-22055000D03*
X100220000Y-23325000D03*
D28*
X103505000Y-24815000D03*
X104775000Y-24815000D03*
X106045000Y-24815000D03*
X107315000Y-24815000D03*
X108585000Y-24815000D03*
X109855000Y-24815000D03*
X111125000Y-24815000D03*
X112395000Y-24815000D03*
X113665000Y-24815000D03*
X114935000Y-24815000D03*
D27*
X118220000Y-23325000D03*
X118220000Y-22055000D03*
X118220000Y-20785000D03*
X118220000Y-19515000D03*
X118220000Y-18245000D03*
X118220000Y-16975000D03*
X118220000Y-15705000D03*
X118220000Y-14435000D03*
X118220000Y-13165000D03*
X118220000Y-11895000D03*
X118220000Y-10625000D03*
X118220000Y-9355000D03*
X118220000Y-8085000D03*
X118220000Y-6815000D03*
G04 #@! TD*
D22*
G04 #@! TO.C,R21*
X89852500Y-15875000D03*
X87947500Y-15875000D03*
G04 #@! TD*
D18*
G04 #@! TO.C,C19*
X81280000Y-22495000D03*
X81280000Y-24495000D03*
G04 #@! TD*
D11*
G04 #@! TO.C,S1*
X69110000Y-7275000D03*
X78210000Y-7275000D03*
X78210000Y-11775000D03*
X69110000Y-11775000D03*
G04 #@! TD*
D29*
G04 #@! TO.C,D2*
X52290980Y-27305000D03*
X54389020Y-27305000D03*
G04 #@! TD*
D19*
G04 #@! TO.C,C9*
X6080000Y-127635000D03*
X4080000Y-127635000D03*
G04 #@! TD*
G04 #@! TO.C,C6*
X87360000Y-92075000D03*
X85360000Y-92075000D03*
G04 #@! TD*
G04 #@! TO.C,C1*
X6080000Y-56515000D03*
X4080000Y-56515000D03*
G04 #@! TD*
D10*
G04 #@! TO.C,R1*
X3810000Y-47307500D03*
X3810000Y-45402500D03*
G04 #@! TD*
G04 #@! TO.C,R2*
X6350000Y-47307500D03*
X6350000Y-45402500D03*
G04 #@! TD*
D22*
G04 #@! TO.C,R12*
X51752500Y-3810000D03*
X49847500Y-3810000D03*
G04 #@! TD*
G04 #@! TO.C,R13*
X120332500Y-3810000D03*
X122237500Y-3810000D03*
G04 #@! TD*
D19*
G04 #@! TO.C,C2*
X87360000Y-56515000D03*
X85360000Y-56515000D03*
G04 #@! TD*
G04 #@! TO.C,C3*
X156480000Y-64135000D03*
X158480000Y-64135000D03*
G04 #@! TD*
G04 #@! TO.C,C4*
X75200000Y-64135000D03*
X77200000Y-64135000D03*
G04 #@! TD*
G04 #@! TO.C,C5*
X6080000Y-92075000D03*
X4080000Y-92075000D03*
G04 #@! TD*
G04 #@! TO.C,C7*
X156480000Y-99695000D03*
X158480000Y-99695000D03*
G04 #@! TD*
G04 #@! TO.C,C8*
X75200000Y-99695000D03*
X77200000Y-99695000D03*
G04 #@! TD*
G04 #@! TO.C,C10*
X87360000Y-127635000D03*
X85360000Y-127635000D03*
G04 #@! TD*
G04 #@! TO.C,C11*
X156480000Y-135255000D03*
X158480000Y-135255000D03*
G04 #@! TD*
G04 #@! TO.C,C12*
X75200000Y-135255000D03*
X77200000Y-135255000D03*
G04 #@! TD*
G04 #@! TO.C,C13*
X6080000Y-163195000D03*
X4080000Y-163195000D03*
G04 #@! TD*
G04 #@! TO.C,C14*
X87360000Y-163195000D03*
X85360000Y-163195000D03*
G04 #@! TD*
G04 #@! TO.C,C15*
X156480000Y-170815000D03*
X158480000Y-170815000D03*
G04 #@! TD*
G04 #@! TO.C,C16*
X75200000Y-170815000D03*
X77200000Y-170815000D03*
G04 #@! TD*
D10*
G04 #@! TO.C,L1*
X10835000Y-23037500D03*
X10835000Y-21132500D03*
G04 #@! TD*
M02*
