  0
SECTION
  2
HEADER
  9
$ACADVER
  1
AC1014
  9
$HANDSEED
  5
FFFF
  9
$MEASUREMENT
 70
     1
  0
ENDSEC
  0
SECTION
  2
TABLES
  0
TABLE
  2
VPORT
  5
8
330
0
100
AcDbSymbolTable
 70
     4
  0
VPORT
  5
2E
330
8
100
AcDbSymbolTableRecord
100
AcDbViewportTableRecord
  2
*ACTIVE
 70
     0
 10
0.0
 20
0.0
 11
1.0
 21
1.0
 12
210.0
 22
148.5
 13
0.0
 23
0.0
 14
10.0
 24
10.0
 15
10.0
 25
10.0
 16
0.0
 26
0.0
 36
1.0
 17
0.0
 27
0.0
 37
0.0
 40
341.0
 41
1.24
 42
50.0
 43
0.0
 44
0.0
 50
0.0
 51
0.0
 71
     0
 72
   100
 73
     1
 74
     3
 75
     0
 76
     0
 77
     0
 78
     0
  0
ENDTAB
  0
TABLE
  2
LTYPE
  5
5
330
0
100
AcDbSymbolTable
 70
     1
  0
LTYPE
  5
14
330
5
100
AcDbSymbolTableRecord
100
AcDbLinetypeTableRecord
  2
BYBLOCK
 70
     0
  3

 72
    65
 73
     0
 40
0.0
  0
LTYPE
  5
15
330
5
100
AcDbSymbolTableRecord
100
AcDbLinetypeTableRecord
  2
BYLAYER
 70
     0
  3

 72
    65
 73
     0
 40
0.0
  0
LTYPE
  5
16
330
5
100
AcDbSymbolTableRecord
100
AcDbLinetypeTableRecord
  2
CONTINUOUS
 70
     0
  3
Solid line
 72
    65
 73
     0
 40
0.0
  0
ENDTAB
  0
TABLE
  2
LAYER
  5
2
100
AcDbSymbolTable
 70
2
  0
LAYER
  5
50
100
AcDbSymbolTableRecord
100
AcDbLayerTableRecord
  2
0
 70
0
  6
CONTINUOUS
  0
LAYER
  5
51
100
AcDbSymbolTableRecord
100
AcDbLayerTableRecord
  2
backplate_jr_std1.0
 70
0
  6
CONTINUOUS
  0
ENDTAB
  0
TABLE
  2
STYLE
  5
3
330
0
100
AcDbSymbolTable
 70
     1
  0
STYLE
  5
11
330
3
100
AcDbSymbolTableRecord
100
AcDbTextStyleTableRecord
  2
STANDARD
 70
     0
 40
0.0
 41
1.0
 50
0.0
 71
     0
 42
2.5
  3
txt
  4

  0
ENDTAB
  0
TABLE
  2
VIEW
  5
6
330
0
100
AcDbSymbolTable
 70
     0
  0
ENDTAB
  0
TABLE
  2
UCS
  5
7
330
0
100
AcDbSymbolTable
 70
     0
  0
ENDTAB
  0
TABLE
  2
APPID
  5
9
330
0
100
AcDbSymbolTable
 70
     2
  0
APPID
  5
12
330
9
100
AcDbSymbolTableRecord
100
AcDbRegAppTableRecord
  2
ACAD
 70
     0
  0
ENDTAB
  0
TABLE
  2
DIMSTYLE
  5
A
330
0
100
AcDbSymbolTable
 70
     1
  0
DIMSTYLE
105
27
330
A
100
AcDbSymbolTableRecord
100
AcDbDimStyleTableRecord
  2
ISO-25
 70
     0
  3

  4

  5

  6

  7

 40
1.0
 41
2.5
 42
0.625
 43
3.75
 44
1.25
 45
0.0
 46
0.0
 47
0.0
 48
0.0
140
2.5
141
2.5
142
0.0
143
0.03937007874016
144
1.0
145
0.0
146
1.0
147
0.625
 71
     0
 72
     0
 73
     0
 74
     0
 75
     0
 76
     0
 77
     1
 78
     8
170
     0
171
     3
172
     1
173
     0
174
     0
175
     0
176
     0
177
     0
178
     0
270
     2
271
     2
272
     2
273
     2
274
     3
340
11
275
     0
280
     0
281
     0
282
     0
283
     0
284
     8
285
     0
286
     0
287
     3
288
     0
  0
ENDTAB
  0
TABLE
  2
BLOCK_RECORD
  5
1
330
0
100
AcDbSymbolTable
 70
     1
  0
BLOCK_RECORD
  5
1F
330
1
100
AcDbSymbolTableRecord
100
AcDbBlockTableRecord
  2
*MODEL_SPACE
  0
BLOCK_RECORD
  5
1B
330
1
100
AcDbSymbolTableRecord
100
AcDbBlockTableRecord
  2
*PAPER_SPACE
  0
ENDTAB
  0
ENDSEC
  0
SECTION
  2
BLOCKS
  0
BLOCK
  5
20
330
1F
100
AcDbEntity
  8
0
100
AcDbBlockBegin
  2
*MODEL_SPACE
 70
     0
 10
0.0
 20
0.0
 30
0.0
  3
*MODEL_SPACE
  1

  0
ENDBLK
  5
21
330
1F
100
AcDbEntity
  8
0
100
AcDbBlockEnd
  0
BLOCK
  5
1C
330
1B
100
AcDbEntity
 67
     1
  8
0
100
AcDbBlockBegin
  2
*PAPER_SPACE
  1

  0
ENDBLK
  5
1D
330
1B
100
AcDbEntity
 67
     1
  8
0
100
AcDbBlockEnd
  0
ENDSEC
  0
SECTION
  2
ENTITIES
  0
LWPOLYLINE
  5
100
100
AcDbEntity
  8
backplate_jr_std1.0
 62
1
100
AcDbPolyline
 90
4
 70
1
 10
0.100000
 20
0.100002
 30
0.0
 10
231.239987
 20
0.100002
 30
0.0
 10
231.239987
 20
231.239990
 30
0.0
 10
0.100000
 20
231.239990
 30
0.0
  0
SPLINE
  5
101
100
AcDbEntity
  8
backplate_jr_std1.0
 62
1
100
AcDbSpline
 70
0
 71
3
 72
19
 73
15
 74
13
 40
0.000000
 40
0.000000
 40
0.000000
 40
0.000000
 40
0.784289
 40
1.545316
 40
2.329605
 40
3.113894
 40
3.874921
 40
4.659210
 40
5.443499
 40
6.204526
 40
6.988815
 40
7.773104
 40
8.534131
 40
9.318419
 40
9.318419
 40
9.318419
 40
9.318419
 10
5.410000
 20
3.910002
 30
0.0
 10
5.368773
 20
4.174428
 30
0.0
 10
5.287542
 20
4.695436
 30
0.0
 10
4.690366
 20
5.269023
 30
0.0
 10
3.911377
 20
5.481554
 30
0.0
 10
3.124209
 20
5.269023
 30
0.0
 10
2.551084
 20
4.695436
 30
0.0
 10
2.338396
 20
3.910002
 30
0.0
 10
2.551084
 20
3.124569
 30
0.0
 10
3.124209
 20
2.550982
 30
0.0
 10
3.911377
 20
2.338451
 30
0.0
 10
4.690366
 20
2.550982
 30
0.0
 10
5.287541
 20
3.124569
 30
0.0
 10
5.368773
 20
3.645577
 30
0.0
 10
5.410000
 20
3.910002
 30
0.0
 11
5.410000
 21
3.910002
 31
0.0
 11
5.205206
 21
4.667081
 31
0.0
 11
4.667079
 21
5.205209
 31
0.0
 11
3.910000
 21
5.410003
 31
0.0
 11
3.152921
 21
5.205209
 31
0.0
 11
2.614794
 21
4.667081
 31
0.0
 11
2.410000
 21
3.910002
 31
0.0
 11
2.614794
 21
3.152924
 31
0.0
 11
3.152921
 21
2.614796
 31
0.0
 11
3.910000
 21
2.410002
 31
0.0
 11
4.667079
 21
2.614796
 31
0.0
 11
5.205206
 21
3.152924
 31
0.0
 11
5.410000
 21
3.910002
 31
0.0
  0
SPLINE
  5
102
100
AcDbEntity
  8
backplate_jr_std1.0
 62
1
100
AcDbSpline
 70
0
 71
3
 72
19
 73
15
 74
13
 40
0.000000
 40
0.000000
 40
0.000000
 40
0.000000
 40
0.784292
 40
1.545322
 40
2.329612
 40
3.113902
 40
3.874932
 40
4.659224
 40
5.443516
 40
6.204547
 40
6.988836
 40
7.773126
 40
8.534156
 40
9.318448
 40
9.318448
 40
9.318448
 40
9.318448
 10
5.410000
 20
227.429990
 30
0.0
 10
5.368773
 20
227.694416
 30
0.0
 10
5.287541
 20
228.215426
 30
0.0
 10
4.690368
 20
228.789018
 30
0.0
 10
3.911377
 20
229.001554
 30
0.0
 10
3.124207
 20
228.789018
 30
0.0
 10
2.551085
 20
228.215426
 30
0.0
 10
2.338395
 20
227.429990
 30
0.0
 10
2.551085
 20
226.644554
 30
0.0
 10
3.124207
 20
226.070962
 30
0.0
 10
3.911377
 20
225.858427
 30
0.0
 10
4.690368
 20
226.070962
 30
0.0
 10
5.287541
 20
226.644554
 30
0.0
 10
5.368773
 20
227.165564
 30
0.0
 10
5.410000
 20
227.429990
 30
0.0
 11
5.410000
 21
227.429990
 31
0.0
 11
5.205206
 21
228.187072
 31
0.0
 11
4.667079
 21
228.725204
 31
0.0
 11
3.910000
 21
228.930001
 31
0.0
 11
3.152921
 21
228.725204
 31
0.0
 11
2.614794
 21
228.187072
 31
0.0
 11
2.410000
 21
227.429990
 31
0.0
 11
2.614794
 21
226.672908
 31
0.0
 11
3.152921
 21
226.134776
 31
0.0
 11
3.910000
 21
225.929979
 31
0.0
 11
4.667079
 21
226.134776
 31
0.0
 11
5.205206
 21
226.672908
 31
0.0
 11
5.410000
 21
227.429990
 31
0.0
  0
SPLINE
  5
103
100
AcDbEntity
  8
backplate_jr_std1.0
 62
1
100
AcDbSpline
 70
0
 71
3
 72
19
 73
15
 74
13
 40
0.000000
 40
0.000000
 40
0.000000
 40
0.000000
 40
0.784290
 40
1.545320
 40
2.329612
 40
3.113904
 40
3.874935
 40
4.659225
 40
5.443514
 40
6.204544
 40
6.988836
 40
7.773128
 40
8.534159
 40
9.318448
 40
9.318448
 40
9.318448
 40
9.318448
 10
228.929999
 20
3.910002
 30
0.0
 10
228.888771
 20
4.174428
 30
0.0
 10
228.807537
 20
4.695437
 30
0.0
 10
228.210356
 20
5.269022
 30
0.0
 10
227.431364
 20
5.481554
 30
0.0
 10
226.644194
 20
5.269022
 30
0.0
 10
226.071064
 20
4.695437
 30
0.0
 10
225.858371
 20
3.910002
 30
0.0
 10
226.071064
 20
3.124568
 30
0.0
 10
226.644194
 20
2.550983
 30
0.0
 10
227.431364
 20
2.338451
 30
0.0
 10
228.210356
 20
2.550983
 30
0.0
 10
228.807537
 20
3.124568
 30
0.0
 10
228.888771
 20
3.645577
 30
0.0
 10
228.929999
 20
3.910002
 30
0.0
 11
228.929999
 21
3.910002
 31
0.0
 11
228.725202
 21
4.667081
 31
0.0
 11
228.187070
 21
5.205209
 31
0.0
 11
227.429988
 21
5.410003
 31
0.0
 11
226.672906
 21
5.205209
 31
0.0
 11
226.134773
 21
4.667081
 31
0.0
 11
225.929977
 21
3.910002
 31
0.0
 11
226.134773
 21
3.152924
 31
0.0
 11
226.672906
 21
2.614796
 31
0.0
 11
227.429988
 21
2.410002
 31
0.0
 11
228.187070
 21
2.614796
 31
0.0
 11
228.725202
 21
3.152924
 31
0.0
 11
228.929999
 21
3.910002
 31
0.0
  0
LWPOLYLINE
  5
104
100
AcDbEntity
  8
backplate_jr_std1.0
 62
1
100
AcDbPolyline
 90
183
 70
0
 10
0.100000
 20
15.340002
 30
0.0
 10
2.640000
 20
15.340002
 30
0.0
 10
2.640000
 20
15.340002
 30
0.0
 10
2.684329
 20
15.339614
 30
0.0
 10
2.728644
 20
15.338449
 30
0.0
 10
2.772933
 20
15.336509
 30
0.0
 10
2.817181
 20
15.333793
 30
0.0
 10
2.861375
 20
15.330300
 30
0.0
 10
2.905502
 20
15.326053
 30
0.0
 10
2.949548
 20
15.321033
 30
0.0
 10
2.993499
 20
15.315247
 30
0.0
 10
3.037343
 20
15.308696
 30
0.0
 10
3.081066
 20
15.301380
 30
0.0
 10
3.124655
 20
15.293301
 30
0.0
 10
3.168095
 20
15.284460
 30
0.0
 10
3.211376
 20
15.274865
 30
0.0
 10
3.254482
 20
15.264518
 30
0.0
 10
3.297400
 20
15.253419
 30
0.0
 10
3.340119
 20
15.241570
 30
0.0
 10
3.382624
 20
15.228979
 30
0.0
 10
3.424903
 20
15.215651
 30
0.0
 10
3.466943
 20
15.201582
 30
0.0
 10
3.508731
 20
15.186787
 30
0.0
 10
3.550254
 20
15.171261
 30
0.0
 10
3.591500
 20
15.155012
 30
0.0
 10
3.632455
 20
15.138047
 30
0.0
 10
3.673109
 20
15.120373
 30
0.0
 10
3.713450
 20
15.101990
 30
0.0
 10
3.753462
 20
15.082904
 30
0.0
 10
3.793135
 20
15.063124
 30
0.0
 10
3.832459
 20
15.042652
 30
0.0
 10
3.871416
 20
15.021500
 30
0.0
 10
3.910000
 20
14.999670
 30
0.0
 10
3.948195
 20
14.977170
 30
0.0
 10
3.985995
 20
14.954010
 30
0.0
 10
4.023383
 20
14.930190
 30
0.0
 10
4.060350
 20
14.905722
 30
0.0
 10
4.096884
 20
14.880611
 30
0.0
 10
4.132973
 20
14.854869
 30
0.0
 10
4.168611
 20
14.828502
 30
0.0
 10
4.203779
 20
14.801515
 30
0.0
 10
4.238475
 20
14.773917
 30
0.0
 10
4.272680
 20
14.745719
 30
0.0
 10
4.306391
 20
14.716929
 30
0.0
 10
4.339591
 20
14.687553
 30
0.0
 10
4.372276
 20
14.657606
 30
0.0
 10
4.404432
 20
14.627091
 30
0.0
 10
4.436051
 20
14.596018
 30
0.0
 10
4.467124
 20
14.564399
 30
0.0
 10
4.497639
 20
14.532243
 30
0.0
 10
4.527587
 20
14.499558
 30
0.0
 10
4.556962
 20
14.466358
 30
0.0
 10
4.585753
 20
14.432647
 30
0.0
 10
4.613950
 20
14.398441
 30
0.0
 10
4.641548
 20
14.363746
 30
0.0
 10
4.668535
 20
14.328577
 30
0.0
 10
4.694902
 20
14.292940
 30
0.0
 10
4.720644
 20
14.256850
 30
0.0
 10
4.745755
 20
14.220317
 30
0.0
 10
4.770224
 20
14.183349
 30
0.0
 10
4.794043
 20
14.145962
 30
0.0
 10
4.817203
 20
14.108162
 30
0.0
 10
4.839703
 20
14.069966
 30
0.0
 10
4.861533
 20
14.031383
 30
0.0
 10
4.882686
 20
13.992426
 30
0.0
 10
4.903157
 20
13.953102
 30
0.0
 10
4.922938
 20
13.913428
 30
0.0
 10
4.942023
 20
13.873416
 30
0.0
 10
4.960406
 20
13.833076
 30
0.0
 10
4.978080
 20
13.792422
 30
0.0
 10
4.995045
 20
13.751468
 30
0.0
 10
5.011294
 20
13.710221
 30
0.0
 10
5.026820
 20
13.668699
 30
0.0
 10
5.041616
 20
13.626909
 30
0.0
 10
5.055684
 20
13.584869
 30
0.0
 10
5.069012
 20
13.542592
 30
0.0
 10
5.081603
 20
13.500086
 30
0.0
 10
5.093453
 20
13.457368
 30
0.0
 10
5.104551
 20
13.414449
 30
0.0
 10
5.114898
 20
13.371343
 30
0.0
 10
5.124494
 20
13.328061
 30
0.0
 10
5.133334
 20
13.284620
 30
0.0
 10
5.141413
 20
13.241034
 30
0.0
 10
5.148729
 20
13.197311
 30
0.0
 10
5.155281
 20
13.153467
 30
0.0
 10
5.161066
 20
13.109515
 30
0.0
 10
5.166086
 20
13.065467
 30
0.0
 10
5.170334
 20
13.021342
 30
0.0
 10
5.173826
 20
12.977149
 30
0.0
 10
5.176542
 20
12.932900
 30
0.0
 10
5.178483
 20
12.888612
 30
0.0
 10
5.179647
 20
12.844297
 30
0.0
 10
5.180000
 20
12.800002
 30
0.0
 10
5.179612
 20
12.755672
 30
0.0
 10
5.178447
 20
12.711356
 30
0.0
 10
5.176507
 20
12.667068
 30
0.0
 10
5.173791
 20
12.622819
 30
0.0
 10
5.170298
 20
12.578627
 30
0.0
 10
5.166051
 20
12.534501
 30
0.0
 10
5.161031
 20
12.490453
 30
0.0
 10
5.155245
 20
12.446501
 30
0.0
 10
5.148694
 20
12.402658
 30
0.0
 10
5.141378
 20
12.358934
 30
0.0
 10
5.133299
 20
12.315349
 30
0.0
 10
5.124458
 20
12.271908
 30
0.0
 10
5.114863
 20
12.228625
 30
0.0
 10
5.104516
 20
12.185519
 30
0.0
 10
5.093417
 20
12.142600
 30
0.0
 10
5.081568
 20
12.099883
 30
0.0
 10
5.068977
 20
12.057376
 30
0.0
 10
5.055649
 20
12.015099
 30
0.0
 10
5.041580
 20
11.973059
 30
0.0
 10
5.026785
 20
11.931269
 30
0.0
 10
5.011259
 20
11.889747
 30
0.0
 10
4.995010
 20
11.848500
 30
0.0
 10
4.978045
 20
11.807546
 30
0.0
 10
4.960371
 20
11.766892
 30
0.0
 10
4.941988
 20
11.726552
 30
0.0
 10
4.922902
 20
11.686540
 30
0.0
 10
4.903157
 20
11.646867
 30
0.0
 10
4.882686
 20
11.607542
 30
0.0
 10
4.861533
 20
11.568585
 30
0.0
 10
4.839703
 20
11.530002
 30
0.0
 10
4.817203
 20
11.491807
 30
0.0
 10
4.794043
 20
11.454006
 30
0.0
 10
4.770224
 20
11.416619
 30
0.0
 10
4.745755
 20
11.379651
 30
0.0
 10
4.720644
 20
11.343118
 30
0.0
 10
4.694902
 20
11.307029
 30
0.0
 10
4.668535
 20
11.271391
 30
0.0
 10
4.641548
 20
11.236223
 30
0.0
 10
4.613950
 20
11.201527
 30
0.0
 10
4.585753
 20
11.167322
 30
0.0
 10
4.556962
 20
11.133610
 30
0.0
 10
4.527587
 20
11.100410
 30
0.0
 10
4.497639
 20
11.067725
 30
0.0
 10
4.467124
 20
11.035570
 30
0.0
 10
4.436051
 20
11.003950
 30
0.0
 10
4.404432
 20
10.972878
 30
0.0
 10
4.372276
 20
10.942362
 30
0.0
 10
4.339591
 20
10.912415
 30
0.0
 10
4.306391
 20
10.883039
 30
0.0
 10
4.272680
 20
10.854249
 30
0.0
 10
4.238475
 20
10.826051
 30
0.0
 10
4.203779
 20
10.798454
 30
0.0
 10
4.168611
 20
10.771466
 30
0.0
 10
4.132973
 20
10.745100
 30
0.0
 10
4.096884
 20
10.719357
 30
0.0
 10
4.060350
 20
10.694247
 30
0.0
 10
4.023383
 20
10.669778
 30
0.0
 10
3.985995
 20
10.645958
 30
0.0
 10
3.948195
 20
10.622799
 30
0.0
 10
3.910000
 20
10.600298
 30
0.0
 10
3.871416
 20
10.578468
 30
0.0
 10
3.832459
 20
10.557316
 30
0.0
 10
3.793135
 20
10.536844
 30
0.0
 10
3.753462
 20
10.517064
 30
0.0
 10
3.713450
 20
10.497979
 30
0.0
 10
3.673109
 20
10.479595
 30
0.0
 10
3.632455
 20
10.461921
 30
0.0
 10
3.591500
 20
10.444956
 30
0.0
 10
3.550254
 20
10.428707
 30
0.0
 10
3.508731
 20
10.413182
 30
0.0
 10
3.466943
 20
10.398386
 30
0.0
 10
3.424903
 20
10.384317
 30
0.0
 10
3.382624
 20
10.370989
 30
0.0
 10
3.340119
 20
10.358399
 30
0.0
 10
3.297400
 20
10.346549
 30
0.0
 10
3.254482
 20
10.335450
 30
0.0
 10
3.211376
 20
10.325103
 30
0.0
 10
3.168095
 20
10.315508
 30
0.0
 10
3.124655
 20
10.306667
 30
0.0
 10
3.081066
 20
10.298589
 30
0.0
 10
3.037343
 20
10.291272
 30
0.0
 10
2.993499
 20
10.284721
 30
0.0
 10
2.949548
 20
10.278935
 30
0.0
 10
2.905502
 20
10.273915
 30
0.0
 10
2.861375
 20
10.269668
 30
0.0
 10
2.817181
 20
10.266190
 30
0.0
 10
2.772933
 20
10.263484
 30
0.0
 10
2.728644
 20
10.261551
 30
0.0
 10
2.684329
 20
10.260390
 30
0.0
 10
0.100000
 20
10.260002
 30
0.0
  0
LWPOLYLINE
  5
105
100
AcDbEntity
  8
backplate_jr_std1.0
 62
1
100
AcDbPolyline
 90
482
 70
1
 10
22.324999
 20
208.799268
 30
0.0
 10
22.324999
 20
208.799268
 30
0.0
 10
22.229505
 20
208.742999
 30
0.0
 10
22.135010
 20
208.685109
 30
0.0
 10
22.041542
 20
208.625560
 30
0.0
 10
21.949125
 20
208.564388
 30
0.0
 10
21.857787
 20
208.501594
 30
0.0
 10
21.767564
 20
208.437247
 30
0.0
 10
21.678474
 20
208.371313
 30
0.0
 10
21.590547
 20
208.303862
 30
0.0
 10
21.503813
 20
208.234858
 30
0.0
 10
21.418296
 20
208.164373
 30
0.0
 10
21.334025
 20
208.092407
 30
0.0
 10
21.251020
 20
208.018958
 30
0.0
 10
21.169309
 20
207.944099
 30
0.0
 10
21.088918
 20
207.867793
 30
0.0
 10
21.009871
 20
207.790111
 30
0.0
 10
20.932190
 20
207.711089
 30
0.0
 10
20.855902
 20
207.630691
 30
0.0
 10
20.781028
 20
207.548988
 30
0.0
 10
20.707594
 20
207.465979
 30
0.0
 10
20.635617
 20
207.381701
 30
0.0
 10
20.565121
 20
207.296187
 30
0.0
 10
20.496132
 20
207.209439
 30
0.0
 10
20.428663
 20
207.121527
 30
0.0
 10
20.362739
 20
207.032415
 30
0.0
 10
20.298382
 20
206.942210
 30
0.0
 10
20.235609
 20
206.850876
 30
0.0
 10
20.174441
 20
206.758448
 30
0.0
 10
20.114892
 20
206.664962
 30
0.0
 10
20.056987
 20
206.570488
 30
0.0
 10
20.000737
 20
206.474991
 30
0.0
 10
19.946165
 20
206.378542
 30
0.0
 10
19.893280
 20
206.281140
 30
0.0
 10
19.842107
 20
206.182821
 30
0.0
 10
19.792658
 20
206.083655
 30
0.0
 10
19.744945
 20
205.983607
 30
0.0
 10
19.698985
 20
205.882783
 30
0.0
 10
19.654792
 20
205.781148
 30
0.0
 10
19.612381
 20
205.678737
 30
0.0
 10
19.571762
 20
205.575620
 30
0.0
 10
19.532950
 20
205.471832
 30
0.0
 10
19.495957
 20
205.367340
 30
0.0
 10
19.460789
 20
205.262247
 30
0.0
 10
19.427462
 20
205.156555
 30
0.0
 10
19.395987
 20
205.050298
 30
0.0
 10
19.366372
 20
204.943477
 30
0.0
 10
19.338622
 20
204.836197
 30
0.0
 10
19.312749
 20
204.728424
 30
0.0
 10
19.288761
 20
204.620227
 30
0.0
 10
19.266666
 20
204.511642
 30
0.0
 10
19.246470
 20
204.402669
 30
0.0
 10
19.228178
 20
204.293343
 30
0.0
 10
19.211795
 20
204.183735
 30
0.0
 10
19.197331
 20
204.073845
 30
0.0
 10
19.184786
 20
203.963743
 30
0.0
 10
19.174164
 20
203.853429
 30
0.0
 10
19.165468
 20
203.742939
 30
0.0
 10
19.158702
 20
203.632308
 30
0.0
 10
19.153869
 20
203.521606
 30
0.0
 10
19.150976
 20
203.410799
 30
0.0
 10
19.149999
 20
203.299991
 30
0.0
 10
19.150951
 20
203.189184
 30
0.0
 10
19.153844
 20
203.078376
 30
0.0
 10
19.158677
 20
202.967675
 30
0.0
 10
19.165444
 20
202.857044
 30
0.0
 10
19.174140
 20
202.746554
 30
0.0
 10
19.184762
 20
202.636240
 30
0.0
 10
19.197306
 20
202.526138
 30
0.0
 10
19.211770
 20
202.416248
 30
0.0
 10
19.228153
 20
202.306640
 30
0.0
 10
19.246445
 20
202.197314
 30
0.0
 10
19.266641
 20
202.088341
 30
0.0
 10
19.288736
 20
201.979756
 30
0.0
 10
19.312725
 20
201.871559
 30
0.0
 10
19.338597
 20
201.763785
 30
0.0
 10
19.366347
 20
201.656506
 30
0.0
 10
19.395963
 20
201.549685
 30
0.0
 10
19.427437
 20
201.443428
 30
0.0
 10
19.460764
 20
201.337736
 30
0.0
 10
19.495933
 20
201.232643
 30
0.0
 10
19.532925
 20
201.128150
 30
0.0
 10
19.571738
 20
201.024363
 30
0.0
 10
19.612357
 20
200.921246
 30
0.0
 10
19.654767
 20
200.818835
 30
0.0
 10
19.698960
 20
200.717200
 30
0.0
 10
19.744920
 20
200.616376
 30
0.0
 10
19.792633
 20
200.516328
 30
0.0
 10
19.842082
 20
200.417162
 30
0.0
 10
19.893256
 20
200.318843
 30
0.0
 10
19.946141
 20
200.221441
 30
0.0
 10
20.000712
 20
200.124992
 30
0.0
 10
20.056962
 20
200.029495
 30
0.0
 10
20.114867
 20
199.935021
 30
0.0
 10
20.174416
 20
199.841535
 30
0.0
 10
20.235584
 20
199.749107
 30
0.0
 10
20.298358
 20
199.657773
 30
0.0
 10
20.362715
 20
199.567567
 30
0.0
 10
20.428638
 20
199.478456
 30
0.0
 10
20.496107
 20
199.390544
 30
0.0
 10
20.565096
 20
199.303796
 30
0.0
 10
20.635592
 20
199.218282
 30
0.0
 10
20.707569
 20
199.134004
 30
0.0
 10
20.781003
 20
199.050995
 30
0.0
 10
20.855877
 20
198.969292
 30
0.0
 10
20.932165
 20
198.888894
 30
0.0
 10
21.009847
 20
198.809871
 30
0.0
 10
21.088894
 20
198.732190
 30
0.0
 10
21.169285
 20
198.655884
 30
0.0
 10
21.250995
 20
198.581024
 30
0.0
 10
21.334000
 20
198.507576
 30
0.0
 10
21.418272
 20
198.435609
 30
0.0
 10
21.503789
 20
198.365124
 30
0.0
 10
21.590523
 20
198.296121
 30
0.0
 10
21.678449
 20
198.228670
 30
0.0
 10
21.767539
 20
198.162736
 30
0.0
 10
21.857762
 20
198.098389
 30
0.0
 10
21.949100
 20
198.035595
 30
0.0
 10
22.041517
 20
197.974423
 30
0.0
 10
22.134986
 20
197.914874
 30
0.0
 10
22.229481
 20
197.856983
 30
0.0
 10
22.324974
 20
197.800715
 30
0.0
 10
22.421434
 20
197.746141
 30
0.0
 10
22.518829
 20
197.693259
 30
0.0
 10
22.617134
 20
197.642106
 30
0.0
 10
22.716317
 20
197.592647
 30
0.0
 10
22.816348
 20
197.544951
 30
0.0
 10
22.917196
 20
197.498985
 30
0.0
 10
23.018831
 20
197.454781
 30
0.0
 10
23.121222
 20
197.412378
 30
0.0
 10
23.224339
 20
197.371773
 30
0.0
 10
23.328147
 20
197.332932
 30
0.0
 10
23.432615
 20
197.295961
 30
0.0
 10
23.537715
 20
197.260789
 30
0.0
 10
23.643414
 20
197.227451
 30
0.0
 10
23.749678
 20
197.195984
 30
0.0
 10
23.856474
 20
197.166350
 30
0.0
 10
23.963771
 20
197.138622
 30
0.0
 10
24.071534
 20
197.112728
 30
0.0
 10
24.179735
 20
197.088739
 30
0.0
 10
24.288338
 20
197.066655
 30
0.0
 10
24.397307
 20
197.046476
 30
0.0
 10
24.506615
 20
197.028167
 30
0.0
 10
24.616223
 20
197.011798
 30
0.0
 10
24.726103
 20
196.997335
 30
0.0
 10
24.836219
 20
196.984776
 30
0.0
 10
24.946536
 20
196.974157
 30
0.0
 10
25.057019
 20
196.965443
 30
0.0
 10
25.167640
 20
196.958705
 30
0.0
 10
25.278362
 20
196.953872
 30
0.0
 10
25.389152
 20
196.951050
 30
0.0
 10
25.499999
 20
196.949992
 30
0.0
 10
25.610820
 20
196.951050
 30
0.0
 10
25.721610
 20
196.953872
 30
0.0
 10
25.832333
 20
196.958705
 30
0.0
 10
25.942953
 20
196.965443
 30
0.0
 10
26.053436
 20
196.974157
 30
0.0
 10
26.163753
 20
196.984776
 30
0.0
 10
26.273870
 20
196.997335
 30
0.0
 10
26.383749
 20
197.011798
 30
0.0
 10
26.493357
 20
197.028167
 30
0.0
 10
26.602665
 20
197.046476
 30
0.0
 10
26.711635
 20
197.066655
 30
0.0
 10
26.820238
 20
197.088739
 30
0.0
 10
26.928438
 20
197.112728
 30
0.0
 10
27.036201
 20
197.138622
 30
0.0
 10
27.143498
 20
197.166350
 30
0.0
 10
27.250295
 20
197.195984
 30
0.0
 10
27.356559
 20
197.227451
 30
0.0
 10
27.462258
 20
197.260789
 30
0.0
 10
27.567357
 20
197.295961
 30
0.0
 10
27.671825
 20
197.332932
 30
0.0
 10
27.775634
 20
197.371773
 30
0.0
 10
27.878751
 20
197.412378
 30
0.0
 10
27.981141
 20
197.454781
 30
0.0
 10
28.082776
 20
197.498985
 30
0.0
 10
28.183625
 20
197.544951
 30
0.0
 10
28.283655
 20
197.592647
 30
0.0
 10
28.382838
 20
197.642106
 30
0.0
 10
28.481143
 20
197.693259
 30
0.0
 10
28.578538
 20
197.746141
 30
0.0
 10
28.674998
 20
197.800715
 30
0.0
 10
28.770492
 20
197.856983
 30
0.0
 10
28.864987
 20
197.914874
 30
0.0
 10
28.958455
 20
197.974423
 30
0.0
 10
29.050873
 20
198.035595
 30
0.0
 10
29.142210
 20
198.098389
 30
0.0
 10
29.232433
 20
198.162736
 30
0.0
 10
29.321524
 20
198.228670
 30
0.0
 10
29.409450
 20
198.296121
 30
0.0
 10
29.496184
 20
198.365124
 30
0.0
 10
29.581701
 20
198.435609
 30
0.0
 10
29.665972
 20
198.507576
 30
0.0
 10
29.748977
 20
198.581024
 30
0.0
 10
29.830688
 20
198.655884
 30
0.0
 10
29.911079
 20
198.732190
 30
0.0
 10
29.990126
 20
198.809871
 30
0.0
 10
30.067807
 20
198.888894
 30
0.0
 10
30.144096
 20
198.969292
 30
0.0
 10
30.218969
 20
199.050995
 30
0.0
 10
30.292403
 20
199.134004
 30
0.0
 10
30.364381
 20
199.218282
 30
0.0
 10
30.434876
 20
199.303796
 30
0.0
 10
30.503865
 20
199.390544
 30
0.0
 10
30.571334
 20
199.478456
 30
0.0
 10
30.637258
 20
199.567567
 30
0.0
 10
30.701615
 20
199.657773
 30
0.0
 10
30.764388
 20
199.749107
 30
0.0
 10
30.825556
 20
199.841535
 30
0.0
 10
30.885105
 20
199.935021
 30
0.0
 10
30.943010
 20
200.029495
 30
0.0
 10
30.999261
 20
200.124992
 30
0.0
 10
31.053832
 20
200.221441
 30
0.0
 10
31.106717
 20
200.318843
 30
0.0
 10
31.157891
 20
200.417162
 30
0.0
 10
31.207339
 20
200.516328
 30
0.0
 10
31.255053
 20
200.616376
 30
0.0
 10
31.301013
 20
200.717200
 30
0.0
 10
31.345205
 20
200.818835
 30
0.0
 10
31.387616
 20
200.921246
 30
0.0
 10
31.428235
 20
201.024363
 30
0.0
 10
31.467047
 20
201.128150
 30
0.0
 10
31.504040
 20
201.232643
 30
0.0
 10
31.539208
 20
201.337736
 30
0.0
 10
31.572535
 20
201.443428
 30
0.0
 10
31.604010
 20
201.549685
 30
0.0
 10
31.633626
 20
201.656506
 30
0.0
 10
31.661375
 20
201.763785
 30
0.0
 10
31.687248
 20
201.871559
 30
0.0
 10
31.711237
 20
201.979756
 30
0.0
 10
31.733331
 20
202.088341
 30
0.0
 10
31.753528
 20
202.197314
 30
0.0
 10
31.771819
 20
202.306640
 30
0.0
 10
31.788202
 20
202.416248
 30
0.0
 10
31.802666
 20
202.526138
 30
0.0
 10
31.815211
 20
202.636240
 30
0.0
 10
31.825833
 20
202.746554
 30
0.0
 10
31.834529
 20
202.857044
 30
0.0
 10
31.841295
 20
202.967675
 30
0.0
 10
31.846128
 20
203.078376
 30
0.0
 10
31.849021
 20
203.189184
 30
0.0
 10
31.849998
 20
203.299991
 30
0.0
 10
31.849046
 20
203.410799
 30
0.0
 10
31.846153
 20
203.521606
 30
0.0
 10
31.841320
 20
203.632308
 30
0.0
 10
31.834554
 20
203.742939
 30
0.0
 10
31.825858
 20
203.853429
 30
0.0
 10
31.815236
 20
203.963743
 30
0.0
 10
31.802691
 20
204.073845
 30
0.0
 10
31.788227
 20
204.183735
 30
0.0
 10
31.771844
 20
204.293343
 30
0.0
 10
31.753552
 20
204.402669
 30
0.0
 10
31.733356
 20
204.511642
 30
0.0
 10
31.711261
 20
204.620227
 30
0.0
 10
31.687272
 20
204.728424
 30
0.0
 10
31.661400
 20
204.836197
 30
0.0
 10
31.633650
 20
204.943477
 30
0.0
 10
31.604035
 20
205.050298
 30
0.0
 10
31.572560
 20
205.156555
 30
0.0
 10
31.539233
 20
205.262247
 30
0.0
 10
31.504064
 20
205.367340
 30
0.0
 10
31.467072
 20
205.471832
 30
0.0
 10
31.428259
 20
205.575620
 30
0.0
 10
31.387641
 20
205.678737
 30
0.0
 10
31.345230
 20
205.781148
 30
0.0
 10
31.301037
 20
205.882783
 30
0.0
 10
31.255077
 20
205.983607
 30
0.0
 10
31.207364
 20
206.083655
 30
0.0
 10
31.157915
 20
206.182821
 30
0.0
 10
31.106741
 20
206.281140
 30
0.0
 10
31.053856
 20
206.378542
 30
0.0
 10
30.999285
 20
206.474991
 30
0.0
 10
30.943035
 20
206.570488
 30
0.0
 10
30.885130
 20
206.664962
 30
0.0
 10
30.825581
 20
206.758448
 30
0.0
 10
30.764413
 20
206.850876
 30
0.0
 10
30.701640
 20
206.942210
 30
0.0
 10
30.637282
 20
207.032415
 30
0.0
 10
30.571359
 20
207.121527
 30
0.0
 10
30.503890
 20
207.209439
 30
0.0
 10
30.434901
 20
207.296187
 30
0.0
 10
30.364405
 20
207.381701
 30
0.0
 10
30.292428
 20
207.465979
 30
0.0
 10
30.218994
 20
207.548988
 30
0.0
 10
30.144120
 20
207.630691
 30
0.0
 10
30.067832
 20
207.711089
 30
0.0
 10
29.990150
 20
207.790111
 30
0.0
 10
29.911103
 20
207.867793
 30
0.0
 10
29.830712
 20
207.944099
 30
0.0
 10
29.749002
 20
208.018958
 30
0.0
 10
29.665997
 20
208.092407
 30
0.0
 10
29.581725
 20
208.164373
 30
0.0
 10
29.496209
 20
208.234858
 30
0.0
 10
29.409475
 20
208.303862
 30
0.0
 10
29.321548
 20
208.371313
 30
0.0
 10
29.232458
 20
208.437247
 30
0.0
 10
29.142235
 20
208.501594
 30
0.0
 10
29.050897
 20
208.564388
 30
0.0
 10
28.958480
 20
208.625560
 30
0.0
 10
28.865012
 20
208.685109
 30
0.0
 10
28.770517
 20
208.742999
 30
0.0
 10
28.674998
 20
208.799268
 30
0.0
 10
28.674998
 20
212.824991
 30
0.0
 10
28.674505
 20
212.880412
 30
0.0
 10
28.673058
 20
212.935798
 30
0.0
 10
28.670624
 20
212.991149
 30
0.0
 10
28.667237
 20
213.046465
 30
0.0
 10
28.662888
 20
213.101710
 30
0.0
 10
28.657578
 20
213.156884
 30
0.0
 10
28.651306
 20
213.211918
 30
0.0
 10
28.644070
 20
213.266880
 30
0.0
 10
28.635882
 20
213.321667
 30
0.0
 10
28.626735
 20
213.376312
 30
0.0
 10
28.616635
 20
213.430816
 30
0.0
 10
28.605589
 20
213.485109
 30
0.0
 10
28.593595
 20
213.539225
 30
0.0
 10
28.580659
 20
213.593094
 30
0.0
 10
28.566784
 20
213.646751
 30
0.0
 10
28.551978
 20
213.700127
 30
0.0
 10
28.536237
 20
213.753255
 30
0.0
 10
28.519575
 20
213.806136
 30
0.0
 10
28.501993
 20
213.858665
 30
0.0
 10
28.483493
 20
213.910911
 30
0.0
 10
28.464087
 20
213.962805
 30
0.0
 10
28.443777
 20
214.014381
 30
0.0
 10
28.422572
 20
214.065569
 30
0.0
 10
28.400477
 20
214.116369
 30
0.0
 10
28.377497
 20
214.166816
 30
0.0
 10
28.353643
 20
214.216805
 30
0.0
 10
28.328916
 20
214.266406
 30
0.0
 10
28.303329
 20
214.315547
 30
0.0
 10
28.276889
 20
214.364266
 30
0.0
 10
28.249601
 20
214.412491
 30
0.0
 10
28.221478
 20
214.460222
 30
0.0
 10
28.192522
 20
214.507494
 30
0.0
 10
28.162751
 20
214.554237
 30
0.0
 10
28.132165
 20
214.600416
 30
0.0
 10
28.100779
 20
214.646100
 30
0.0
 10
28.068598
 20
214.691221
 30
0.0
 10
28.035638
 20
214.735741
 30
0.0
 10
28.001905
 20
214.779732
 30
0.0
 10
27.967407
 20
214.823089
 30
0.0
 10
27.932161
 20
214.865846
 30
0.0
 10
27.896174
 20
214.907967
 30
0.0
 10
27.859454
 20
214.949489
 30
0.0
 10
27.822017
 20
214.990341
 30
0.0
 10
27.783875
 20
215.030522
 30
0.0
 10
27.745034
 20
215.070069
 30
0.0
 10
27.705512
 20
215.108909
 30
0.0
 10
27.665317
 20
215.147045
 30
0.0
 10
27.624462
 20
215.184474
 30
0.0
 10
27.582957
 20
215.221199
 30
0.0
 10
27.540821
 20
215.257182
 30
0.0
 10
27.498061
 20
215.292424
 30
0.0
 10
27.454694
 20
215.326926
 30
0.0
 10
27.410735
 20
215.360652
 30
0.0
 10
27.366189
 20
215.393636
 30
0.0
 10
27.321076
 20
215.425810
 30
0.0
 10
27.275409
 20
215.457172
 30
0.0
 10
27.229199
 20
215.487757
 30
0.0
 10
27.182463
 20
215.517532
 30
0.0
 10
27.135215
 20
215.546495
 30
0.0
 10
27.087470
 20
215.574611
 30
0.0
 10
27.039242
 20
215.601916
 30
0.0
 10
26.990541
 20
215.628339
 30
0.0
 10
26.941389
 20
215.653951
 30
0.0
 10
26.891799
 20
215.678645
 30
0.0
 10
26.841782
 20
215.702529
 30
0.0
 10
26.791359
 20
215.725494
 30
0.0
 10
26.740542
 20
215.747578
 30
0.0
 10
26.689346
 20
215.768815
 30
0.0
 10
26.637788
 20
215.789100
 30
0.0
 10
26.585884
 20
215.808503
 30
0.0
 10
26.533648
 20
215.827024
 30
0.0
 10
26.481098
 20
215.844592
 30
0.0
 10
26.428252
 20
215.861243
 30
0.0
 10
26.375120
 20
215.877012
 30
0.0
 10
26.321720
 20
215.891794
 30
0.0
 10
26.268073
 20
215.905693
 30
0.0
 10
26.214190
 20
215.918605
 30
0.0
 10
26.160092
 20
215.930599
 30
0.0
 10
26.105789
 20
215.941641
 30
0.0
 10
26.051302
 20
215.951766
 30
0.0
 10
25.996650
 20
215.960903
 30
0.0
 10
25.941846
 20
215.969087
 30
0.0
 10
25.886904
 20
215.976319
 30
0.0
 10
25.831850
 20
215.982599
 30
0.0
 10
25.776689
 20
215.987926
 30
0.0
 10
25.721448
 20
215.992265
 30
0.0
 10
25.666136
 20
215.995793
 30
0.0
 10
25.610778
 20
215.998262
 30
0.0
 10
25.555381
 20
215.999673
 30
0.0
 10
25.499999
 20
215.999991
 30
0.0
 10
25.444588
 20
215.999638
 30
0.0
 10
25.389191
 20
215.998227
 30
0.0
 10
25.333833
 20
215.995757
 30
0.0
 10
25.278521
 20
215.992230
 30
0.0
 10
25.223280
 20
215.987890
 30
0.0
 10
25.168119
 20
215.982564
 30
0.0
 10
25.113065
 20
215.976284
 30
0.0
 10
25.058123
 20
215.969052
 30
0.0
 10
25.003319
 20
215.960868
 30
0.0
 10
24.948667
 20
215.951731
 30
0.0
 10
24.894180
 20
215.941606
 30
0.0
 10
24.839877
 20
215.930564
 30
0.0
 10
24.785779
 20
215.918570
 30
0.0
 10
24.731896
 20
215.905658
 30
0.0
 10
24.678249
 20
215.891759
 30
0.0
 10
24.624849
 20
215.876977
 30
0.0
 10
24.571717
 20
215.861208
 30
0.0
 10
24.518871
 20
215.844557
 30
0.0
 10
24.466321
 20
215.826989
 30
0.0
 10
24.414085
 20
215.808468
 30
0.0
 10
24.362181
 20
215.789065
 30
0.0
 10
24.310622
 20
215.768780
 30
0.0
 10
24.259427
 20
215.747543
 30
0.0
 10
24.208610
 20
215.725459
 30
0.0
 10
24.158187
 20
215.702493
 30
0.0
 10
24.108170
 20
215.678610
 30
0.0
 10
24.058580
 20
215.653916
 30
0.0
 10
24.009428
 20
215.628304
 30
0.0
 10
23.960727
 20
215.601881
 30
0.0
 10
23.912499
 20
215.574576
 30
0.0
 10
23.864754
 20
215.546460
 30
0.0
 10
23.817506
 20
215.517497
 30
0.0
 10
23.770770
 20
215.487722
 30
0.0
 10
23.724560
 20
215.457136
 30
0.0
 10
23.678893
 20
215.425774
 30
0.0
 10
23.633780
 20
215.393601
 30
0.0
 10
23.589234
 20
215.360616
 30
0.0
 10
23.545275
 20
215.326891
 30
0.0
 10
23.501908
 20
215.292389
 30
0.0
 10
23.459147
 20
215.257147
 30
0.0
 10
23.417012
 20
215.221163
 30
0.0
 10
23.375507
 20
215.184439
 30
0.0
 10
23.334652
 20
215.147009
 30
0.0
 10
23.294457
 20
215.108874
 30
0.0
 10
23.254935
 20
215.070033
 30
0.0
 10
23.216094
 20
215.030487
 30
0.0
 10
23.177952
 20
214.990306
 30
0.0
 10
23.140515
 20
214.949454
 30
0.0
 10
23.103794
 20
214.907932
 30
0.0
 10
23.067808
 20
214.865810
 30
0.0
 10
23.032562
 20
214.823054
 30
0.0
 10
22.998063
 20
214.779697
 30
0.0
 10
22.964331
 20
214.735706
 30
0.0
 10
22.931371
 20
214.691185
 30
0.0
 10
22.899190
 20
214.646065
 30
0.0
 10
22.867804
 20
214.600380
 30
0.0
 10
22.837218
 20
214.554202
 30
0.0
 10
22.807447
 20
214.507459
 30
0.0
 10
22.778491
 20
214.460186
 30
0.0
 10
22.750368
 20
214.412456
 30
0.0
 10
22.723080
 20
214.364231
 30
0.0
 10
22.696640
 20
214.315512
 30
0.0
 10
22.671053
 20
214.266370
 30
0.0
 10
22.646326
 20
214.216770
 30
0.0
 10
22.622472
 20
214.166781
 30
0.0
 10
22.599492
 20
214.116334
 30
0.0
 10
22.577397
 20
214.065534
 30
0.0
 10
22.556192
 20
214.014346
 30
0.0
 10
22.535882
 20
213.962770
 30
0.0
 10
22.516476
 20
213.910876
 30
0.0
 10
22.497976
 20
213.858630
 30
0.0
 10
22.480394
 20
213.806101
 30
0.0
 10
22.463732
 20
213.753220
 30
0.0
 10
22.447991
 20
213.700091
 30
0.0
 10
22.433185
 20
213.646716
 30
0.0
 10
22.419310
 20
213.593059
 30
0.0
 10
22.406374
 20
213.539189
 30
0.0
 10
22.394380
 20
213.485073
 30
0.0
 10
22.383334
 20
213.430781
 30
0.0
 10
22.373234
 20
213.376277
 30
0.0
 10
22.364087
 20
213.321631
 30
0.0
 10
22.355899
 20
213.266845
 30
0.0
 10
22.348663
 20
213.211882
 30
0.0
 10
22.342391
 20
213.156849
 30
0.0
 10
22.337081
 20
213.101674
 30
0.0
 10
22.332732
 20
213.046429
 30
0.0
 10
22.329345
 20
212.991114
 30
0.0
 10
22.326911
 20
212.935763
 30
0.0
 10
22.325464
 20
212.880377
 30
0.0
  0
LWPOLYLINE
  5
106
100
AcDbEntity
  8
backplate_jr_std1.0
 62
1
100
AcDbPolyline
 90
482
 70
1
 10
202.664989
 20
208.799268
 30
0.0
 10
202.664989
 20
208.799268
 30
0.0
 10
202.569492
 20
208.742999
 30
0.0
 10
202.475018
 20
208.685109
 30
0.0
 10
202.381532
 20
208.625560
 30
0.0
 10
202.289104
 20
208.564388
 30
0.0
 10
202.197770
 20
208.501594
 30
0.0
 10
202.107565
 20
208.437247
 30
0.0
 10
202.018453
 20
208.371313
 30
0.0
 10
201.930541
 20
208.303862
 30
0.0
 10
201.843793
 20
208.234858
 30
0.0
 10
201.758280
 20
208.164373
 30
0.0
 10
201.674001
 20
208.092407
 30
0.0
 10
201.590992
 20
208.018958
 30
0.0
 10
201.509289
 20
207.944099
 30
0.0
 10
201.428891
 20
207.867793
 30
0.0
 10
201.349869
 20
207.790111
 30
0.0
 10
201.272187
 20
207.711089
 30
0.0
 10
201.195881
 20
207.630691
 30
0.0
 10
201.121022
 20
207.548988
 30
0.0
 10
201.047573
 20
207.465979
 30
0.0
 10
200.975607
 20
207.381701
 30
0.0
 10
200.905122
 20
207.296187
 30
0.0
 10
200.836119
 20
207.209439
 30
0.0
 10
200.768667
 20
207.121527
 30
0.0
 10
200.702733
 20
207.032415
 30
0.0
 10
200.638387
 20
206.942210
 30
0.0
 10
200.575592
 20
206.850876
 30
0.0
 10
200.514420
 20
206.758448
 30
0.0
 10
200.454872
 20
206.664962
 30
0.0
 10
200.396981
 20
206.570488
 30
0.0
 10
200.340713
 20
206.474991
 30
0.0
 10
200.286138
 20
206.378542
 30
0.0
 10
200.233257
 20
206.281140
 30
0.0
 10
200.182104
 20
206.182821
 30
0.0
 10
200.132644
 20
206.083655
 30
0.0
 10
200.084949
 20
205.983607
 30
0.0
 10
200.038982
 20
205.882783
 30
0.0
 10
199.994779
 20
205.781148
 30
0.0
 10
199.952375
 20
205.678737
 30
0.0
 10
199.911770
 20
205.575620
 30
0.0
 10
199.872929
 20
205.471832
 30
0.0
 10
199.835958
 20
205.367340
 30
0.0
 10
199.800786
 20
205.262247
 30
0.0
 10
199.767449
 20
205.156555
 30
0.0
 10
199.735981
 20
205.050298
 30
0.0
 10
199.706348
 20
204.943477
 30
0.0
 10
199.678619
 20
204.836197
 30
0.0
 10
199.652726
 20
204.728424
 30
0.0
 10
199.628737
 20
204.620227
 30
0.0
 10
199.606653
 20
204.511642
 30
0.0
 10
199.586474
 20
204.402669
 30
0.0
 10
199.568165
 20
204.293343
 30
0.0
 10
199.551796
 20
204.183735
 30
0.0
 10
199.537332
 20
204.073845
 30
0.0
 10
199.524773
 20
203.963743
 30
0.0
 10
199.514154
 20
203.853429
 30
0.0
 10
199.505441
 20
203.742939
 30
0.0
 10
199.498703
 20
203.632308
 30
0.0
 10
199.493870
 20
203.521606
 30
0.0
 10
199.491047
 20
203.410799
 30
0.0
 10
199.489989
 20
203.299991
 30
0.0
 10
199.491047
 20
203.189184
 30
0.0
 10
199.493870
 20
203.078376
 30
0.0
 10
199.498703
 20
202.967675
 30
0.0
 10
199.505441
 20
202.857044
 30
0.0
 10
199.514154
 20
202.746554
 30
0.0
 10
199.524773
 20
202.636240
 30
0.0
 10
199.537332
 20
202.526138
 30
0.0
 10
199.551796
 20
202.416248
 30
0.0
 10
199.568165
 20
202.306640
 30
0.0
 10
199.586474
 20
202.197314
 30
0.0
 10
199.606653
 20
202.088341
 30
0.0
 10
199.628737
 20
201.979756
 30
0.0
 10
199.652726
 20
201.871559
 30
0.0
 10
199.678619
 20
201.763785
 30
0.0
 10
199.706348
 20
201.656506
 30
0.0
 10
199.735981
 20
201.549685
 30
0.0
 10
199.767449
 20
201.443428
 30
0.0
 10
199.800786
 20
201.337736
 30
0.0
 10
199.835958
 20
201.232643
 30
0.0
 10
199.872929
 20
201.128150
 30
0.0
 10
199.911770
 20
201.024363
 30
0.0
 10
199.952375
 20
200.921246
 30
0.0
 10
199.994779
 20
200.818835
 30
0.0
 10
200.038982
 20
200.717200
 30
0.0
 10
200.084949
 20
200.616376
 30
0.0
 10
200.132644
 20
200.516328
 30
0.0
 10
200.182104
 20
200.417162
 30
0.0
 10
200.233257
 20
200.318843
 30
0.0
 10
200.286138
 20
200.221441
 30
0.0
 10
200.340713
 20
200.124992
 30
0.0
 10
200.396981
 20
200.029495
 30
0.0
 10
200.454872
 20
199.935021
 30
0.0
 10
200.514420
 20
199.841535
 30
0.0
 10
200.575592
 20
199.749107
 30
0.0
 10
200.638387
 20
199.657773
 30
0.0
 10
200.702733
 20
199.567567
 30
0.0
 10
200.768667
 20
199.478456
 30
0.0
 10
200.836119
 20
199.390544
 30
0.0
 10
200.905122
 20
199.303796
 30
0.0
 10
200.975607
 20
199.218282
 30
0.0
 10
201.047573
 20
199.134004
 30
0.0
 10
201.121022
 20
199.050995
 30
0.0
 10
201.195881
 20
198.969292
 30
0.0
 10
201.272187
 20
198.888894
 30
0.0
 10
201.349869
 20
198.809871
 30
0.0
 10
201.428891
 20
198.732190
 30
0.0
 10
201.509289
 20
198.655884
 30
0.0
 10
201.590992
 20
198.581024
 30
0.0
 10
201.674001
 20
198.507576
 30
0.0
 10
201.758280
 20
198.435609
 30
0.0
 10
201.843793
 20
198.365124
 30
0.0
 10
201.930541
 20
198.296121
 30
0.0
 10
202.018453
 20
198.228670
 30
0.0
 10
202.107565
 20
198.162736
 30
0.0
 10
202.197770
 20
198.098389
 30
0.0
 10
202.289104
 20
198.035595
 30
0.0
 10
202.381532
 20
197.974423
 30
0.0
 10
202.475018
 20
197.914874
 30
0.0
 10
202.569492
 20
197.856983
 30
0.0
 10
202.664989
 20
197.800715
 30
0.0
 10
202.761438
 20
197.746141
 30
0.0
 10
202.858840
 20
197.693259
 30
0.0
 10
202.957160
 20
197.642106
 30
0.0
 10
203.056325
 20
197.592647
 30
0.0
 10
203.156373
 20
197.544951
 30
0.0
 10
203.257197
 20
197.498985
 30
0.0
 10
203.358832
 20
197.454781
 30
0.0
 10
203.461244
 20
197.412378
 30
0.0
 10
203.564361
 20
197.371773
 30
0.0
 10
203.668148
 20
197.332932
 30
0.0
 10
203.772641
 20
197.295961
 30
0.0
 10
203.877733
 20
197.260789
 30
0.0
 10
203.983425
 20
197.227451
 30
0.0
 10
204.089682
 20
197.195984
 30
0.0
 10
204.196503
 20
197.166350
 30
0.0
 10
204.303783
 20
197.138622
 30
0.0
 10
204.411556
 20
197.112728
 30
0.0
 10
204.519753
 20
197.088739
 30
0.0
 10
204.628338
 20
197.066655
 30
0.0
 10
204.737311
 20
197.046476
 30
0.0
 10
204.846637
 20
197.028167
 30
0.0
 10
204.956245
 20
197.011798
 30
0.0
 10
205.066135
 20
196.997335
 30
0.0
 10
205.176237
 20
196.984776
 30
0.0
 10
205.286551
 20
196.974157
 30
0.0
 10
205.397041
 20
196.965443
 30
0.0
 10
205.507672
 20
196.958705
 30
0.0
 10
205.618374
 20
196.953872
 30
0.0
 10
205.729181
 20
196.951050
 30
0.0
 10
205.839989
 20
196.949992
 30
0.0
 10
205.950796
 20
196.951050
 30
0.0
 10
206.061604
 20
196.953872
 30
0.0
 10
206.172305
 20
196.958705
 30
0.0
 10
206.282937
 20
196.965443
 30
0.0
 10
206.393427
 20
196.974157
 30
0.0
 10
206.503740
 20
196.984776
 30
0.0
 10
206.613842
 20
196.997335
 30
0.0
 10
206.723732
 20
197.011798
 30
0.0
 10
206.833340
 20
197.028167
 30
0.0
 10
206.942666
 20
197.046476
 30
0.0
 10
207.051639
 20
197.066655
 30
0.0
 10
207.160224
 20
197.088739
 30
0.0
 10
207.268421
 20
197.112728
 30
0.0
 10
207.376195
 20
197.138622
 30
0.0
 10
207.483475
 20
197.166350
 30
0.0
 10
207.590296
 20
197.195984
 30
0.0
 10
207.696552
 20
197.227451
 30
0.0
 10
207.802245
 20
197.260789
 30
0.0
 10
207.907337
 20
197.295961
 30
0.0
 10
208.011830
 20
197.332932
 30
0.0
 10
208.115617
 20
197.371773
 30
0.0
 10
208.218734
 20
197.412378
 30
0.0
 10
208.321145
 20
197.454781
 30
0.0
 10
208.422781
 20
197.498985
 30
0.0
 10
208.523604
 20
197.544951
 30
0.0
 10
208.623652
 20
197.592647
 30
0.0
 10
208.722818
 20
197.642106
 30
0.0
 10
208.821137
 20
197.693259
 30
0.0
 10
208.918539
 20
197.746141
 30
0.0
 10
209.014989
 20
197.800715
 30
0.0
 10
209.110486
 20
197.856983
 30
0.0
 10
209.204959
 20
197.914874
 30
0.0
 10
209.298446
 20
197.974423
 30
0.0
 10
209.390873
 20
198.035595
 30
0.0
 10
209.482207
 20
198.098389
 30
0.0
 10
209.572413
 20
198.162736
 30
0.0
 10
209.661524
 20
198.228670
 30
0.0
 10
209.749437
 20
198.296121
 30
0.0
 10
209.836185
 20
198.365124
 30
0.0
 10
209.921698
 20
198.435609
 30
0.0
 10
210.005977
 20
198.507576
 30
0.0
 10
210.088985
 20
198.581024
 30
0.0
 10
210.170689
 20
198.655884
 30
0.0
 10
210.251087
 20
198.732190
 30
0.0
 10
210.330109
 20
198.809871
 30
0.0
 10
210.407790
 20
198.888894
 30
0.0
 10
210.484096
 20
198.969292
 30
0.0
 10
210.558956
 20
199.050995
 30
0.0
 10
210.632404
 20
199.134004
 30
0.0
 10
210.704371
 20
199.218282
 30
0.0
 10
210.774856
 20
199.303796
 30
0.0
 10
210.843859
 20
199.390544
 30
0.0
 10
210.911310
 20
199.478456
 30
0.0
 10
210.977244
 20
199.567567
 30
0.0
 10
211.041591
 20
199.657773
 30
0.0
 10
211.104385
 20
199.749107
 30
0.0
 10
211.165557
 20
199.841535
 30
0.0
 10
211.225106
 20
199.935021
 30
0.0
 10
211.282997
 20
200.029495
 30
0.0
 10
211.339265
 20
200.124992
 30
0.0
 10
211.393840
 20
200.221441
 30
0.0
 10
211.446721
 20
200.318843
 30
0.0
 10
211.497874
 20
200.417162
 30
0.0
 10
211.547333
 20
200.516328
 30
0.0
 10
211.595029
 20
200.616376
 30
0.0
 10
211.640996
 20
200.717200
 30
0.0
 10
211.685199
 20
200.818835
 30
0.0
 10
211.727603
 20
200.921246
 30
0.0
 10
211.768207
 20
201.024363
 30
0.0
 10
211.807048
 20
201.128150
 30
0.0
 10
211.844019
 20
201.232643
 30
0.0
 10
211.879191
 20
201.337736
 30
0.0
 10
211.912529
 20
201.443428
 30
0.0
 10
211.943997
 20
201.549685
 30
0.0
 10
211.973630
 20
201.656506
 30
0.0
 10
212.001358
 20
201.763785
 30
0.0
 10
212.027252
 20
201.871559
 30
0.0
 10
212.051241
 20
201.979756
 30
0.0
 10
212.073325
 20
202.088341
 30
0.0
 10
212.093504
 20
202.197314
 30
0.0
 10
212.111813
 20
202.306640
 30
0.0
 10
212.128182
 20
202.416248
 30
0.0
 10
212.142646
 20
202.526138
 30
0.0
 10
212.155205
 20
202.636240
 30
0.0
 10
212.165823
 20
202.746554
 30
0.0
 10
212.174537
 20
202.857044
 30
0.0
 10
212.181275
 20
202.967675
 30
0.0
 10
212.186108
 20
203.078376
 30
0.0
 10
212.188930
 20
203.189184
 30
0.0
 10
212.189988
 20
203.299991
 30
0.0
 10
212.188930
 20
203.410799
 30
0.0
 10
212.186108
 20
203.521606
 30
0.0
 10
212.181275
 20
203.632308
 30
0.0
 10
212.174537
 20
203.742939
 30
0.0
 10
212.165823
 20
203.853429
 30
0.0
 10
212.155205
 20
203.963743
 30
0.0
 10
212.142646
 20
204.073845
 30
0.0
 10
212.128182
 20
204.183735
 30
0.0
 10
212.111813
 20
204.293343
 30
0.0
 10
212.093504
 20
204.402669
 30
0.0
 10
212.073325
 20
204.511642
 30
0.0
 10
212.051241
 20
204.620227
 30
0.0
 10
212.027252
 20
204.728424
 30
0.0
 10
212.001358
 20
204.836197
 30
0.0
 10
211.973630
 20
204.943477
 30
0.0
 10
211.943997
 20
205.050298
 30
0.0
 10
211.912529
 20
205.156555
 30
0.0
 10
211.879191
 20
205.262247
 30
0.0
 10
211.844019
 20
205.367340
 30
0.0
 10
211.807048
 20
205.471832
 30
0.0
 10
211.768207
 20
205.575620
 30
0.0
 10
211.727603
 20
205.678737
 30
0.0
 10
211.685199
 20
205.781148
 30
0.0
 10
211.640996
 20
205.882783
 30
0.0
 10
211.595029
 20
205.983607
 30
0.0
 10
211.547333
 20
206.083655
 30
0.0
 10
211.497874
 20
206.182821
 30
0.0
 10
211.446721
 20
206.281140
 30
0.0
 10
211.393840
 20
206.378542
 30
0.0
 10
211.339265
 20
206.474991
 30
0.0
 10
211.282997
 20
206.570488
 30
0.0
 10
211.225106
 20
206.664962
 30
0.0
 10
211.165557
 20
206.758448
 30
0.0
 10
211.104385
 20
206.850876
 30
0.0
 10
211.041591
 20
206.942210
 30
0.0
 10
210.977244
 20
207.032415
 30
0.0
 10
210.911310
 20
207.121527
 30
0.0
 10
210.843859
 20
207.209439
 30
0.0
 10
210.774856
 20
207.296187
 30
0.0
 10
210.704371
 20
207.381701
 30
0.0
 10
210.632404
 20
207.465979
 30
0.0
 10
210.558956
 20
207.548988
 30
0.0
 10
210.484096
 20
207.630691
 30
0.0
 10
210.407790
 20
207.711089
 30
0.0
 10
210.330109
 20
207.790111
 30
0.0
 10
210.251087
 20
207.867793
 30
0.0
 10
210.170689
 20
207.944099
 30
0.0
 10
210.088985
 20
208.018958
 30
0.0
 10
210.005977
 20
208.092407
 30
0.0
 10
209.921698
 20
208.164373
 30
0.0
 10
209.836185
 20
208.234858
 30
0.0
 10
209.749437
 20
208.303862
 30
0.0
 10
209.661524
 20
208.371313
 30
0.0
 10
209.572413
 20
208.437247
 30
0.0
 10
209.482207
 20
208.501594
 30
0.0
 10
209.390873
 20
208.564388
 30
0.0
 10
209.298446
 20
208.625560
 30
0.0
 10
209.204959
 20
208.685109
 30
0.0
 10
209.110486
 20
208.742999
 30
0.0
 10
209.014989
 20
208.799268
 30
0.0
 10
209.014989
 20
212.824991
 30
0.0
 10
209.014636
 20
212.880412
 30
0.0
 10
209.013225
 20
212.935798
 30
0.0
 10
209.010755
 20
212.991149
 30
0.0
 10
209.007228
 20
213.046465
 30
0.0
 10
209.002888
 20
213.101710
 30
0.0
 10
208.997561
 20
213.156884
 30
0.0
 10
208.991282
 20
213.211918
 30
0.0
 10
208.984050
 20
213.266880
 30
0.0
 10
208.975866
 20
213.321667
 30
0.0
 10
208.966729
 20
213.376312
 30
0.0
 10
208.956604
 20
213.430816
 30
0.0
 10
208.945562
 20
213.485109
 30
0.0
 10
208.933568
 20
213.539225
 30
0.0
 10
208.920656
 20
213.593094
 30
0.0
 10
208.906756
 20
213.646751
 30
0.0
 10
208.891975
 20
213.700127
 30
0.0
 10
208.876206
 20
213.753255
 30
0.0
 10
208.859555
 20
213.806136
 30
0.0
 10
208.841986
 20
213.858665
 30
0.0
 10
208.823466
 20
213.910911
 30
0.0
 10
208.804063
 20
213.962805
 30
0.0
 10
208.783778
 20
214.014381
 30
0.0
 10
208.762541
 20
214.065569
 30
0.0
 10
208.740457
 20
214.116369
 30
0.0
 10
208.717491
 20
214.166816
 30
0.0
 10
208.693608
 20
214.216805
 30
0.0
 10
208.668914
 20
214.266406
 30
0.0
 10
208.643302
 20
214.315547
 30
0.0
 10
208.616879
 20
214.364266
 30
0.0
 10
208.589574
 20
214.412491
 30
0.0
 10
208.561458
 20
214.460222
 30
0.0
 10
208.532494
 20
214.507494
 30
0.0
 10
208.502720
 20
214.554237
 30
0.0
 10
208.472134
 20
214.600416
 30
0.0
 10
208.440772
 20
214.646100
 30
0.0
 10
208.408599
 20
214.691221
 30
0.0
 10
208.375614
 20
214.735741
 30
0.0
 10
208.341889
 20
214.779732
 30
0.0
 10
208.307387
 20
214.823089
 30
0.0
 10
208.272144
 20
214.865846
 30
0.0
 10
208.236161
 20
214.907967
 30
0.0
 10
208.199437
 20
214.949489
 30
0.0
 10
208.162007
 20
214.990341
 30
0.0
 10
208.123872
 20
215.030522
 30
0.0
 10
208.085031
 20
215.070069
 30
0.0
 10
208.045485
 20
215.108909
 30
0.0
 10
208.005303
 20
215.147045
 30
0.0
 10
207.964452
 20
215.184474
 30
0.0
 10
207.922930
 20
215.221199
 30
0.0
 10
207.880808
 20
215.257182
 30
0.0
 10
207.838051
 20
215.292424
 30
0.0
 10
207.794695
 20
215.326926
 30
0.0
 10
207.750704
 20
215.360652
 30
0.0
 10
207.706183
 20
215.393636
 30
0.0
 10
207.661063
 20
215.425810
 30
0.0
 10
207.615378
 20
215.457172
 30
0.0
 10
207.569200
 20
215.487757
 30
0.0
 10
207.522456
 20
215.517532
 30
0.0
 10
207.475184
 20
215.546495
 30
0.0
 10
207.427453
 20
215.574611
 30
0.0
 10
207.379229
 20
215.601916
 30
0.0
 10
207.330510
 20
215.628339
 30
0.0
 10
207.281368
 20
215.653951
 30
0.0
 10
207.231768
 20
215.678645
 30
0.0
 10
207.181779
 20
215.702529
 30
0.0
 10
207.131332
 20
215.725494
 30
0.0
 10
207.080532
 20
215.747578
 30
0.0
 10
207.029344
 20
215.768815
 30
0.0
 10
206.977768
 20
215.789100
 30
0.0
 10
206.925874
 20
215.808503
 30
0.0
 10
206.873628
 20
215.827024
 30
0.0
 10
206.821099
 20
215.844592
 30
0.0
 10
206.768218
 20
215.861243
 30
0.0
 10
206.715089
 20
215.877012
 30
0.0
 10
206.661714
 20
215.891794
 30
0.0
 10
206.608057
 20
215.905693
 30
0.0
 10
206.554187
 20
215.918605
 30
0.0
 10
206.500071
 20
215.930599
 30
0.0
 10
206.445779
 20
215.941641
 30
0.0
 10
206.391275
 20
215.951766
 30
0.0
 10
206.336629
 20
215.960903
 30
0.0
 10
206.281843
 20
215.969087
 30
0.0
 10
206.226880
 20
215.976319
 30
0.0
 10
206.171847
 20
215.982599
 30
0.0
 10
206.116672
 20
215.987926
 30
0.0
 10
206.061427
 20
215.992265
 30
0.0
 10
206.006112
 20
215.995793
 30
0.0
 10
205.950761
 20
215.998262
 30
0.0
 10
205.895375
 20
215.999673
 30
0.0
 10
205.839954
 20
216.000026
 30
0.0
 10
205.784532
 20
215.999673
 30
0.0
 10
205.729146
 20
215.998262
 30
0.0
 10
205.673795
 20
215.995793
 30
0.0
 10
205.618480
 20
215.992265
 30
0.0
 10
205.563235
 20
215.987926
 30
0.0
 10
205.508060
 20
215.982599
 30
0.0
 10
205.453027
 20
215.976319
 30
0.0
 10
205.398064
 20
215.969087
 30
0.0
 10
205.343278
 20
215.960903
 30
0.0
 10
205.288632
 20
215.951766
 30
0.0
 10
205.234128
 20
215.941641
 30
0.0
 10
205.179836
 20
215.930599
 30
0.0
 10
205.125720
 20
215.918605
 30
0.0
 10
205.071850
 20
215.905693
 30
0.0
 10
205.018193
 20
215.891794
 30
0.0
 10
204.964818
 20
215.877012
 30
0.0
 10
204.911689
 20
215.861243
 30
0.0
 10
204.858808
 20
215.844592
 30
0.0
 10
204.806279
 20
215.827024
 30
0.0
 10
204.754033
 20
215.808503
 30
0.0
 10
204.702139
 20
215.789100
 30
0.0
 10
204.650563
 20
215.768815
 30
0.0
 10
204.599375
 20
215.747578
 30
0.0
 10
204.548575
 20
215.725494
 30
0.0
 10
204.498128
 20
215.702529
 30
0.0
 10
204.448139
 20
215.678645
 30
0.0
 10
204.398539
 20
215.653951
 30
0.0
 10
204.349397
 20
215.628339
 30
0.0
 10
204.300678
 20
215.601916
 30
0.0
 10
204.252454
 20
215.574611
 30
0.0
 10
204.204723
 20
215.546495
 30
0.0
 10
204.157451
 20
215.517532
 30
0.0
 10
204.110707
 20
215.487757
 30
0.0
 10
204.064529
 20
215.457172
 30
0.0
 10
204.018844
 20
215.425810
 30
0.0
 10
203.973724
 20
215.393636
 30
0.0
 10
203.929203
 20
215.360652
 30
0.0
 10
203.885212
 20
215.326926
 30
0.0
 10
203.841856
 20
215.292424
 30
0.0
 10
203.799099
 20
215.257182
 30
0.0
 10
203.756977
 20
215.221199
 30
0.0
 10
203.715455
 20
215.184474
 30
0.0
 10
203.674604
 20
215.147045
 30
0.0
 10
203.634422
 20
215.108909
 30
0.0
 10
203.594876
 20
215.070069
 30
0.0
 10
203.556035
 20
215.030522
 30
0.0
 10
203.517900
 20
214.990341
 30
0.0
 10
203.480470
 20
214.949489
 30
0.0
 10
203.443746
 20
214.907967
 30
0.0
 10
203.407763
 20
214.865846
 30
0.0
 10
203.372520
 20
214.823089
 30
0.0
 10
203.338018
 20
214.779732
 30
0.0
 10
203.304293
 20
214.735741
 30
0.0
 10
203.271308
 20
214.691221
 30
0.0
 10
203.239135
 20
214.646100
 30
0.0
 10
203.207773
 20
214.600416
 30
0.0
 10
203.177187
 20
214.554237
 30
0.0
 10
203.147413
 20
214.507494
 30
0.0
 10
203.118449
 20
214.460222
 30
0.0
 10
203.090333
 20
214.412491
 30
0.0
 10
203.063028
 20
214.364266
 30
0.0
 10
203.036605
 20
214.315547
 30
0.0
 10
203.010993
 20
214.266406
 30
0.0
 10
202.986299
 20
214.216805
 30
0.0
 10
202.962416
 20
214.166816
 30
0.0
 10
202.939450
 20
214.116369
 30
0.0
 10
202.917366
 20
214.065569
 30
0.0
 10
202.896129
 20
214.014381
 30
0.0
 10
202.875844
 20
213.962805
 30
0.0
 10
202.856441
 20
213.910911
 30
0.0
 10
202.837921
 20
213.858665
 30
0.0
 10
202.820352
 20
213.806136
 30
0.0
 10
202.803701
 20
213.753255
 30
0.0
 10
202.787932
 20
213.700127
 30
0.0
 10
202.773151
 20
213.646751
 30
0.0
 10
202.759251
 20
213.593094
 30
0.0
 10
202.746340
 20
213.539225
 30
0.0
 10
202.734345
 20
213.485109
 30
0.0
 10
202.723303
 20
213.430816
 30
0.0
 10
202.713178
 20
213.376312
 30
0.0
 10
202.704041
 20
213.321667
 30
0.0
 10
202.695857
 20
213.266880
 30
0.0
 10
202.688625
 20
213.211918
 30
0.0
 10
202.682346
 20
213.156884
 30
0.0
 10
202.677019
 20
213.101710
 30
0.0
 10
202.672680
 20
213.046465
 30
0.0
 10
202.669152
 20
212.991149
 30
0.0
 10
202.666682
 20
212.935798
 30
0.0
 10
202.665271
 20
212.880412
 30
0.0
  0
LWPOLYLINE
  5
107
100
AcDbEntity
  8
backplate_jr_std1.0
 62
1
100
AcDbPolyline
 90
4
 70
1
 10
180.439990
 20
215.999991
 30
0.0
 10
188.059990
 20
215.999991
 30
0.0
 10
188.059990
 20
223.619990
 30
0.0
 10
180.439990
 20
223.619990
 30
0.0
  0
LWPOLYLINE
  5
108
100
AcDbEntity
  8
backplate_jr_std1.0
 62
1
100
AcDbPolyline
 90
4
 70
1
 10
165.199991
 20
215.999991
 30
0.0
 10
172.819991
 20
215.999991
 30
0.0
 10
172.819991
 20
223.619990
 30
0.0
 10
165.199991
 20
223.619990
 30
0.0
  0
LWPOLYLINE
  5
109
100
AcDbEntity
  8
backplate_jr_std1.0
 62
1
100
AcDbPolyline
 90
4
 70
1
 10
149.959992
 20
215.999991
 30
0.0
 10
157.579991
 20
215.999991
 30
0.0
 10
157.579991
 20
223.619990
 30
0.0
 10
149.959992
 20
223.619990
 30
0.0
  0
LWPOLYLINE
  5
10a
100
AcDbEntity
  8
backplate_jr_std1.0
 62
1
100
AcDbPolyline
 90
4
 70
1
 10
134.719993
 20
215.999991
 30
0.0
 10
142.339992
 20
215.999991
 30
0.0
 10
142.339992
 20
223.619990
 30
0.0
 10
134.719993
 20
223.619990
 30
0.0
  0
SPLINE
  5
10b
100
AcDbEntity
  8
backplate_jr_std1.0
 62
1
100
AcDbSpline
 70
0
 71
3
 72
19
 73
15
 74
13
 40
0.000000
 40
0.000000
 40
0.000000
 40
0.000000
 40
0.784293
 40
1.545327
 40
2.329619
 40
3.113912
 40
3.874946
 40
4.659238
 40
5.443531
 40
6.204565
 40
6.988858
 40
7.773150
 40
8.534184
 40
9.318477
 40
9.318477
 40
9.318477
 40
9.318477
 10
228.929999
 20
227.429990
 30
0.0
 10
228.888770
 20
227.694416
 30
0.0
 10
228.807537
 20
228.215428
 30
0.0
 10
228.210358
 20
228.789018
 30
0.0
 10
227.431364
 20
229.001554
 30
0.0
 10
226.644192
 20
228.789018
 30
0.0
 10
226.071065
 20
228.215428
 30
0.0
 10
225.858371
 20
227.429990
 30
0.0
 10
226.071065
 20
226.644553
 30
0.0
 10
226.644192
 20
226.070963
 30
0.0
 10
227.431364
 20
225.858426
 30
0.0
 10
228.210358
 20
226.070963
 30
0.0
 10
228.807537
 20
226.644553
 30
0.0
 10
228.888770
 20
227.165564
 30
0.0
 10
228.929999
 20
227.429990
 30
0.0
 11
228.929999
 21
227.429990
 31
0.0
 11
228.725202
 21
228.187072
 31
0.0
 11
228.187070
 21
228.725204
 31
0.0
 11
227.429988
 21
228.930001
 31
0.0
 11
226.672906
 21
228.725204
 31
0.0
 11
226.134773
 21
228.187072
 31
0.0
 11
225.929977
 21
227.429990
 31
0.0
 11
226.134773
 21
226.672908
 31
0.0
 11
226.672906
 21
226.134776
 31
0.0
 11
227.429988
 21
225.929979
 31
0.0
 11
228.187070
 21
226.134776
 31
0.0
 11
228.725202
 21
226.672908
 31
0.0
 11
228.929999
 21
227.429990
 31
0.0
  0
SPLINE
  5
10c
100
AcDbEntity
  8
backplate_jr_std1.0
 62
1
100
AcDbSpline
 70
0
 71
3
 72
19
 73
15
 74
13
 40
0.000000
 40
0.000000
 40
0.000000
 40
0.000000
 40
0.784293
 40
1.545327
 40
2.329619
 40
3.113912
 40
3.874946
 40
4.659238
 40
5.443531
 40
6.204565
 40
6.988858
 40
7.773150
 40
8.534184
 40
9.318477
 40
9.318477
 40
9.318477
 40
9.318477
 10
40.970009
 20
39.470000
 30
0.0
 10
40.928781
 20
39.734427
 30
0.0
 10
40.847547
 20
40.255438
 30
0.0
 10
40.250368
 20
40.829028
 30
0.0
 10
39.471375
 20
41.041564
 30
0.0
 10
38.684202
 20
40.829028
 30
0.0
 10
38.111075
 20
40.255438
 30
0.0
 10
37.898381
 20
39.470000
 30
0.0
 10
38.111075
 20
38.684563
 30
0.0
 10
38.684202
 20
38.110973
 30
0.0
 10
39.471375
 20
37.898437
 30
0.0
 10
40.250368
 20
38.110973
 30
0.0
 10
40.847547
 20
38.684563
 30
0.0
 10
40.928781
 20
39.205574
 30
0.0
 10
40.970009
 20
39.470000
 30
0.0
 11
40.970009
 21
39.470000
 31
0.0
 11
40.765212
 21
40.227082
 31
0.0
 11
40.227080
 21
40.765215
 31
0.0
 11
39.469998
 21
40.970011
 31
0.0
 11
38.712916
 21
40.765215
 31
0.0
 11
38.174783
 21
40.227082
 31
0.0
 11
37.969987
 21
39.470000
 31
0.0
 11
38.174783
 21
38.712918
 31
0.0
 11
38.712916
 21
38.174786
 31
0.0
 11
39.469998
 21
37.969989
 31
0.0
 11
40.227080
 21
38.174786
 31
0.0
 11
40.765212
 21
38.712918
 31
0.0
 11
40.970009
 21
39.470000
 31
0.0
  0
SPLINE
  5
10d
100
AcDbEntity
  8
backplate_jr_std1.0
 62
1
100
AcDbSpline
 70
0
 71
3
 72
19
 73
15
 74
13
 40
0.000000
 40
0.000000
 40
0.000000
 40
0.000000
 40
0.784293
 40
1.545327
 40
2.329619
 40
3.113912
 40
3.874946
 40
4.659238
 40
5.443531
 40
6.204565
 40
6.988858
 40
7.773150
 40
8.534184
 40
9.318477
 40
9.318477
 40
9.318477
 40
9.318477
 10
40.970009
 20
191.869992
 30
0.0
 10
40.928781
 20
192.134418
 30
0.0
 10
40.847547
 20
192.655430
 30
0.0
 10
40.250368
 20
193.229019
 30
0.0
 10
39.471375
 20
193.441556
 30
0.0
 10
38.684202
 20
193.229019
 30
0.0
 10
38.111075
 20
192.655430
 30
0.0
 10
37.898381
 20
191.869992
 30
0.0
 10
38.111075
 20
191.084555
 30
0.0
 10
38.684202
 20
190.510965
 30
0.0
 10
39.471375
 20
190.298428
 30
0.0
 10
40.250368
 20
190.510965
 30
0.0
 10
40.847547
 20
191.084555
 30
0.0
 10
40.928781
 20
191.605566
 30
0.0
 10
40.970009
 20
191.869992
 30
0.0
 11
40.970009
 21
191.869992
 31
0.0
 11
40.765212
 21
192.627074
 31
0.0
 11
40.227080
 21
193.165206
 31
0.0
 11
39.469998
 21
193.370003
 31
0.0
 11
38.712916
 21
193.165206
 31
0.0
 11
38.174783
 21
192.627074
 31
0.0
 11
37.969987
 21
191.869992
 31
0.0
 11
38.174783
 21
191.112910
 31
0.0
 11
38.712916
 21
190.574778
 31
0.0
 11
39.469998
 21
190.369981
 31
0.0
 11
40.227080
 21
190.574778
 31
0.0
 11
40.765212
 21
191.112910
 31
0.0
 11
40.970009
 21
191.869992
 31
0.0
  0
SPLINE
  5
10e
100
AcDbEntity
  8
backplate_jr_std1.0
 62
1
100
AcDbSpline
 70
0
 71
3
 72
19
 73
15
 74
13
 40
0.000000
 40
0.000000
 40
0.000000
 40
0.000000
 40
0.784293
 40
1.545327
 40
2.329619
 40
3.113912
 40
3.874946
 40
4.659238
 40
5.443531
 40
6.204565
 40
6.988858
 40
7.773150
 40
8.534184
 40
9.318477
 40
9.318477
 40
9.318477
 40
9.318477
 10
193.370001
 20
39.470000
 30
0.0
 10
193.328772
 20
39.734427
 30
0.0
 10
193.247539
 20
40.255438
 30
0.0
 10
192.650360
 20
40.829028
 30
0.0
 10
191.871366
 20
41.041564
 30
0.0
 10
191.084194
 20
40.829028
 30
0.0
 10
190.511066
 20
40.255438
 30
0.0
 10
190.298373
 20
39.470000
 30
0.0
 10
190.511066
 20
38.684563
 30
0.0
 10
191.084194
 20
38.110973
 30
0.0
 10
191.871366
 20
37.898437
 30
0.0
 10
192.650360
 20
38.110973
 30
0.0
 10
193.247539
 20
38.684563
 30
0.0
 10
193.328772
 20
39.205574
 30
0.0
 10
193.370001
 20
39.470000
 30
0.0
 11
193.370001
 21
39.470000
 31
0.0
 11
193.165204
 21
40.227082
 31
0.0
 11
192.627072
 21
40.765215
 31
0.0
 11
191.869990
 21
40.970011
 31
0.0
 11
191.112908
 21
40.765215
 31
0.0
 11
190.574775
 21
40.227082
 31
0.0
 11
190.369979
 21
39.470000
 31
0.0
 11
190.574775
 21
38.712918
 31
0.0
 11
191.112908
 21
38.174786
 31
0.0
 11
191.869990
 21
37.969989
 31
0.0
 11
192.627072
 21
38.174786
 31
0.0
 11
193.165204
 21
38.712918
 31
0.0
 11
193.370001
 21
39.470000
 31
0.0
  0
LWPOLYLINE
  5
10f
100
AcDbEntity
  8
backplate_jr_std1.0
 62
1
100
AcDbPolyline
 90
4
 70
1
 10
119.479993
 20
215.999991
 30
0.0
 10
127.099993
 20
215.999991
 30
0.0
 10
127.099993
 20
223.619990
 30
0.0
 10
119.479993
 20
223.619990
 30
0.0
  0
SPLINE
  5
110
100
AcDbEntity
  8
backplate_jr_std1.0
 62
1
100
AcDbSpline
 70
0
 71
3
 72
19
 73
15
 74
13
 40
0.000000
 40
0.000000
 40
0.000000
 40
0.000000
 40
0.784293
 40
1.545327
 40
2.329619
 40
3.113912
 40
3.874946
 40
4.659238
 40
5.443531
 40
6.204565
 40
6.988858
 40
7.773150
 40
8.534184
 40
9.318477
 40
9.318477
 40
9.318477
 40
9.318477
 10
193.370001
 20
191.869992
 30
0.0
 10
193.328772
 20
192.134418
 30
0.0
 10
193.247539
 20
192.655430
 30
0.0
 10
192.650360
 20
193.229019
 30
0.0
 10
191.871366
 20
193.441556
 30
0.0
 10
191.084194
 20
193.229019
 30
0.0
 10
190.511066
 20
192.655430
 30
0.0
 10
190.298373
 20
191.869992
 30
0.0
 10
190.511066
 20
191.084555
 30
0.0
 10
191.084194
 20
190.510965
 30
0.0
 10
191.871366
 20
190.298428
 30
0.0
 10
192.650360
 20
190.510965
 30
0.0
 10
193.247539
 20
191.084555
 30
0.0
 10
193.328772
 20
191.605566
 30
0.0
 10
193.370001
 20
191.869992
 30
0.0
 11
193.370001
 21
191.869992
 31
0.0
 11
193.165204
 21
192.627074
 31
0.0
 11
192.627072
 21
193.165206
 31
0.0
 11
191.869990
 21
193.370003
 31
0.0
 11
191.112908
 21
193.165206
 31
0.0
 11
190.574775
 21
192.627074
 31
0.0
 11
190.369979
 21
191.869992
 31
0.0
 11
190.574775
 21
191.112910
 31
0.0
 11
191.112908
 21
190.574778
 31
0.0
 11
191.869990
 21
190.369981
 31
0.0
 11
192.627072
 21
190.574778
 31
0.0
 11
193.165204
 21
191.112910
 31
0.0
 11
193.370001
 21
191.869992
 31
0.0
  0
LWPOLYLINE
  5
111
100
AcDbEntity
  8
backplate_jr_std1.0
 62
1
100
AcDbPolyline
 90
4
 70
1
 10
104.168546
 20
215.999991
 30
0.0
 10
111.788549
 20
215.999991
 30
0.0
 10
111.788549
 20
223.619990
 30
0.0
 10
104.168546
 20
223.619990
 30
0.0
  0
ENDSEC
  0
SECTION
  2
OBJECTS
  0
DICTIONARY
  5
C
330
0
100
AcDbDictionary
  3
ACAD_GROUP
350
D
  3
ACAD_MLINESTYLE
350
17
  0
DICTIONARY
  5
D
330
C
100
AcDbDictionary
  0
DICTIONARY
  5
1A
330
C
100
AcDbDictionary
  0
DICTIONARY
  5
17
330
C
100
AcDbDictionary
  3
STANDARD
350
18
  0
DICTIONARY
  5
19
330
C
100
AcDbDictionary
  0
ENDSEC
  0
EOF
