<?xml version="1.0" encoding="UTF-8" standalone="no"?>
<!-- Created with Inkscape (http://www.inkscape.org/) -->

<svg
   xmlns:dc="http://purl.org/dc/elements/1.1/"
   xmlns:cc="http://creativecommons.org/ns#"
   xmlns:rdf="http://www.w3.org/1999/02/22-rdf-syntax-ns#"
   xmlns:svg="http://www.w3.org/2000/svg"
   xmlns="http://www.w3.org/2000/svg"
   xmlns:sodipodi="http://sodipodi.sourceforge.net/DTD/sodipodi-0.dtd"
   xmlns:inkscape="http://www.inkscape.org/namespaces/inkscape"
   version="1.1"
   id="svg2"
   xml:space="preserve"
   width="9.1078739in"
   height="9.1078739in"
   viewBox="0 0 874.35592 874.35592"
   sodipodi:docname="backplate_jr_std1.0.svg"
   inkscape:version="0.92.4 (unknown)"><metadata
     id="metadata8"><rdf:RDF><cc:Work
         rdf:about=""><dc:format>image/svg+xml</dc:format><dc:type
           rdf:resource="http://purl.org/dc/dcmitype/StillImage" /><dc:title></dc:title></cc:Work></rdf:RDF></metadata><defs
     id="defs6" /><sodipodi:namedview
     pagecolor="#ffffff"
     bordercolor="#666666"
     borderopacity="1"
     objecttolerance="10"
     gridtolerance="10"
     guidetolerance="10"
     inkscape:pageopacity="0"
     inkscape:pageshadow="2"
     inkscape:window-width="1920"
     inkscape:window-height="993"
     id="namedview4"
     showgrid="false"
     inkscape:zoom="0.62641593"
     inkscape:cx="585.84382"
     inkscape:cy="391.30819"
     inkscape:window-x="0"
     inkscape:window-y="46"
     inkscape:window-maximized="1"
     inkscape:current-layer="g10"
     fit-margin-top="0"
     fit-margin-left="0"
     fit-margin-right="0"
     fit-margin-bottom="0"
     units="in"
     inkscape:document-units="in" /><g
     id="g10"
     inkscape:groupmode="layer"
     inkscape:label="backplate_jr_std1.0"
     transform="matrix(1.3333333,0,0,-1.3333333,-95.622045,969.97793)"><g
       id="g16"
       transform="translate(72,72)"><path
         d="M 0,0 H 655.2 V 655.2 H 0 V 0 m 0,43.2 h 7.2 v 0 l 0.125657,-0.0011 0.125619,-0.0033 0.125543,-0.0055 0.125428,-0.0077 0.125274,-0.0099 0.125084,-0.01204 0.124854,-0.01423 0.124587,-0.0164 0.124282,-0.01857 0.123939,-0.02074 0.123558,-0.0229 0.123139,-0.02506 0.122684,-0.0272 0.12219,-0.02933 0.121659,-0.03146 0.121092,-0.03359 0.120487,-0.03569 0.119846,-0.03778 0.119169,-0.03988 0.118454,-0.04194 0.117704,-0.04401 0.116918,-0.04606 0.116093,-0.04809 0.11524,-0.0501 0.11435,-0.05211 0.11342,-0.0541 0.11246,-0.05607 0.11147,-0.05803 0.11043,-0.05996 0.10937,-0.06188 0.10827,-0.06378 0.10715,-0.06565 0.10598,-0.06752 0.10479,-0.06936 0.10356,-0.07118 0.1023,-0.07297 0.10102,-0.07474 0.09969,-0.0765 0.09835,-0.07823 0.09696,-0.07993 0.09556,-0.08161 0.09411,-0.08327 0.09265,-0.08489 0.09115,-0.0865 0.08963,-0.08808 0.08808,-0.08963 0.0865,-0.09115 0.08489,-0.09265 0.08327,-0.09411 0.08161,-0.09556 0.07993,-0.09696 0.07823,-0.09835 0.0765,-0.09969 0.07474,-0.10102 0.07297,-0.1023 0.07118,-0.10356 0.06936,-0.10479 0.06752,-0.10598 0.06565,-0.10715 0.06378,-0.10827 0.06188,-0.10937 0.05996,-0.11043 0.05803,-0.11147 0.05607,-0.11246 0.0541,-0.11342 0.05211,-0.11435 0.0501,-0.11524 0.04809,-0.11609 0.04606,-0.11692 0.04401,-0.1177 0.04194,-0.11846 0.03988,-0.11917 0.03778,-0.11984 0.03569,-0.12049 0.03359,-0.12109 0.03146,-0.12166 0.02933,-0.12219 0.0272,-0.12269 0.02506,-0.12314 0.0229,-0.12355 0.02074,-0.12394 0.01857,-0.12428 0.0164,-0.12459 0.01423,-0.12486 0.01204,-0.12508 0.0099,-0.12527 0.0077,-0.12543 0.0055,-0.12554 L 14.399,36.12556 14.4,36 14.3989,35.87434 14.3956,35.74872 14.3901,35.62318 14.3824,35.49775 14.3725,35.37248 14.36046,35.2474 14.34623,35.12254 14.32983,34.99795 14.31126,34.87367 14.29052,34.74973 14.26762,34.62618 14.24256,34.50304 14.21536,34.38035 14.18603,34.25816 14.15457,34.1365 14.12098,34.01541 14.08529,33.89492 14.04751,33.77508 14.00763,33.65591 13.96569,33.53745 13.92168,33.41975 13.87562,33.30283 13.82753,33.18674 13.77743,33.0715 13.72532,32.95715 13.67122,32.84373 13.61525,32.73127 13.55722,32.6198 13.49726,32.50937 13.43538,32.4 13.3716,32.29173 13.30595,32.18458 13.23843,32.0786 l -0.06936,-0.10479 -0.07118,-0.10356 -0.07297,-0.1023 -0.07474,-0.10102 -0.0765,-0.09969 -0.07823,-0.09835 -0.07993,-0.09696 -0.08161,-0.09556 -0.08327,-0.09411 -0.08489,-0.09265 -0.0865,-0.09115 -0.08808,-0.08963 -0.08963,-0.08808 -0.09115,-0.0865 -0.09265,-0.08489 -0.09411,-0.08327 -0.09556,-0.08161 -0.09696,-0.07993 -0.09835,-0.07823 -0.09969,-0.0765 -0.10102,-0.07474 -0.1023,-0.07297 L 11.22619,30.03093 11.1214,29.96157 11.01542,29.89405 10.90827,29.8284 10.8,29.76462 10.69063,29.70274 10.5802,29.64278 10.46873,29.58475 10.35627,29.52868 10.24285,29.47458 10.1285,29.42247 10.01326,29.37237 9.897167,29.32428 9.780249,29.27822 9.662545,29.23421 9.544091,29.19227 9.424922,29.15239 9.305076,29.11461 9.184589,29.07892 9.063497,29.04533 8.941838,29.01387 8.819648,28.98454 8.696964,28.95734 8.573825,28.93228 8.450267,28.90938 8.326328,28.88864 8.202046,28.87007 8.077459,28.85367 7.952605,28.83944 7.827521,28.8274 7.702247,28.81754 7.576819,28.80987 7.451276,28.80439 7.325657,28.8011 0,28.8"
         style="fill:none;stroke:#ff0000;stroke-width:0.56692898;stroke-linecap:butt;stroke-linejoin:miter;stroke-miterlimit:10;stroke-dasharray:none;stroke-opacity:1"
         id="path18"
         inkscape:connector-curvature="0" /><path
         d="m 15.05197,10.8 c 0,2.3483 -1.90367,4.25197 -4.25197,4.25197 -2.348297,0 -4.251969,-1.90367 -4.251969,-4.25197 0,-2.348297 1.903672,-4.251969 4.251969,-4.251969 2.3483,0 4.25197,1.903672 4.25197,4.251969"
         style="fill:none;stroke:#ff0000;stroke-width:0.56692898;stroke-linecap:butt;stroke-linejoin:miter;stroke-miterlimit:10;stroke-dasharray:none;stroke-opacity:1"
         id="path20"
         inkscape:connector-curvature="0" /><path
         d="m 15.05197,644.4 c 0,2.3483 -1.90367,4.252 -4.25197,4.252 -2.348297,0 -4.251969,-1.9037 -4.251969,-4.252 0,-2.3483 1.903672,-4.252 4.251969,-4.252 2.3483,0 4.25197,1.9037 4.25197,4.252"
         style="fill:none;stroke:#ff0000;stroke-width:0.56692898;stroke-linecap:butt;stroke-linejoin:miter;stroke-miterlimit:10;stroke-dasharray:none;stroke-opacity:1"
         id="path22"
         inkscape:connector-curvature="0" /><path
         d="m 648.652,10.8 c 0,2.3483 -1.9037,4.25197 -4.252,4.25197 -2.3483,0 -4.252,-1.90367 -4.252,-4.25197 0,-2.348297 1.9037,-4.251969 4.252,-4.251969 2.3483,0 4.252,1.903672 4.252,4.251969"
         style="fill:none;stroke:#ff0000;stroke-width:0.56692898;stroke-linecap:butt;stroke-linejoin:miter;stroke-miterlimit:10;stroke-dasharray:none;stroke-opacity:1"
         id="path24"
         inkscape:connector-curvature="0" /><path
         d="m 648.652,644.4 c 0,2.3483 -1.9037,4.252 -4.252,4.252 -2.3483,0 -4.252,-1.9037 -4.252,-4.252 0,-2.3483 1.9037,-4.252 4.252,-4.252 2.3483,0 4.252,1.9037 4.252,4.252"
         style="fill:none;stroke:#ff0000;stroke-width:0.56692898;stroke-linecap:butt;stroke-linejoin:miter;stroke-miterlimit:10;stroke-dasharray:none;stroke-opacity:1"
         id="path26"
         inkscape:connector-curvature="0" /><path
         d="m 63,591.5885 v 0 l -0.27069,-0.1595 -0.26786,-0.1641 -0.26495,-0.1688 -0.26197,-0.1734 -0.25891,-0.178 -0.25575,-0.1824 -0.25254,-0.1869 -0.24924,-0.1912 -0.24586,-0.1956 -0.24241,-0.1998 -0.23888,-0.204 -0.23529,-0.2082 -0.23162,-0.2122 -0.22788,-0.2163 -0.22407,-0.2202 -0.2202,-0.224 -0.21625,-0.2279 -0.21224,-0.2316 -0.20816,-0.2353 -0.20403,-0.2389 -0.19983,-0.2424 -0.19556,-0.2459 -0.19125,-0.2492 -0.18687,-0.2526 -0.18243,-0.2557 -0.17794,-0.2589 -0.17339,-0.262 -0.1688,-0.265 -0.16414,-0.2678 -0.15945,-0.2707 -0.15469,-0.2734 -0.14991,-0.2761 -0.14506,-0.2787 -0.14017,-0.2811 -0.13525,-0.2836 -0.13028,-0.2858 -0.12527,-0.2881 -0.12022,-0.2903 -0.11514,-0.2923 -0.11002,-0.2942 -0.10486,-0.2962 -0.09969,-0.2979 -0.09447,-0.2996 -0.08922,-0.3012 -0.08395,-0.3028 -0.07866,-0.3041 -0.07334,-0.3055 -0.068,-0.3067 -0.06263,-0.3078 -0.05725,-0.3089 -0.05185,-0.3099 -0.04644,-0.3107 -0.041,-0.3115 -0.03556,-0.3121 -0.03011,-0.3127 -0.02465,-0.3132 -0.01918,-0.3136 -0.0137,-0.3138 -0.0082,-0.3141 L 54,576 l 0.0027,-0.3141 0.0082,-0.3141 0.0137,-0.3138 0.01918,-0.3136 0.02465,-0.3132 0.03011,-0.3127 0.03556,-0.3121 0.041,-0.3115 0.04644,-0.3107 0.05185,-0.3099 0.05725,-0.3089 0.06263,-0.3078 0.068,-0.3067 0.07334,-0.3055 0.07866,-0.3041 0.08395,-0.3028 0.08922,-0.3012 0.09447,-0.2996 0.09969,-0.2979 0.10486,-0.2962 0.11002,-0.2942 0.11514,-0.2923 0.12022,-0.2903 0.12527,-0.2881 0.13028,-0.2858 0.13525,-0.2836 0.14017,-0.2811 0.14506,-0.2787 0.14991,-0.2761 0.15469,-0.2734 0.15945,-0.2707 0.16414,-0.2678 0.1688,-0.265 0.17339,-0.262 0.17794,-0.2589 0.18243,-0.2557 0.18687,-0.2526 0.19125,-0.2492 0.19556,-0.2459 0.19983,-0.2424 0.20403,-0.2389 0.20816,-0.2353 0.21224,-0.2316 0.21625,-0.2279 0.2202,-0.224 0.22407,-0.2202 0.22788,-0.2163 0.23162,-0.2122 0.23529,-0.2082 0.23888,-0.204 0.24241,-0.1998 0.24586,-0.1956 0.24924,-0.1912 0.25254,-0.1869 0.25575,-0.1824 0.25891,-0.178 0.26197,-0.1734 0.26495,-0.1688 0.26786,-0.1641 0.27069,-0.1595 0.27343,-0.1547 0.27608,-0.1499 0.27866,-0.145 0.28115,-0.1402 0.28355,-0.1352 0.28587,-0.1303 0.2881,-0.1253 0.29024,-0.1202 0.2923,-0.1151 0.29426,-0.1101 0.29613,-0.1048 0.29792,-0.0997 0.29962,-0.0945 0.30122,-0.0892 0.30273,-0.084 0.30415,-0.0786 0.30547,-0.0734 0.30671,-0.068 0.30785,-0.0626 0.30889,-0.0572 0.30985,-0.0519 0.3107,-0.0464 0.31147,-0.041 0.31214,-0.0356 0.31271,-0.0301 0.31318,-0.0247 0.31357,-0.0191 0.31386,-0.0137 0.31405,-0.008 L 72,558 l 0.31414,0.003 0.31405,0.008 0.31386,0.0137 0.31357,0.0191 0.31318,0.0247 0.31271,0.0301 0.31214,0.0356 0.31147,0.041 0.3107,0.0464 0.30985,0.0519 0.30889,0.0572 0.30785,0.0626 0.30671,0.068 0.30547,0.0734 0.30415,0.0786 0.30273,0.084 0.30122,0.0892 0.29962,0.0945 0.29792,0.0997 0.29613,0.1048 0.29426,0.1101 0.2923,0.1151 0.29024,0.1202 0.2881,0.1253 0.28587,0.1303 0.28355,0.1352 0.28115,0.1402 0.27866,0.145 0.27608,0.1499 0.27343,0.1547 0.27069,0.1595 0.26786,0.1641 0.26495,0.1688 0.26197,0.1734 0.25891,0.178 0.25575,0.1824 0.25254,0.1869 0.24924,0.1912 0.24586,0.1956 0.24241,0.1998 0.23888,0.204 0.23529,0.2082 0.23162,0.2122 0.22788,0.2163 0.22407,0.2202 0.2202,0.224 0.21625,0.2279 0.21224,0.2316 0.20816,0.2353 0.20403,0.2389 0.19983,0.2424 0.19556,0.2459 0.19125,0.2492 0.18687,0.2526 0.18243,0.2557 0.17794,0.2589 0.17339,0.262 0.1688,0.265 0.16414,0.2678 0.15945,0.2707 0.15469,0.2734 0.14991,0.2761 0.14506,0.2787 0.14017,0.2811 0.13525,0.2836 0.13028,0.2858 0.12527,0.2881 0.12022,0.2903 0.11514,0.2923 0.11002,0.2942 0.10486,0.2962 0.09969,0.2979 0.09447,0.2996 0.08922,0.3012 0.08395,0.3028 0.07866,0.3041 0.07334,0.3055 0.068,0.3067 0.06263,0.3078 0.05725,0.3089 0.05185,0.3099 0.04644,0.3107 0.041,0.3115 0.03556,0.3121 0.03011,0.3127 0.02465,0.3132 0.01918,0.3136 0.0137,0.3138 0.0082,0.3141 L 90,576 l -0.0027,0.3141 -0.0082,0.3141 -0.0137,0.3138 -0.01918,0.3136 -0.02465,0.3132 -0.03011,0.3127 -0.03556,0.3121 -0.041,0.3115 -0.04644,0.3107 -0.05185,0.3099 -0.05725,0.3089 -0.06263,0.3078 -0.068,0.3067 -0.07334,0.3055 -0.07866,0.3041 -0.08395,0.3028 -0.08922,0.3012 -0.09447,0.2996 -0.09969,0.2979 -0.10486,0.2962 -0.11002,0.2942 -0.11514,0.2923 -0.12022,0.2903 -0.12527,0.2881 -0.13028,0.2858 -0.13525,0.2836 -0.14017,0.2811 -0.14506,0.2787 -0.14991,0.2761 -0.15469,0.2734 -0.15945,0.2707 -0.16414,0.2678 -0.1688,0.265 -0.17339,0.262 -0.17794,0.2589 -0.18243,0.2557 -0.18687,0.2526 -0.19125,0.2492 -0.19556,0.2459 -0.19983,0.2424 -0.20403,0.2389 -0.20816,0.2353 -0.21224,0.2316 -0.21625,0.2279 -0.2202,0.224 -0.22407,0.2202 -0.22788,0.2163 -0.23162,0.2122 -0.23529,0.2082 -0.23888,0.204 -0.24241,0.1998 -0.24586,0.1956 -0.24924,0.1912 -0.25254,0.1869 -0.25575,0.1824 -0.25891,0.178 -0.26197,0.1734 -0.26495,0.1688 -0.26786,0.1641 L 81,591.5885 V 603 l -0.0014,0.1571 -0.0041,0.157 -0.0069,0.1569 -0.0096,0.1568 -0.01233,0.1566 -0.01505,0.1564 -0.01778,0.156 -0.02051,0.1558 -0.02321,0.1553 -0.02593,0.1549 -0.02863,0.1545 -0.03131,0.1539 -0.034,0.1534 -0.03667,0.1527 -0.03933,0.1521 -0.04197,0.1513 -0.04462,0.1506 -0.04723,0.1499 -0.04984,0.1489 -0.05244,0.1481 -0.05501,0.1471 -0.05757,0.1462 -0.06011,0.1451 -0.06263,0.144 -0.06514,0.143 -0.06762,0.1417 -0.07009,0.1406 -0.07253,0.1393 -0.07495,0.1381 -0.07735,0.1367 -0.07972,0.1353 -0.08208,0.134 -0.08439,0.1325 -0.0867,0.1309 -0.08897,0.1295 -0.09122,0.1279 -0.09343,0.1262 -0.09562,0.1247 -0.09779,0.1229 -0.09991,0.1212 -0.10201,0.1194 -0.10409,0.1177 -0.10612,0.1158 -0.10812,0.1139 -0.1101,0.1121 -0.11203,0.1101 -0.11394,0.1081 -0.11581,0.1061 -0.11765,0.1041 -0.11944,0.102 -0.12121,0.0999 -0.12293,0.0978 -0.12461,0.0956 -0.12627,0.0935 -0.12788,0.0912 -0.12945,0.0889 -0.13099,0.0867 -0.13248,0.0844 -0.13393,0.0821 -0.13534,0.0797 -0.13671,0.0774 -0.13805,0.0749 -0.13933,0.0726 -0.14057,0.07 -0.14178,0.0677 -0.14293,0.0651 -0.14405,0.0626 -0.14512,0.0602 -0.14615,0.0575 -0.14713,0.055 -0.14807,0.0525 -0.14896,0.0498 -0.1498,0.0472 -0.15061,0.0447 -0.15137,0.0419 -0.15207,0.0394 -0.15274,0.0366 -0.15335,0.034 -0.15393,0.0313 -0.15445,0.0287 -0.15492,0.0259 -0.15535,0.0232 -0.15574,0.0205 -0.15606,0.0178 -0.15636,0.0151 -0.15659,0.0123 -0.15679,0.01 -0.15692,0.007 -0.15703,0.004 L 72,612 l -0.15707,-10e-4 -0.15703,-0.004 -0.15692,-0.007 -0.15679,-0.01 -0.15659,-0.0123 -0.15636,-0.0151 -0.15606,-0.0178 -0.15574,-0.0205 -0.15535,-0.0232 -0.15492,-0.0259 -0.15445,-0.0287 -0.15393,-0.0313 -0.15335,-0.034 -0.15274,-0.0366 -0.15207,-0.0394 -0.15137,-0.0419 -0.15061,-0.0447 -0.1498,-0.0472 -0.14896,-0.0498 -0.14807,-0.0525 -0.14713,-0.055 -0.14615,-0.0575 -0.14512,-0.0602 -0.14405,-0.0626 -0.14293,-0.0651 -0.14178,-0.0677 -0.14057,-0.07 -0.13933,-0.0726 -0.13805,-0.0749 -0.13671,-0.0774 -0.13534,-0.0797 -0.13393,-0.0821 -0.13248,-0.0844 -0.13099,-0.0867 -0.12945,-0.0889 -0.12788,-0.0912 -0.12627,-0.0935 -0.12461,-0.0956 -0.12293,-0.0978 -0.12121,-0.0999 -0.11944,-0.102 -0.11765,-0.1041 -0.11581,-0.1061 -0.11394,-0.1081 -0.11203,-0.1101 -0.1101,-0.1121 -0.10812,-0.1139 -0.10612,-0.1158 -0.10409,-0.1177 -0.10201,-0.1194 -0.09991,-0.1212 -0.09779,-0.1229 -0.09562,-0.1247 -0.09343,-0.1262 -0.09122,-0.1279 -0.08897,-0.1295 -0.0867,-0.1309 -0.08439,-0.1325 -0.08208,-0.134 -0.07972,-0.1353 -0.07735,-0.1367 -0.07495,-0.1381 -0.07253,-0.1393 -0.07009,-0.1406 -0.06762,-0.1417 -0.06514,-0.143 -0.06263,-0.144 -0.06011,-0.1451 -0.05757,-0.1462 -0.05501,-0.1471 -0.05244,-0.1481 -0.04984,-0.1489 -0.04723,-0.1499 -0.04462,-0.1506 -0.04197,-0.1513 -0.03933,-0.1521 -0.03667,-0.1527 -0.034,-0.1534 -0.03131,-0.1539 -0.02863,-0.1545 -0.02593,-0.1549 -0.02321,-0.1553 -0.02051,-0.1558 -0.01778,-0.156 -0.01505,-0.1564 -0.01233,-0.1566 -0.0096,-0.1568 -0.0069,-0.1569 -0.0041,-0.157 L 63,591.5885"
         style="fill:none;stroke:#ff0000;stroke-width:0.56692898;stroke-linecap:butt;stroke-linejoin:miter;stroke-miterlimit:10;stroke-dasharray:none;stroke-opacity:1"
         id="path28"
         inkscape:connector-curvature="0" /><path
         d="m 574.2,591.5885 v 0 l -0.2707,-0.1595 -0.2678,-0.1641 -0.265,-0.1688 -0.262,-0.1734 -0.2589,-0.178 -0.2557,-0.1824 -0.2526,-0.1869 -0.2492,-0.1912 -0.2459,-0.1956 -0.2424,-0.1998 -0.2389,-0.204 -0.2353,-0.2082 -0.2316,-0.2122 -0.2279,-0.2163 -0.224,-0.2202 -0.2202,-0.224 -0.2163,-0.2279 -0.2122,-0.2316 -0.2082,-0.2353 -0.204,-0.2389 -0.1998,-0.2424 -0.1956,-0.2459 -0.1912,-0.2492 -0.1869,-0.2526 -0.1824,-0.2557 -0.178,-0.2589 -0.1734,-0.262 -0.1688,-0.265 -0.1641,-0.2678 -0.1595,-0.2707 -0.1547,-0.2734 -0.1499,-0.2761 -0.145,-0.2787 -0.1402,-0.2811 -0.1352,-0.2836 -0.1303,-0.2858 -0.1253,-0.2881 -0.1202,-0.2903 -0.1151,-0.2923 -0.1101,-0.2942 -0.1048,-0.2962 -0.0997,-0.2979 -0.0945,-0.2996 -0.0892,-0.3012 -0.084,-0.3028 -0.0786,-0.3041 -0.0734,-0.3055 -0.068,-0.3067 -0.0626,-0.3078 -0.0572,-0.3089 -0.0519,-0.3099 -0.0464,-0.3107 -0.041,-0.3115 -0.0356,-0.3121 -0.0301,-0.3127 -0.0247,-0.3132 -0.0191,-0.3136 -0.0137,-0.3138 -0.008,-0.3141 L 565.2,576 l 0.003,-0.3141 0.008,-0.3141 0.0137,-0.3138 0.0191,-0.3136 0.0247,-0.3132 0.0301,-0.3127 0.0356,-0.3121 0.041,-0.3115 0.0464,-0.3107 0.0519,-0.3099 0.0572,-0.3089 0.0626,-0.3078 0.068,-0.3067 0.0734,-0.3055 0.0786,-0.3041 0.084,-0.3028 0.0892,-0.3012 0.0945,-0.2996 0.0997,-0.2979 0.1048,-0.2962 0.1101,-0.2942 0.1151,-0.2923 0.1202,-0.2903 0.1253,-0.2881 0.1303,-0.2858 0.1352,-0.2836 0.1402,-0.2811 0.145,-0.2787 0.1499,-0.2761 0.1547,-0.2734 0.1595,-0.2707 0.1641,-0.2678 0.1688,-0.265 0.1734,-0.262 0.178,-0.2589 0.1824,-0.2557 0.1869,-0.2526 0.1912,-0.2492 0.1956,-0.2459 0.1998,-0.2424 0.204,-0.2389 0.2082,-0.2353 0.2122,-0.2316 0.2163,-0.2279 0.2202,-0.224 0.224,-0.2202 0.2279,-0.2163 0.2316,-0.2122 0.2353,-0.2082 0.2389,-0.204 0.2424,-0.1998 0.2459,-0.1956 0.2492,-0.1912 0.2526,-0.1869 0.2557,-0.1824 0.2589,-0.178 0.262,-0.1734 0.265,-0.1688 0.2678,-0.1641 0.2707,-0.1595 0.2734,-0.1547 0.2761,-0.1499 0.2787,-0.145 0.2811,-0.1402 0.2836,-0.1352 0.2858,-0.1303 0.2881,-0.1253 0.2903,-0.1202 0.2923,-0.1151 0.2942,-0.1101 0.2962,-0.1048 0.2979,-0.0997 0.2996,-0.0945 0.3012,-0.0892 0.3028,-0.084 0.3041,-0.0786 0.3055,-0.0734 0.3067,-0.068 0.3078,-0.0626 0.3089,-0.0572 0.3099,-0.0519 0.3107,-0.0464 0.3115,-0.041 0.3121,-0.0356 0.3127,-0.0301 0.3132,-0.0247 0.3136,-0.0191 0.3138,-0.0137 0.3141,-0.008 0.3141,-0.003 0.3141,0.003 0.3141,0.008 0.3138,0.0137 0.3136,0.0191 0.3132,0.0247 0.3127,0.0301 0.3121,0.0356 0.3115,0.041 0.3107,0.0464 0.3099,0.0519 0.3089,0.0572 0.3078,0.0626 0.3067,0.068 0.3055,0.0734 0.3041,0.0786 0.3028,0.084 0.3012,0.0892 0.2996,0.0945 0.2979,0.0997 0.2962,0.1048 0.2942,0.1101 0.2923,0.1151 0.2903,0.1202 0.2881,0.1253 0.2858,0.1303 0.2836,0.1352 0.2811,0.1402 0.2787,0.145 0.2761,0.1499 0.2734,0.1547 0.2707,0.1595 0.2678,0.1641 0.265,0.1688 0.262,0.1734 0.2589,0.178 0.2557,0.1824 0.2526,0.1869 0.2492,0.1912 0.2459,0.1956 0.2424,0.1998 0.2389,0.204 0.2353,0.2082 0.2316,0.2122 0.2279,0.2163 0.224,0.2202 0.2202,0.224 0.2163,0.2279 0.2122,0.2316 0.2082,0.2353 0.204,0.2389 0.1998,0.2424 0.1956,0.2459 0.1912,0.2492 0.1869,0.2526 0.1824,0.2557 0.178,0.2589 0.1734,0.262 0.1688,0.265 0.1641,0.2678 0.1595,0.2707 0.1547,0.2734 0.1499,0.2761 0.145,0.2787 0.1402,0.2811 0.1352,0.2836 0.1303,0.2858 0.1253,0.2881 0.1202,0.2903 0.1151,0.2923 0.1101,0.2942 0.1048,0.2962 0.0997,0.2979 0.0945,0.2996 0.0892,0.3012 0.084,0.3028 0.0786,0.3041 0.0734,0.3055 0.068,0.3067 0.0626,0.3078 0.0572,0.3089 0.0519,0.3099 0.0464,0.3107 0.041,0.3115 0.0356,0.3121 0.0301,0.3127 0.0247,0.3132 0.0191,0.3136 0.0137,0.3138 0.008,0.3141 0.003,0.3141 -0.003,0.3141 -0.008,0.3141 -0.0137,0.3138 -0.0191,0.3136 -0.0247,0.3132 -0.0301,0.3127 -0.0356,0.3121 -0.041,0.3115 -0.0464,0.3107 -0.0519,0.3099 -0.0572,0.3089 -0.0626,0.3078 -0.068,0.3067 -0.0734,0.3055 -0.0786,0.3041 -0.084,0.3028 -0.0892,0.3012 -0.0945,0.2996 -0.0997,0.2979 -0.1048,0.2962 -0.1101,0.2942 -0.1151,0.2923 -0.1202,0.2903 -0.1253,0.2881 -0.1303,0.2858 -0.1352,0.2836 -0.1402,0.2811 -0.145,0.2787 -0.1499,0.2761 -0.1547,0.2734 -0.1595,0.2707 -0.1641,0.2678 -0.1688,0.265 -0.1734,0.262 -0.178,0.2589 -0.1824,0.2557 -0.1869,0.2526 -0.1912,0.2492 -0.1956,0.2459 -0.1998,0.2424 -0.204,0.2389 -0.2082,0.2353 -0.2122,0.2316 -0.2163,0.2279 -0.2202,0.224 -0.224,0.2202 -0.2279,0.2163 -0.2316,0.2122 -0.2353,0.2082 -0.2389,0.204 -0.2424,0.1998 -0.2459,0.1956 -0.2492,0.1912 -0.2526,0.1869 -0.2557,0.1824 -0.2589,0.178 -0.262,0.1734 -0.265,0.1688 -0.2678,0.1641 -0.2707,0.1595 V 603 l -0.001,0.1571 -0.004,0.157 -0.007,0.1569 -0.01,0.1568 -0.0123,0.1566 -0.0151,0.1564 -0.0178,0.156 -0.0205,0.1558 -0.0232,0.1553 -0.0259,0.1549 -0.0287,0.1545 -0.0313,0.1539 -0.034,0.1534 -0.0366,0.1527 -0.0394,0.1521 -0.0419,0.1513 -0.0447,0.1506 -0.0472,0.1499 -0.0498,0.1489 -0.0525,0.1481 -0.055,0.1471 -0.0575,0.1462 -0.0602,0.1451 -0.0626,0.144 -0.0651,0.143 -0.0677,0.1417 -0.07,0.1406 -0.0726,0.1393 -0.0749,0.1381 -0.0774,0.1367 -0.0797,0.1353 -0.0821,0.134 -0.0844,0.1325 -0.0867,0.1309 -0.0889,0.1295 -0.0912,0.1279 -0.0935,0.1262 -0.0956,0.1247 -0.0978,0.1229 -0.0999,0.1212 -0.102,0.1194 -0.1041,0.1177 -0.1061,0.1158 -0.1081,0.1139 -0.1101,0.1121 -0.1121,0.1101 -0.1139,0.1081 -0.1158,0.1061 -0.1177,0.1041 -0.1194,0.102 -0.1212,0.0999 -0.1229,0.0978 -0.1247,0.0956 -0.1262,0.0935 -0.1279,0.0912 -0.1295,0.0889 -0.1309,0.0867 -0.1325,0.0844 -0.134,0.0821 -0.1353,0.0797 -0.1367,0.0774 -0.1381,0.0749 -0.1393,0.0726 -0.1406,0.07 -0.1417,0.0677 -0.143,0.0651 -0.144,0.0626 -0.1451,0.0602 -0.1462,0.0575 -0.1471,0.055 -0.1481,0.0525 -0.1489,0.0498 -0.1499,0.0472 -0.1506,0.0447 -0.1513,0.0419 -0.1521,0.0394 -0.1527,0.0366 -0.1534,0.034 -0.1539,0.0313 -0.1545,0.0287 -0.1549,0.0259 -0.1553,0.0232 -0.1558,0.0205 -0.156,0.0178 -0.1564,0.0151 -0.1566,0.0123 -0.1568,0.01 -0.1569,0.007 -0.157,0.004 -0.1571,10e-4 -0.1571,-10e-4 -0.157,-0.004 -0.1569,-0.007 -0.1568,-0.01 -0.1566,-0.0123 -0.1564,-0.0151 -0.156,-0.0178 -0.1558,-0.0205 -0.1553,-0.0232 -0.1549,-0.0259 -0.1545,-0.0287 -0.1539,-0.0313 -0.1534,-0.034 -0.1527,-0.0366 -0.1521,-0.0394 -0.1513,-0.0419 -0.1506,-0.0447 -0.1499,-0.0472 -0.1489,-0.0498 -0.1481,-0.0525 -0.1471,-0.055 -0.1462,-0.0575 -0.1451,-0.0602 -0.144,-0.0626 -0.143,-0.0651 -0.1417,-0.0677 -0.1406,-0.07 -0.1393,-0.0726 -0.1381,-0.0749 -0.1367,-0.0774 -0.1353,-0.0797 -0.134,-0.0821 -0.1325,-0.0844 -0.1309,-0.0867 -0.1295,-0.0889 -0.1279,-0.0912 -0.1262,-0.0935 -0.1247,-0.0956 -0.1229,-0.0978 -0.1212,-0.0999 -0.1194,-0.102 -0.1177,-0.1041 -0.1158,-0.1061 -0.1139,-0.1081 -0.1121,-0.1101 -0.1101,-0.1121 -0.1081,-0.1139 -0.1061,-0.1158 -0.1041,-0.1177 -0.102,-0.1194 -0.0999,-0.1212 -0.0978,-0.1229 -0.0956,-0.1247 -0.0935,-0.1262 -0.0912,-0.1279 -0.0889,-0.1295 -0.0867,-0.1309 -0.0844,-0.1325 -0.0821,-0.134 -0.0797,-0.1353 -0.0774,-0.1367 -0.0749,-0.1381 -0.0726,-0.1393 -0.07,-0.1406 -0.0677,-0.1417 -0.0651,-0.143 -0.0626,-0.144 -0.0602,-0.1451 -0.0575,-0.1462 -0.055,-0.1471 -0.0525,-0.1481 -0.0498,-0.1489 -0.0472,-0.1499 -0.0447,-0.1506 -0.0419,-0.1513 -0.0394,-0.1521 -0.0366,-0.1527 -0.034,-0.1534 -0.0313,-0.1539 -0.0287,-0.1545 -0.0259,-0.1549 -0.0232,-0.1553 -0.0205,-0.1558 -0.0178,-0.156 -0.0151,-0.1564 -0.0123,-0.1566 -0.01,-0.1568 -0.007,-0.1569 -0.004,-0.157 -10e-4,-11.5686"
         style="fill:none;stroke:#ff0000;stroke-width:0.56692898;stroke-linecap:butt;stroke-linejoin:miter;stroke-miterlimit:10;stroke-dasharray:none;stroke-opacity:1"
         id="path30"
         inkscape:connector-curvature="0" /><path
         style="fill:none;stroke:#ff0000;stroke-width:0.56692898;stroke-linecap:butt;stroke-linejoin:miter;stroke-miterlimit:10;stroke-dasharray:none;stroke-opacity:1"
         d="m 511.2,612 h 21.6 v 21.6 H 511.2 V 612"
         id="path921"
         inkscape:connector-curvature="0" /><path
         style="fill:none;stroke:#ff0000;stroke-width:0.56692898;stroke-linecap:butt;stroke-linejoin:miter;stroke-miterlimit:10;stroke-dasharray:none;stroke-opacity:1"
         d="m 468,612 h 21.6 v 21.6 H 468 V 612"
         id="path919"
         inkscape:connector-curvature="0" /><path
         style="fill:none;stroke:#ff0000;stroke-width:0.56692898;stroke-linecap:butt;stroke-linejoin:miter;stroke-miterlimit:10;stroke-dasharray:none;stroke-opacity:1"
         d="m 424.8,612 h 21.6 v 21.6 H 424.8 V 612"
         id="path917"
         inkscape:connector-curvature="0" /><path
         style="fill:none;stroke:#ff0000;stroke-width:0.56692898;stroke-linecap:butt;stroke-linejoin:miter;stroke-miterlimit:10;stroke-dasharray:none;stroke-opacity:1"
         d="m 381.6,612 h 21.6 v 21.6 H 381.6 V 612"
         id="path915"
         inkscape:connector-curvature="0" /><path
         style="fill:none;stroke:#ff0000;stroke-width:0.56692898;stroke-linecap:butt;stroke-linejoin:miter;stroke-miterlimit:10;stroke-dasharray:none;stroke-opacity:1"
         d="M 338.4,612 H 360 v 21.6 H 338.4 V 612"
         id="path68"
         inkscape:connector-curvature="0" /><path
         d="m 115.852,111.6 c 0,2.3483 -1.9037,4.252 -4.252,4.252 -2.3483,0 -4.252,-1.9037 -4.252,-4.252 0,-2.3483 1.9037,-4.252 4.252,-4.252 2.3483,0 4.252,1.9037 4.252,4.252"
         style="fill:none;stroke:#ff0000;stroke-width:0.56692898;stroke-linecap:butt;stroke-linejoin:miter;stroke-miterlimit:10;stroke-dasharray:none;stroke-opacity:1"
         id="path70"
         inkscape:connector-curvature="0" /><path
         d="m 115.852,543.6 c 0,2.3483 -1.9037,4.252 -4.252,4.252 -2.3483,0 -4.252,-1.9037 -4.252,-4.252 0,-2.3483 1.9037,-4.252 4.252,-4.252 2.3483,0 4.252,1.9037 4.252,4.252"
         style="fill:none;stroke:#ff0000;stroke-width:0.56692898;stroke-linecap:butt;stroke-linejoin:miter;stroke-miterlimit:10;stroke-dasharray:none;stroke-opacity:1"
         id="path72"
         inkscape:connector-curvature="0" /><path
         d="m 547.852,111.6 c 0,2.3483 -1.9037,4.252 -4.252,4.252 -2.3483,0 -4.252,-1.9037 -4.252,-4.252 0,-2.3483 1.9037,-4.252 4.252,-4.252 2.3483,0 4.252,1.9037 4.252,4.252"
         style="fill:none;stroke:#ff0000;stroke-width:0.56692898;stroke-linecap:butt;stroke-linejoin:miter;stroke-miterlimit:10;stroke-dasharray:none;stroke-opacity:1"
         id="path74"
         inkscape:connector-curvature="0" /><path
         d="m 547.852,543.6 c 0,2.3483 -1.9037,4.252 -4.252,4.252 -2.3483,0 -4.252,-1.9037 -4.252,-4.252 0,-2.3483 1.9037,-4.252 4.252,-4.252 2.3483,0 4.252,1.9037 4.252,4.252"
         style="fill:none;stroke:#ff0000;stroke-width:0.56692898;stroke-linecap:butt;stroke-linejoin:miter;stroke-miterlimit:10;stroke-dasharray:none;stroke-opacity:1"
         id="path76"
         inkscape:connector-curvature="0" /><path
         inkscape:connector-curvature="0"
         style="fill:none;stroke:#ff0000;stroke-width:0.56692898;stroke-linecap:butt;stroke-linejoin:miter;stroke-miterlimit:10;stroke-dasharray:none;stroke-opacity:1"
         d="m 294.99747,612 h 21.60001 v 21.6 H 294.99747 V 612"
         id="path68-2" /></g></g></svg>