  0
SECTION
  2
HEADER
  9
$ACADVER
  1
AC1014
  9
$HANDSEED
  5
FFFF
  9
$MEASUREMENT
 70
     1
  0
ENDSEC
  0
SECTION
  2
TABLES
  0
TABLE
  2
VPORT
  5
8
330
0
100
AcDbSymbolTable
 70
     4
  0
VPORT
  5
2E
330
8
100
AcDbSymbolTableRecord
100
AcDbViewportTableRecord
  2
*ACTIVE
 70
     0
 10
0.0
 20
0.0
 11
1.0
 21
1.0
 12
210.0
 22
148.5
 13
0.0
 23
0.0
 14
10.0
 24
10.0
 15
10.0
 25
10.0
 16
0.0
 26
0.0
 36
1.0
 17
0.0
 27
0.0
 37
0.0
 40
341.0
 41
1.24
 42
50.0
 43
0.0
 44
0.0
 50
0.0
 51
0.0
 71
     0
 72
   100
 73
     1
 74
     3
 75
     0
 76
     0
 77
     0
 78
     0
  0
ENDTAB
  0
TABLE
  2
LTYPE
  5
5
330
0
100
AcDbSymbolTable
 70
     1
  0
LTYPE
  5
14
330
5
100
AcDbSymbolTableRecord
100
AcDbLinetypeTableRecord
  2
BYBLOCK
 70
     0
  3

 72
    65
 73
     0
 40
0.0
  0
LTYPE
  5
15
330
5
100
AcDbSymbolTableRecord
100
AcDbLinetypeTableRecord
  2
BYLAYER
 70
     0
  3

 72
    65
 73
     0
 40
0.0
  0
LTYPE
  5
16
330
5
100
AcDbSymbolTableRecord
100
AcDbLinetypeTableRecord
  2
CONTINUOUS
 70
     0
  3
Solid line
 72
    65
 73
     0
 40
0.0
  0
ENDTAB
  0
TABLE
  2
LAYER
  5
2
100
AcDbSymbolTable
 70
2
  0
LAYER
  5
50
100
AcDbSymbolTableRecord
100
AcDbLayerTableRecord
  2
0
 70
0
  6
CONTINUOUS
  0
LAYER
  5
51
100
AcDbSymbolTableRecord
100
AcDbLayerTableRecord
  2
baffles_jr_std1.0
 70
0
  6
CONTINUOUS
  0
ENDTAB
  0
TABLE
  2
STYLE
  5
3
330
0
100
AcDbSymbolTable
 70
     1
  0
STYLE
  5
11
330
3
100
AcDbSymbolTableRecord
100
AcDbTextStyleTableRecord
  2
STANDARD
 70
     0
 40
0.0
 41
1.0
 50
0.0
 71
     0
 42
2.5
  3
txt
  4

  0
ENDTAB
  0
TABLE
  2
VIEW
  5
6
330
0
100
AcDbSymbolTable
 70
     0
  0
ENDTAB
  0
TABLE
  2
UCS
  5
7
330
0
100
AcDbSymbolTable
 70
     0
  0
ENDTAB
  0
TABLE
  2
APPID
  5
9
330
0
100
AcDbSymbolTable
 70
     2
  0
APPID
  5
12
330
9
100
AcDbSymbolTableRecord
100
AcDbRegAppTableRecord
  2
ACAD
 70
     0
  0
ENDTAB
  0
TABLE
  2
DIMSTYLE
  5
A
330
0
100
AcDbSymbolTable
 70
     1
  0
DIMSTYLE
105
27
330
A
100
AcDbSymbolTableRecord
100
AcDbDimStyleTableRecord
  2
ISO-25
 70
     0
  3

  4

  5

  6

  7

 40
1.0
 41
2.5
 42
0.625
 43
3.75
 44
1.25
 45
0.0
 46
0.0
 47
0.0
 48
0.0
140
2.5
141
2.5
142
0.0
143
0.03937007874016
144
1.0
145
0.0
146
1.0
147
0.625
 71
     0
 72
     0
 73
     0
 74
     0
 75
     0
 76
     0
 77
     1
 78
     8
170
     0
171
     3
172
     1
173
     0
174
     0
175
     0
176
     0
177
     0
178
     0
270
     2
271
     2
272
     2
273
     2
274
     3
340
11
275
     0
280
     0
281
     0
282
     0
283
     0
284
     8
285
     0
286
     0
287
     3
288
     0
  0
ENDTAB
  0
TABLE
  2
BLOCK_RECORD
  5
1
330
0
100
AcDbSymbolTable
 70
     1
  0
BLOCK_RECORD
  5
1F
330
1
100
AcDbSymbolTableRecord
100
AcDbBlockTableRecord
  2
*MODEL_SPACE
  0
BLOCK_RECORD
  5
1B
330
1
100
AcDbSymbolTableRecord
100
AcDbBlockTableRecord
  2
*PAPER_SPACE
  0
ENDTAB
  0
ENDSEC
  0
SECTION
  2
BLOCKS
  0
BLOCK
  5
20
330
1F
100
AcDbEntity
  8
0
100
AcDbBlockBegin
  2
*MODEL_SPACE
 70
     0
 10
0.0
 20
0.0
 30
0.0
  3
*MODEL_SPACE
  1

  0
ENDBLK
  5
21
330
1F
100
AcDbEntity
  8
0
100
AcDbBlockEnd
  0
BLOCK
  5
1C
330
1B
100
AcDbEntity
 67
     1
  8
0
100
AcDbBlockBegin
  2
*PAPER_SPACE
  1

  0
ENDBLK
  5
1D
330
1B
100
AcDbEntity
 67
     1
  8
0
100
AcDbBlockEnd
  0
ENDSEC
  0
SECTION
  2
ENTITIES
  0
SPLINE
  5
100
100
AcDbEntity
  8
baffles_jr_std1.0
 62
1
100
AcDbSpline
 70
0
 71
3
 72
19
 73
15
 74
13
 40
0.000000
 40
0.000000
 40
0.000000
 40
0.000000
 40
0.784292
 40
1.545322
 40
2.329612
 40
3.113902
 40
3.874932
 40
4.659224
 40
5.443516
 40
6.204547
 40
6.988836
 40
7.773126
 40
8.534157
 40
9.318448
 40
9.318448
 40
9.318448
 40
9.318448
 10
6.100001
 20
4.599997
 30
0.0
 10
6.058773
 20
4.864424
 30
0.0
 10
5.977541
 20
5.385433
 30
0.0
 10
5.380368
 20
5.959025
 30
0.0
 10
4.601377
 20
6.171561
 30
0.0
 10
3.814207
 20
5.959025
 30
0.0
 10
3.241085
 20
5.385433
 30
0.0
 10
3.028396
 20
4.599997
 30
0.0
 10
3.241085
 20
3.814561
 30
0.0
 10
3.814207
 20
3.240970
 30
0.0
 10
4.601377
 20
3.028434
 30
0.0
 10
5.380368
 20
3.240969
 30
0.0
 10
5.977541
 20
3.814561
 30
0.0
 10
6.058773
 20
4.335571
 30
0.0
 10
6.100001
 20
4.599997
 30
0.0
 11
6.100001
 21
4.599997
 31
0.0
 11
5.895207
 21
5.357079
 31
0.0
 11
5.357079
 21
5.895212
 31
0.0
 11
4.600000
 21
6.100008
 31
0.0
 11
3.842921
 21
5.895212
 31
0.0
 11
3.304794
 21
5.357079
 31
0.0
 11
3.100000
 21
4.599997
 31
0.0
 11
3.304794
 21
3.842915
 31
0.0
 11
3.842921
 21
3.304783
 31
0.0
 11
4.600000
 21
3.099986
 31
0.0
 11
5.357079
 21
3.304783
 31
0.0
 11
5.895207
 21
3.842915
 31
0.0
 11
6.100001
 21
4.599997
 31
0.0
  0
SPLINE
  5
101
100
AcDbEntity
  8
baffles_jr_std1.0
 62
1
100
AcDbSpline
 70
0
 71
3
 72
19
 73
15
 74
13
 40
0.000000
 40
0.000000
 40
0.000000
 40
0.000000
 40
2.352867
 40
4.635947
 40
6.988813
 40
9.341679
 40
11.624759
 40
13.977625
 40
16.330492
 40
18.613572
 40
20.966438
 40
23.319303
 40
25.602384
 40
27.955251
 40
27.955251
 40
27.955251
 40
27.955251
 10
9.100002
 20
4.599997
 30
0.0
 10
8.976320
 20
5.393274
 30
0.0
 10
8.732625
 20
6.956297
 30
0.0
 10
6.941097
 20
8.677056
 30
0.0
 10
4.604130
 20
9.314648
 30
0.0
 10
2.242627
 20
8.677056
 30
0.0
 10
0.523253
 20
6.956297
 30
0.0
 10
-0.114812
 20
4.599997
 30
0.0
 10
0.523253
 20
2.243698
 30
0.0
 10
2.242627
 20
0.522938
 30
0.0
 10
4.604130
 20
-0.114653
 30
0.0
 10
6.941097
 20
0.522939
 30
0.0
 10
8.732625
 20
2.243698
 30
0.0
 10
8.976320
 20
3.806721
 30
0.0
 10
9.100002
 20
4.599997
 30
0.0
 11
9.100002
 21
4.599997
 31
0.0
 11
8.485619
 21
6.871234
 31
0.0
 11
6.871236
 21
8.485615
 31
0.0
 11
4.600000
 21
9.099995
 31
0.0
 11
2.328764
 21
8.485615
 31
0.0
 11
0.714382
 21
6.871234
 31
0.0
 11
0.100000
 21
4.599997
 31
0.0
 11
0.714382
 21
2.328761
 31
0.0
 11
2.328764
 21
0.714380
 31
0.0
 11
4.600000
 21
0.099999
 31
0.0
 11
6.871236
 21
0.714380
 31
0.0
 11
8.485619
 21
2.328761
 31
0.0
 11
9.100002
 21
4.599997
 31
0.0
  0
ENDSEC
  0
SECTION
  2
OBJECTS
  0
DICTIONARY
  5
C
330
0
100
AcDbDictionary
  3
ACAD_GROUP
350
D
  3
ACAD_MLINESTYLE
350
17
  0
DICTIONARY
  5
D
330
C
100
AcDbDictionary
  0
DICTIONARY
  5
1A
330
C
100
AcDbDictionary
  0
DICTIONARY
  5
17
330
C
100
AcDbDictionary
  3
STANDARD
350
18
  0
DICTIONARY
  5
19
330
C
100
AcDbDictionary
  0
ENDSEC
  0
EOF
