<?xml version="1.0" encoding="UTF-8" standalone="no"?>
<svg
   xmlns:dc="http://purl.org/dc/elements/1.1/"
   xmlns:cc="http://creativecommons.org/ns#"
   xmlns:rdf="http://www.w3.org/1999/02/22-rdf-syntax-ns#"
   xmlns:svg="http://www.w3.org/2000/svg"
   xmlns="http://www.w3.org/2000/svg"
   viewBox="0 0 652.95111 67.366302"
   height="67.366302"
   width="652.95111"
   xml:space="preserve"
   id="svg2"
   version="1.1"><metadata
     id="metadata8"><rdf:RDF><cc:Work
         rdf:about=""><dc:format>image/svg+xml</dc:format><dc:type
           rdf:resource="http://purl.org/dc/dcmitype/StillImage" /><dc:title></dc:title></cc:Work></rdf:RDF></metadata><defs
     id="defs6" /><g
     transform="matrix(1.3333333,0,0,-1.3333333,-76.724405,205.22835)"
     id="g10"><g
       transform="translate(72,72)"
       id="g12">


<path
   id="path26"
   style="fill:none;stroke:#ff0000;stroke-width:0.56700001;stroke-linecap:butt;stroke-linejoin:miter;stroke-miterlimit:10;stroke-dasharray:none;stroke-opacity:1"
   d="M 0,36 H -0.708661 V 31.68 H -14.17323 V 81.6378 H -2.736 -2.752 v 0 -22.8349 h 5.504 v 22.8349 h 23.296 v 0 -22.8349 h 5.504 v 22.8349 h 23.296 v 0 -22.8349 h 5.504 v 22.8349 h 23.296 v 0 -22.8349 h 5.504 v 22.8349 h 23.296 v 0 -22.8349 h 5.504 v 22.8349 h 23.296 v 0 -22.8349 h 5.504 v 22.8349 h 23.296 v 0 -22.8349 h 5.504 v 22.8349 h 23.296 v 0 -22.8349 h 5.504 v 22.8349 h 23.296 v 0 -22.8349 h 5.504 v 22.8349 h 23.296 v 0 -22.8349 h 5.504 v 22.8349 h 23.296 v 0 -22.8349 h 5.504 v 22.8349 h 23.296 v 0 -22.8349 h 5.504 v 22.8349 h 23.296 v 0 -22.8349 h 5.504 v 22.8349 h 23.296 v 0 -22.8349 h 5.504 v 22.8349 h 23.296 v 0 -22.8349 h 5.504 v 22.8349 h 23.296 v 0 -22.8349 h 5.504 v 22.8349 h 23.296 v 0 -22.8349 h 5.504 v 0 22.8349 h 11.4212 V 31.68 H 461.5087 V 36 h -0.4252 v 0 H 0" />
</g></g></svg>