<?xml version="1.0"?>
<!DOCTYPE svg PUBLIC "-//W3C//DTD SVG 1.1//EN" "http://www.w3.org/Graphics/SVG/1.1/DTD/svg11.dtd">
<svg width="231.14mm" height="231.14mm" viewBox="-115.570000 -97.409000 231.140000 231.140000" xmlns="http://www.w3.org/2000/svg" version="1.1">
<g id="Shape2DView" transform="scale(1,-1)">
<path id="Shape2DView_nwe0000"  d="M 65.0 57.409 L 65.0 71.409 " stroke="#191919" stroke-width="0.35 px" style="stroke-width:0.35;stroke-miterlimit:4;stroke-dasharray:none;fill:none;fill-rule: evenodd "/>
<path id="Shape2DView_nwe0001"  d="M 65.0 71.409 A 2 2 0 0 1 63 73.409" stroke="#191919" stroke-width="0.35 px" style="stroke-width:0.35;stroke-miterlimit:4;stroke-dasharray:none;fill:none;fill-rule: evenodd "/>
<path id="Shape2DView_nwe0002"  d="M 65.0 57.409 A 2 2 0 0 0 63 55.409" stroke="#191919" stroke-width="0.35 px" style="stroke-width:0.35;stroke-miterlimit:4;stroke-dasharray:none;fill:none;fill-rule: evenodd "/>
<path id="Shape2DView_nwe0003"  d="M 63.0 73.409 L 58.0 73.409 " stroke="#191919" stroke-width="0.35 px" style="stroke-width:0.35;stroke-miterlimit:4;stroke-dasharray:none;fill:none;fill-rule: evenodd "/>
<path id="Shape2DView_nwe0004"  d="M 58.0 55.409 L 63.0 55.409 " stroke="#191919" stroke-width="0.35 px" style="stroke-width:0.35;stroke-miterlimit:4;stroke-dasharray:none;fill:none;fill-rule: evenodd "/>
<path id="Shape2DView_nwe0005"  d="M 56.0 71.409 A 2 2 0 0 0 58 73.409" stroke="#191919" stroke-width="0.35 px" style="stroke-width:0.35;stroke-miterlimit:4;stroke-dasharray:none;fill:none;fill-rule: evenodd "/>
<path id="Shape2DView_nwe0006"  d="M 58.0 55.409 A 2 2 0 0 0 56 57.409" stroke="#191919" stroke-width="0.35 px" style="stroke-width:0.35;stroke-miterlimit:4;stroke-dasharray:none;fill:none;fill-rule: evenodd "/>
<path id="Shape2DView_nwe0007"  d="M 56.0 71.409 L 56.0 57.409 " stroke="#191919" stroke-width="0.35 px" style="stroke-width:0.35;stroke-miterlimit:4;stroke-dasharray:none;fill:none;fill-rule: evenodd "/>
<path id="Shape2DView_nwe0008"  d="M 115.57 -133.731 L -115.57 -133.731 " stroke="#191919" stroke-width="0.35 px" style="stroke-width:0.35;stroke-miterlimit:4;stroke-dasharray:none;fill:none;fill-rule: evenodd "/>
<path id="Shape2DView_nwe0009"  d="M 115.57 97.409 L 115.57 -133.731 " stroke="#191919" stroke-width="0.35 px" style="stroke-width:0.35;stroke-miterlimit:4;stroke-dasharray:none;fill:none;fill-rule: evenodd "/>
<path id="Shape2DView_nwe0010"  d="M -115.57 -133.731 L -115.57 97.409 " stroke="#191919" stroke-width="0.35 px" style="stroke-width:0.35;stroke-miterlimit:4;stroke-dasharray:none;fill:none;fill-rule: evenodd "/>
<path id="Shape2DView_nwe0011"  d="M -115.57 97.409 L 115.57 97.409 " stroke="#191919" stroke-width="0.35 px" style="stroke-width:0.35;stroke-miterlimit:4;stroke-dasharray:none;fill:none;fill-rule: evenodd "/>
<path d="M 110.1725 93.599 L 110.175696151 93.6996854725 L 110.185271735 93.79996552 L 110.201188193 93.8994363504 L 110.223381437 93.9976974296 L 110.251762101 94.094353095 L 110.286215906 94.1890141484 L 110.32660412 94.2812994229 L 110.372764114 94.3708373186 L 110.424510017 94.4572672977 L 110.481633466 94.5402413374 L 110.543904447 94.6194253304 L 110.611072215 94.6945004307 L 110.682866309 94.7651643375 L 110.758997641 94.8311325121 L 110.839159656 94.8921393239 L 110.92302957 94.94793912 L 111.010269669 94.9983072145 L 111.100528667 95.0430407926 L 111.193443123 95.0819597282 L 111.288638904 95.1149073083 L 111.38573269 95.1417508647 L 111.484333518 95.1623823079 L 111.584044358 95.1767185623 L 111.684463709 95.184701901 L 111.785187218 95.1863001777 L 111.885809307 95.1815069568 L 111.985924806 95.170341539 L 112.085130586 95.1528488834 L 112.183027179 95.1290994267 L 112.279220392 95.0991887997 L 112.373322887 95.0632374419 L 112.464955748 95.0213901167 L 112.55375 94.9738153285 L 112.639348101 94.9207046442 L 112.721405378 94.8622719218 L 112.799591415 94.7987524493 L 112.873591384 94.7304019971 L 112.943107314 94.6574957883 L 113.007859288 94.5803273906 L 113.067586573 94.4992075339 L 113.122048669 94.4144628591 L 113.171026275 94.3264346032 L 113.214322176 94.235477225 L 113.251762035 94.1419569775 L 113.283195096 94.046250434 L 113.308494787 93.9487429708 L 113.327559236 93.8498272161 L 113.340311677 93.7499014687 L 113.346700761 93.6493680944 L 113.346700761 93.5486319056 L 113.340311677 93.4480985313 L 113.327559236 93.3481727839 L 113.308494787 93.2492570292 L 113.283195096 93.151749566 L 113.251762035 93.0560430225 L 113.214322176 92.962522775 L 113.171026275 92.8715653968 L 113.122048669 92.7835371409 L 113.067586573 92.6987924661 L 113.007859288 92.6176726094 L 112.943107314 92.5405042117 L 112.873591384 92.4675980029 L 112.799591415 92.3992475507 L 112.721405378 92.3357280782 L 112.639348101 92.2772953558 L 112.55375 92.2241846715 L 112.464955748 92.1766098833 L 112.373322887 92.1347625581 L 112.279220392 92.0988112003 L 112.183027179 92.0689005733 L 112.085130586 92.0451511166 L 111.985924806 92.027658461 L 111.885809307 92.0164930432 L 111.785187218 92.0116998223 L 111.684463709 92.013298099 L 111.584044358 92.0212814377 L 111.484333518 92.0356176921 L 111.38573269 92.0562491353 L 111.288638904 92.0830926917 L 111.193443123 92.1160402718 L 111.100528667 92.1549592074 L 111.010269669 92.1996927855 L 110.92302957 92.25006088 L 110.839159656 92.3058606761 L 110.758997641 92.3668674879 L 110.682866309 92.4328356625 L 110.611072215 92.5034995693 L 110.543904447 92.5785746696 L 110.481633466 92.6577586626 L 110.424510017 92.7407327023 L 110.372764114 92.8271626814 L 110.32660412 92.9167005771 L 110.286215906 93.0089858516 L 110.251762101 93.103646905 L 110.223381437 93.2003025704 L 110.201188193 93.2985636496 L 110.185271735 93.39803448 L 110.175696151 93.4983145275 L 110.1725 93.599 " stroke="#191919" stroke-width="0.35 px" style="stroke-width:0.35;stroke-miterlimit:4;stroke-dasharray:none;fill:none"/>
<path id="Shape2DView_nwe0013"  d="M 93.8741666667 74.6266786741 A 6.35 6.35 0 1 0 86.4658 74.6267" stroke="#191919" stroke-width="0.35 px" style="stroke-width:0.35;stroke-miterlimit:4;stroke-dasharray:none;fill:none;fill-rule: evenodd "/>
<path id="Shape2DView_nwe0014"  d="M 93.8741666667 74.6266786741 A 1.27 1.27 0 0 0 93.345 75.6582" stroke="#191919" stroke-width="0.35 px" style="stroke-width:0.35;stroke-miterlimit:4;stroke-dasharray:none;fill:none;fill-rule: evenodd "/>
<path id="Shape2DView_nwe0015"  d="M 86.4658333333 74.6266786741 A 1.27 1.27 0 0 1 86.995 75.6582" stroke="#191919" stroke-width="0.35 px" style="stroke-width:0.35;stroke-miterlimit:4;stroke-dasharray:none;fill:none;fill-rule: evenodd "/>
<path id="Shape2DView_nwe0016"  d="M 93.345 78.994 L 93.345 75.658214409 " stroke="#191919" stroke-width="0.35 px" style="stroke-width:0.35;stroke-miterlimit:4;stroke-dasharray:none;fill:none;fill-rule: evenodd "/>
<path id="Shape2DView_nwe0017"  d="M 86.995 75.658214409 L 86.995 78.994 " stroke="#191919" stroke-width="0.35 px" style="stroke-width:0.35;stroke-miterlimit:4;stroke-dasharray:none;fill:none;fill-rule: evenodd "/>
<path id="Shape2DView_nwe0018"  d="M 86.995 78.994 A 3.175 3.175 0 0 0 93.345 78.994" stroke="#191919" stroke-width="0.35 px" style="stroke-width:0.35;stroke-miterlimit:4;stroke-dasharray:none;fill:none;fill-rule: evenodd "/>
<path id="Shape2DView_nwe0019"  d="M 72.39 88.9 L 72.39 83.82 " stroke="#191919" stroke-width="0.35 px" style="stroke-width:0.35;stroke-miterlimit:4;stroke-dasharray:none;fill:none;fill-rule: evenodd "/>
<path id="Shape2DView_nwe0020"  d="M 72.39 88.9 A 1.27 1.27 0 0 1 71.12 90.17" stroke="#191919" stroke-width="0.35 px" style="stroke-width:0.35;stroke-miterlimit:4;stroke-dasharray:none;fill:none;fill-rule: evenodd "/>
<path id="Shape2DView_nwe0021"  d="M 72.39 83.82 A 1.27 1.27 0 0 0 71.12 82.55" stroke="#191919" stroke-width="0.35 px" style="stroke-width:0.35;stroke-miterlimit:4;stroke-dasharray:none;fill:none;fill-rule: evenodd "/>
<path id="Shape2DView_nwe0022"  d="M 66.04 90.17 L 71.12 90.17 " stroke="#191919" stroke-width="0.35 px" style="stroke-width:0.35;stroke-miterlimit:4;stroke-dasharray:none;fill:none;fill-rule: evenodd "/>
<path id="Shape2DView_nwe0023"  d="M 71.12 82.55 L 66.04 82.55 " stroke="#191919" stroke-width="0.35 px" style="stroke-width:0.35;stroke-miterlimit:4;stroke-dasharray:none;fill:none;fill-rule: evenodd "/>
<path id="Shape2DView_nwe0024"  d="M 66.04 90.17 A 1.27 1.27 0 0 1 64.77 88.9" stroke="#191919" stroke-width="0.35 px" style="stroke-width:0.35;stroke-miterlimit:4;stroke-dasharray:none;fill:none;fill-rule: evenodd "/>
<path id="Shape2DView_nwe0025"  d="M 64.77 83.82 A 1.27 1.27 0 0 1 66.04 82.55" stroke="#191919" stroke-width="0.35 px" style="stroke-width:0.35;stroke-miterlimit:4;stroke-dasharray:none;fill:none;fill-rule: evenodd "/>
<path id="Shape2DView_nwe0026"  d="M 64.77 83.82 L 64.77 88.9 " stroke="#191919" stroke-width="0.35 px" style="stroke-width:0.35;stroke-miterlimit:4;stroke-dasharray:none;fill:none;fill-rule: evenodd "/>
<path id="Shape2DView_nwe0027"  d="M 57.15 88.9 L 57.15 83.82 " stroke="#191919" stroke-width="0.35 px" style="stroke-width:0.35;stroke-miterlimit:4;stroke-dasharray:none;fill:none;fill-rule: evenodd "/>
<path id="Shape2DView_nwe0028"  d="M 57.15 88.9 A 1.27 1.27 0 0 1 55.88 90.17" stroke="#191919" stroke-width="0.35 px" style="stroke-width:0.35;stroke-miterlimit:4;stroke-dasharray:none;fill:none;fill-rule: evenodd "/>
<path id="Shape2DView_nwe0029"  d="M 57.15 83.82 A 1.27 1.27 0 0 0 55.88 82.55" stroke="#191919" stroke-width="0.35 px" style="stroke-width:0.35;stroke-miterlimit:4;stroke-dasharray:none;fill:none;fill-rule: evenodd "/>
<path id="Shape2DView_nwe0030"  d="M 50.8 90.17 L 55.88 90.17 " stroke="#191919" stroke-width="0.35 px" style="stroke-width:0.35;stroke-miterlimit:4;stroke-dasharray:none;fill:none;fill-rule: evenodd "/>
<path id="Shape2DView_nwe0031"  d="M 55.88 82.55 L 50.8 82.55 " stroke="#191919" stroke-width="0.35 px" style="stroke-width:0.35;stroke-miterlimit:4;stroke-dasharray:none;fill:none;fill-rule: evenodd "/>
<path id="Shape2DView_nwe0032"  d="M 50.8 90.17 A 1.27 1.27 0 0 1 49.53 88.9" stroke="#191919" stroke-width="0.35 px" style="stroke-width:0.35;stroke-miterlimit:4;stroke-dasharray:none;fill:none;fill-rule: evenodd "/>
<path id="Shape2DView_nwe0033"  d="M 49.53 83.82 A 1.27 1.27 0 0 1 50.8 82.55" stroke="#191919" stroke-width="0.35 px" style="stroke-width:0.35;stroke-miterlimit:4;stroke-dasharray:none;fill:none;fill-rule: evenodd "/>
<path id="Shape2DView_nwe0034"  d="M 49.53 83.82 L 49.53 88.9 " stroke="#191919" stroke-width="0.35 px" style="stroke-width:0.35;stroke-miterlimit:4;stroke-dasharray:none;fill:none;fill-rule: evenodd "/>
<path d="M 74.6125 58.42 L 74.6156961511 58.5206854725 L 74.6252717346 58.62096552 L 74.6411881931 58.7204363504 L 74.6633814365 58.8186974296 L 74.6917621006 58.915353095 L 74.7262159063 59.0100141484 L 74.7666041205 59.1022994229 L 74.8127641139 59.1918373186 L 74.8645100166 59.2782672977 L 74.9216334662 59.3612413374 L 74.9839044465 59.4404253304 L 75.0510722145 59.5155004307 L 75.1228663092 59.5861643375 L 75.198997641 59.6521325121 L 75.2791596561 59.7131393239 L 75.3630295702 59.76893912 L 75.4502696688 59.8193072145 L 75.5405286669 59.8640407926 L 75.6334431232 59.9029597282 L 75.7286389042 59.9359073083 L 75.8257326899 59.9627508647 L 75.924333518 59.9833823079 L 76.0240443577 59.9977185623 L 76.1244637086 60.005701901 L 76.2251872176 60.0073001777 L 76.3258093065 60.0025069568 L 76.4259248058 59.991341539 L 76.5251305856 59.9738488834 L 76.6230271792 59.9500994267 L 76.7192203918 59.9201887997 L 76.813322887 59.8842374419 L 76.9049557475 59.8423901167 L 76.99375 59.7948153285 L 77.0793481014 59.7417046442 L 77.1614053783 59.6832719218 L 77.2395914151 59.6197524493 L 77.3135913842 59.5514019971 L 77.3831073139 59.4784957883 L 77.4478592879 59.4013273906 L 77.507586573 59.3202075339 L 77.5620486685 59.2354628591 L 77.6110262747 59.1474346032 L 77.6543221762 59.056477225 L 77.6917620355 58.9629569775 L 77.7231950956 58.867250434 L 77.7484947867 58.7697429708 L 77.7675592358 58.6708272161 L 77.7803116771 58.5709014687 L 77.786700761 58.4703680944 L 77.786700761 58.3696319056 L 77.7803116771 58.2690985313 L 77.7675592358 58.1691727839 L 77.7484947867 58.0702570292 L 77.7231950956 57.972749566 L 77.6917620355 57.8770430225 L 77.6543221762 57.783522775 L 77.6110262747 57.6925653968 L 77.5620486685 57.6045371409 L 77.507586573 57.5197924661 L 77.4478592879 57.4386726094 L 77.3831073139 57.3615042117 L 77.3135913842 57.2885980029 L 77.2395914151 57.2202475507 L 77.1614053783 57.1567280782 L 77.0793481014 57.0982953558 L 76.99375 57.0451846715 L 76.9049557475 56.9976098833 L 76.813322887 56.9557625581 L 76.7192203918 56.9198112003 L 76.6230271792 56.8899005733 L 76.5251305856 56.8661511166 L 76.4259248058 56.848658461 L 76.3258093065 56.8374930432 L 76.2251872176 56.8326998223 L 76.1244637086 56.834298099 L 76.0240443577 56.8422814377 L 75.924333518 56.8566176921 L 75.8257326899 56.8772491353 L 75.7286389042 56.9040926917 L 75.6334431232 56.9370402718 L 75.5405286669 56.9759592074 L 75.4502696688 57.0206927855 L 75.3630295702 57.07106088 L 75.2791596561 57.1268606761 L 75.198997641 57.1878674879 L 75.1228663092 57.2538356625 L 75.0510722145 57.3244995693 L 74.9839044465 57.3995746696 L 74.9216334662 57.4787586626 L 74.8645100166 57.5617327023 L 74.8127641139 57.6481626814 L 74.7666041205 57.7377005771 L 74.7262159063 57.8299858516 L 74.6917621006 57.924646905 L 74.6633814365 58.0213025704 L 74.6411881931 58.1195636496 L 74.6252717346 58.21903448 L 74.6156961511 58.3193145275 L 74.6125 58.42 " stroke="#191919" stroke-width="0.35 px" style="stroke-width:0.35;stroke-miterlimit:4;stroke-dasharray:none;fill:none"/>
<path id="Shape2DView_nwe0036"  d="M 41.91 88.9 L 41.91 83.82 " stroke="#191919" stroke-width="0.35 px" style="stroke-width:0.35;stroke-miterlimit:4;stroke-dasharray:none;fill:none;fill-rule: evenodd "/>
<path id="Shape2DView_nwe0037"  d="M 41.91 88.9 A 1.27 1.27 0 0 1 40.64 90.17" stroke="#191919" stroke-width="0.35 px" style="stroke-width:0.35;stroke-miterlimit:4;stroke-dasharray:none;fill:none;fill-rule: evenodd "/>
<path id="Shape2DView_nwe0038"  d="M 41.91 83.82 A 1.27 1.27 0 0 0 40.64 82.55" stroke="#191919" stroke-width="0.35 px" style="stroke-width:0.35;stroke-miterlimit:4;stroke-dasharray:none;fill:none;fill-rule: evenodd "/>
<path id="Shape2DView_nwe0039"  d="M 35.56 90.17 L 40.64 90.17 " stroke="#191919" stroke-width="0.35 px" style="stroke-width:0.35;stroke-miterlimit:4;stroke-dasharray:none;fill:none;fill-rule: evenodd "/>
<path id="Shape2DView_nwe0040"  d="M 40.64 82.55 L 35.56 82.55 " stroke="#191919" stroke-width="0.35 px" style="stroke-width:0.35;stroke-miterlimit:4;stroke-dasharray:none;fill:none;fill-rule: evenodd "/>
<path id="Shape2DView_nwe0041"  d="M 35.56 90.17 A 1.27 1.27 0 0 1 34.29 88.9" stroke="#191919" stroke-width="0.35 px" style="stroke-width:0.35;stroke-miterlimit:4;stroke-dasharray:none;fill:none;fill-rule: evenodd "/>
<path id="Shape2DView_nwe0042"  d="M 34.29 83.82 A 1.27 1.27 0 0 1 35.56 82.55" stroke="#191919" stroke-width="0.35 px" style="stroke-width:0.35;stroke-miterlimit:4;stroke-dasharray:none;fill:none;fill-rule: evenodd "/>
<path id="Shape2DView_nwe0043"  d="M 34.29 83.82 L 34.29 88.9 " stroke="#191919" stroke-width="0.35 px" style="stroke-width:0.35;stroke-miterlimit:4;stroke-dasharray:none;fill:none;fill-rule: evenodd "/>
<path id="Shape2DView_nwe0044"  d="M -3.81 88.9 L -3.81 83.82 " stroke="#191919" stroke-width="0.35 px" style="stroke-width:0.35;stroke-miterlimit:4;stroke-dasharray:none;fill:none;fill-rule: evenodd "/>
<path id="Shape2DView_nwe0045"  d="M -3.81 88.9 A 1.27 1.27 0 0 1 -5.08 90.17" stroke="#191919" stroke-width="0.35 px" style="stroke-width:0.35;stroke-miterlimit:4;stroke-dasharray:none;fill:none;fill-rule: evenodd "/>
<path id="Shape2DView_nwe0046"  d="M -3.81 83.82 A 1.27 1.27 0 0 0 -5.08 82.55" stroke="#191919" stroke-width="0.35 px" style="stroke-width:0.35;stroke-miterlimit:4;stroke-dasharray:none;fill:none;fill-rule: evenodd "/>
<path id="Shape2DView_nwe0047"  d="M -10.16 90.17 L -5.08 90.17 " stroke="#191919" stroke-width="0.35 px" style="stroke-width:0.35;stroke-miterlimit:4;stroke-dasharray:none;fill:none;fill-rule: evenodd "/>
<path id="Shape2DView_nwe0048"  d="M -5.08 82.55 L -10.16 82.55 " stroke="#191919" stroke-width="0.35 px" style="stroke-width:0.35;stroke-miterlimit:4;stroke-dasharray:none;fill:none;fill-rule: evenodd "/>
<path id="Shape2DView_nwe0049"  d="M -10.16 90.17 A 1.27 1.27 0 0 1 -11.43 88.9" stroke="#191919" stroke-width="0.35 px" style="stroke-width:0.35;stroke-miterlimit:4;stroke-dasharray:none;fill:none;fill-rule: evenodd "/>
<path id="Shape2DView_nwe0050"  d="M -11.43 83.82 A 1.27 1.27 0 0 1 -10.16 82.55" stroke="#191919" stroke-width="0.35 px" style="stroke-width:0.35;stroke-miterlimit:4;stroke-dasharray:none;fill:none;fill-rule: evenodd "/>
<path id="Shape2DView_nwe0051"  d="M -11.43 83.82 L -11.43 88.9 " stroke="#191919" stroke-width="0.35 px" style="stroke-width:0.35;stroke-miterlimit:4;stroke-dasharray:none;fill:none;fill-rule: evenodd "/>
<path id="Shape2DView_nwe0052"  d="M 26.67 88.9 L 26.67 83.82 " stroke="#191919" stroke-width="0.35 px" style="stroke-width:0.35;stroke-miterlimit:4;stroke-dasharray:none;fill:none;fill-rule: evenodd "/>
<path id="Shape2DView_nwe0053"  d="M 26.67 88.9 A 1.27 1.27 0 0 1 25.4 90.17" stroke="#191919" stroke-width="0.35 px" style="stroke-width:0.35;stroke-miterlimit:4;stroke-dasharray:none;fill:none;fill-rule: evenodd "/>
<path id="Shape2DView_nwe0054"  d="M 26.67 83.82 A 1.27 1.27 0 0 0 25.4 82.55" stroke="#191919" stroke-width="0.35 px" style="stroke-width:0.35;stroke-miterlimit:4;stroke-dasharray:none;fill:none;fill-rule: evenodd "/>
<path id="Shape2DView_nwe0055"  d="M 20.32 90.17 L 25.4 90.17 " stroke="#191919" stroke-width="0.35 px" style="stroke-width:0.35;stroke-miterlimit:4;stroke-dasharray:none;fill:none;fill-rule: evenodd "/>
<path id="Shape2DView_nwe0056"  d="M 25.4 82.55 L 20.32 82.55 " stroke="#191919" stroke-width="0.35 px" style="stroke-width:0.35;stroke-miterlimit:4;stroke-dasharray:none;fill:none;fill-rule: evenodd "/>
<path id="Shape2DView_nwe0057"  d="M 20.32 90.17 A 1.27 1.27 0 0 1 19.05 88.9" stroke="#191919" stroke-width="0.35 px" style="stroke-width:0.35;stroke-miterlimit:4;stroke-dasharray:none;fill:none;fill-rule: evenodd "/>
<path id="Shape2DView_nwe0058"  d="M 19.05 83.82 A 1.27 1.27 0 0 1 20.32 82.55" stroke="#191919" stroke-width="0.35 px" style="stroke-width:0.35;stroke-miterlimit:4;stroke-dasharray:none;fill:none;fill-rule: evenodd "/>
<path id="Shape2DView_nwe0059"  d="M 19.05 83.82 L 19.05 88.9 " stroke="#191919" stroke-width="0.35 px" style="stroke-width:0.35;stroke-miterlimit:4;stroke-dasharray:none;fill:none;fill-rule: evenodd "/>
<path id="Shape2DView_nwe0060"  d="M 11.43 88.9 L 11.43 83.82 " stroke="#191919" stroke-width="0.35 px" style="stroke-width:0.35;stroke-miterlimit:4;stroke-dasharray:none;fill:none;fill-rule: evenodd "/>
<path id="Shape2DView_nwe0061"  d="M 11.43 88.9 A 1.27 1.27 0 0 1 10.16 90.17" stroke="#191919" stroke-width="0.35 px" style="stroke-width:0.35;stroke-miterlimit:4;stroke-dasharray:none;fill:none;fill-rule: evenodd "/>
<path id="Shape2DView_nwe0062"  d="M 11.43 83.82 A 1.27 1.27 0 0 0 10.16 82.55" stroke="#191919" stroke-width="0.35 px" style="stroke-width:0.35;stroke-miterlimit:4;stroke-dasharray:none;fill:none;fill-rule: evenodd "/>
<path id="Shape2DView_nwe0063"  d="M 5.08 90.17 L 10.16 90.17 " stroke="#191919" stroke-width="0.35 px" style="stroke-width:0.35;stroke-miterlimit:4;stroke-dasharray:none;fill:none;fill-rule: evenodd "/>
<path id="Shape2DView_nwe0064"  d="M 10.16 82.55 L 5.08 82.55 " stroke="#191919" stroke-width="0.35 px" style="stroke-width:0.35;stroke-miterlimit:4;stroke-dasharray:none;fill:none;fill-rule: evenodd "/>
<path id="Shape2DView_nwe0065"  d="M 5.08 90.17 A 1.27 1.27 0 0 1 3.81 88.9" stroke="#191919" stroke-width="0.35 px" style="stroke-width:0.35;stroke-miterlimit:4;stroke-dasharray:none;fill:none;fill-rule: evenodd "/>
<path id="Shape2DView_nwe0066"  d="M 3.81 83.82 A 1.27 1.27 0 0 1 5.08 82.55" stroke="#191919" stroke-width="0.35 px" style="stroke-width:0.35;stroke-miterlimit:4;stroke-dasharray:none;fill:none;fill-rule: evenodd "/>
<path id="Shape2DView_nwe0067"  d="M 3.81 83.82 L 3.81 88.9 " stroke="#191919" stroke-width="0.35 px" style="stroke-width:0.35;stroke-miterlimit:4;stroke-dasharray:none;fill:none;fill-rule: evenodd "/>
<path id="Shape2DView_nwe0068"  d="M 86.995 -111.980214409 L 86.995 -115.316 " stroke="#191919" stroke-width="0.35 px" style="stroke-width:0.35;stroke-miterlimit:4;stroke-dasharray:none;fill:none;fill-rule: evenodd "/>
<path id="Shape2DView_nwe0069"  d="M 86.995 -111.980214409 A 1.27 1.27 0 0 1 86.4658 -110.949" stroke="#191919" stroke-width="0.35 px" style="stroke-width:0.35;stroke-miterlimit:4;stroke-dasharray:none;fill:none;fill-rule: evenodd "/>
<path id="Shape2DView_nwe0070"  d="M 93.345 -115.316 A 3.175 3.175 0 1 0 86.995 -115.316" stroke="#191919" stroke-width="0.35 px" style="stroke-width:0.35;stroke-miterlimit:4;stroke-dasharray:none;fill:none;fill-rule: evenodd "/>
<path id="Shape2DView_nwe0071"  d="M 86.4658333333 -110.948678674 A 6.35 6.35 0 1 0 93.8742 -110.949" stroke="#191919" stroke-width="0.35 px" style="stroke-width:0.35;stroke-miterlimit:4;stroke-dasharray:none;fill:none;fill-rule: evenodd "/>
<path id="Shape2DView_nwe0072"  d="M 93.345 -115.316 L 93.345 -111.980214409 " stroke="#191919" stroke-width="0.35 px" style="stroke-width:0.35;stroke-miterlimit:4;stroke-dasharray:none;fill:none;fill-rule: evenodd "/>
<path id="Shape2DView_nwe0073"  d="M 93.345 -111.980214409 A 1.27 1.27 0 0 0 93.8742 -110.949" stroke="#191919" stroke-width="0.35 px" style="stroke-width:0.35;stroke-miterlimit:4;stroke-dasharray:none;fill:none;fill-rule: evenodd "/>
<path d="M 74.6125 -93.98 L 74.6156961511 -93.8793145275 L 74.6252717346 -93.77903448 L 74.6411881931 -93.6795636496 L 74.6633814365 -93.5813025704 L 74.6917621006 -93.484646905 L 74.7262159063 -93.3899858516 L 74.7666041205 -93.2977005771 L 74.8127641139 -93.2081626814 L 74.8645100166 -93.1217327023 L 74.9216334662 -93.0387586626 L 74.9839044465 -92.9595746696 L 75.0510722145 -92.8844995693 L 75.1228663092 -92.8138356625 L 75.198997641 -92.7478674879 L 75.2791596561 -92.6868606761 L 75.3630295702 -92.63106088 L 75.4502696688 -92.5806927855 L 75.5405286669 -92.5359592074 L 75.6334431232 -92.4970402718 L 75.7286389042 -92.4640926917 L 75.8257326899 -92.4372491353 L 75.924333518 -92.4166176921 L 76.0240443577 -92.4022814377 L 76.1244637086 -92.394298099 L 76.2251872176 -92.3926998223 L 76.3258093065 -92.3974930432 L 76.4259248058 -92.408658461 L 76.5251305856 -92.4261511166 L 76.6230271792 -92.4499005733 L 76.7192203918 -92.4798112003 L 76.813322887 -92.5157625581 L 76.9049557475 -92.5576098833 L 76.99375 -92.6051846715 L 77.0793481014 -92.6582953558 L 77.1614053783 -92.7167280782 L 77.2395914151 -92.7802475507 L 77.3135913842 -92.8485980029 L 77.3831073139 -92.9215042117 L 77.4478592879 -92.9986726094 L 77.507586573 -93.0797924661 L 77.5620486685 -93.1645371409 L 77.6110262747 -93.2525653968 L 77.6543221762 -93.343522775 L 77.6917620355 -93.4370430225 L 77.7231950956 -93.532749566 L 77.7484947867 -93.6302570292 L 77.7675592358 -93.7291727839 L 77.7803116771 -93.8290985313 L 77.786700761 -93.9296319056 L 77.786700761 -94.0303680944 L 77.7803116771 -94.1309014687 L 77.7675592358 -94.2308272161 L 77.7484947867 -94.3297429708 L 77.7231950956 -94.427250434 L 77.6917620355 -94.5229569775 L 77.6543221762 -94.616477225 L 77.6110262747 -94.7074346032 L 77.5620486685 -94.7954628591 L 77.507586573 -94.8802075339 L 77.4478592879 -94.9613273906 L 77.3831073139 -95.0384957883 L 77.3135913842 -95.1114019971 L 77.2395914151 -95.1797524493 L 77.1614053783 -95.2432719218 L 77.0793481014 -95.3017046442 L 76.99375 -95.3548153285 L 76.9049557475 -95.4023901167 L 76.813322887 -95.4442374419 L 76.7192203918 -95.4801887997 L 76.6230271792 -95.5100994267 L 76.5251305856 -95.5338488834 L 76.4259248058 -95.551341539 L 76.3258093065 -95.5625069568 L 76.2251872176 -95.5673001777 L 76.1244637086 -95.565701901 L 76.0240443577 -95.5577185623 L 75.924333518 -95.5433823079 L 75.8257326899 -95.5227508647 L 75.7286389042 -95.4959073083 L 75.6334431232 -95.4629597282 L 75.5405286669 -95.4240407926 L 75.4502696688 -95.3793072145 L 75.3630295702 -95.32893912 L 75.2791596561 -95.2731393239 L 75.198997641 -95.2121325121 L 75.1228663092 -95.1461643375 L 75.0510722145 -95.0755004307 L 74.9839044465 -95.0004253304 L 74.9216334662 -94.9212413374 L 74.8645100166 -94.8382672977 L 74.8127641139 -94.7518373186 L 74.7666041205 -94.6622994229 L 74.7262159063 -94.5700141484 L 74.6917621006 -94.475353095 L 74.6633814365 -94.3786974296 L 74.6411881931 -94.2804363504 L 74.6252717346 -94.18096552 L 74.6156961511 -94.0806854725 L 74.6125 -93.98 " stroke="#191919" stroke-width="0.35 px" style="stroke-width:0.35;stroke-miterlimit:4;stroke-dasharray:none;fill:none"/>
<path id="Shape2DView_nwe0075"  d="M -93.345 -111.980214409 L -93.345 -115.316 " stroke="#191919" stroke-width="0.35 px" style="stroke-width:0.35;stroke-miterlimit:4;stroke-dasharray:none;fill:none;fill-rule: evenodd "/>
<path id="Shape2DView_nwe0076"  d="M -93.345 -111.980214409 A 1.27 1.27 0 0 1 -93.8742 -110.949" stroke="#191919" stroke-width="0.35 px" style="stroke-width:0.35;stroke-miterlimit:4;stroke-dasharray:none;fill:none;fill-rule: evenodd "/>
<path id="Shape2DView_nwe0077"  d="M -86.995 -115.316 A 3.175 3.175 0 1 0 -93.345 -115.316" stroke="#191919" stroke-width="0.35 px" style="stroke-width:0.35;stroke-miterlimit:4;stroke-dasharray:none;fill:none;fill-rule: evenodd "/>
<path id="Shape2DView_nwe0078"  d="M -93.8741666667 -110.948678674 A 6.35 6.35 0 1 0 -86.4658 -110.949" stroke="#191919" stroke-width="0.35 px" style="stroke-width:0.35;stroke-miterlimit:4;stroke-dasharray:none;fill:none;fill-rule: evenodd "/>
<path id="Shape2DView_nwe0079"  d="M -86.995 -115.316 L -86.995 -111.980214409 " stroke="#191919" stroke-width="0.35 px" style="stroke-width:0.35;stroke-miterlimit:4;stroke-dasharray:none;fill:none;fill-rule: evenodd "/>
<path id="Shape2DView_nwe0080"  d="M -86.995 -111.980214409 A 1.27 1.27 0 0 0 -86.4658 -110.949" stroke="#191919" stroke-width="0.35 px" style="stroke-width:0.35;stroke-miterlimit:4;stroke-dasharray:none;fill:none;fill-rule: evenodd "/>
<path id="Shape2DView_nwe0081"  d="M -93.345 78.994 L -93.345 75.658214409 " stroke="#191919" stroke-width="0.35 px" style="stroke-width:0.35;stroke-miterlimit:4;stroke-dasharray:none;fill:none;fill-rule: evenodd "/>
<path id="Shape2DView_nwe0082"  d="M -93.345 75.658214409 A 1.27 1.27 0 0 0 -93.8742 74.6267" stroke="#191919" stroke-width="0.35 px" style="stroke-width:0.35;stroke-miterlimit:4;stroke-dasharray:none;fill:none;fill-rule: evenodd "/>
<path id="Shape2DView_nwe0083"  d="M -93.345 78.994 A 3.175 3.175 0 1 0 -86.995 78.994" stroke="#191919" stroke-width="0.35 px" style="stroke-width:0.35;stroke-miterlimit:4;stroke-dasharray:none;fill:none;fill-rule: evenodd "/>
<path id="Shape2DView_nwe0084"  d="M -86.4658333333 74.6266786741 A 6.35 6.35 0 1 0 -93.8742 74.6267" stroke="#191919" stroke-width="0.35 px" style="stroke-width:0.35;stroke-miterlimit:4;stroke-dasharray:none;fill:none;fill-rule: evenodd "/>
<path id="Shape2DView_nwe0085"  d="M -86.995 78.994 L -86.995 75.658214409 " stroke="#191919" stroke-width="0.35 px" style="stroke-width:0.35;stroke-miterlimit:4;stroke-dasharray:none;fill:none;fill-rule: evenodd "/>
<path id="Shape2DView_nwe0086"  d="M -86.4658333333 74.6266786741 A 1.27 1.27 0 0 0 -86.995 75.6582" stroke="#191919" stroke-width="0.35 px" style="stroke-width:0.35;stroke-miterlimit:4;stroke-dasharray:none;fill:none;fill-rule: evenodd "/>
<path d="M -77.7875 -93.98 L -77.7843038489 -93.8793145275 L -77.7747282654 -93.77903448 L -77.7588118069 -93.6795636496 L -77.7366185635 -93.5813025704 L -77.7082378994 -93.484646905 L -77.6737840937 -93.3899858516 L -77.6333958795 -93.2977005771 L -77.5872358861 -93.2081626814 L -77.5354899834 -93.1217327023 L -77.4783665338 -93.0387586626 L -77.4160955535 -92.9595746696 L -77.3489277855 -92.8844995693 L -77.2771336908 -92.8138356625 L -77.201002359 -92.7478674879 L -77.1208403439 -92.6868606761 L -77.0369704298 -92.63106088 L -76.9497303312 -92.5806927855 L -76.8594713331 -92.5359592074 L -76.7665568768 -92.4970402718 L -76.6713610958 -92.4640926917 L -76.5742673101 -92.4372491353 L -76.475666482 -92.4166176921 L -76.3759556423 -92.4022814377 L -76.2755362914 -92.394298099 L -76.1748127824 -92.3926998223 L -76.0741906935 -92.3974930432 L -75.9740751942 -92.408658461 L -75.8748694144 -92.4261511166 L -75.7769728208 -92.4499005733 L -75.6807796082 -92.4798112003 L -75.586677113 -92.5157625581 L -75.4950442525 -92.5576098833 L -75.40625 -92.6051846715 L -75.3206518986 -92.6582953558 L -75.2385946217 -92.7167280782 L -75.1604085849 -92.7802475507 L -75.0864086158 -92.8485980029 L -75.0168926861 -92.9215042117 L -74.9521407121 -92.9986726094 L -74.892413427 -93.0797924661 L -74.8379513315 -93.1645371409 L -74.7889737253 -93.2525653968 L -74.7456778238 -93.343522775 L -74.7082379645 -93.4370430225 L -74.6768049044 -93.532749566 L -74.6515052133 -93.6302570292 L -74.6324407642 -93.7291727839 L -74.6196883229 -93.8290985313 L -74.613299239 -93.9296319056 L -74.613299239 -94.0303680944 L -74.6196883229 -94.1309014687 L -74.6324407642 -94.2308272161 L -74.6515052133 -94.3297429708 L -74.6768049044 -94.427250434 L -74.7082379645 -94.5229569775 L -74.7456778238 -94.616477225 L -74.7889737253 -94.7074346032 L -74.8379513315 -94.7954628591 L -74.892413427 -94.8802075339 L -74.9521407121 -94.9613273906 L -75.0168926861 -95.0384957883 L -75.0864086158 -95.1114019971 L -75.1604085849 -95.1797524493 L -75.2385946217 -95.2432719218 L -75.3206518986 -95.3017046442 L -75.40625 -95.3548153285 L -75.4950442525 -95.4023901167 L -75.586677113 -95.4442374419 L -75.6807796082 -95.4801887997 L -75.7769728208 -95.5100994267 L -75.8748694144 -95.5338488834 L -75.9740751942 -95.551341539 L -76.0741906935 -95.5625069568 L -76.1748127824 -95.5673001777 L -76.2755362914 -95.565701901 L -76.3759556423 -95.5577185623 L -76.475666482 -95.5433823079 L -76.5742673101 -95.5227508647 L -76.6713610958 -95.4959073083 L -76.7665568768 -95.4629597282 L -76.8594713331 -95.4240407926 L -76.9497303312 -95.3793072145 L -77.0369704298 -95.32893912 L -77.1208403439 -95.2731393239 L -77.201002359 -95.2121325121 L -77.2771336908 -95.1461643375 L -77.3489277855 -95.0755004307 L -77.4160955535 -95.0004253304 L -77.4783665338 -94.9212413374 L -77.5354899834 -94.8382672977 L -77.5872358861 -94.7518373186 L -77.6333958795 -94.6622994229 L -77.6737840937 -94.5700141484 L -77.7082378994 -94.475353095 L -77.7366185635 -94.3786974296 L -77.7588118069 -94.2804363504 L -77.7747282654 -94.18096552 L -77.7843038489 -94.0806854725 L -77.7875 -93.98 " stroke="#191919" stroke-width="0.35 px" style="stroke-width:0.35;stroke-miterlimit:4;stroke-dasharray:none;fill:none"/>
<path d="M -77.7875 58.42 L -77.7843038489 58.5206854725 L -77.7747282654 58.62096552 L -77.7588118069 58.7204363504 L -77.7366185635 58.8186974296 L -77.7082378994 58.915353095 L -77.6737840937 59.0100141484 L -77.6333958795 59.1022994229 L -77.5872358861 59.1918373186 L -77.5354899834 59.2782672977 L -77.4783665338 59.3612413374 L -77.4160955535 59.4404253304 L -77.3489277855 59.5155004307 L -77.2771336908 59.5861643375 L -77.201002359 59.6521325121 L -77.1208403439 59.7131393239 L -77.0369704298 59.76893912 L -76.9497303312 59.8193072145 L -76.8594713331 59.8640407926 L -76.7665568768 59.9029597282 L -76.6713610958 59.9359073083 L -76.5742673101 59.9627508647 L -76.475666482 59.9833823079 L -76.3759556423 59.9977185623 L -76.2755362914 60.005701901 L -76.1748127824 60.0073001777 L -76.0741906935 60.0025069568 L -75.9740751942 59.991341539 L -75.8748694144 59.9738488834 L -75.7769728208 59.9500994267 L -75.6807796082 59.9201887997 L -75.586677113 59.8842374419 L -75.4950442525 59.8423901167 L -75.40625 59.7948153285 L -75.3206518986 59.7417046442 L -75.2385946217 59.6832719218 L -75.1604085849 59.6197524493 L -75.0864086158 59.5514019971 L -75.0168926861 59.4784957883 L -74.9521407121 59.4013273906 L -74.892413427 59.3202075339 L -74.8379513315 59.2354628591 L -74.7889737253 59.1474346032 L -74.7456778238 59.056477225 L -74.7082379645 58.9629569775 L -74.6768049044 58.867250434 L -74.6515052133 58.7697429708 L -74.6324407642 58.6708272161 L -74.6196883229 58.5709014687 L -74.613299239 58.4703680944 L -74.613299239 58.3696319056 L -74.6196883229 58.2690985313 L -74.6324407642 58.1691727839 L -74.6515052133 58.0702570292 L -74.6768049044 57.972749566 L -74.7082379645 57.8770430225 L -74.7456778238 57.783522775 L -74.7889737253 57.6925653968 L -74.8379513315 57.6045371409 L -74.892413427 57.5197924661 L -74.9521407121 57.4386726094 L -75.0168926861 57.3615042117 L -75.0864086158 57.2885980029 L -75.1604085849 57.2202475507 L -75.2385946217 57.1567280782 L -75.3206518986 57.0982953558 L -75.40625 57.0451846715 L -75.4950442525 56.9976098833 L -75.586677113 56.9557625581 L -75.6807796082 56.9198112003 L -75.7769728208 56.8899005733 L -75.8748694144 56.8661511166 L -75.9740751942 56.848658461 L -76.0741906935 56.8374930432 L -76.1748127824 56.8326998223 L -76.2755362914 56.834298099 L -76.3759556423 56.8422814377 L -76.475666482 56.8566176921 L -76.5742673101 56.8772491353 L -76.6713610958 56.9040926917 L -76.7665568768 56.9370402718 L -76.8594713331 56.9759592074 L -76.9497303312 57.0206927855 L -77.0369704298 57.07106088 L -77.1208403439 57.1268606761 L -77.201002359 57.1878674879 L -77.2771336908 57.2538356625 L -77.3489277855 57.3244995693 L -77.4160955535 57.3995746696 L -77.4783665338 57.4787586626 L -77.5354899834 57.5617327023 L -77.5872358861 57.6481626814 L -77.6333958795 57.7377005771 L -77.6737840937 57.8299858516 L -77.7082378994 57.924646905 L -77.7366185635 58.0213025704 L -77.7588118069 58.1195636496 L -77.7747282654 58.21903448 L -77.7843038489 58.3193145275 L -77.7875 58.42 " stroke="#191919" stroke-width="0.35 px" style="stroke-width:0.35;stroke-miterlimit:4;stroke-dasharray:none;fill:none"/>
<path d="M 110.1725 -129.921 L 110.175696151 -129.820314528 L 110.185271735 -129.72003448 L 110.201188193 -129.62056365 L 110.223381437 -129.52230257 L 110.251762101 -129.425646905 L 110.286215906 -129.330985852 L 110.32660412 -129.238700577 L 110.372764114 -129.149162681 L 110.424510017 -129.062732702 L 110.481633466 -128.979758663 L 110.543904447 -128.90057467 L 110.611072215 -128.825499569 L 110.682866309 -128.754835663 L 110.758997641 -128.688867488 L 110.839159656 -128.627860676 L 110.92302957 -128.57206088 L 111.010269669 -128.521692786 L 111.100528667 -128.476959207 L 111.193443123 -128.438040272 L 111.288638904 -128.405092692 L 111.38573269 -128.378249135 L 111.484333518 -128.357617692 L 111.584044358 -128.343281438 L 111.684463709 -128.335298099 L 111.785187218 -128.333699822 L 111.885809307 -128.338493043 L 111.985924806 -128.349658461 L 112.085130586 -128.367151117 L 112.183027179 -128.390900573 L 112.279220392 -128.4208112 L 112.373322887 -128.456762558 L 112.464955748 -128.498609883 L 112.55375 -128.546184671 L 112.639348101 -128.599295356 L 112.721405378 -128.657728078 L 112.799591415 -128.721247551 L 112.873591384 -128.789598003 L 112.943107314 -128.862504212 L 113.007859288 -128.939672609 L 113.067586573 -129.020792466 L 113.122048669 -129.105537141 L 113.171026275 -129.193565397 L 113.214322176 -129.284522775 L 113.251762035 -129.378043022 L 113.283195096 -129.473749566 L 113.308494787 -129.571257029 L 113.327559236 -129.670172784 L 113.340311677 -129.770098531 L 113.346700761 -129.870631906 L 113.346700761 -129.971368094 L 113.340311677 -130.071901469 L 113.327559236 -130.171827216 L 113.308494787 -130.270742971 L 113.283195096 -130.368250434 L 113.251762035 -130.463956978 L 113.214322176 -130.557477225 L 113.171026275 -130.648434603 L 113.122048669 -130.736462859 L 113.067586573 -130.821207534 L 113.007859288 -130.902327391 L 112.943107314 -130.979495788 L 112.873591384 -131.052401997 L 112.799591415 -131.120752449 L 112.721405378 -131.184271922 L 112.639348101 -131.242704644 L 112.55375 -131.295815329 L 112.464955748 -131.343390117 L 112.373322887 -131.385237442 L 112.279220392 -131.4211888 L 112.183027179 -131.451099427 L 112.085130586 -131.474848883 L 111.985924806 -131.492341539 L 111.885809307 -131.503506957 L 111.785187218 -131.508300178 L 111.684463709 -131.506701901 L 111.584044358 -131.498718562 L 111.484333518 -131.484382308 L 111.38573269 -131.463750865 L 111.288638904 -131.436907308 L 111.193443123 -131.403959728 L 111.100528667 -131.365040793 L 111.010269669 -131.320307214 L 110.92302957 -131.26993912 L 110.839159656 -131.214139324 L 110.758997641 -131.153132512 L 110.682866309 -131.087164337 L 110.611072215 -131.016500431 L 110.543904447 -130.94142533 L 110.481633466 -130.862241337 L 110.424510017 -130.779267298 L 110.372764114 -130.692837319 L 110.32660412 -130.603299423 L 110.286215906 -130.511014148 L 110.251762101 -130.416353095 L 110.223381437 -130.31969743 L 110.201188193 -130.22143635 L 110.185271735 -130.12196552 L 110.175696151 -130.021685472 L 110.1725 -129.921 " stroke="#191919" stroke-width="0.35 px" style="stroke-width:0.35;stroke-miterlimit:4;stroke-dasharray:none;fill:none"/>
<path d="M -113.3475 93.599 L -113.344303849 93.6996854725 L -113.334728265 93.79996552 L -113.318811807 93.8994363504 L -113.296618563 93.9976974296 L -113.268237899 94.094353095 L -113.233784094 94.1890141484 L -113.19339588 94.2812994229 L -113.147235886 94.3708373186 L -113.095489983 94.4572672977 L -113.038366534 94.5402413374 L -112.976095553 94.6194253304 L -112.908927785 94.6945004307 L -112.837133691 94.7651643375 L -112.761002359 94.8311325121 L -112.680840344 94.8921393239 L -112.59697043 94.94793912 L -112.509730331 94.9983072145 L -112.419471333 95.0430407926 L -112.326556877 95.0819597282 L -112.231361096 95.1149073083 L -112.13426731 95.1417508647 L -112.035666482 95.1623823079 L -111.935955642 95.1767185623 L -111.835536291 95.184701901 L -111.734812782 95.1863001777 L -111.634190693 95.1815069568 L -111.534075194 95.170341539 L -111.434869414 95.1528488834 L -111.336972821 95.1290994267 L -111.240779608 95.0991887997 L -111.146677113 95.0632374419 L -111.055044252 95.0213901167 L -110.96625 94.9738153285 L -110.880651899 94.9207046442 L -110.798594622 94.8622719218 L -110.720408585 94.7987524493 L -110.646408616 94.7304019971 L -110.576892686 94.6574957883 L -110.512140712 94.5803273906 L -110.452413427 94.4992075339 L -110.397951331 94.4144628591 L -110.348973725 94.3264346032 L -110.305677824 94.235477225 L -110.268237965 94.1419569775 L -110.236804904 94.046250434 L -110.211505213 93.9487429708 L -110.192440764 93.8498272161 L -110.179688323 93.7499014687 L -110.173299239 93.6493680944 L -110.173299239 93.5486319056 L -110.179688323 93.4480985313 L -110.192440764 93.3481727839 L -110.211505213 93.2492570292 L -110.236804904 93.151749566 L -110.268237965 93.0560430225 L -110.305677824 92.962522775 L -110.348973725 92.8715653968 L -110.397951331 92.7835371409 L -110.452413427 92.6987924661 L -110.512140712 92.6176726094 L -110.576892686 92.5405042117 L -110.646408616 92.4675980029 L -110.720408585 92.3992475507 L -110.798594622 92.3357280782 L -110.880651899 92.2772953558 L -110.96625 92.2241846715 L -111.055044252 92.1766098833 L -111.146677113 92.1347625581 L -111.240779608 92.0988112003 L -111.336972821 92.0689005733 L -111.434869414 92.0451511166 L -111.534075194 92.027658461 L -111.634190693 92.0164930432 L -111.734812782 92.0116998223 L -111.835536291 92.013298099 L -111.935955642 92.0212814377 L -112.035666482 92.0356176921 L -112.13426731 92.0562491353 L -112.231361096 92.0830926917 L -112.326556877 92.1160402718 L -112.419471333 92.1549592074 L -112.509730331 92.1996927855 L -112.59697043 92.25006088 L -112.680840344 92.3058606761 L -112.761002359 92.3668674879 L -112.837133691 92.4328356625 L -112.908927785 92.5034995693 L -112.976095553 92.5785746696 L -113.038366534 92.6577586626 L -113.095489983 92.7407327023 L -113.147235886 92.8271626814 L -113.19339588 92.9167005771 L -113.233784094 93.0089858516 L -113.268237899 93.103646905 L -113.296618563 93.2003025704 L -113.318811807 93.2985636496 L -113.334728265 93.39803448 L -113.344303849 93.4983145275 L -113.3475 93.599 " stroke="#191919" stroke-width="0.35 px" style="stroke-width:0.35;stroke-miterlimit:4;stroke-dasharray:none;fill:none"/>
<path d="M -113.3475 -129.921 L -113.344303849 -129.820314528 L -113.334728265 -129.72003448 L -113.318811807 -129.62056365 L -113.296618563 -129.52230257 L -113.268237899 -129.425646905 L -113.233784094 -129.330985852 L -113.19339588 -129.238700577 L -113.147235886 -129.149162681 L -113.095489983 -129.062732702 L -113.038366534 -128.979758663 L -112.976095553 -128.90057467 L -112.908927785 -128.825499569 L -112.837133691 -128.754835663 L -112.761002359 -128.688867488 L -112.680840344 -128.627860676 L -112.59697043 -128.57206088 L -112.509730331 -128.521692786 L -112.419471333 -128.476959207 L -112.326556877 -128.438040272 L -112.231361096 -128.405092692 L -112.13426731 -128.378249135 L -112.035666482 -128.357617692 L -111.935955642 -128.343281438 L -111.835536291 -128.335298099 L -111.734812782 -128.333699822 L -111.634190693 -128.338493043 L -111.534075194 -128.349658461 L -111.434869414 -128.367151117 L -111.336972821 -128.390900573 L -111.240779608 -128.4208112 L -111.146677113 -128.456762558 L -111.055044252 -128.498609883 L -110.96625 -128.546184671 L -110.880651899 -128.599295356 L -110.798594622 -128.657728078 L -110.720408585 -128.721247551 L -110.646408616 -128.789598003 L -110.576892686 -128.862504212 L -110.512140712 -128.939672609 L -110.452413427 -129.020792466 L -110.397951331 -129.105537141 L -110.348973725 -129.193565397 L -110.305677824 -129.284522775 L -110.268237965 -129.378043022 L -110.236804904 -129.473749566 L -110.211505213 -129.571257029 L -110.192440764 -129.670172784 L -110.179688323 -129.770098531 L -110.173299239 -129.870631906 L -110.173299239 -129.971368094 L -110.179688323 -130.071901469 L -110.192440764 -130.171827216 L -110.211505213 -130.270742971 L -110.236804904 -130.368250434 L -110.268237965 -130.463956978 L -110.305677824 -130.557477225 L -110.348973725 -130.648434603 L -110.397951331 -130.736462859 L -110.452413427 -130.821207534 L -110.512140712 -130.902327391 L -110.576892686 -130.979495788 L -110.646408616 -131.052401997 L -110.720408585 -131.120752449 L -110.798594622 -131.184271922 L -110.880651899 -131.242704644 L -110.96625 -131.295815329 L -111.055044252 -131.343390117 L -111.146677113 -131.385237442 L -111.240779608 -131.4211888 L -111.336972821 -131.451099427 L -111.434869414 -131.474848883 L -111.534075194 -131.492341539 L -111.634190693 -131.503506957 L -111.734812782 -131.508300178 L -111.835536291 -131.506701901 L -111.935955642 -131.498718562 L -112.035666482 -131.484382308 L -112.13426731 -131.463750865 L -112.231361096 -131.436907308 L -112.326556877 -131.403959728 L -112.419471333 -131.365040793 L -112.509730331 -131.320307214 L -112.59697043 -131.26993912 L -112.680840344 -131.214139324 L -112.761002359 -131.153132512 L -112.837133691 -131.087164337 L -112.908927785 -131.016500431 L -112.976095553 -130.94142533 L -113.038366534 -130.862241337 L -113.095489983 -130.779267298 L -113.147235886 -130.692837319 L -113.19339588 -130.603299423 L -113.233784094 -130.511014148 L -113.268237899 -130.416353095 L -113.296618563 -130.31969743 L -113.318811807 -130.22143635 L -113.334728265 -130.12196552 L -113.344303849 -130.021685472 L -113.3475 -129.921 " stroke="#191919" stroke-width="0.35 px" style="stroke-width:0.35;stroke-miterlimit:4;stroke-dasharray:none;fill:none"/>
<path id="Shape2DView_nwe0092"  d="M -65.0 57.409 L -65.0 71.409 " stroke="#191919" stroke-width="0.35 px" style="stroke-width:0.35;stroke-miterlimit:4;stroke-dasharray:none;fill:none;fill-rule: evenodd "/>
<path id="Shape2DView_nwe0093"  d="M -65.0 71.409 A 2 2 0 0 0 -63 73.409" stroke="#191919" stroke-width="0.35 px" style="stroke-width:0.35;stroke-miterlimit:4;stroke-dasharray:none;fill:none;fill-rule: evenodd "/>
<path id="Shape2DView_nwe0094"  d="M -65.0 57.409 A 2 2 0 0 1 -63 55.409" stroke="#191919" stroke-width="0.35 px" style="stroke-width:0.35;stroke-miterlimit:4;stroke-dasharray:none;fill:none;fill-rule: evenodd "/>
<path id="Shape2DView_nwe0095"  d="M -63.0 73.409 L -58.0 73.409 " stroke="#191919" stroke-width="0.35 px" style="stroke-width:0.35;stroke-miterlimit:4;stroke-dasharray:none;fill:none;fill-rule: evenodd "/>
<path id="Shape2DView_nwe0096"  d="M -58.0 55.409 L -63.0 55.409 " stroke="#191919" stroke-width="0.35 px" style="stroke-width:0.35;stroke-miterlimit:4;stroke-dasharray:none;fill:none;fill-rule: evenodd "/>
<path id="Shape2DView_nwe0097"  d="M -58.0 73.409 A 2 2 0 0 0 -56 71.409" stroke="#191919" stroke-width="0.35 px" style="stroke-width:0.35;stroke-miterlimit:4;stroke-dasharray:none;fill:none;fill-rule: evenodd "/>
<path id="Shape2DView_nwe0098"  d="M -58.0 55.409 A 2 2 0 0 1 -56 57.409" stroke="#191919" stroke-width="0.35 px" style="stroke-width:0.35;stroke-miterlimit:4;stroke-dasharray:none;fill:none;fill-rule: evenodd "/>
<path id="Shape2DView_nwe0099"  d="M -56.0 71.409 L -56.0 57.409 " stroke="#191919" stroke-width="0.35 px" style="stroke-width:0.35;stroke-miterlimit:4;stroke-dasharray:none;fill:none;fill-rule: evenodd "/>
<title>Shape2DView_backplate</title>
</g>
</svg>