<?xml version="1.0" encoding="UTF-8" standalone="no"?>
<svg
   xmlns:dc="http://purl.org/dc/elements/1.1/"
   xmlns:cc="http://creativecommons.org/ns#"
   xmlns:rdf="http://www.w3.org/1999/02/22-rdf-syntax-ns#"
   xmlns:svg="http://www.w3.org/2000/svg"
   xmlns="http://www.w3.org/2000/svg"
   xmlns:sodipodi="http://sodipodi.sourceforge.net/DTD/sodipodi-0.dtd"
   xmlns:inkscape="http://www.inkscape.org/namespaces/inkscape"
   width="420mm"
   height="297mm"
   viewBox="-115.57 -97.409 420 297"
   version="1.1"
   id="svg97"
   sodipodi:docname="ciot_backplate_01.svg"
   inkscape:version="0.92.4 (unknown)">
  <metadata
     id="metadata103">
    <rdf:RDF>
      <cc:Work
         rdf:about="">
        <dc:format>image/svg+xml</dc:format>
        <dc:type
           rdf:resource="http://purl.org/dc/dcmitype/StillImage" />
        <dc:title></dc:title>
      </cc:Work>
    </rdf:RDF>
  </metadata>
  <defs
     id="defs101">
    <marker
       inkscape:stockid="Arrow1Lstart"
       style="overflow:visible"
       refY="0.0"
       refX="0.0"
       orient="auto"
       id="Arrow1Lstart">
      <path
         id="path1603"
         style="fill-rule:evenodd;stroke:#000000;stroke-width:1.0pt;marker-start:none"
         transform="scale(0.8) translate(12.5,0)"
         d="M 0.0,0.0 L 5.0,-5.0 L -12.5,0.0 L 5.0,5.0 L 0.0,0.0 z " />
    </marker>
    <marker
       inkscape:stockid="Arrow1Lend"
       style="overflow:visible"
       refY="0.0"
       refX="0.0"
       orient="auto"
       id="Arrow1Lend">
      <path
         id="path1606"
         style="fill-rule:evenodd;stroke:#000000;stroke-width:1.0pt;marker-start:none"
         transform="scale(0.8) rotate(180) translate(12.5,0)"
         d="M 0.0,0.0 L 5.0,-5.0 L -12.5,0.0 L 5.0,5.0 L 0.0,0.0 z " />
    </marker>
  </defs>
  <sodipodi:namedview
     pagecolor="#ffffff"
     bordercolor="#666666"
     borderopacity="1"
     objecttolerance="10"
     gridtolerance="10"
     guidetolerance="10"
     inkscape:pageopacity="0"
     inkscape:pageshadow="2"
     inkscape:window-width="1920"
     inkscape:window-height="993"
     id="namedview99"
     showgrid="false"
     inkscape:zoom="1.0805861"
     inkscape:cx="755.29979"
     inkscape:cy="332.47604"
     inkscape:window-x="0"
     inkscape:window-y="46"
     inkscape:window-maximized="1"
     inkscape:current-layer="Shape2DView" />
  <g
     id="Shape2DView"
     transform="matrix(1,0,0,-1,0,65.86)"
     style="fill:none;fill-opacity:1;stroke:#fc000e;stroke-opacity:1">
    <title
       id="title94">Shape2DView_backplate</title>
    <text
       xml:space="preserve"
       style="font-style:normal;font-variant:normal;font-weight:normal;font-stretch:normal;font-size:10.58333302px;line-height:1.25;font-family:'Courier 10 Pitch';-inkscape-font-specification:'Courier 10 Pitch';letter-spacing:0px;word-spacing:0px;fill:#000000;fill-opacity:1;stroke:none;stroke-width:0.26458332"
       x="25.692635"
       y="100.76484"
       id="text1097"
       transform="scale(1,-1)"><tspan
         sodipodi:role="line"
         id="tspan1095"
         x="25.692635"
         y="100.76484"
         style="font-size:7.05555534px;line-height:13.22916698px;stroke-width:0.26458332">Back Plate : 1 per clock</tspan><tspan
         sodipodi:role="line"
         x="25.692635"
         y="114.84622"
         style="font-size:7.05555534px;line-height:13.22916698px;stroke-width:0.26458332"
         id="tspan1099">Thickness : 0.25&quot;</tspan><tspan
         sodipodi:role="line"
         x="25.692635"
         y="128.9276"
         style="font-size:7.05555534px;line-height:13.22916698px;stroke-width:0.26458332"
         id="tspan1101">Material : Acrylic, Black</tspan></text>
    <g
       id="g1784"
       stroke="black"
       fill="none">
      <path
         id="path1616"
         stroke-width="0.264583333328"
         marker-end="url(#Arrow1Lend)"
         marker-start="url(#Arrow1Lstart)"
         d="M -21.139999 -84.925988 H 210.000001" />
      <path
         id="path1618"
         d="m -21.030549,-98.155146 v 18.133374"
         inkscape:connector-curvature="0"
         style="stroke-width:0.19393958;stroke-miterlimit:4;stroke-dasharray:none" />
      <path
         id="path1620"
         d="m 210,-98.155146 v 18.133374"
         inkscape:connector-curvature="0"
         style="stroke-width:0.19393958;stroke-miterlimit:4;stroke-dasharray:none" />
      <g
         transform="translate(94.430001,62.034179)"
         id="g1588">
        <path
           id="Shape2DView_nwe0080"
           style="fill:none;fill-opacity:1;fill-rule:evenodd;stroke:#fc000e;stroke-width:0.34999999;stroke-miterlimit:4;stroke-dasharray:none;stroke-opacity:1"
           d="m -86.995,-115.316 v 3.33579 c 1.11e-4,0.40888 0.197082,0.7927 0.5292,1.03121 5.011781,3.59908 2.464604,11.50686 -3.703684,11.507128 -6.168288,2.67e-4 -8.716151,-7.907288 -3.704699,-11.506968 0.332101,-0.23867 0.529072,-0.62249 0.529183,-1.03137 v -3.33579 c 0,-4.23333 6.35,-4.23333 6.35,0 z M 93.345,75.658207 c 5e-6,-0.408995 0.196973,-0.792952 0.529167,-1.031528 5.011614,-3.599312 2.464071,-11.506975 -3.704217,-11.506957 -6.168288,1.8e-5 -8.715785,7.907695 -3.704133,11.506967 0.33221,0.238566 0.529178,0.622523 0.529183,1.031518 V 78.994 c 0,4.233331 6.35,4.233331 6.35,0 z m 0,-190.974207 v 3.33579 c 1.11e-4,0.40888 0.197082,0.7927 0.5292,1.03121 5.011781,3.59908 2.464604,11.50686 -3.703684,11.507128 -6.168288,2.67e-4 -8.716151,-7.907288 -3.704699,-11.506968 0.332101,-0.23867 0.529072,-0.62249 0.529183,-1.03137 v -3.33579 c 0,-4.23333 6.35,-4.23333 6.35,0 z M 35.56,90.17 c -0.701402,0 -1.27,-0.568598 -1.27,-1.27 v -5.08 c 0,-0.701402 0.568598,-1.27 1.27,-1.27 h 5.08 c 0.701402,0 1.27,0.568598 1.27,1.27 v 5.08 c 0,0.701402 -0.568598,1.27 -1.27,1.27 z m 20.32,0 H 50.8 c -0.701402,0 -1.27,-0.568598 -1.27,-1.27 v -5.08 c 0,-0.701402 0.568598,-1.27 1.27,-1.27 h 5.08 c 0.701402,0 1.27,0.568598 1.27,1.27 v 5.08 c 0,0.701402 -0.568598,1.27 -1.27,1.27 m -66.04,0 c -0.701402,0 -1.27,-0.568598 -1.27,-1.27 v -5.08 c 0,-0.701402 0.568598,-1.27 1.27,-1.27 h 5.08 c 0.7014016,0 1.27,0.568598 1.27,1.27 v 5.08 c 0,0.701402 -0.5685984,1.27 -1.27,1.27 z m 15.24,0 c -0.7014016,0 -1.27,-0.568598 -1.27,-1.27 v -5.08 c 0,-0.701402 0.5685984,-1.27 1.27,-1.27 h 5.08 c 0.701402,0 1.27,0.568598 1.27,1.27 v 5.08 c 0,0.701402 -0.568598,1.27 -1.27,1.27 z M 26.67,88.9 v -5.08 c 0,-0.701402 -0.568598,-1.27 -1.27,-1.27 h -5.08 c -0.701402,0 -1.27,0.568598 -1.27,1.27 v 5.08 c 0,0.701402 0.568598,1.27 1.27,1.27 h 5.08 c 0.701402,0 1.27,-0.568598 1.27,-1.27 z m 47.9425,-30.48 0.0032,0.100685 0.0096,0.100281 0.01592,0.09947 0.02219,0.09826 0.02838,0.09666 0.03445,0.09466 0.04039,0.09229 0.04616,0.08954 0.05175,0.08643 0.05712,0.08297 0.06227,0.07918 0.06717,0.07508 0.07179,0.07066 0.07613,0.06597 0.08016,0.06101 0.08387,0.0558 0.08724,0.05037 0.09026,0.04473 0.09291,0.03892 0.0952,0.03295 0.09709,0.02684 0.0986,0.02063 0.09971,0.01434 0.10042,0.008 0.100723,0.0016 0.100622,-0.0048 0.100116,-0.01116 0.09921,-0.01749 0.0979,-0.02375 0.09619,-0.02991 0.0941,-0.03595 0.09163,-0.04185 0.08879,-0.04758 0.0856,-0.05311 0.08206,-0.05843 0.07819,-0.06352 0.074,-0.06835 0.06952,-0.07291 0.06475,-0.07717 0.05973,-0.08112 0.05446,-0.08474 0.04898,-0.08803 0.0433,-0.09096 0.03744,-0.09352 0.03143,-0.09571 0.0253,-0.09751 0.01906,-0.09892 0.01275,-0.09993 0.0064,-0.100533 v -0.100736 l -0.0064,-0.100533 -0.01275,-0.09993 -0.01906,-0.09892 -0.0253,-0.09751 -0.03143,-0.09571 -0.03744,-0.09352 -0.0433,-0.09096 -0.04898,-0.08803 -0.05446,-0.08474 -0.05973,-0.08112 -0.06475,-0.07717 -0.06952,-0.07291 -0.074,-0.06835 -0.07819,-0.06352 -0.08206,-0.05843 -0.0856,-0.05311 -0.08879,-0.04757 -0.09163,-0.04185 -0.0941,-0.03595 -0.09619,-0.02991 -0.0979,-0.02375 -0.09921,-0.01749 -0.100116,-0.01116 -0.100622,-0.0048 -0.100723,0.0016 -0.10042,0.008 -0.09971,0.01434 -0.0986,0.02063 -0.09709,0.02684 -0.0952,0.03295 -0.09291,0.03892 -0.09026,0.04473 -0.08724,0.05037 -0.08387,0.0558 -0.08016,0.06101 -0.07613,0.06597 -0.07179,0.07066 -0.06717,0.07507 -0.06227,0.07918 -0.05712,0.08297 -0.05175,0.08643 -0.04616,0.08954 -0.04039,0.09228 -0.03445,0.09466 -0.02838,0.09666 -0.02219,0.09826 -0.01592,0.09947 -0.0096,0.100281 L 74.6125,58.42 m -152.4,0 0.0032,0.100685 0.0096,0.100281 0.01592,0.09947 0.02219,0.09826 0.02838,0.09666 0.03445,0.09466 0.04039,0.09229 0.04616,0.08954 0.05175,0.08643 0.05712,0.08297 0.06227,0.07918 0.06717,0.07508 0.07179,0.07066 0.07613,0.06597 0.08016,0.06101 0.08387,0.0558 0.08724,0.05037 0.09026,0.04473 0.09291,0.03892 0.0952,0.03295 0.09709,0.02684 0.0986,0.02063 0.09971,0.01434 0.10042,0.008 0.100723,0.0016 0.100622,-0.0048 0.100116,-0.01116 0.09921,-0.01749 0.0979,-0.02375 0.09619,-0.02991 0.0941,-0.03595 0.09163,-0.04185 0.08879,-0.04758 0.0856,-0.05311 0.08206,-0.05843 0.07819,-0.06352 0.074,-0.06835 0.06952,-0.07291 0.06475,-0.07717 0.05973,-0.08112 0.05446,-0.08474 0.04898,-0.08803 0.0433,-0.09096 0.03744,-0.09352 0.03143,-0.09571 0.0253,-0.09751 0.01906,-0.09892 0.01275,-0.09993 0.0064,-0.100533 v -0.100736 l -0.0064,-0.100533 -0.01275,-0.09993 -0.01906,-0.09892 -0.0253,-0.09751 -0.03143,-0.09571 -0.03744,-0.09352 -0.0433,-0.09096 -0.04898,-0.08803 -0.05446,-0.08474 -0.05973,-0.08112 -0.06475,-0.07717 -0.06952,-0.07291 -0.074,-0.06835 -0.07819,-0.06352 -0.08206,-0.05843 -0.0856,-0.05311 -0.08879,-0.04757 -0.09163,-0.04185 -0.0941,-0.03595 -0.09619,-0.02991 -0.0979,-0.02375 -0.09921,-0.01749 -0.100116,-0.01116 -0.100622,-0.0048 -0.100723,0.0016 -0.10042,0.008 -0.09971,0.01434 -0.0986,0.02063 -0.09709,0.02684 -0.0952,0.03295 -0.09291,0.03892 -0.09026,0.04473 -0.08724,0.05037 -0.08387,0.0558 -0.08016,0.06101 -0.07613,0.06597 -0.07179,0.07066 -0.06717,0.07507 -0.06227,0.07918 -0.05712,0.08297 -0.05175,0.08643 -0.04616,0.08954 -0.04039,0.09228 -0.03445,0.09466 -0.02838,0.09666 -0.02219,0.09826 -0.01592,0.09947 -0.0096,0.100281 -0.0032,0.100685 m 152.4,-152.4 0.0032,0.100685 0.0096,0.100281 0.01592,0.09947 0.02219,0.09826 0.02838,0.09666 0.03445,0.09466 0.04039,0.09228 0.04616,0.08954 0.05175,0.08643 0.05712,0.08297 0.06227,0.07918 0.06717,0.07507 0.07179,0.07066 0.07613,0.06597 0.08016,0.06101 0.08387,0.0558 0.08724,0.05037 0.09026,0.04473 0.09291,0.03892 0.0952,0.03295 0.09709,0.02684 0.0986,0.02063 0.09971,0.01434 0.10042,0.008 0.100723,0.0016 0.100622,-0.0048 0.100116,-0.01117 0.09921,-0.01749 0.0979,-0.02375 0.09619,-0.02991 0.0941,-0.03595 0.09163,-0.04185 0.08879,-0.04758 0.0856,-0.05311 0.08206,-0.05843 0.07819,-0.06352 0.074,-0.06835 0.06952,-0.07291 0.06475,-0.07717 0.05973,-0.08112 0.05446,-0.08474 0.04898,-0.08803 0.0433,-0.09096 0.03744,-0.09352 0.03143,-0.09571 0.0253,-0.09751 0.01906,-0.09892 0.01275,-0.09993 0.0064,-0.100533 v -0.100736 l -0.0064,-0.100533 -0.01275,-0.09993 -0.01906,-0.09892 -0.0253,-0.09751 -0.03143,-0.09571 -0.03744,-0.09352 -0.0433,-0.09096 -0.04898,-0.08803 -0.05446,-0.08474 -0.05973,-0.08112 -0.06475,-0.07717 -0.06952,-0.07291 -0.074,-0.06835 -0.07819,-0.06352 -0.08206,-0.05843 -0.0856,-0.05311 -0.08879,-0.04757 -0.09163,-0.04185 -0.0941,-0.03595 -0.09619,-0.02991 -0.0979,-0.02375 -0.09921,-0.01749 -0.100116,-0.01116 -0.100622,-0.0048 -0.100723,0.0016 -0.10042,0.008 -0.09971,0.01434 -0.0986,0.02063 -0.09709,0.02684 -0.0952,0.03295 -0.09291,0.03892 -0.09026,0.04473 -0.08724,0.05037 -0.08387,0.0558 -0.08016,0.06101 -0.07613,0.06597 -0.07179,0.07066 -0.06717,0.07507 -0.06227,0.07918 -0.05712,0.08297 -0.05175,0.08643 -0.04616,0.08954 -0.04039,0.09229 -0.03445,0.09466 -0.02838,0.09666 -0.02219,0.09826 -0.01592,0.09947 -0.0096,0.100281 -0.0032,0.100685 m 35.56,-35.941 0.003,0.10069 0.01,0.10028 0.0159,0.0995 0.0222,0.0983 0.0284,0.0967 0.0345,0.0947 0.0404,0.0923 0.0462,0.0895 0.0517,0.0864 0.0571,0.083 0.0623,0.0792 0.0672,0.0751 0.0718,0.0707 0.0761,0.066 0.0802,0.061 0.0839,0.0558 0.0872,0.0504 0.0903,0.0447 0.0929,0.0389 0.0952,0.0329 0.0971,0.0268 0.0986,0.0206 0.0997,0.0143 0.10042,0.008 0.10073,0.002 0.10062,-0.005 0.10011,-0.0112 0.0992,-0.0175 0.0979,-0.0237 0.0962,-0.0299 0.0941,-0.036 0.0916,-0.0419 0.0888,-0.0476 0.0856,-0.0531 0.0821,-0.0584 0.0782,-0.0635 0.074,-0.0684 0.0695,-0.0729 0.0647,-0.0772 0.0597,-0.0811 0.0545,-0.0847 0.049,-0.088 0.0433,-0.0909 0.0374,-0.0935 0.0314,-0.0957 0.0253,-0.0975 0.0191,-0.0989 0.0127,-0.0999 0.006,-0.10053 v -0.10074 l -0.006,-0.10053 -0.0127,-0.0999 -0.0191,-0.0989 -0.0253,-0.0975 -0.0314,-0.0957 -0.0374,-0.0935 -0.0433,-0.0909 -0.049,-0.088 -0.0545,-0.0848 -0.0597,-0.0811 -0.0647,-0.0772 -0.0695,-0.0729 -0.074,-0.0683 -0.0782,-0.0635 -0.0821,-0.0584 -0.0856,-0.0531 -0.0888,-0.0476 -0.0916,-0.0419 -0.0941,-0.0359 -0.0962,-0.0299 -0.0979,-0.0238 -0.0992,-0.0175 -0.10011,-0.0112 -0.10062,-0.005 -0.10073,0.002 -0.10042,0.008 -0.0997,0.0143 -0.0986,0.0206 -0.0971,0.0268 -0.0952,0.0329 -0.0929,0.0389 -0.0903,0.0447 -0.0872,0.0504 -0.0839,0.0558 -0.0802,0.061 -0.0761,0.066 -0.0718,0.0707 -0.0672,0.0751 -0.0623,0.0792 -0.0571,0.083 -0.0517,0.0864 -0.0462,0.0895 -0.0404,0.0923 -0.0345,0.0947 -0.0284,0.0966 -0.0222,0.0983 -0.0159,0.0995 -0.01,0.10028 -0.003,0.10069 m -223.52,0 0.003,0.10069 0.01,0.10028 0.0159,0.0995 0.0222,0.0983 0.0284,0.0967 0.0345,0.0947 0.0404,0.0923 0.0462,0.0895 0.0517,0.0864 0.0571,0.083 0.0623,0.0792 0.0672,0.0751 0.0718,0.0707 0.0761,0.066 0.0802,0.061 0.0839,0.0558 0.0872,0.0504 0.0903,0.0447 0.0929,0.0389 0.0952,0.0329 0.0971,0.0268 0.0986,0.0206 0.0997,0.0143 0.10042,0.008 0.10073,0.002 0.10062,-0.005 0.10011,-0.0112 0.0992,-0.0175 0.0979,-0.0237 0.0962,-0.0299 0.0941,-0.036 0.0916,-0.0419 0.0888,-0.0476 0.0856,-0.0531 0.0821,-0.0584 0.0782,-0.0635 0.074,-0.0684 0.0695,-0.0729 0.0648,-0.0772 0.0597,-0.0811 0.0545,-0.0847 0.049,-0.088 0.0433,-0.0909 0.0374,-0.0935 0.0314,-0.0957 0.0253,-0.0975 0.0191,-0.0989 0.0128,-0.0999 0.006,-0.10053 v -0.10074 l -0.006,-0.10053 -0.0128,-0.0999 -0.0191,-0.0989 -0.0253,-0.0975 -0.0314,-0.0957 -0.0374,-0.0935 -0.0433,-0.0909 -0.049,-0.088 -0.0545,-0.0848 -0.0597,-0.0811 -0.0648,-0.0772 -0.0695,-0.0729 -0.074,-0.0683 -0.0782,-0.0635 -0.0821,-0.0584 -0.0856,-0.0531 -0.0888,-0.0476 -0.0916,-0.0419 -0.0941,-0.0359 -0.0962,-0.0299 -0.0979,-0.0238 -0.0992,-0.0175 -0.10011,-0.0112 -0.10062,-0.005 -0.10073,0.002 -0.10042,0.008 -0.0997,0.0143 -0.0986,0.0206 -0.0971,0.0268 -0.0952,0.0329 -0.0929,0.0389 -0.0903,0.0447 -0.0872,0.0504 -0.0839,0.0558 -0.0802,0.061 -0.0761,0.066 -0.0718,0.0707 -0.0672,0.0751 -0.0623,0.0792 -0.0571,0.083 -0.0517,0.0864 -0.0462,0.0895 -0.0404,0.0923 -0.0345,0.0947 -0.0284,0.0966 -0.0222,0.0983 -0.0159,0.0995 -0.01,0.10028 -0.003,0.10069 m 0,223.52 0.003,0.100685 0.01,0.100281 0.0159,0.09947 0.0222,0.09826 0.0284,0.09666 0.0345,0.09466 0.0404,0.09229 0.0462,0.08954 0.0517,0.08643 0.0571,0.08297 0.0623,0.07918 0.0672,0.07507 0.0718,0.07066 0.0761,0.06597 0.0802,0.06101 0.0839,0.0558 0.0872,0.05037 0.0903,0.04473 0.0929,0.03892 0.0952,0.03295 0.0971,0.02684 0.0986,0.02063 0.0997,0.01434 0.10042,0.008 0.10073,0.0016 0.10062,-0.0048 0.10011,-0.01116 0.0992,-0.01749 0.0979,-0.02375 0.0962,-0.02991 0.0941,-0.03595 0.0916,-0.04185 0.0888,-0.04757 0.0856,-0.05311 0.0821,-0.05843 0.0782,-0.06352 0.074,-0.06835 0.0695,-0.07291 0.0648,-0.07717 0.0597,-0.08112 0.0545,-0.08474 0.049,-0.08803 0.0433,-0.09096 0.0374,-0.09352 0.0314,-0.09571 0.0253,-0.09751 0.0191,-0.09892 0.0128,-0.09993 0.006,-0.100533 v -0.100736 l -0.006,-0.100533 -0.0128,-0.09993 -0.0191,-0.09892 -0.0253,-0.09751 -0.0314,-0.09571 -0.0374,-0.09352 -0.0433,-0.09096 -0.049,-0.08803 -0.0545,-0.08474 -0.0597,-0.08112 -0.0648,-0.07717 -0.0695,-0.07291 -0.074,-0.06835 -0.0782,-0.06352 -0.0821,-0.05843 -0.0856,-0.05311 -0.0888,-0.04758 -0.0916,-0.04185 -0.0941,-0.03595 -0.0962,-0.02991 -0.0979,-0.02375 -0.0992,-0.01749 -0.10011,-0.01117 -0.10062,-0.0048 -0.10073,0.0016 -0.10042,0.008 -0.0997,0.01434 -0.0986,0.02063 -0.0971,0.02684 -0.0952,0.03295 -0.0929,0.03892 -0.0903,0.04473 -0.0872,0.05037 -0.0839,0.0558 -0.0802,0.06101 -0.0761,0.06597 -0.0718,0.07066 -0.0672,0.07507 -0.0623,0.07918 -0.0571,0.08297 -0.0517,0.08643 -0.0462,0.08954 -0.0404,0.09228 -0.0345,0.09466 -0.0284,0.09666 -0.0222,0.09826 -0.0159,0.09947 -0.01,0.100281 -0.003,0.100685 m 223.52,0 0.003,0.100685 0.01,0.100281 0.0159,0.09947 0.0222,0.09826 0.0284,0.09666 0.0345,0.09466 0.0404,0.09229 0.0462,0.08954 0.0517,0.08643 0.0571,0.08297 0.0623,0.07918 0.0672,0.07507 0.0718,0.07066 0.0761,0.06597 0.0802,0.06101 0.0839,0.0558 0.0872,0.05037 0.0903,0.04473 0.0929,0.03892 0.0952,0.03295 0.0971,0.02684 0.0986,0.02063 0.0997,0.01434 0.10042,0.008 0.10073,0.0016 0.10062,-0.0048 0.10011,-0.01116 0.0992,-0.01749 0.0979,-0.02375 0.0962,-0.02991 0.0941,-0.03595 0.0916,-0.04185 0.0888,-0.04757 0.0856,-0.05311 0.0821,-0.05843 0.0782,-0.06352 0.074,-0.06835 0.0695,-0.07291 0.0647,-0.07717 0.0597,-0.08112 0.0545,-0.08474 0.049,-0.08803 0.0433,-0.09096 0.0374,-0.09352 0.0314,-0.09571 0.0253,-0.09751 0.0191,-0.09892 0.0127,-0.09993 0.006,-0.100533 v -0.100736 l -0.006,-0.100533 -0.0127,-0.09993 -0.0191,-0.09892 -0.0253,-0.09751 -0.0314,-0.09571 -0.0374,-0.09352 -0.0433,-0.09096 -0.049,-0.08803 -0.0545,-0.08474 -0.0597,-0.08112 -0.0647,-0.07717 -0.0695,-0.07291 -0.074,-0.06835 -0.0782,-0.06352 -0.0821,-0.05843 -0.0856,-0.05311 -0.0888,-0.04758 -0.0916,-0.04185 -0.0941,-0.03595 -0.0962,-0.02991 -0.0979,-0.02375 -0.0992,-0.01749 -0.10011,-0.01117 -0.10062,-0.0048 -0.10073,0.0016 -0.10042,0.008 -0.0997,0.01434 -0.0986,0.02063 -0.0971,0.02684 -0.0952,0.03295 -0.0929,0.03892 -0.0903,0.04473 -0.0872,0.05037 -0.0839,0.0558 -0.0802,0.06101 -0.0761,0.06597 -0.0718,0.07066 -0.0672,0.07507 -0.0623,0.07918 -0.0571,0.08297 -0.0517,0.08643 -0.0462,0.08954 -0.0404,0.09228 -0.0345,0.09466 -0.0284,0.09666 -0.0222,0.09826 -0.0159,0.09947 -0.01,0.100281 -0.003,0.100685 m -187.96,-187.579 0.0032,0.100685 0.0096,0.100281 0.01592,0.09947 0.02219,0.09826 0.02838,0.09666 0.03445,0.09466 0.04039,0.09228 0.04616,0.08954 0.05175,0.08643 0.05712,0.08297 0.06227,0.07918 0.06717,0.07507 0.07179,0.07066 0.07613,0.06597 0.08016,0.06101 0.08387,0.0558 0.08724,0.05037 0.09026,0.04473 0.09291,0.03892 0.0952,0.03295 0.09709,0.02684 0.0986,0.02063 0.09971,0.01434 0.10042,0.008 0.100723,0.0016 0.100622,-0.0048 0.100116,-0.01117 0.09921,-0.01749 0.0979,-0.02375 0.09619,-0.02991 0.0941,-0.03595 0.09163,-0.04185 0.08879,-0.04758 0.0856,-0.05311 0.08206,-0.05843 0.07819,-0.06352 0.074,-0.06835 0.06952,-0.07291 0.06475,-0.07717 0.05973,-0.08112 0.05446,-0.08474 0.04898,-0.08803 0.0433,-0.09096 0.03744,-0.09352 0.03143,-0.09571 0.0253,-0.09751 0.01906,-0.09892 0.01275,-0.09993 0.0064,-0.100533 v -0.100736 l -0.0064,-0.100533 -0.01275,-0.09993 -0.01906,-0.09892 -0.0253,-0.09751 -0.03143,-0.09571 -0.03744,-0.09352 -0.0433,-0.09096 -0.04898,-0.08803 -0.05446,-0.08474 -0.05973,-0.08112 -0.06475,-0.07717 -0.06952,-0.07291 -0.074,-0.06835 -0.07819,-0.06352 -0.08206,-0.05843 -0.0856,-0.05311 -0.08879,-0.04757 -0.09163,-0.04185 -0.0941,-0.03595 -0.09619,-0.02991 -0.0979,-0.02375 -0.09921,-0.01749 -0.100116,-0.01116 -0.100622,-0.0048 -0.100723,0.0016 -0.10042,0.008 -0.09971,0.01434 -0.0986,0.02063 -0.09709,0.02684 -0.0952,0.03295 -0.09291,0.03892 -0.09026,0.04473 -0.08724,0.05037 -0.08387,0.0558 -0.08016,0.06101 -0.07613,0.06597 -0.07179,0.07066 -0.06717,0.07507 -0.06227,0.07918 -0.05712,0.08297 -0.05175,0.08643 -0.04616,0.08954 -0.04039,0.09229 -0.03445,0.09466 -0.02838,0.09666 -0.02219,0.09826 -0.01592,0.09947 -0.0096,0.100281 -0.0032,0.100685 M 115.57,-133.731 H -115.57 V 97.409 H 115.57 Z M 66.04,90.17 c -0.701402,0 -1.27,-0.568598 -1.27,-1.27 v -5.08 c 0,-0.701402 0.568598,-1.27 1.27,-1.27 h 5.08 c 0.701402,0 1.27,0.568598 1.27,1.27 v 5.08 c 0,0.701402 -0.568598,1.27 -1.27,1.27 z M -93.345,78.994 v -3.335786 c -1.5e-5,-0.408991 -0.196996,-0.792946 -0.5292,-1.031514 -5.011635,-3.599283 -2.464138,-11.50696 3.70415,-11.506978 6.168288,-1.8e-5 8.715831,7.907645 3.704217,11.506957 -0.332194,0.238576 -0.529162,0.622533 -0.529167,1.031528 V 78.994 c 0,4.233332 -6.35,4.233332 -6.35,0 z"
           inkscape:connector-curvature="0" />
        <g
           id="g992">
          <g
             id="g976">
            <text
               xml:space="preserve"
               style="font-style:normal;font-weight:normal;font-size:10.58333397px;line-height:1.25;font-family:sans-serif;letter-spacing:0px;word-spacing:0px;fill:#000000;fill-opacity:1;stroke:none;stroke-width:0.26458335;stroke-opacity:1"
               x="48.278084"
               y="-76.118034"
               id="text917-2"
               transform="scale(1,-1)"><tspan
                 sodipodi:role="line"
                 id="tspan915-9"
                 x="48.278084"
                 y="-76.118034"
                 style="font-style:normal;font-variant:normal;font-weight:bold;font-stretch:normal;font-size:3.52777791px;font-family:'Droid Sans';-inkscape-font-specification:'Droid Sans Bold';stroke-width:0.26458335">MODE</tspan></text>
            <text
               xml:space="preserve"
               style="font-style:normal;font-weight:normal;font-size:10.58333397px;line-height:1.25;font-family:sans-serif;letter-spacing:0px;word-spacing:0px;fill:#000000;fill-opacity:1;stroke:none;stroke-width:0.26458335;stroke-opacity:1"
               x="66.301933"
               y="-76.120613"
               id="text917-2-7"
               transform="scale(1,-1)"><tspan
                 sodipodi:role="line"
                 id="tspan915-9-4"
                 x="66.301933"
                 y="-76.120613"
                 style="font-style:normal;font-variant:normal;font-weight:bold;font-stretch:normal;font-size:3.52777815px;font-family:'Droid Sans';-inkscape-font-specification:'Droid Sans Bold';stroke-width:0.26458335">EN</tspan></text>
            <text
               xml:space="preserve"
               style="font-style:normal;font-weight:normal;font-size:10.58333397px;line-height:1.25;font-family:sans-serif;letter-spacing:0px;word-spacing:0px;fill:#000000;fill-opacity:1;stroke:none;stroke-width:0.26458335;stroke-opacity:1"
               x="34.887897"
               y="-76.119759"
               id="text917-2-3"
               transform="scale(1,-1)"><tspan
                 sodipodi:role="line"
                 id="tspan915-9-5"
                 x="34.887897"
                 y="-76.119759"
                 style="font-style:normal;font-variant:normal;font-weight:bold;font-stretch:normal;font-size:3.52777815px;font-family:'Droid Sans';-inkscape-font-specification:'Droid Sans Bold';stroke-width:0.26458335">DEC</tspan></text>
            <text
               xml:space="preserve"
               style="font-style:normal;font-weight:normal;font-size:10.58333397px;line-height:1.25;font-family:sans-serif;letter-spacing:0px;word-spacing:0px;fill:#000000;fill-opacity:1;stroke:none;stroke-width:0.26458335;stroke-opacity:1"
               x="19.979273"
               y="-76.119759"
               id="text917-2-6"
               transform="scale(1,-1)"><tspan
                 sodipodi:role="line"
                 id="tspan915-9-1"
                 x="19.979273"
                 y="-76.119759"
                 style="font-style:normal;font-variant:normal;font-weight:bold;font-stretch:normal;font-size:3.52777815px;font-family:'Droid Sans';-inkscape-font-specification:'Droid Sans Bold';stroke-width:0.26458335">INC</tspan></text>
            <text
               xml:space="preserve"
               style="font-style:normal;font-weight:normal;font-size:10.58333397px;line-height:1.25;font-family:sans-serif;letter-spacing:0px;word-spacing:0px;fill:#000000;fill-opacity:1;stroke:none;stroke-width:0.26458335;stroke-opacity:1"
               x="2.3998351"
               y="-76.120613"
               id="text917-2-4"
               transform="scale(1,-1)"><tspan
                 sodipodi:role="line"
                 id="tspan915-9-0"
                 x="2.3998351"
                 y="-76.120613"
                 style="font-style:normal;font-variant:normal;font-weight:bold;font-stretch:normal;font-size:3.52777815px;font-family:'Droid Sans';-inkscape-font-specification:'Droid Sans Bold';stroke-width:0.26458335">ENTER</tspan></text>
            <text
               xml:space="preserve"
               style="font-style:normal;font-weight:normal;font-size:10.58333397px;line-height:1.25;font-family:sans-serif;letter-spacing:0px;word-spacing:0px;fill:#000000;fill-opacity:1;stroke:none;stroke-width:0.26458335;stroke-opacity:1"
               x="-12.011831"
               y="-76.118034"
               id="text917-2-31"
               transform="scale(1,-1)"><tspan
                 sodipodi:role="line"
                 id="tspan915-9-2"
                 x="-12.011831"
                 y="-76.118034"
                 style="font-style:normal;font-variant:normal;font-weight:bold;font-stretch:normal;font-size:3.52777815px;font-family:'Droid Sans';-inkscape-font-specification:'Droid Sans Bold';stroke-width:0.26458335">BOOT</tspan></text>
          </g>
          <path
             inkscape:connector-curvature="0"
             id="path989"
             d="M -11.615148,73.79404 H 72.56469"
             style="fill:none;stroke:#000000;stroke-width:1.32639217;stroke-linecap:butt;stroke-linejoin:miter;stroke-miterlimit:4;stroke-dasharray:none;stroke-opacity:1" />
        </g>
        <g
           id="g1431">
          <text
             transform="scale(1,-1)"
             id="text993"
             y="100.28526"
             x="-46.43644"
             style="font-style:normal;font-weight:normal;font-size:10.58333397px;line-height:1.25;font-family:sans-serif;letter-spacing:0px;word-spacing:0px;fill:#000000;fill-opacity:1;stroke:none;stroke-width:0.26458335"
             xml:space="preserve"><tspan
               style="font-style:normal;font-variant:normal;font-weight:bold;font-stretch:normal;font-family:'Droid Sans';-inkscape-font-specification:'Droid Sans Bold';stroke-width:0.26458335"
               y="100.28526"
               x="-46.43644"
               id="tspan991"
               sodipodi:role="line">www.wyolum.com</tspan></text>
          <text
             transform="scale(1,-1)"
             id="text1025"
             y="109.36967"
             x="-43.357563"
             style="font-style:normal;font-weight:normal;font-size:10.58333397px;line-height:1.25;font-family:sans-serif;letter-spacing:0px;word-spacing:0px;fill:#000000;fill-opacity:1;stroke:none;stroke-width:0.26458335"
             xml:space="preserve"><tspan
               style="font-style:normal;font-variant:normal;font-weight:bold;font-stretch:normal;font-size:4.23333359px;font-family:'Droid Sans';-inkscape-font-specification:'Droid Sans Bold';stroke-width:0.26458335"
               y="109.36967"
               x="-43.357563"
               id="tspan1023"
               sodipodi:role="line">https://github.com/wyolum/ClockIOT/wiki</tspan></text>
        </g>
        <g
           id="g1425">
          <text
             transform="scale(1,-1)"
             id="text1029"
             y="54.072395"
             x="-59.471016"
             style="font-style:normal;font-weight:normal;font-size:10.58333397px;line-height:1.25;font-family:sans-serif;letter-spacing:0px;word-spacing:0px;fill:#000000;fill-opacity:1;stroke:none;stroke-width:0.26458335"
             xml:space="preserve"><tspan
               style="font-style:normal;font-variant:normal;font-weight:normal;font-stretch:normal;font-size:25.40000153px;font-family:'Sans Forgetica';-inkscape-font-specification:'Sans Forgetica';stroke-width:0.26458335"
               y="54.072395"
               x="-59.471016"
               id="tspan1027"
               sodipodi:role="line">ClockIOT</tspan></text>
          <g
             style="stroke:#000002;stroke-width:1;stroke-miterlimit:4;stroke-dasharray:none;stroke-opacity:1"
             transform="matrix(0.26458334,0,0,-0.26458334,-39.74772,55.317939)"
             inkscape:export-ydpi="551.72998"
             inkscape:export-xdpi="551.72998"
             inkscape:export-filename="/home/justin/Documents/WyoLum/CNC/butterfly_v2.png"
             id="g5758">
            <g
               style="stroke:#000002;stroke-width:1;stroke-miterlimit:4;stroke-dasharray:none;stroke-opacity:1"
               id="g4156"
               transform="translate(-189.72307,28.743453)">
              <path
                 inkscape:connector-curvature="0"
                 id="path3192-4"
                 d="m 419.44805,-3.4193021 c -3.15191,1.913651 -6.54611,3.56840102 -8.24388,7.035893 -6.47513,9.1936921 -13.22462,18.2415881 -19.53564,27.5214901 -4.57439,11.926743 -8.41013,24.215272 -14.18159,35.621949 -2.87669,5.280162 -2.9355,11.589528 -4.18204,17.355188 -0.99775,5.1289 -1.38194,10.382711 -2.27659,15.497261 -2.29153,11.513541 -3.60206,23.318651 -5.48651,34.956501 5.4293,-1.59869 11.31932,-2.19326 15.62056,-6.21893 18.02659,-12.72766 35.70666,-26.12171 55.2714,-36.429722 6.37971,-3.09243 14.08178,-6.51404 15.80016,-14.16065 2.18072,-7.665945 -1.10629,-15.337716 -3.54294,-22.519064 -4.51878,-11.575351 -8.21352,-23.643742 -8.46878,-36.167906 -0.46852,-4.826324 0.0185,-9.8042145 -0.82564,-14.5552201 -1.54888,-3.148008 -3.63386,-6.055799 -5.44656,-9.028765 -3.08049,-0.663687 -6.32104,-2.061888 -9.33779,-2.106074 -1.72138,1.066016 -3.44277,2.132033 -5.16416,3.198049 z"
                 style="fill:#000000;stroke:#000002;stroke-width:1;stroke-miterlimit:4;stroke-dasharray:none;stroke-opacity:1" />
              <path
                 inkscape:connector-curvature="0"
                 id="path3194-6"
                 d="m 205.67408,60.527786 c -0.81989,0.304734 -2.04634,0.606267 -1.38495,1.704545 0.44905,4.792525 4.54309,7.581201 7.59185,10.775229 14.72203,14.326388 30.45435,27.68269 43.44529,43.65173 7.20421,8.29232 14.49617,17.3082 24.88484,21.66521 4.55738,2.71612 10.04686,1.65156 15.10072,2.35392 17.21841,0.8627 34.46734,2.94365 51.71967,1.89393 3.52323,0.47905 3.19484,-1.2413 1.38727,-3.67754 -1.61724,-3.38148 -5.76566,-4.50785 -8.4851,-6.89596 -4.84683,-3.36023 -9.86329,-6.19373 -14.54581,-9.76437 -18.78276,-12.90629 -37.64093,-25.756991 -56.58088,-38.458592 -15.48986,-6.95709 -30.89752,-14.156875 -46.42396,-20.994876 -4.98628,-0.905365 -10.04188,-2.531661 -14.98159,-3.013696 -0.57579,0.25349 -1.15157,0.50698 -1.72735,0.76047 z"
                 style="fill:#000000;stroke:#000002;stroke-width:1;stroke-miterlimit:4;stroke-dasharray:none;stroke-opacity:1" />
              <path
                 inkscape:connector-curvature="0"
                 id="path3196-7"
                 d="m 286.97291,144.95605 c -0.85162,1.79188 -3.04828,3.46228 -1.22514,5.35334 1.45875,2.92067 2.16879,6.09597 3.07617,9.16193 5.31235,7.7579 12.42221,14.10994 18.83705,20.97691 4.17929,4.6604 8.98212,8.71933 14.5392,11.61771 6.47651,3.44916 11.07991,9.34983 16.6415,13.84093 4.95432,1.21216 9.8445,2.69637 14.74166,3.98171 5.71622,0.9563 11.5709,1.22976 17.39169,1.4249 1.50692,-3.88442 4.03773,-7.55086 4.93537,-11.55875 -0.30808,-9.89368 -0.20007,-19.81352 -1.02024,-29.68326 -3.60276,-3.47056 -6.69213,-7.53943 -10.6401,-10.54688 -3.08483,-0.33686 -4.68899,-3.70738 -6.82113,-5.61901 -1.89619,-1.81566 -3.33436,-4.47691 -5.45611,-5.81964 -9.01462,-0.82761 -18.06269,-0.77697 -27.0871,-0.18688 -9.6425,0.12803 -19.17032,-1.83874 -28.76915,-2.55247 -2.97938,-0.28108 -5.93347,-0.57601 -8.9306,-0.72345 z"
                 style="fill:#000000;stroke:#000002;stroke-width:1;stroke-miterlimit:4;stroke-dasharray:none;stroke-opacity:1" />
              <path
                 inkscape:connector-curvature="0"
                 id="path3198-6"
                 d="m 453.40579,87.760558 c -23.55539,15.914612 -47.18782,31.810452 -70.5522,47.927032 -1.91742,5.83145 -2.57793,12.01774 -3.91513,18.00426 4.30111,5.77781 10.80519,9.51584 15.47408,14.92809 9.86196,4.71707 20.11808,8.75706 30.34035,12.57261 3.67725,1.03279 7.41426,2.77638 11.19463,2.67508 7.03947,-3.36219 14.86985,-4.58752 22.33221,-6.77823 0.91678,-0.69843 0.87019,-2.44014 1.95756,-3.23597 3.77665,-4.51023 8.68057,-8.6476 9.88104,-14.67507 1.3968,-7.32023 3.20748,-14.60216 4.56765,-21.90608 1.18935,-9.60799 1.18082,-19.63205 -1.29173,-29.0039 -3.0945,-7.9138 -8.69144,-15.048872 -15.8869,-19.655542 -1.24276,-0.39727 -2.88347,-1.80156 -4.10156,-0.85228 z"
                 style="fill:#000000;stroke:#000002;stroke-width:1;stroke-miterlimit:4;stroke-dasharray:none;stroke-opacity:1" />
            </g>
            <path
               style="fill:#000000;stroke:#000002;stroke-width:1;stroke-miterlimit:4;stroke-dasharray:none;stroke-opacity:1"
               d="m 96.421111,178.18569 c -0.85162,1.79188 -3.04828,3.46228 -1.22514,5.35334 1.45875,2.92067 2.16879,6.09597 3.07617,9.16193 5.312349,7.7579 12.422209,14.10994 18.837049,20.97691 4.17929,4.6604 8.98212,8.71933 14.5392,11.61771 6.47651,3.44916 11.07991,9.34983 16.6415,13.84093 4.95432,1.21216 9.8445,2.69637 14.74166,3.98171 5.71622,0.9563 11.5709,1.22976 17.39169,1.4249 1.50692,-3.88442 4.03773,-7.55086 4.93537,-11.55875 -0.30808,-9.89368 -0.20007,-19.81352 -1.02024,-29.68326 -3.60276,-3.47056 -6.69213,-7.53943 -10.6401,-10.54688 -3.08483,-0.33686 -4.68899,-3.70738 -6.82113,-5.61901 -1.89619,-1.81566 -3.33436,-4.47691 -5.45611,-5.81964 -9.01462,-0.82761 -18.06269,-0.77697 -27.0871,-0.18688 -9.6425,0.12803 -19.17032,-1.83874 -28.76915,-2.55247 -2.97938,-0.28108 -5.933469,-0.57601 -8.930599,-0.72345 z"
               id="path3196-7-7"
               inkscape:connector-curvature="0" />
            <g
               style="stroke:#000002;stroke-width:1;stroke-miterlimit:4;stroke-dasharray:none;stroke-opacity:1"
               id="g5080"
               transform="translate(-50.154009,33.644006)">
              <path
                 inkscape:connector-curvature="0"
                 id="path3192-4-0"
                 d="m 281.05026,-3.8336678 c -3.15191,1.913651 -6.54611,3.56840106 -8.24388,7.035893 -6.47513,9.1936918 -13.22462,18.2415878 -19.53564,27.5214898 -4.57439,11.926743 -8.41013,24.215272 -14.18159,35.621949 -2.87669,5.280162 -2.9355,11.589528 -4.18204,17.355188 -0.99775,5.1289 -1.38194,10.382711 -2.27659,15.497261 -2.29153,11.513537 -3.60206,23.318647 -5.48651,34.956497 5.4293,-1.59869 11.31932,-2.19326 15.62056,-6.21893 18.02659,-12.72766 35.70666,-26.12171 55.2714,-36.429718 6.37971,-3.09243 14.08178,-6.51404 15.80016,-14.16065 2.18072,-7.665945 -1.10629,-15.337716 -3.54294,-22.519064 -4.51878,-11.575351 -8.21352,-23.643742 -8.46878,-36.167906 -0.46852,-4.826324 0.0185,-9.8042142 -0.82564,-14.5552198 -1.54888,-3.14800796 -3.63386,-6.055799 -5.44656,-9.028765 -3.08049,-0.663687 -6.32104,-2.061888 -9.33779,-2.106074 -1.72138,1.066016 -3.44277,2.132033 -5.16416,3.198049 z"
                 style="fill:#000000;stroke:#000002;stroke-width:1;stroke-miterlimit:4;stroke-dasharray:none;stroke-opacity:1" />
              <path
                 inkscape:connector-curvature="0"
                 id="path3198-6-6"
                 d="m 315.008,87.346192 c -23.55539,15.914608 -47.18782,31.810448 -70.5522,47.927028 -1.91742,5.83145 -2.57793,12.01774 -3.91513,18.00426 4.30111,5.77781 10.80519,9.51584 15.47408,14.92809 9.86196,4.71707 20.11808,8.75706 30.34035,12.57261 3.67725,1.03279 7.41426,2.77638 11.19463,2.67508 7.03947,-3.36219 14.86985,-4.58752 22.33221,-6.77823 0.91678,-0.69843 0.87019,-2.44014 1.95756,-3.23597 3.77665,-4.51023 8.68057,-8.6476 9.88104,-14.67507 1.3968,-7.32023 3.20748,-14.60216 4.56765,-21.90608 1.18935,-9.60799 1.18082,-19.63205 -1.29173,-29.0039 -3.0945,-7.913796 -8.69144,-15.048868 -15.8869,-19.655538 -1.24276,-0.39727 -2.88347,-1.80156 -4.10156,-0.85228 z"
                 style="fill:#000000;stroke:#000002;stroke-width:1;stroke-miterlimit:4;stroke-dasharray:none;stroke-opacity:1" />
            </g>
            <path
               style="fill:#000000;stroke:#000002;stroke-width:1;stroke-miterlimit:4;stroke-dasharray:none;stroke-opacity:1"
               d="m 15.122281,93.757426 c -0.81989,0.304734 -2.04634,0.606267 -1.38495,1.704545 0.44905,4.792529 4.54309,7.581199 7.59185,10.775229 14.72203,14.32639 30.45435,27.68269 43.44529,43.65173 7.20421,8.29232 14.49617,17.3082 24.88484,21.66521 4.55738,2.71612 10.04686,1.65156 15.100719,2.35392 17.21841,0.8627 34.46734,2.94365 51.71967,1.89393 3.52323,0.47905 3.19484,-1.2413 1.38727,-3.67754 -1.61724,-3.38148 -5.76566,-4.50785 -8.4851,-6.89596 -4.84683,-3.36023 -9.86329,-6.19373 -14.54581,-9.76437 -18.78276,-12.90629 -37.640929,-25.75699 -56.580879,-38.45859 -15.48986,-6.95709 -30.89752,-14.15688 -46.42396,-20.994878 -4.98628,-0.905365 -10.04188,-2.531661 -14.98159,-3.013696 -0.57579,0.25349 -1.15157,0.50698 -1.72735,0.76047 z"
               id="path3194-6-8"
               inkscape:connector-curvature="0" />
            <path
               style="fill:#ffffff;fill-opacity:1;stroke:#000002;stroke-width:1;stroke-miterlimit:4;stroke-dasharray:none;stroke-opacity:1"
               d="m 97.088291,175.40652 c -1.00624,1.35485 -1.03163,3.04634 0,4.33788 1.59633,4.69733 3.185579,9.66841 6.720479,13.22082 7.24485,7.91266 14.40757,16.16168 22.70718,22.99982 5.45219,3.82344 11.35585,7.05181 16.12348,11.77572 2.59569,2.0439 4.68044,4.99851 7.5889,6.47357 8.72008,2.40881 17.48609,4.97659 26.61014,4.90583 2.52349,0.52879 4.62779,0.30902 5.19528,-2.55275 1.65141,-3.7644 4.20248,-7.51295 3.41092,-11.81102 -0.36748,-8.29433 -0.24019,-16.7372 -1.04198,-24.94121 -3.02545,-4.25008 -6.81011,-8.20766 -11.0972,-11.20079 -3.70171,-1.81942 -5.91652,-5.72531 -8.85,-8.53661 -1.22331,-1.9881 -3.06693,-2.97635 -5.36789,-2.75483 -14.95666,-0.56113 -29.99366,0.54341 -44.85497,-1.67041 -5.47226,-0.57249 -10.94158,-1.18765 -16.419199,-1.48912 -0.24171,0.41437 -0.48343,0.82873 -0.72514,1.2431 z"
               id="path4808"
               inkscape:connector-curvature="0" />
            <path
               style="fill:#ffffff;fill-opacity:1;stroke:#000002;stroke-width:1;stroke-miterlimit:4;stroke-dasharray:none;stroke-opacity:1"
               d="m 17.672718,89.451745 c -1.112216,0.287161 -3.275958,0.77235 -2.214261,2.395546 1.734262,5.164415 6.659452,8.326449 10.219932,12.249429 15.180696,14.47146 30.589732,28.76132 44.093452,44.82612 6.11382,6.68836 12.41184,13.70016 20.8787,17.31429 4.08504,2.71333 9.15394,1.70447 13.781589,2.36492 17.78244,1.23484 35.65628,2.65161 53.46417,1.74145 1.02958,0.1231 1.62836,-0.59607 0.77694,-1.35964 -3.08737,-4.75597 -8.63774,-6.9933 -13.03794,-10.36237 C 123.12109,143.5167 100.88447,127.95616 78.310301,112.95171 63.168471,106.26099 48.228791,99.055635 32.965364,92.67602 28.016001,91.227389 22.801358,89.706755 17.672718,89.451745 Z"
               id="path4810"
               inkscape:connector-curvature="0" />
            <g
               style="stroke:#000002;stroke-width:1;stroke-miterlimit:4;stroke-dasharray:none;stroke-opacity:1"
               id="g5076"
               transform="translate(-52.154009,31.644006)">
              <path
                 inkscape:connector-curvature="0"
                 id="path4814"
                 d="m 287.98971,-8.6459912 c -4.21725,1.6987256 -8.13785,4.3183953 -11.69285,7.1348413 -7.19097,9.7873269 -14.40004,19.5584289 -21.029,29.7306629 -4.76667,10.490321 -7.93164,21.743313 -12.9251,32.170343 -2.2392,4.509639 -4.16292,9.166061 -4.73006,14.212182 -2.97514,18.685148 -6.08419,37.352042 -8.77354,56.082082 5.71413,-1.44622 11.68596,-3.0121 16.14727,-7.13037 19.15841,-13.75825 38.44455,-27.652881 59.51313,-38.294353 5.03142,-2.638479 9.41585,-7.174119 9.88,-13.104282 0.98271,-8.108892 -3.1736,-15.723154 -5.36856,-23.344132 -3.81624,-10.83873 -6.82397,-22.054779 -7.13997,-33.590546 -0.37303,-4.455463 -0.18196,-9.0610567 -0.84109,-13.4262954 -2.11741,-2.8750032 -3.03192,-7.0289375 -6.2809,-8.8344697 -2.17581,-0.7599165 -4.4994,-1.2473709 -6.75933,-1.6056631 z"
                 style="fill:#ffffff;fill-opacity:1;stroke:#000002;stroke-width:1;stroke-miterlimit:4;stroke-dasharray:none;stroke-opacity:1" />
              <path
                 inkscape:connector-curvature="0"
                 id="path4816"
                 d="m 316.98229,85.492477 c -15.92327,9.832735 -31.17446,20.749873 -46.72652,31.171023 -8.15635,5.55081 -16.30281,11.11612 -24.45356,16.67514 -1.48372,5.62425 -2.50363,11.39525 -3.65159,17.11844 4.26674,5.18383 9.72348,9.25486 14.50277,13.97186 6.31524,3.87379 13.45652,6.13035 20.23912,9.07718 6.41762,2.3319 12.74403,5.29829 19.44924,6.53919 4.35298,-0.12447 8.27886,-2.57724 12.55097,-3.41763 3.68419,-1.2166 7.6736,-1.85599 11.23615,-3.2122 2.6824,-3.8615 5.99826,-7.42748 8.89589,-11.2008 3.76008,-5.87547 3.94356,-13.1623 5.68959,-19.76892 2.64119,-11.86205 3.49948,-24.38432 0.42229,-36.20915 -3.06534,-8.533974 -9.06277,-16.153081 -16.96305,-20.498104 -0.38098,-0.06943 -0.80442,-0.466863 -1.1913,-0.246029 z"
                 style="fill:#ffffff;fill-opacity:1;stroke:#000002;stroke-width:1;stroke-miterlimit:4;stroke-dasharray:none;stroke-opacity:1" />
            </g>
            <g
               style="stroke:#000002;stroke-width:1;stroke-miterlimit:4;stroke-dasharray:none;stroke-opacity:1"
               id="g4936"
               transform="translate(-305.44772,89.656608)">
              <path
                 inkscape:connector-curvature="0"
                 id="path3744"
                 d="m 447.43456,72.182403 -33.66477,-14.0625"
                 style="fill:none;stroke:#000002;stroke-width:1;stroke-linecap:butt;stroke-linejoin:miter;stroke-miterlimit:4;stroke-dasharray:none;stroke-opacity:1" />
              <path
                 inkscape:connector-curvature="0"
                 id="path3746"
                 d="M 408.39085,55.700373 388.23619,41.961303"
                 style="fill:none;stroke:#000002;stroke-width:1;stroke-linecap:butt;stroke-linejoin:miter;stroke-miterlimit:4;stroke-dasharray:none;stroke-opacity:1" />
              <path
                 inkscape:connector-curvature="0"
                 id="path3748"
                 d="M 383.51411,39.796043 368.59933,28.716493"
                 style="fill:none;stroke:#000002;stroke-width:1;stroke-linecap:butt;stroke-linejoin:miter;stroke-miterlimit:4;stroke-dasharray:none;stroke-opacity:1" />
              <path
                 inkscape:connector-curvature="0"
                 id="path3750"
                 d="m 364.33797,25.733543 -16.61932,-8.94887"
                 style="fill:none;stroke:#000002;stroke-width:1;stroke-linecap:butt;stroke-linejoin:miter;stroke-miterlimit:4;stroke-dasharray:none;stroke-opacity:1" />
              <path
                 inkscape:connector-curvature="0"
                 id="path3752"
                 d="M 408.65615,57.693763 H 388.62774"
                 style="fill:none;stroke:#000002;stroke-width:1;stroke-linecap:butt;stroke-linejoin:miter;stroke-miterlimit:4;stroke-dasharray:none;stroke-opacity:1" />
              <path
                 inkscape:connector-curvature="0"
                 id="path3754"
                 d="m 384.79252,42.352853 -8.94887,-0.42613"
                 style="fill:none;stroke:#000002;stroke-width:1;stroke-linecap:butt;stroke-linejoin:miter;stroke-miterlimit:4;stroke-dasharray:none;stroke-opacity:1" />
              <path
                 inkscape:connector-curvature="0"
                 id="path3758"
                 d="m 365.19024,27.438083 -4.6875,0.42614"
                 style="fill:none;stroke:#000002;stroke-width:1;stroke-linecap:butt;stroke-linejoin:miter;stroke-miterlimit:4;stroke-dasharray:none;stroke-opacity:1" />
              <g
                 style="stroke:#000002;stroke-width:3.33511448;stroke-miterlimit:4;stroke-dasharray:none;stroke-opacity:1"
                 inkscape:transform-center-y="-75.079721"
                 inkscape:transform-center-x="10.073594"
                 transform="matrix(0.39423546,-0.02453309,0.0888767,0.22251545,355.792,51.429143)"
                 id="g2936-2-8-94-9-9-8-31">
                <circle
                   r="12.357955"
                   cy="40.909092"
                   cx="132.10228"
                   style="fill:#000000;stroke:#000002;stroke-width:3.33511448;stroke-miterlimit:4;stroke-dasharray:none;stroke-opacity:1"
                   id="path2928-0-7-2-0-3-1-9" />
                <path
                   inkscape:connector-curvature="0"
                   style="fill:#ffffff;stroke:#000002;stroke-width:3.33511448;stroke-miterlimit:4;stroke-dasharray:none;stroke-opacity:1"
                   d="m 132.71369,35.177557 c -4.15001,-0.540618 -7.71523,4.052182 -5.93928,7.870206 1.46454,3.961238 7.40813,4.984197 9.84109,1.39826 2.42196,-2.972272 0.959,-8.027998 -2.83647,-9.055398 -0.32005,-0.186021 -0.69788,-0.259012 -1.06534,-0.213068 z"
                   id="path2934-6-4-0-3-5-3-8" />
              </g>
              <g
                 style="stroke:#000002;stroke-width:3.33511448;stroke-miterlimit:4;stroke-dasharray:none;stroke-opacity:1"
                 inkscape:transform-center-y="-75.079721"
                 inkscape:transform-center-x="10.073594"
                 transform="matrix(0.39423546,-0.02453309,0.0888767,0.22251545,329.27266,51.843503)"
                 id="g2936-2-8-94-9-9-8-6">
                <circle
                   r="12.357955"
                   cy="40.909092"
                   cx="132.10228"
                   style="fill:#000000;stroke:#000002;stroke-width:3.33511448;stroke-miterlimit:4;stroke-dasharray:none;stroke-opacity:1"
                   id="path2928-0-7-2-0-3-1-5" />
                <path
                   inkscape:connector-curvature="0"
                   style="fill:#ffffff;stroke:#000002;stroke-width:3.33511448;stroke-miterlimit:4;stroke-dasharray:none;stroke-opacity:1"
                   d="m 132.71369,35.177557 c -4.15001,-0.540618 -7.71523,4.052182 -5.93928,7.870206 1.46454,3.961238 7.40813,4.984197 9.84109,1.39826 2.42196,-2.972272 0.959,-8.027998 -2.83647,-9.055398 -0.32005,-0.186021 -0.69788,-0.259012 -1.06534,-0.213068 z"
                   id="path2934-6-4-0-3-5-3-0" />
              </g>
              <g
                 style="stroke:#000002;stroke-width:3.33511448;stroke-miterlimit:4;stroke-dasharray:none;stroke-opacity:1"
                 inkscape:transform-center-y="-75.079721"
                 inkscape:transform-center-x="10.073594"
                 transform="matrix(0.39423546,-0.02453309,0.0888767,0.22251545,331.1373,36.097653)"
                 id="g2936-2-8-94-9-9-8-28">
                <circle
                   r="12.357955"
                   cy="40.909092"
                   cx="132.10228"
                   style="fill:#000000;stroke:#000002;stroke-width:3.33511448;stroke-miterlimit:4;stroke-dasharray:none;stroke-opacity:1"
                   id="path2928-0-7-2-0-3-1-6" />
                <path
                   inkscape:connector-curvature="0"
                   style="fill:#ffffff;stroke:#000002;stroke-width:3.33511448;stroke-miterlimit:4;stroke-dasharray:none;stroke-opacity:1"
                   d="m 132.71369,35.177557 c -4.15001,-0.540618 -7.71523,4.052182 -5.93928,7.870206 1.46454,3.961238 7.40813,4.984197 9.84109,1.39826 2.42196,-2.972272 0.959,-8.027998 -2.83647,-9.055398 -0.32005,-0.186021 -0.69788,-0.259012 -1.06534,-0.213068 z"
                   id="path2934-6-4-0-3-5-3-02" />
              </g>
              <g
                 style="stroke:#000002;stroke-width:3.33511448;stroke-miterlimit:4;stroke-dasharray:none;stroke-opacity:1"
                 inkscape:transform-center-y="-75.079721"
                 inkscape:transform-center-x="10.073594"
                 transform="matrix(0.39423546,-0.02453309,0.0888767,0.22251545,316.22017,35.890473)"
                 id="g2936-2-8-94-9-9-8-48">
                <circle
                   r="12.357955"
                   cy="40.909092"
                   cx="132.10228"
                   style="fill:#000000;stroke:#000002;stroke-width:3.33511448;stroke-miterlimit:4;stroke-dasharray:none;stroke-opacity:1"
                   id="path2928-0-7-2-0-3-1-65" />
                <path
                   inkscape:connector-curvature="0"
                   style="fill:#ffffff;stroke:#000002;stroke-width:3.33511448;stroke-miterlimit:4;stroke-dasharray:none;stroke-opacity:1"
                   d="m 132.71369,35.177557 c -4.15001,-0.540618 -7.71523,4.052182 -5.93928,7.870206 1.46454,3.961238 7.40813,4.984197 9.84109,1.39826 2.42196,-2.972272 0.959,-8.027998 -2.83647,-9.055398 -0.32005,-0.186021 -0.69788,-0.259012 -1.06534,-0.213068 z"
                   id="path2934-6-4-0-3-5-3-09" />
              </g>
              <g
                 style="stroke:#000002;stroke-width:3.33511448;stroke-miterlimit:4;stroke-dasharray:none;stroke-opacity:1"
                 inkscape:transform-center-y="-75.079721"
                 inkscape:transform-center-x="10.073594"
                 transform="matrix(0.39423546,-0.02453309,0.0888767,0.22251545,312.07653,21.387703)"
                 id="g2936-2-8-94-9-9-8-0">
                <circle
                   r="12.357955"
                   cy="40.909092"
                   cx="132.10228"
                   style="fill:#000000;stroke:#000002;stroke-width:3.33511448;stroke-miterlimit:4;stroke-dasharray:none;stroke-opacity:1"
                   id="path2928-0-7-2-0-3-1-0" />
                <path
                   inkscape:connector-curvature="0"
                   style="fill:#ffffff;stroke:#000002;stroke-width:3.33511448;stroke-miterlimit:4;stroke-dasharray:none;stroke-opacity:1"
                   d="m 132.71369,35.177557 c -4.15001,-0.540618 -7.71523,4.052182 -5.93928,7.870206 1.46454,3.961238 7.40813,4.984197 9.84109,1.39826 2.42196,-2.972272 0.959,-8.027998 -2.83647,-9.055398 -0.32005,-0.186021 -0.69788,-0.259012 -1.06534,-0.213068 z"
                   id="path2934-6-4-0-3-5-3-6" />
              </g>
              <g
                 style="stroke:#000002;stroke-width:3.33511448;stroke-miterlimit:4;stroke-dasharray:none;stroke-opacity:1"
                 inkscape:transform-center-y="-75.079721"
                 inkscape:transform-center-x="10.073594"
                 transform="matrix(0.39423546,-0.02453309,0.0888767,0.22251545,290.52957,10.407043)"
                 id="g2936-2-8-94-9-9-8-1">
                <circle
                   r="12.357955"
                   cy="40.909092"
                   cx="132.10228"
                   style="fill:#000000;stroke:#000002;stroke-width:3.33511448;stroke-miterlimit:4;stroke-dasharray:none;stroke-opacity:1"
                   id="path2928-0-7-2-0-3-1-38" />
                <path
                   inkscape:connector-curvature="0"
                   style="fill:#ffffff;stroke:#000002;stroke-width:3.33511448;stroke-miterlimit:4;stroke-dasharray:none;stroke-opacity:1"
                   d="m 132.71369,35.177557 c -4.15001,-0.540618 -7.71523,4.052182 -5.93928,7.870206 1.46454,3.961238 7.40813,4.984197 9.84109,1.39826 2.42196,-2.972272 0.959,-8.027998 -2.83647,-9.055398 -0.32005,-0.186021 -0.69788,-0.259012 -1.06534,-0.213068 z"
                   id="path2934-6-4-0-3-5-3-9" />
              </g>
              <g
                 style="stroke:#000002;stroke-width:3.33511448;stroke-miterlimit:4;stroke-dasharray:none;stroke-opacity:1"
                 inkscape:transform-center-y="-75.079721"
                 inkscape:transform-center-x="10.073594"
                 transform="matrix(0.39423546,-0.02453309,0.0888767,0.22251545,300.26713,22.009253)"
                 id="g2936-2-8-94-9-9-8-34">
                <circle
                   r="12.357955"
                   cy="40.909092"
                   cx="132.10228"
                   style="fill:#000000;stroke:#000002;stroke-width:3.33511448;stroke-miterlimit:4;stroke-dasharray:none;stroke-opacity:1"
                   id="path2928-0-7-2-0-3-1-4" />
                <path
                   inkscape:connector-curvature="0"
                   style="fill:#ffffff;stroke:#000002;stroke-width:3.33511448;stroke-miterlimit:4;stroke-dasharray:none;stroke-opacity:1"
                   d="m 132.71369,35.177557 c -4.15001,-0.540618 -7.71523,4.052182 -5.93928,7.870206 1.46454,3.961238 7.40813,4.984197 9.84109,1.39826 2.42196,-2.972272 0.959,-8.027998 -2.83647,-9.055398 -0.32005,-0.186021 -0.69788,-0.259012 -1.06534,-0.213068 z"
                   id="path2934-6-4-0-3-5-3-60" />
              </g>
            </g>
            <g
               style="stroke:#000002;stroke-width:1;stroke-miterlimit:4;stroke-dasharray:none;stroke-opacity:1"
               id="g5084"
               transform="translate(-299.78006,90.886753)">
              <g
                 style="stroke:#000002;stroke-width:3.33511448;stroke-miterlimit:4;stroke-dasharray:none;stroke-opacity:1"
                 inkscape:transform-center-y="-75.079721"
                 inkscape:transform-center-x="10.073594"
                 transform="matrix(0.39423546,-0.02453309,0.0888767,0.22251545,367.37867,89.136333)"
                 id="g2936-2-8-94-9-9-8">
                <circle
                   r="12.357955"
                   cy="40.909092"
                   cx="132.10228"
                   style="fill:#000000;stroke:#000002;stroke-width:3.33511448;stroke-miterlimit:4;stroke-dasharray:none;stroke-opacity:1"
                   id="path2928-0-7-2-0-3-1" />
                <path
                   inkscape:connector-curvature="0"
                   style="fill:#ffffff;stroke:#000002;stroke-width:3.33511448;stroke-miterlimit:4;stroke-dasharray:none;stroke-opacity:1"
                   d="m 132.71369,35.177557 c -4.15001,-0.540618 -7.71523,4.052182 -5.93928,7.870206 1.46454,3.961238 7.40813,4.984197 9.84109,1.39826 2.42196,-2.972272 0.959,-8.027998 -2.83647,-9.055398 -0.32005,-0.186021 -0.69788,-0.259012 -1.06534,-0.213068 z"
                   id="path2934-6-4-0-3-5-3" />
              </g>
              <g
                 style="stroke:#000002;stroke-width:3.33511448;stroke-miterlimit:4;stroke-dasharray:none;stroke-opacity:1"
                 inkscape:transform-center-y="-75.079721"
                 inkscape:transform-center-x="10.073594"
                 transform="matrix(0.39423546,-0.02453309,0.0888767,0.22251545,382.31134,104.05344)"
                 id="g2936-2-8-94-9-9-8-2">
                <circle
                   r="12.357955"
                   cy="40.909092"
                   cx="132.10228"
                   style="fill:#000000;stroke:#000002;stroke-width:3.33511448;stroke-miterlimit:4;stroke-dasharray:none;stroke-opacity:1"
                   id="path2928-0-7-2-0-3-1-3" />
                <path
                   inkscape:connector-curvature="0"
                   style="fill:#ffffff;stroke:#000002;stroke-width:3.33511448;stroke-miterlimit:4;stroke-dasharray:none;stroke-opacity:1"
                   d="m 132.71369,35.177557 c -4.15001,-0.540618 -7.71523,4.052182 -5.93928,7.870206 1.46454,3.961238 7.40813,4.984197 9.84109,1.39826 2.42196,-2.972272 0.959,-8.027998 -2.83647,-9.055398 -0.32005,-0.186021 -0.69788,-0.259012 -1.06534,-0.213068 z"
                   id="path2934-6-4-0-3-5-3-3" />
              </g>
              <g
                 style="stroke:#000002;stroke-width:3.33511448;stroke-miterlimit:4;stroke-dasharray:none;stroke-opacity:1"
                 inkscape:transform-center-y="-75.079721"
                 inkscape:transform-center-x="10.073594"
                 transform="matrix(0.39423546,-0.02453309,0.0888767,0.22251545,402.20085,114.41256)"
                 id="g2936-2-8-94-9-9-8-4">
                <circle
                   r="12.357955"
                   cy="40.909092"
                   cx="132.10228"
                   style="fill:#000000;stroke:#000002;stroke-width:3.33511448;stroke-miterlimit:4;stroke-dasharray:none;stroke-opacity:1"
                   id="path2928-0-7-2-0-3-1-1" />
                <path
                   inkscape:connector-curvature="0"
                   style="fill:#ffffff;stroke:#000002;stroke-width:3.33511448;stroke-miterlimit:4;stroke-dasharray:none;stroke-opacity:1"
                   d="m 132.71369,35.177557 c -4.15001,-0.540618 -7.71523,4.052182 -5.93928,7.870206 1.46454,3.961238 7.40813,4.984197 9.84109,1.39826 2.42196,-2.972272 0.959,-8.027998 -2.83647,-9.055398 -0.32005,-0.186021 -0.69788,-0.259012 -1.06534,-0.213068 z"
                   id="path2934-6-4-0-3-5-3-1" />
              </g>
              <g
                 style="stroke:#000002;stroke-width:3.33511448;stroke-miterlimit:4;stroke-dasharray:none;stroke-opacity:1"
                 inkscape:transform-center-y="-75.079721"
                 inkscape:transform-center-x="10.073594"
                 transform="matrix(0.39423546,-0.02453309,0.0888767,0.22251545,410.48813,98.666713)"
                 id="g2936-2-8-94-9-9-8-3">
                <circle
                   r="12.357955"
                   cy="40.909092"
                   cx="132.10228"
                   style="fill:#000000;stroke:#000002;stroke-width:3.33511448;stroke-miterlimit:4;stroke-dasharray:none;stroke-opacity:1"
                   id="path2928-0-7-2-0-3-1-8" />
                <path
                   inkscape:connector-curvature="0"
                   style="fill:#ffffff;stroke:#000002;stroke-width:3.33511448;stroke-miterlimit:4;stroke-dasharray:none;stroke-opacity:1"
                   d="m 132.71369,35.177557 c -4.15001,-0.540618 -7.71523,4.052182 -5.93928,7.870206 1.46454,3.961238 7.40813,4.984197 9.84109,1.39826 2.42196,-2.972272 0.959,-8.027998 -2.83647,-9.055398 -0.32005,-0.186021 -0.69788,-0.259012 -1.06534,-0.213068 z"
                   id="path2934-6-4-0-3-5-3-7" />
              </g>
              <g
                 style="stroke:#000002;stroke-width:3.33511448;stroke-miterlimit:4;stroke-dasharray:none;stroke-opacity:1"
                 inkscape:transform-center-y="-75.079721"
                 inkscape:transform-center-x="10.073594"
                 transform="matrix(0.39423546,-0.02453309,0.0888767,0.22251545,411.73122,108.1971)"
                 id="g2936-2-8-94-9-9-8-42">
                <circle
                   r="12.357955"
                   cy="40.909092"
                   cx="132.10228"
                   style="fill:#000000;stroke:#000002;stroke-width:3.33511448;stroke-miterlimit:4;stroke-dasharray:none;stroke-opacity:1"
                   id="path2928-0-7-2-0-3-1-7" />
                <path
                   inkscape:connector-curvature="0"
                   style="fill:#ffffff;stroke:#000002;stroke-width:3.33511448;stroke-miterlimit:4;stroke-dasharray:none;stroke-opacity:1"
                   d="m 132.71369,35.177557 c -4.15001,-0.540618 -7.71523,4.052182 -5.93928,7.870206 1.46454,3.961238 7.40813,4.984197 9.84109,1.39826 2.42196,-2.972272 0.959,-8.027998 -2.83647,-9.055398 -0.32005,-0.186021 -0.69788,-0.259012 -1.06534,-0.213068 z"
                   id="path2934-6-4-0-3-5-3-79" />
              </g>
              <path
                 inkscape:connector-curvature="0"
                 id="path5187"
                 d="m 419.17301,94.998353 -17.6105,-1.24309"
                 style="fill:none;stroke:#000002;stroke-width:1;stroke-linecap:butt;stroke-linejoin:miter;stroke-miterlimit:4;stroke-dasharray:none;stroke-opacity:1" />
              <path
                 inkscape:connector-curvature="0"
                 id="path5189"
                 d="m 424.76693,96.448633 11.60221,11.809387"
                 style="fill:none;stroke:#000002;stroke-width:1;stroke-linecap:butt;stroke-linejoin:miter;stroke-miterlimit:4;stroke-dasharray:none;stroke-opacity:1" />
              <path
                 inkscape:connector-curvature="0"
                 id="path5191"
                 d="m 435.12605,110.12266 -13.67403,3.72928"
                 style="fill:none;stroke:#000002;stroke-width:1;stroke-linecap:butt;stroke-linejoin:miter;stroke-miterlimit:4;stroke-dasharray:none;stroke-opacity:1" />
              <path
                 inkscape:connector-curvature="0"
                 id="path5193"
                 d="m 440.92716,111.36575 14.50276,7.66575"
                 style="fill:none;stroke:#000002;stroke-width:1;stroke-linecap:butt;stroke-linejoin:miter;stroke-miterlimit:4;stroke-dasharray:none;stroke-opacity:1" />
              <path
                 inkscape:connector-curvature="0"
                 id="path5195"
                 d="m 456.6745,121.5162 -7.66872,15.33447"
                 style="fill:none;stroke:#000002;stroke-width:1;stroke-linecap:butt;stroke-linejoin:miter;stroke-miterlimit:4;stroke-dasharray:none;stroke-opacity:1" />
              <path
                 inkscape:connector-curvature="0"
                 id="path5197"
                 d="m 460.60948,118.20277 4.35083,-3.10773"
                 style="fill:none;stroke:#000002;stroke-width:1;stroke-linecap:butt;stroke-linejoin:miter;stroke-miterlimit:4;stroke-dasharray:none;stroke-opacity:1" />
              <path
                 inkscape:connector-curvature="0"
                 id="path5199"
                 d="m 467.23931,111.36575 -0.41436,-5.38674"
                 style="fill:none;stroke:#000002;stroke-width:1;stroke-linecap:butt;stroke-linejoin:miter;stroke-miterlimit:4;stroke-dasharray:none;stroke-opacity:1" />
              <path
                 inkscape:connector-curvature="0"
                 id="path5201"
                 d="m 469.51832,115.09504 12.01657,14.70994"
                 style="fill:none;stroke:#000002;stroke-width:1;stroke-linecap:butt;stroke-linejoin:miter;stroke-miterlimit:4;stroke-dasharray:none;stroke-opacity:1" />
              <path
                 inkscape:connector-curvature="0"
                 id="path5203"
                 d="m 470.13986,105.56465 10.15194,4.97238"
                 style="fill:none;stroke:#000002;stroke-width:1;stroke-linecap:butt;stroke-linejoin:miter;stroke-miterlimit:4;stroke-dasharray:none;stroke-opacity:1" />
            </g>
            <g
               style="stroke:#000002;stroke-width:1;stroke-miterlimit:4;stroke-dasharray:none;stroke-opacity:1"
               transform="translate(-310.27723,79.843328)"
               id="g5200">
              <path
                 inkscape:connector-curvature="0"
                 id="path2908"
                 d="m 463.20161,65.790353 c -0.42614,-12.78409 10.65341,-25.56818 14.48863,-31.10795 3.83523,-5.53977 -5.96591,-12.78409 -5.96591,-12.78409"
                 style="fill:none;stroke:#000002;stroke-width:1;stroke-linecap:butt;stroke-linejoin:miter;stroke-miterlimit:4;stroke-dasharray:none;stroke-opacity:1" />
              <path
                 inkscape:connector-curvature="0"
                 id="path2910"
                 d="m 460.64479,67.494903 c -5.96591,-6.81818 -19.60227,-7.67045 -19.60227,-7.67045"
                 style="fill:none;stroke:#000002;stroke-width:1;stroke-linecap:butt;stroke-linejoin:miter;stroke-miterlimit:4;stroke-dasharray:none;stroke-opacity:1" />
              <path
                 inkscape:connector-curvature="0"
                 id="path3094"
                 d="m 465.77059,66.610673 c -2.54463,0.75563 -5.29478,1.41969 -7.44407,3.00959 -0.60316,2.19244 1.71698,4.09237 2.25086,6.1625 1.67199,3.59707 3.04075,7.41286 6.22003,10.00585 3.99442,3.80926 7.69837,8.15048 12.40979,11.05111 4.14978,2.61632 7.56881,6.343817 11.07955,9.801127 4.86965,6.2026 7.45061,14.44445 13.79616,19.48242 1.85475,0.9019 5.70896,1.00768 4.94833,-2.03745 -0.0695,-2.70473 0.59368,-5.75527 -1.82815,-7.69 -6.32491,-8.03432 -12.24145,-16.450627 -18.81735,-24.249767 -5.93454,-5.36774 -12.57907,-10.0454 -18.0475,-15.8541 -2.18752,-2.6684 0.632,-7.26552 -2.42365,-9.38831 -0.66925,-0.30086 -1.41217,-0.36204 -2.144,-0.29297 z"
                 style="fill:#000000;stroke:#000002;stroke-width:1;stroke-miterlimit:4;stroke-dasharray:none;stroke-opacity:1" />
            </g>
            <g
               style="stroke:#000002;stroke-width:1;stroke-miterlimit:4;stroke-dasharray:none;stroke-opacity:1"
               transform="translate(-302.11934,93.303842)"
               id="g5232">
              <g
                 style="stroke:#000002;stroke-width:3.4018836;stroke-miterlimit:4;stroke-dasharray:none;stroke-opacity:1"
                 transform="matrix(0.31110633,-0.21745885,0.18942782,0.1453415,503.41693,71.525923)"
                 id="g2936-2-8-94-9-9-2">
                <circle
                   r="12.357955"
                   cy="40.909092"
                   cx="132.10228"
                   style="fill:#000000;stroke:#000002;stroke-width:3.4018836;stroke-miterlimit:4;stroke-dasharray:none;stroke-opacity:1"
                   id="path2928-0-7-2-0-3-3" />
                <path
                   inkscape:connector-curvature="0"
                   style="fill:#ffffff;stroke:#000002;stroke-width:3.4018836;stroke-miterlimit:4;stroke-dasharray:none;stroke-opacity:1"
                   d="m 132.71369,35.177557 c -4.15001,-0.540618 -7.71523,4.052182 -5.93928,7.870206 1.46454,3.961238 7.40813,4.984197 9.84109,1.39826 2.42196,-2.972272 0.959,-8.027998 -2.83647,-9.055398 -0.32005,-0.186021 -0.69788,-0.259012 -1.06534,-0.213068 z"
                   id="path2934-6-4-0-3-5-8" />
              </g>
              <g
                 style="stroke:#000002;stroke-width:3.4018836;stroke-miterlimit:4;stroke-dasharray:none;stroke-opacity:1"
                 transform="matrix(0.31110633,-0.21745885,0.18942782,0.1453415,510.66125,84.736153)"
                 id="g2936-2-8-94-9-9-2-5">
                <circle
                   r="12.357955"
                   cy="40.909092"
                   cx="132.10228"
                   style="fill:#000000;stroke:#000002;stroke-width:3.4018836;stroke-miterlimit:4;stroke-dasharray:none;stroke-opacity:1"
                   id="path2928-0-7-2-0-3-3-0" />
                <path
                   inkscape:connector-curvature="0"
                   style="fill:#ffffff;stroke:#000002;stroke-width:3.4018836;stroke-miterlimit:4;stroke-dasharray:none;stroke-opacity:1"
                   d="m 132.71369,35.177557 c -4.15001,-0.540618 -7.71523,4.052182 -5.93928,7.870206 1.46454,3.961238 7.40813,4.984197 9.84109,1.39826 2.42196,-2.972272 0.959,-8.027998 -2.83647,-9.055398 -0.32005,-0.186021 -0.69788,-0.259012 -1.06534,-0.213068 z"
                   id="path2934-6-4-0-3-5-8-5" />
              </g>
              <g
                 style="stroke:#000002;stroke-width:3.4018836;stroke-miterlimit:4;stroke-dasharray:none;stroke-opacity:1"
                 transform="matrix(0.31110633,-0.21745885,0.18942782,0.1453415,505.97375,99.650923)"
                 id="g2936-2-8-94-9-9-2-5-9">
                <circle
                   r="12.357955"
                   cy="40.909092"
                   cx="132.10228"
                   style="fill:#000000;stroke:#000002;stroke-width:3.4018836;stroke-miterlimit:4;stroke-dasharray:none;stroke-opacity:1"
                   id="path2928-0-7-2-0-3-3-0-2" />
                <path
                   inkscape:connector-curvature="0"
                   style="fill:#ffffff;stroke:#000002;stroke-width:3.4018836;stroke-miterlimit:4;stroke-dasharray:none;stroke-opacity:1"
                   d="m 132.71369,35.177557 c -4.15001,-0.540618 -7.71523,4.052182 -5.93928,7.870206 1.46454,3.961238 7.40813,4.984197 9.84109,1.39826 2.42196,-2.972272 0.959,-8.027998 -2.83647,-9.055398 -0.32005,-0.186021 -0.69788,-0.259012 -1.06534,-0.213068 z"
                   id="path2934-6-4-0-3-5-8-5-6" />
              </g>
              <g
                 style="stroke:#000002;stroke-width:3.4018836;stroke-miterlimit:4;stroke-dasharray:none;stroke-opacity:1"
                 transform="matrix(0.31110633,-0.21745885,0.18942782,0.1453415,486.37148,109.87819)"
                 id="g2936-2-8-94-9-9-2-5-9-8">
                <circle
                   r="12.357955"
                   cy="40.909092"
                   cx="132.10228"
                   style="fill:#000000;stroke:#000002;stroke-width:3.4018836;stroke-miterlimit:4;stroke-dasharray:none;stroke-opacity:1"
                   id="path2928-0-7-2-0-3-3-0-2-5" />
                <path
                   inkscape:connector-curvature="0"
                   style="fill:#ffffff;stroke:#000002;stroke-width:3.4018836;stroke-miterlimit:4;stroke-dasharray:none;stroke-opacity:1"
                   d="m 132.71369,35.177557 c -4.15001,-0.540618 -7.71523,4.052182 -5.93928,7.870206 1.46454,3.961238 7.40813,4.984197 9.84109,1.39826 2.42196,-2.972272 0.959,-8.027998 -2.83647,-9.055398 -0.32005,-0.186021 -0.69788,-0.259012 -1.06534,-0.213068 z"
                   id="path2934-6-4-0-3-5-8-5-6-2" />
              </g>
              <g
                 style="stroke:#000002;stroke-width:3.4018836;stroke-miterlimit:4;stroke-dasharray:none;stroke-opacity:1"
                 transform="matrix(0.31110633,-0.21745885,0.18942782,0.1453415,463.36011,110.30433)"
                 id="g2936-2-8-94-9-9-2-5-9-8-8">
                <circle
                   r="12.357955"
                   cy="40.909092"
                   cx="132.10228"
                   style="fill:#000000;stroke:#000002;stroke-width:3.4018836;stroke-miterlimit:4;stroke-dasharray:none;stroke-opacity:1"
                   id="path2928-0-7-2-0-3-3-0-2-5-3" />
                <path
                   inkscape:connector-curvature="0"
                   style="fill:#ffffff;stroke:#000002;stroke-width:3.4018836;stroke-miterlimit:4;stroke-dasharray:none;stroke-opacity:1"
                   d="m 132.71369,35.177557 c -4.15001,-0.540618 -7.71523,4.052182 -5.93928,7.870206 1.46454,3.961238 7.40813,4.984197 9.84109,1.39826 2.42196,-2.972272 0.959,-8.027998 -2.83647,-9.055398 -0.32005,-0.186021 -0.69788,-0.259012 -1.06534,-0.213068 z"
                   id="path2934-6-4-0-3-5-8-5-6-2-6" />
              </g>
              <path
                 inkscape:connector-curvature="0"
                 id="path3554"
                 d="m 553.96865,50.449453 5.96591,8.52272"
                 style="fill:none;stroke:#000002;stroke-width:1;stroke-linecap:butt;stroke-linejoin:miter;stroke-miterlimit:4;stroke-dasharray:none;stroke-opacity:1" />
              <path
                 inkscape:connector-curvature="0"
                 id="path3556"
                 d="m 559.93456,64.511953 -2.55682,10.22727"
                 style="fill:none;stroke:#000002;stroke-width:1;stroke-linecap:butt;stroke-linejoin:miter;stroke-miterlimit:4;stroke-dasharray:none;stroke-opacity:1" />
              <path
                 inkscape:connector-curvature="0"
                 id="path3558"
                 d="m 551.83797,78.574453 -13.21023,7.67045"
                 style="fill:none;stroke:#000002;stroke-width:1;stroke-linecap:butt;stroke-linejoin:miter;stroke-miterlimit:4;stroke-dasharray:none;stroke-opacity:1" />
              <path
                 inkscape:connector-curvature="0"
                 id="path3560"
                 d="m 532.2357,87.523313 -16.19318,0.42614"
                 style="fill:none;stroke:#000002;stroke-width:1;stroke-linecap:butt;stroke-linejoin:miter;stroke-miterlimit:4;stroke-dasharray:none;stroke-opacity:1" />
              <path
                 inkscape:connector-curvature="0"
                 id="path3562"
                 d="m 555.24706,47.040353 c 0.42614,-2.98295 16.19318,-15.3409 16.19318,-15.3409"
                 style="fill:none;stroke:#000002;stroke-width:1;stroke-linecap:butt;stroke-linejoin:miter;stroke-miterlimit:4;stroke-dasharray:none;stroke-opacity:1" />
              <path
                 inkscape:connector-curvature="0"
                 id="path3566"
                 d="m 562.91752,59.824453 17.04545,-5.96591"
                 style="fill:none;stroke:#000002;stroke-width:1;stroke-linecap:butt;stroke-linejoin:miter;stroke-miterlimit:4;stroke-dasharray:none;stroke-opacity:1" />
              <path
                 inkscape:connector-curvature="0"
                 id="path3568"
                 d="m 559.08229,77.296043 22.15909,-0.85228"
                 style="fill:none;stroke:#000002;stroke-width:1;stroke-linecap:butt;stroke-linejoin:miter;stroke-miterlimit:4;stroke-dasharray:none;stroke-opacity:1" />
              <path
                 inkscape:connector-curvature="0"
                 id="path3570"
                 d="m 538.20161,88.801723 37.07386,10.22727"
                 style="fill:none;stroke:#000002;stroke-width:1;stroke-linecap:butt;stroke-linejoin:miter;stroke-miterlimit:4;stroke-dasharray:none;stroke-opacity:1" />
              <path
                 inkscape:connector-curvature="0"
                 id="path3572"
                 d="m 512.63343,89.653993 40.48295,21.306817"
                 style="fill:none;stroke:#000002;stroke-width:1;stroke-linecap:butt;stroke-linejoin:miter;stroke-miterlimit:4;stroke-dasharray:none;stroke-opacity:1" />
            </g>
            <g
               style="stroke:#000002;stroke-width:1;stroke-miterlimit:4;stroke-dasharray:none;stroke-opacity:1"
               id="g5348"
               transform="translate(-295.15086,86.459414)">
              <g
                 style="stroke:#000002;stroke-width:3.4018836;stroke-miterlimit:4;stroke-dasharray:none;stroke-opacity:1"
                 transform="matrix(0.31110633,-0.21745885,0.18942782,0.1453415,461.65557,34.878193)"
                 id="g2936-2-8-94-9">
                <circle
                   r="12.357955"
                   cy="40.909092"
                   cx="132.10228"
                   style="fill:#000000;stroke:#000002;stroke-width:3.4018836;stroke-miterlimit:4;stroke-dasharray:none;stroke-opacity:1"
                   id="path2928-0-7-2-0" />
                <path
                   inkscape:connector-curvature="0"
                   style="fill:#ffffff;stroke:#000002;stroke-width:3.4018836;stroke-miterlimit:4;stroke-dasharray:none;stroke-opacity:1"
                   d="m 132.71369,35.177557 c -4.15001,-0.540618 -7.71523,4.052182 -5.93928,7.870206 1.46454,3.961238 7.40813,4.984197 9.84109,1.39826 2.42196,-2.972272 0.959,-8.027998 -2.83647,-9.055398 -0.32005,-0.186021 -0.69788,-0.259012 -1.06534,-0.213068 z"
                   id="path2934-6-4-0-3" />
              </g>
              <g
                 style="stroke:#000002;stroke-width:3.4018836;stroke-miterlimit:4;stroke-dasharray:none;stroke-opacity:1"
                 transform="matrix(0.31110633,-0.21745885,0.18942782,0.1453415,467.4908,15.537283)"
                 id="g2936-2-8-94-9-0">
                <circle
                   r="12.357955"
                   cy="40.909092"
                   cx="132.10228"
                   style="fill:#000000;stroke:#000002;stroke-width:3.4018836;stroke-miterlimit:4;stroke-dasharray:none;stroke-opacity:1"
                   id="path2928-0-7-2-0-4" />
                <path
                   inkscape:connector-curvature="0"
                   style="fill:#ffffff;stroke:#000002;stroke-width:3.4018836;stroke-miterlimit:4;stroke-dasharray:none;stroke-opacity:1"
                   d="m 132.71369,35.177557 c -4.15001,-0.540618 -7.71523,4.052182 -5.93928,7.870206 1.46454,3.961238 7.40813,4.984197 9.84109,1.39826 2.42196,-2.972272 0.959,-8.027998 -2.83647,-9.055398 -0.32005,-0.186021 -0.69788,-0.259012 -1.06534,-0.213068 z"
                   id="path2934-6-4-0-3-1" />
              </g>
              <g
                 style="stroke:#000002;stroke-width:3.4018836;stroke-miterlimit:4;stroke-dasharray:none;stroke-opacity:1"
                 transform="matrix(0.31110633,-0.21745885,0.18942782,0.1453415,471.03057,-0.917257)"
                 id="g2936-2-8-94-9-02">
                <circle
                   r="12.357955"
                   cy="40.909092"
                   cx="132.10228"
                   style="fill:#000000;stroke:#000002;stroke-width:3.4018836;stroke-miterlimit:4;stroke-dasharray:none;stroke-opacity:1"
                   id="path2928-0-7-2-0-9" />
                <path
                   inkscape:connector-curvature="0"
                   style="fill:#ffffff;stroke:#000002;stroke-width:3.4018836;stroke-miterlimit:4;stroke-dasharray:none;stroke-opacity:1"
                   d="m 132.71369,35.177557 c -4.15001,-0.540618 -7.71523,4.052182 -5.93928,7.870206 1.46454,3.961238 7.40813,4.984197 9.84109,1.39826 2.42196,-2.972272 0.959,-8.027998 -2.83647,-9.055398 -0.32005,-0.186021 -0.69788,-0.259012 -1.06534,-0.213068 z"
                   id="path2934-6-4-0-3-6" />
              </g>
              <g
                 style="stroke:#000002;stroke-width:3.4018836;stroke-miterlimit:4;stroke-dasharray:none;stroke-opacity:1"
                 transform="matrix(0.31110633,-0.21745885,0.18942782,0.1453415,480.83171,-22.224076)"
                 id="g2936-2-8-94-9-0-1">
                <circle
                   r="12.357955"
                   cy="40.909092"
                   cx="132.10228"
                   style="fill:#000000;stroke:#000002;stroke-width:3.4018836;stroke-miterlimit:4;stroke-dasharray:none;stroke-opacity:1"
                   id="path2928-0-7-2-0-4-9" />
                <path
                   inkscape:connector-curvature="0"
                   style="fill:#ffffff;stroke:#000002;stroke-width:3.4018836;stroke-miterlimit:4;stroke-dasharray:none;stroke-opacity:1"
                   d="m 132.71369,35.177557 c -4.15001,-0.540618 -7.71523,4.052182 -5.93928,7.870206 1.46454,3.961238 7.40813,4.984197 9.84109,1.39826 2.42196,-2.972272 0.959,-8.027998 -2.83647,-9.055398 -0.32005,-0.186021 -0.69788,-0.259012 -1.06534,-0.213068 z"
                   id="path2934-6-4-0-3-1-1" />
              </g>
              <g
                 style="stroke:#000002;stroke-width:3.4018836;stroke-miterlimit:4;stroke-dasharray:none;stroke-opacity:1"
                 transform="matrix(0.31110633,-0.21745885,0.18942782,0.1453415,481.68398,-22.650212)"
                 id="g2936-2-8-94-9-0-9">
                <circle
                   r="12.357955"
                   cy="40.909092"
                   cx="132.10228"
                   style="fill:#000000;stroke:#000002;stroke-width:3.4018836;stroke-miterlimit:4;stroke-dasharray:none;stroke-opacity:1"
                   id="path2928-0-7-2-0-4-4" />
                <path
                   inkscape:connector-curvature="0"
                   style="fill:#ffffff;stroke:#000002;stroke-width:3.4018836;stroke-miterlimit:4;stroke-dasharray:none;stroke-opacity:1"
                   d="m 132.71369,35.177557 c -4.15001,-0.540618 -7.71523,4.052182 -5.93928,7.870206 1.46454,3.961238 7.40813,4.984197 9.84109,1.39826 2.42196,-2.972272 0.959,-8.027998 -2.83647,-9.055398 -0.32005,-0.186021 -0.69788,-0.259012 -1.06534,-0.213068 z"
                   id="path2934-6-4-0-3-1-5" />
              </g>
              <g
                 style="stroke:#000002;stroke-width:3.4018836;stroke-miterlimit:4;stroke-dasharray:none;stroke-opacity:1"
                 transform="matrix(0.31110633,-0.21745885,0.18942782,0.1453415,485.51921,-4.326348)"
                 id="g2936-2-8-94-9-0-2">
                <circle
                   r="12.357955"
                   cy="40.909092"
                   cx="132.10228"
                   style="fill:#000000;stroke:#000002;stroke-width:3.4018836;stroke-miterlimit:4;stroke-dasharray:none;stroke-opacity:1"
                   id="path2928-0-7-2-0-4-5" />
                <path
                   inkscape:connector-curvature="0"
                   style="fill:#ffffff;stroke:#000002;stroke-width:3.4018836;stroke-miterlimit:4;stroke-dasharray:none;stroke-opacity:1"
                   d="m 132.71369,35.177557 c -4.15001,-0.540618 -7.71523,4.052182 -5.93928,7.870206 1.46454,3.961238 7.40813,4.984197 9.84109,1.39826 2.42196,-2.972272 0.959,-8.027998 -2.83647,-9.055398 -0.32005,-0.186021 -0.69788,-0.259012 -1.06534,-0.213068 z"
                   id="path2934-6-4-0-3-1-9" />
              </g>
              <g
                 style="stroke:#000002;stroke-width:3.4018836;stroke-miterlimit:4;stroke-dasharray:none;stroke-opacity:1"
                 transform="matrix(0.31110633,-0.21745885,0.18942782,0.1453415,488.9283,12.719103)"
                 id="g2936-2-8-94-9-0-2-1">
                <circle
                   r="12.357955"
                   cy="40.909092"
                   cx="132.10228"
                   style="fill:#000000;stroke:#000002;stroke-width:3.4018836;stroke-miterlimit:4;stroke-dasharray:none;stroke-opacity:1"
                   id="path2928-0-7-2-0-4-5-7" />
                <path
                   inkscape:connector-curvature="0"
                   style="fill:#ffffff;stroke:#000002;stroke-width:3.4018836;stroke-miterlimit:4;stroke-dasharray:none;stroke-opacity:1"
                   d="m 132.71369,35.177557 c -4.15001,-0.540618 -7.71523,4.052182 -5.93928,7.870206 1.46454,3.961238 7.40813,4.984197 9.84109,1.39826 2.42196,-2.972272 0.959,-8.027998 -2.83647,-9.055398 -0.32005,-0.186021 -0.69788,-0.259012 -1.06534,-0.213068 z"
                   id="path2934-6-4-0-3-1-9-7" />
              </g>
              <g
                 style="stroke:#000002;stroke-width:3.4018836;stroke-miterlimit:4;stroke-dasharray:none;stroke-opacity:1"
                 transform="matrix(0.31110633,-0.21745885,0.18942782,0.1453415,491.05898,30.616833)"
                 id="g2936-2-8-94-9-0-2-1-4">
                <circle
                   r="12.357955"
                   cy="40.909092"
                   cx="132.10228"
                   style="fill:#000000;stroke:#000002;stroke-width:3.4018836;stroke-miterlimit:4;stroke-dasharray:none;stroke-opacity:1"
                   id="path2928-0-7-2-0-4-5-7-1" />
                <path
                   inkscape:connector-curvature="0"
                   style="fill:#ffffff;stroke:#000002;stroke-width:3.4018836;stroke-miterlimit:4;stroke-dasharray:none;stroke-opacity:1"
                   d="m 132.71369,35.177557 c -4.15001,-0.540618 -7.71523,4.052182 -5.93928,7.870206 1.46454,3.961238 7.40813,4.984197 9.84109,1.39826 2.42196,-2.972272 0.959,-8.027998 -2.83647,-9.055398 -0.32005,-0.186021 -0.69788,-0.259012 -1.06534,-0.213068 z"
                   id="path2934-6-4-0-3-1-9-7-1" />
              </g>
              <path
                 inkscape:connector-curvature="0"
                 id="path3400"
                 d="m 482.37774,61.528993 25.14205,-48.15341"
                 style="fill:none;stroke:#000002;stroke-width:1;stroke-linecap:butt;stroke-linejoin:miter;stroke-miterlimit:4;stroke-dasharray:none;stroke-opacity:1" />
              <path
                 inkscape:connector-curvature="0"
                 id="path3402"
                 d="m 513.4857,11.244903 23.86363,-2.55682"
                 style="fill:none;stroke:#000002;stroke-width:1;stroke-linecap:butt;stroke-linejoin:miter;stroke-miterlimit:4;stroke-dasharray:none;stroke-opacity:1" />
              <path
                 inkscape:connector-curvature="0"
                 id="path3404"
                 d="m 511.35502,9.540353 2.98295,-14.488632"
                 style="fill:none;stroke:#000002;stroke-width:1;stroke-linecap:butt;stroke-linejoin:miter;stroke-miterlimit:4;stroke-dasharray:none;stroke-opacity:1" />
              <path
                 inkscape:connector-curvature="0"
                 id="path3406"
                 d="m 520.30388,-7.931233 14.48864,-1.704546"
                 style="fill:none;stroke:#000002;stroke-width:1;stroke-linecap:butt;stroke-linejoin:miter;stroke-miterlimit:4;stroke-dasharray:none;stroke-opacity:1" />
              <path
                 inkscape:connector-curvature="0"
                 id="path3408"
                 d="m 515.61638,-10.061915 1.70455,-12.784091"
                 style="fill:none;stroke:#000002;stroke-width:1;stroke-linecap:butt;stroke-linejoin:miter;stroke-miterlimit:4;stroke-dasharray:none;stroke-opacity:1" />
              <path
                 inkscape:connector-curvature="0"
                 id="path3410"
                 d="m 523.71297,-25.402824 7.67046,-1.278409"
                 style="fill:none;stroke:#000002;stroke-width:1;stroke-linecap:butt;stroke-linejoin:miter;stroke-miterlimit:4;stroke-dasharray:none;stroke-opacity:1" />
              <path
                 inkscape:connector-curvature="0"
                 id="path3412"
                 d="M 519.87774,-26.255097 527.5482,-45.85737"
                 style="fill:none;stroke:#000002;stroke-width:1;stroke-linecap:butt;stroke-linejoin:miter;stroke-miterlimit:4;stroke-dasharray:none;stroke-opacity:1" />
            </g>
          </g>
        </g>
      </g>
      <text
         xml:space="preserve"
         style="font-style:normal;font-variant:normal;font-weight:normal;font-stretch:normal;font-size:10.58333302px;line-height:1.25;font-family:'Courier 10 Pitch';-inkscape-font-specification:'Courier 10 Pitch';letter-spacing:0px;word-spacing:0px;fill:#000000;fill-opacity:1;stroke:none;stroke-width:0.26458332"
         x="79.44429"
         y="82.588623"
         id="text2370"
         transform="scale(1,-1)"><tspan
           sodipodi:role="line"
           id="tspan2368"
           x="79.44429"
           y="82.588623"
           style="font-size:7.05555534px;stroke-width:0.26458332">9.1inch</tspan></text>
    </g>
  </g>
</svg>
