<?xml version="1.0" encoding="UTF-8" standalone="no"?>
<svg
   xmlns:dc="http://purl.org/dc/elements/1.1/"
   xmlns:cc="http://creativecommons.org/ns#"
   xmlns:rdf="http://www.w3.org/1999/02/22-rdf-syntax-ns#"
   xmlns:svg="http://www.w3.org/2000/svg"
   xmlns="http://www.w3.org/2000/svg"
   xmlns:sodipodi="http://sodipodi.sourceforge.net/DTD/sodipodi-0.dtd"
   xmlns:inkscape="http://www.inkscape.org/namespaces/inkscape"
   width="355.85019mm"
   height="100.52905mm"
   viewBox="0 0 355.85019 100.52905"
   version="1.1"
   id="svg91"
   sodipodi:docname="chromogram_baffle_H_01.svg"
   inkscape:version="0.92.4 (unknown)">
  <metadata
     id="metadata97">
    <rdf:RDF>
      <cc:Work
         rdf:about="">
        <dc:format>image/svg+xml</dc:format>
        <dc:type
           rdf:resource="http://purl.org/dc/dcmitype/StillImage" />
        <dc:title></dc:title>
      </cc:Work>
    </rdf:RDF>
  </metadata>
  <defs
     id="defs95">
    <marker
       inkscape:stockid="Arrow1Lstart"
       style="overflow:visible"
       refY="0"
       refX="0"
       orient="auto"
       id="Arrow1Lstart">
      <path
         id="path1104"
         style="fill-rule:evenodd;stroke:#000000;stroke-width:1.00000003pt;marker-start:none"
         transform="matrix(0.8,0,0,0.8,10,0)"
         d="M 0,0 5,-5 -12.5,0 5,5 Z"
         inkscape:connector-curvature="0" />
    </marker>
    <marker
       inkscape:stockid="Arrow1Lend"
       style="overflow:visible"
       refY="0"
       refX="0"
       orient="auto"
       id="Arrow1Lend">
      <path
         id="path1107"
         style="fill-rule:evenodd;stroke:#000000;stroke-width:1.00000003pt;marker-start:none"
         transform="matrix(-0.8,0,0,-0.8,-10,0)"
         d="M 0,0 5,-5 -12.5,0 5,5 Z"
         inkscape:connector-curvature="0" />
    </marker>
    <marker
       inkscape:stockid="Arrow1Lstart"
       style="overflow:visible"
       refY="0"
       refX="0"
       orient="auto"
       id="marker920">
      <path
         id="path918"
         style="fill-rule:evenodd;stroke:#000000;stroke-width:1.00000003pt;marker-start:none"
         transform="matrix(0.8,0,0,0.8,10,0)"
         d="M 0,0 5,-5 -12.5,0 5,5 Z"
         inkscape:connector-curvature="0" />
    </marker>
    <marker
       inkscape:stockid="Arrow1Lend"
       style="overflow:visible"
       refY="0"
       refX="0"
       orient="auto"
       id="marker924">
      <path
         id="path922"
         style="fill-rule:evenodd;stroke:#000000;stroke-width:1.00000003pt;marker-start:none"
         transform="matrix(-0.8,0,0,-0.8,-10,0)"
         d="M 0,0 5,-5 -12.5,0 5,5 Z"
         inkscape:connector-curvature="0" />
    </marker>
  </defs>
  <sodipodi:namedview
     pagecolor="#ffffff"
     bordercolor="#666666"
     borderopacity="1"
     objecttolerance="10"
     gridtolerance="10"
     guidetolerance="10"
     inkscape:pageopacity="0"
     inkscape:pageshadow="2"
     inkscape:window-width="1920"
     inkscape:window-height="993"
     id="namedview93"
     showgrid="false"
     fit-margin-top="10"
     fit-margin-left="10"
     fit-margin-right="10"
     fit-margin-bottom="10"
     showguides="true"
     inkscape:guide-bbox="true"
     inkscape:zoom="0.70710678"
     inkscape:cx="536.6629"
     inkscape:cy="364.97277"
     inkscape:window-x="0"
     inkscape:window-y="46"
     inkscape:window-maximized="1"
     inkscape:current-layer="Shape2DView002" />
  <g
     id="Shape2DView002"
     transform="matrix(0,-1,-1,0,34.461164,79.207695)">
    <path
       style="fill:none;fill-rule:evenodd;stroke:#191919;stroke-width:0.34999999;stroke-miterlimit:4;stroke-dasharray:none"
       d="M 67.310942,-118.655"
       id="path1079"
       inkscape:connector-curvature="0" />
    <path
       style="fill:none;fill-rule:evenodd;stroke:#191919;stroke-width:0.34999999;stroke-miterlimit:4;stroke-dasharray:none"
       d="M 67.310942,-6.8950019"
       id="path1069"
       inkscape:connector-curvature="0" />
    <title
       id="title88">Shape2DView_baffle_H</title>
    <text
       xml:space="preserve"
       style="font-style:normal;font-variant:normal;font-weight:normal;font-stretch:normal;font-size:10.58333302px;line-height:1.25;font-family:'Courier 10 Pitch';-inkscape-font-specification:'Courier 10 Pitch';letter-spacing:0px;word-spacing:0px;fill:#000000;fill-opacity:1;stroke:none;stroke-width:0.26458332"
       x="82.483437"
       y="-18.217251"
       id="text1097"
       transform="matrix(0,-1,-1,0,0,0)"><tspan
         sodipodi:role="line"
         id="tspan1095"
         x="82.483437"
         y="-18.217251"
         style="font-size:7.05555534px;line-height:13.22916698px;stroke-width:0.26458332">Horizontal Baffle : 10 per clock</tspan><tspan
         sodipodi:role="line"
         x="82.483437"
         y="-4.1358681"
         style="font-size:7.05555534px;line-height:13.22916698px;stroke-width:0.26458332"
         id="tspan1099">Thickness : 0.06&quot;</tspan><tspan
         sodipodi:role="line"
         x="82.483437"
         y="9.9455147"
         style="font-size:7.05555534px;line-height:13.22916698px;stroke-width:0.26458332"
         id="tspan1101">Material : Acrylic, Black</tspan></text>
    <path
       id="path942"
       d="M 35.012091,-311.09711 V 24.169246"
       inkscape:connector-curvature="0"
       style="fill:none;stroke:#000000;stroke-width:0.15036772;stroke-miterlimit:4;stroke-dasharray:none;marker-start:url(#Arrow1Lstart);marker-end:url(#Arrow1Lend)" />
    <path
       id="path944"
       d="M 30.739248,-311.09711 H 45.001363"
       inkscape:connector-curvature="0"
       style="fill:none;stroke:#000000;stroke-width:0.15036772;stroke-miterlimit:4;stroke-dasharray:none" />
    <path
       id="path946"
       d="M 30.739248,24.169246 H 45.001363"
       inkscape:connector-curvature="0"
       style="fill:none;stroke:#000000;stroke-width:0.15036772;stroke-miterlimit:4;stroke-dasharray:none" />
    <path
       sodipodi:nodetypes="cccccccccccccccccccccccccccccccccccccccccccccccccccccccccccccccccccccccccccccccccccccccccccccccccccccccccccccccccccccccccccccccccccccccccccccccccccccccccccccccccccccccc"
       inkscape:connector-curvature="0"
       id="path1063"
       d="m 69.075403,-5.5612397 h -1.74253 V 19.16335 19.417596 h 1.648994 v 4.75165 H 51.376741 v -4.040063 h 8.04137 v -1.931665 h -8.04137 V 9.964944 h 8.04137 V 8.0337953 h -8.04137 v -8.23308715 h 8.04137 V -2.1304406 h -8.04137 V -10.36353 h 8.04137 v -1.931149 h -8.04137 v -8.23309 h 8.04137 v -1.931146 h -8.04137 v -8.23309 h 8.04137 v -1.931148 h -8.04137 v -8.23309 h 8.04137 v -1.931146 h -8.04137 v -8.23309 h 8.04137 v -1.931149 h -8.04137 v -8.232574 h 8.04137 v -1.931664 h -8.04137 v -8.232571 h 8.04137 v -1.931149 h -8.04137 v -8.23309 h 8.04137 v -1.931146 h -8.04137 v -8.23309 h 8.04137 v -1.931149 h -8.04137 v -8.233089 h 8.04137 v -1.93115 h -8.04137 v -8.23309 h 8.04137 v -1.93114 h -8.04137 v -8.23309 h 8.04137 v -1.93115 h -8.04137 v -8.23309 h 8.04137 v -1.93115 h -8.04137 v -4.19251 -4.04058 h 8.04137 v -1.93115 h -8.04137 v -4.04006 -4.19303 h 8.04137 v -1.93114 h -8.04137 v -8.23309 h 8.04137 v -1.93115 h -8.04137 v -8.23309 h 8.04137 v -1.93115 h -8.04137 v -8.2331 h 8.04137 v -1.93114 h -8.04137 v -8.23309 h 8.04137 v -1.93114 h -8.04137 v -8.23309 h 8.04137 v -1.93115 h -8.04137 v -8.23309 h 8.04137 v -1.93114 h -8.04137 v -8.23309 h 8.04137 v -1.93117 h -8.04137 v -8.23306 h 8.04137 v -1.93117 h -8.04137 v -8.23309 h 8.04137 v -1.93114 h -8.04137 v -8.2331 h 8.04137 v -1.93114 h -8.04137 v -8.23309 h 8.04137 v -1.93114 h -8.04137 v -8.23259 h 8.04137 v -1.93114 h -8.04137 v -8.23309 h 8.04137 v -1.93114 h -8.04137 v -8.2331 h 8.04137 v -1.93114 h -8.04137 v -8.23309 h 8.04137 v -1.93114 h -8.04137 v -4.04059 h 17.605126 v 4.75216 h -1.648994 v 0.25373 24.74992 h 1.74253 v 1.34668 h -1.74253 v 109.86462 0.59531 h 1.74253 v 1.34669 h -1.74253 v 19.71869 c 0,4.75165 0,0 0,4.75165 v 0.25424 0.25425 c 0,4.75165 0,0 0,4.75165 v 19.74402 h 1.74253 v 1.34668 h -1.74253 v 109.863581 0.5953125 h 1.74253 z"
       style="fill:none;fill-opacity:1;fill-rule:evenodd;stroke:#fa1919;stroke-width:0.26458332;stroke-linejoin:miter;stroke-miterlimit:4;stroke-dasharray:none;stroke-opacity:1" />
    <flowRoot
       xml:space="preserve"
       id="flowRoot1014"
       style="font-style:normal;font-weight:normal;font-size:40px;line-height:1.25;font-family:sans-serif;letter-spacing:0px;word-spacing:0px;fill:#000000;fill-opacity:1;stroke:none"
       transform="matrix(0,-0.26458333,-0.26458333,0,164.46642,125.26439)"><flowRegion
         id="flowRegion1016"><rect
           id="rect1018"
           width="236.17369"
           height="50.911686"
           x="963.07941"
           y="445.80426" /></flowRegion><flowPara
         id="flowPara1020"
         style="font-size:26.66666794px">13.20 inch</flowPara></flowRoot>  </g>
</svg>
