G04 #@! TF.GenerationSoftware,KiCad,Pcbnew,6.0.0-rc1-unknown-7dfc4e3~65~ubuntu18.04.1*
G04 #@! TF.CreationDate,2018-10-18T17:10:55+05:30*
G04 #@! TF.ProjectId,ClockIOT,436C6F636B494F542E6B696361645F70,rev 4*
G04 #@! TF.SameCoordinates,Original*
G04 #@! TF.FileFunction,Soldermask,Top*
G04 #@! TF.FilePolarity,Negative*
%FSLAX46Y46*%
G04 Gerber Fmt 4.6, Leading zero omitted, Abs format (unit mm)*
G04 Created by KiCad (PCBNEW 6.0.0-rc1-unknown-7dfc4e3~65~ubuntu18.04.1) date Thu Oct 18 17:10:55 2018*
%MOMM*%
%LPD*%
G01*
G04 APERTURE LIST*
%ADD10C,0.500000*%
%ADD11R,3.800000X2.000000*%
%ADD12R,1.500000X2.000000*%
%ADD13O,2.200000X1.100000*%
%ADD14R,2.000000X2.000000*%
%ADD15R,1.400000X1.400000*%
%ADD16R,1.350000X0.400000*%
%ADD17C,0.600000*%
%ADD18R,1.400000X1.200000*%
%ADD19C,1.524000*%
%ADD20R,1.524000X1.524000*%
%ADD21C,3.302000*%
%ADD22R,1.550000X1.350000*%
%ADD23C,18.000000*%
%ADD24R,5.200000X2.200000*%
%ADD25R,1.350000X1.550000*%
%ADD26R,0.600000X0.400000*%
%ADD27R,1.198880X1.198880*%
%ADD28C,5.200000*%
%ADD29C,6.400000*%
%ADD30C,0.800000*%
%ADD31R,2.000000X1.000000*%
%ADD32R,1.000000X2.000000*%
%ADD33R,4.000000X4.000000*%
%ADD34O,2.000000X1.000000*%
%ADD35O,1.000000X2.000000*%
%ADD36C,2.082800*%
%ADD37O,2.000000X2.000000*%
%ADD38C,0.508000*%
%ADD39C,1.800000*%
%ADD40C,0.127000*%
%ADD41C,1.600000*%
%ADD42C,1.270000*%
%ADD43R,1.300480X1.498600*%
%ADD44C,2.000000*%
%ADD45R,1.998980X0.599440*%
%ADD46R,3.048000X3.048000*%
%ADD47R,0.650000X0.400000*%
%ADD48C,1.675000*%
%ADD49C,0.300000*%
%ADD50C,0.300000*%
%ADD51C,3.200000*%
G04 APERTURE END LIST*
D10*
X153857142Y-88701428D02*
X153714285Y-88844285D01*
X153285714Y-88987142D01*
X153000000Y-88987142D01*
X152571428Y-88844285D01*
X152285714Y-88558571D01*
X152142857Y-88272857D01*
X152000000Y-87701428D01*
X152000000Y-87272857D01*
X152142857Y-86701428D01*
X152285714Y-86415714D01*
X152571428Y-86130000D01*
X153000000Y-85987142D01*
X153285714Y-85987142D01*
X153714285Y-86130000D01*
X153857142Y-86272857D01*
X155571428Y-88987142D02*
X155285714Y-88844285D01*
X155142857Y-88558571D01*
X155142857Y-85987142D01*
X157142857Y-88987142D02*
X156857142Y-88844285D01*
X156714285Y-88701428D01*
X156571428Y-88415714D01*
X156571428Y-87558571D01*
X156714285Y-87272857D01*
X156857142Y-87130000D01*
X157142857Y-86987142D01*
X157571428Y-86987142D01*
X157857142Y-87130000D01*
X158000000Y-87272857D01*
X158142857Y-87558571D01*
X158142857Y-88415714D01*
X158000000Y-88701428D01*
X157857142Y-88844285D01*
X157571428Y-88987142D01*
X157142857Y-88987142D01*
X160714285Y-88844285D02*
X160428571Y-88987142D01*
X159857142Y-88987142D01*
X159571428Y-88844285D01*
X159428571Y-88701428D01*
X159285714Y-88415714D01*
X159285714Y-87558571D01*
X159428571Y-87272857D01*
X159571428Y-87130000D01*
X159857142Y-86987142D01*
X160428571Y-86987142D01*
X160714285Y-87130000D01*
X162000000Y-88987142D02*
X162000000Y-85987142D01*
X162285714Y-87844285D02*
X163142857Y-88987142D01*
X163142857Y-86987142D02*
X162000000Y-88130000D01*
X164428571Y-88987142D02*
X164428571Y-85987142D01*
X166428571Y-85987142D02*
X167000000Y-85987142D01*
X167285714Y-86130000D01*
X167571428Y-86415714D01*
X167714285Y-86987142D01*
X167714285Y-87987142D01*
X167571428Y-88558571D01*
X167285714Y-88844285D01*
X167000000Y-88987142D01*
X166428571Y-88987142D01*
X166142857Y-88844285D01*
X165857142Y-88558571D01*
X165714285Y-87987142D01*
X165714285Y-86987142D01*
X165857142Y-86415714D01*
X166142857Y-86130000D01*
X166428571Y-85987142D01*
X168571428Y-85987142D02*
X170285714Y-85987142D01*
X169428571Y-88987142D02*
X169428571Y-85987142D01*
D11*
G04 #@! TO.C,U131*
X113665000Y-76810000D03*
D12*
X113665000Y-70510000D03*
X111365000Y-70510000D03*
X115965000Y-70510000D03*
G04 #@! TD*
D13*
G04 #@! TO.C,P1*
X52250000Y-77765000D03*
X52250000Y-72095000D03*
D14*
X52250000Y-73780000D03*
D15*
X54500000Y-78130000D03*
D16*
X54925000Y-74930000D03*
X54925000Y-75580000D03*
X54925000Y-76230000D03*
X54925000Y-73630000D03*
X54925000Y-74280000D03*
D15*
X54500000Y-71730000D03*
D14*
X52250000Y-76080000D03*
D17*
X54400000Y-72930000D03*
X54400000Y-76930000D03*
G04 #@! TD*
D18*
G04 #@! TO.C,D1*
X74630000Y-73400000D03*
X74630000Y-75600000D03*
X72030000Y-75600000D03*
D15*
X72030000Y-73500000D03*
G04 #@! TD*
D19*
G04 #@! TO.C,P3*
X60960000Y-66040000D03*
D20*
X60960000Y-83820000D03*
X63500000Y-83820000D03*
D19*
X63500000Y-81280000D03*
X63500000Y-78740000D03*
X63500000Y-66040000D03*
X63500000Y-68580000D03*
X63500000Y-71120000D03*
X63500000Y-73660000D03*
X63500000Y-76200000D03*
D21*
X53340000Y-82550000D03*
X53340000Y-67310000D03*
G04 #@! TD*
D22*
G04 #@! TO.C,C31*
X66040000Y-82280000D03*
X66040000Y-80280000D03*
G04 #@! TD*
G04 #@! TO.C,C26*
X89408000Y-80407000D03*
X89408000Y-82407000D03*
G04 #@! TD*
D23*
G04 #@! TO.C,BT1*
X200025000Y-69215000D03*
D24*
X200025000Y-80215000D03*
X200025000Y-58215000D03*
G04 #@! TD*
D25*
G04 #@! TO.C,C12*
X127365000Y-185420000D03*
X125365000Y-185420000D03*
G04 #@! TD*
G04 #@! TO.C,C7*
X208645000Y-149860000D03*
X206645000Y-149860000D03*
G04 #@! TD*
G04 #@! TO.C,C8*
X127365000Y-149860000D03*
X125365000Y-149860000D03*
G04 #@! TD*
D22*
G04 #@! TO.C,C24*
X76200000Y-80280000D03*
X76200000Y-82280000D03*
G04 #@! TD*
D25*
G04 #@! TO.C,C22*
X182610000Y-79375000D03*
X180610000Y-79375000D03*
G04 #@! TD*
G04 #@! TO.C,C28*
X143250000Y-59000000D03*
X141250000Y-59000000D03*
G04 #@! TD*
D22*
G04 #@! TO.C,C21*
X131445000Y-55515000D03*
X131445000Y-57515000D03*
G04 #@! TD*
G04 #@! TO.C,C20*
X52705000Y-59960000D03*
X52705000Y-61960000D03*
G04 #@! TD*
G04 #@! TO.C,C29*
X186055000Y-85360000D03*
X186055000Y-87360000D03*
G04 #@! TD*
D25*
G04 #@! TO.C,C30*
X198485000Y-85090000D03*
X196485000Y-85090000D03*
G04 #@! TD*
D22*
G04 #@! TO.C,C19*
X131445000Y-72660000D03*
X131445000Y-74660000D03*
G04 #@! TD*
D25*
G04 #@! TO.C,C9*
X56245000Y-177800000D03*
X54245000Y-177800000D03*
G04 #@! TD*
G04 #@! TO.C,C6*
X137525000Y-142240000D03*
X135525000Y-142240000D03*
G04 #@! TD*
G04 #@! TO.C,C1*
X56245000Y-106680000D03*
X54245000Y-106680000D03*
G04 #@! TD*
G04 #@! TO.C,C2*
X137525000Y-106680000D03*
X135525000Y-106680000D03*
G04 #@! TD*
G04 #@! TO.C,C3*
X208645000Y-114300000D03*
X206645000Y-114300000D03*
G04 #@! TD*
G04 #@! TO.C,C4*
X127365000Y-114300000D03*
X125365000Y-114300000D03*
G04 #@! TD*
G04 #@! TO.C,C5*
X56245000Y-142240000D03*
X54245000Y-142240000D03*
G04 #@! TD*
G04 #@! TO.C,C10*
X137525000Y-177800000D03*
X135525000Y-177800000D03*
G04 #@! TD*
G04 #@! TO.C,C11*
X208645000Y-185420000D03*
X206645000Y-185420000D03*
G04 #@! TD*
G04 #@! TO.C,C13*
X56245000Y-213360000D03*
X54245000Y-213360000D03*
G04 #@! TD*
G04 #@! TO.C,C14*
X137525000Y-213360000D03*
X135525000Y-213360000D03*
G04 #@! TD*
G04 #@! TO.C,C15*
X208645000Y-220980000D03*
X206645000Y-220980000D03*
G04 #@! TD*
G04 #@! TO.C,C16*
X127365000Y-220980000D03*
X125365000Y-220980000D03*
G04 #@! TD*
D22*
G04 #@! TO.C,R9*
X69850000Y-80280000D03*
X69850000Y-82280000D03*
G04 #@! TD*
G04 #@! TO.C,L2*
X58420000Y-76470000D03*
X58420000Y-78470000D03*
G04 #@! TD*
G04 #@! TO.C,R25*
X70485000Y-61865000D03*
X70485000Y-63865000D03*
G04 #@! TD*
G04 #@! TO.C,R24*
X85725000Y-61865000D03*
X85725000Y-63865000D03*
G04 #@! TD*
G04 #@! TO.C,R11*
X100965000Y-61865000D03*
X100965000Y-63865000D03*
G04 #@! TD*
G04 #@! TO.C,R10*
X116205000Y-61865000D03*
X116205000Y-63865000D03*
G04 #@! TD*
D25*
G04 #@! TO.C,R23*
X140000000Y-68250000D03*
X138000000Y-68250000D03*
G04 #@! TD*
G04 #@! TO.C,R22*
X140000000Y-71000000D03*
X138000000Y-71000000D03*
G04 #@! TD*
G04 #@! TO.C,R20*
X140000000Y-73750000D03*
X138000000Y-73750000D03*
G04 #@! TD*
G04 #@! TO.C,R19*
X140000000Y-76500000D03*
X138000000Y-76500000D03*
G04 #@! TD*
D22*
G04 #@! TO.C,R18*
X131445000Y-61865000D03*
X131445000Y-63865000D03*
G04 #@! TD*
G04 #@! TO.C,R16*
X55626000Y-59960000D03*
X55626000Y-61960000D03*
G04 #@! TD*
G04 #@! TO.C,R4*
X99500000Y-77500000D03*
X99500000Y-79500000D03*
G04 #@! TD*
G04 #@! TO.C,R3*
X131445000Y-67580000D03*
X131445000Y-69580000D03*
G04 #@! TD*
G04 #@! TO.C,R8*
X73025000Y-80280000D03*
X73025000Y-82280000D03*
G04 #@! TD*
G04 #@! TO.C,R7*
X179500000Y-63250000D03*
X179500000Y-65250000D03*
G04 #@! TD*
G04 #@! TO.C,R6*
X183500000Y-63250000D03*
X183500000Y-65250000D03*
G04 #@! TD*
D25*
G04 #@! TO.C,R21*
X140000000Y-65500000D03*
X138000000Y-65500000D03*
G04 #@! TD*
G04 #@! TO.C,R1*
X66500000Y-96000000D03*
X64500000Y-96000000D03*
G04 #@! TD*
G04 #@! TO.C,R2*
X76500000Y-96000000D03*
X74500000Y-96000000D03*
G04 #@! TD*
G04 #@! TO.C,R12*
X101965000Y-53975000D03*
X99965000Y-53975000D03*
G04 #@! TD*
G04 #@! TO.C,R13*
X172450000Y-53975000D03*
X170450000Y-53975000D03*
G04 #@! TD*
D22*
G04 #@! TO.C,L1*
X58420000Y-71390000D03*
X58420000Y-73390000D03*
G04 #@! TD*
D26*
G04 #@! TO.C,JP1*
X99500000Y-71200000D03*
X99500000Y-70300000D03*
G04 #@! TD*
D27*
G04 #@! TO.C,D2*
X99500000Y-73200980D03*
X99500000Y-75299020D03*
G04 #@! TD*
D15*
G04 #@! TO.C,U123*
X108245000Y-224460000D03*
X103845000Y-224460000D03*
X103845000Y-226060000D03*
X108245000Y-226060000D03*
X108245000Y-227660000D03*
X103845000Y-227660000D03*
G04 #@! TD*
D28*
G04 #@! TO.C,HB54*
X95885000Y-220345000D03*
G04 #@! TD*
G04 #@! TO.C,HB53*
X167005000Y-220345000D03*
G04 #@! TD*
G04 #@! TO.C,HB52*
X167005000Y-149225000D03*
G04 #@! TD*
G04 #@! TO.C,HB51*
X95885000Y-149225000D03*
G04 #@! TD*
D29*
G04 #@! TO.C,HB47*
X55245000Y-87630000D03*
D30*
X57645000Y-87630000D03*
X56942056Y-89327056D03*
X55245000Y-90030000D03*
X53547944Y-89327056D03*
X52845000Y-87630000D03*
X53547944Y-85932944D03*
X55245000Y-85230000D03*
X56942056Y-85932944D03*
G04 #@! TD*
D29*
G04 #@! TO.C,HB48*
X207645000Y-87630000D03*
D30*
X210045000Y-87630000D03*
X209342056Y-89327056D03*
X207645000Y-90030000D03*
X205947944Y-89327056D03*
X205245000Y-87630000D03*
X205947944Y-85932944D03*
X207645000Y-85230000D03*
X209342056Y-85932944D03*
G04 #@! TD*
D29*
G04 #@! TO.C,HB49*
X55245000Y-240030000D03*
D30*
X57645000Y-240030000D03*
X56942056Y-241727056D03*
X55245000Y-242430000D03*
X53547944Y-241727056D03*
X52845000Y-240030000D03*
X53547944Y-238332944D03*
X55245000Y-237630000D03*
X56942056Y-238332944D03*
G04 #@! TD*
D29*
G04 #@! TO.C,HB50*
X207645000Y-240030000D03*
D30*
X210045000Y-240030000D03*
X209342056Y-241727056D03*
X207645000Y-242430000D03*
X205947944Y-241727056D03*
X205245000Y-240030000D03*
X205947944Y-238332944D03*
X207645000Y-237630000D03*
X209342056Y-238332944D03*
G04 #@! TD*
D31*
G04 #@! TO.C,U129*
X150385000Y-56980000D03*
X150385000Y-58250000D03*
X150385000Y-59520000D03*
X150385000Y-60790000D03*
X150385000Y-62060000D03*
X150385000Y-63330000D03*
X150385000Y-64600000D03*
X150385000Y-65870000D03*
X150385000Y-67140000D03*
X150385000Y-68410000D03*
X150385000Y-69680000D03*
X150385000Y-70950000D03*
X150385000Y-72220000D03*
X150385000Y-73490000D03*
D32*
X153670000Y-74980000D03*
X154940000Y-74980000D03*
X156210000Y-74980000D03*
X157480000Y-74980000D03*
X158750000Y-74980000D03*
X160020000Y-74980000D03*
X161290000Y-74980000D03*
X162560000Y-74980000D03*
X163830000Y-74980000D03*
X165100000Y-74980000D03*
D31*
X168385000Y-73490000D03*
X168385000Y-72220000D03*
X168385000Y-70950000D03*
X168385000Y-69680000D03*
X168385000Y-68410000D03*
X168385000Y-67140000D03*
X168385000Y-65870000D03*
X168385000Y-64600000D03*
X168385000Y-63330000D03*
X168385000Y-62060000D03*
X168385000Y-60790000D03*
X168385000Y-59520000D03*
X168385000Y-58250000D03*
X168385000Y-56980000D03*
D33*
X158685000Y-64380000D03*
D34*
X147885000Y-56980000D03*
X147885000Y-58250000D03*
X147885000Y-59520000D03*
X147885000Y-60790000D03*
X147885000Y-62060000D03*
X147885000Y-63330000D03*
X147885000Y-64600000D03*
X147885000Y-65870000D03*
X147885000Y-67140000D03*
X147885000Y-68410000D03*
X147885000Y-69680000D03*
X147885000Y-70950000D03*
X147885000Y-72220000D03*
X147885000Y-73490000D03*
X170885000Y-58250000D03*
X170885000Y-67140000D03*
X170885000Y-68410000D03*
X170885000Y-60790000D03*
X170885000Y-56980000D03*
X170885000Y-69680000D03*
X170885000Y-63330000D03*
X170885000Y-73490000D03*
X170885000Y-72220000D03*
X170885000Y-65870000D03*
X170885000Y-64600000D03*
X170885000Y-62060000D03*
X170885000Y-70950000D03*
X170885000Y-59520000D03*
D35*
X153670000Y-77480000D03*
X154940000Y-77480000D03*
X156210000Y-77480000D03*
X157480000Y-77480000D03*
X158750000Y-77480000D03*
X161290000Y-77480000D03*
X162560000Y-77480000D03*
X163830000Y-77480000D03*
X165100000Y-77480000D03*
X160020000Y-77480000D03*
G04 #@! TD*
D36*
G04 #@! TO.C,HB44*
X187325000Y-217170000D03*
G04 #@! TD*
G04 #@! TO.C,HB43*
X187325000Y-199390000D03*
G04 #@! TD*
G04 #@! TO.C,HB42*
X187325000Y-181610000D03*
G04 #@! TD*
G04 #@! TO.C,HB41*
X187325000Y-163830000D03*
G04 #@! TD*
G04 #@! TO.C,HB40*
X187325000Y-146050000D03*
G04 #@! TD*
G04 #@! TO.C,HB39*
X187325000Y-128270000D03*
G04 #@! TD*
G04 #@! TO.C,HB38*
X187325000Y-110490000D03*
G04 #@! TD*
G04 #@! TO.C,HB37*
X75565000Y-217170000D03*
G04 #@! TD*
G04 #@! TO.C,HB36*
X75565000Y-199390000D03*
G04 #@! TD*
G04 #@! TO.C,HB35*
X75565000Y-181610000D03*
G04 #@! TD*
G04 #@! TO.C,HB34*
X75565000Y-163830000D03*
G04 #@! TD*
G04 #@! TO.C,HB33*
X75565000Y-146050000D03*
G04 #@! TD*
G04 #@! TO.C,HB32*
X75565000Y-128270000D03*
G04 #@! TD*
G04 #@! TO.C,HB31*
X75565000Y-110490000D03*
G04 #@! TD*
G04 #@! TO.C,HB30*
X202565000Y-199390000D03*
G04 #@! TD*
G04 #@! TO.C,HB29*
X192405000Y-199390000D03*
G04 #@! TD*
G04 #@! TO.C,HB28*
X182245000Y-199390000D03*
G04 #@! TD*
G04 #@! TO.C,HB27*
X172085000Y-199390000D03*
G04 #@! TD*
G04 #@! TO.C,HB26*
X161925000Y-199390000D03*
G04 #@! TD*
G04 #@! TO.C,HB25*
X151765000Y-199390000D03*
G04 #@! TD*
G04 #@! TO.C,HB24*
X141605000Y-199390000D03*
G04 #@! TD*
G04 #@! TO.C,HB23*
X131445000Y-199390000D03*
G04 #@! TD*
G04 #@! TO.C,HB22*
X121285000Y-199390000D03*
G04 #@! TD*
G04 #@! TO.C,HB21*
X111125000Y-199390000D03*
G04 #@! TD*
G04 #@! TO.C,HB20*
X100965000Y-199390000D03*
G04 #@! TD*
G04 #@! TO.C,HB19*
X90805000Y-199390000D03*
G04 #@! TD*
G04 #@! TO.C,HB18*
X80645000Y-199390000D03*
G04 #@! TD*
G04 #@! TO.C,HB17*
X70485000Y-199390000D03*
G04 #@! TD*
G04 #@! TO.C,HB16*
X60325000Y-199390000D03*
G04 #@! TD*
G04 #@! TO.C,HB15*
X202565000Y-128270000D03*
G04 #@! TD*
G04 #@! TO.C,HB14*
X192405000Y-128270000D03*
G04 #@! TD*
G04 #@! TO.C,HB13*
X182245000Y-128270000D03*
G04 #@! TD*
G04 #@! TO.C,HB12*
X172085000Y-128270000D03*
G04 #@! TD*
G04 #@! TO.C,HB11*
X161925000Y-128270000D03*
G04 #@! TD*
G04 #@! TO.C,HB10*
X151765000Y-128270000D03*
G04 #@! TD*
G04 #@! TO.C,HB9*
X141605000Y-128270000D03*
G04 #@! TD*
G04 #@! TO.C,HB8*
X131445000Y-128270000D03*
G04 #@! TD*
G04 #@! TO.C,HB7*
X121285000Y-128270000D03*
G04 #@! TD*
G04 #@! TO.C,HB6*
X111125000Y-128270000D03*
G04 #@! TD*
G04 #@! TO.C,HB5*
X100965000Y-128270000D03*
G04 #@! TD*
G04 #@! TO.C,HB4*
X90805000Y-128270000D03*
G04 #@! TD*
G04 #@! TO.C,HB3*
X80645000Y-128270000D03*
G04 #@! TD*
G04 #@! TO.C,HB2*
X70485000Y-128270000D03*
G04 #@! TD*
G04 #@! TO.C,HB1*
X60325000Y-128270000D03*
G04 #@! TD*
D37*
G04 #@! TO.C,P2*
X53975000Y-231775000D03*
D14*
X56515000Y-231775000D03*
G04 #@! TD*
D38*
G04 #@! TO.C,BITE1*
X54991000Y-93726000D03*
X52959000Y-93726000D03*
X52959000Y-91694000D03*
X54991000Y-91694000D03*
X53975000Y-93726000D03*
X53975000Y-91694000D03*
G04 #@! TD*
G04 #@! TO.C,BITE2*
X209931000Y-93726000D03*
X207899000Y-93726000D03*
X207899000Y-91694000D03*
X209931000Y-91694000D03*
X208915000Y-93726000D03*
X208915000Y-91694000D03*
G04 #@! TD*
G04 #@! TO.C,BITE3*
X54356000Y-235966000D03*
X52324000Y-235966000D03*
X52324000Y-233934000D03*
X54356000Y-233934000D03*
X53340000Y-235966000D03*
X53340000Y-233934000D03*
G04 #@! TD*
G04 #@! TO.C,BITE4*
X96901000Y-235966000D03*
X94869000Y-235966000D03*
X94869000Y-233934000D03*
X96901000Y-233934000D03*
X95885000Y-235966000D03*
X95885000Y-233934000D03*
G04 #@! TD*
G04 #@! TO.C,BITE5*
X127381000Y-235966000D03*
X125349000Y-235966000D03*
X125349000Y-233934000D03*
X127381000Y-233934000D03*
X126365000Y-235966000D03*
X126365000Y-233934000D03*
G04 #@! TD*
G04 #@! TO.C,BITE6*
X137541000Y-235966000D03*
X135509000Y-235966000D03*
X135509000Y-233934000D03*
X137541000Y-233934000D03*
X136525000Y-235966000D03*
X136525000Y-233934000D03*
G04 #@! TD*
G04 #@! TO.C,BITE7*
X168021000Y-235966000D03*
X165989000Y-235966000D03*
X165989000Y-233934000D03*
X168021000Y-233934000D03*
X167005000Y-235966000D03*
X167005000Y-233934000D03*
G04 #@! TD*
G04 #@! TO.C,BITE8*
X210566000Y-235966000D03*
X208534000Y-235966000D03*
X208534000Y-233934000D03*
X210566000Y-233934000D03*
X209550000Y-235966000D03*
X209550000Y-233934000D03*
G04 #@! TD*
D39*
G04 #@! TO.C,J25*
X76073000Y-87630000D03*
X73533000Y-87630000D03*
X70993000Y-87630000D03*
X68453000Y-87630000D03*
G04 #@! TD*
G04 #@! TO.C,J24*
X191135000Y-87630000D03*
X193675000Y-87630000D03*
X196215000Y-87630000D03*
X198755000Y-87630000D03*
G04 #@! TD*
D19*
G04 #@! TO.C,J20*
X177165000Y-88900000D03*
D20*
X179705000Y-88900000D03*
D19*
X177165000Y-86360000D03*
X179705000Y-86360000D03*
X177165000Y-83820000D03*
X179705000Y-83820000D03*
G04 #@! TD*
D28*
G04 #@! TO.C,J8*
X136525000Y-88265000D03*
G04 #@! TD*
G04 #@! TO.C,J7*
X146685000Y-88265000D03*
G04 #@! TD*
G04 #@! TO.C,J2*
X106045000Y-88265000D03*
G04 #@! TD*
G04 #@! TO.C,J1*
X95885000Y-88265000D03*
G04 #@! TD*
G04 #@! TO.C,J9*
X95885000Y-131445000D03*
G04 #@! TD*
G04 #@! TO.C,J10*
X106045000Y-131445000D03*
G04 #@! TD*
G04 #@! TO.C,J15*
X146685000Y-131445000D03*
G04 #@! TD*
G04 #@! TO.C,J16*
X136525000Y-131445000D03*
G04 #@! TD*
D40*
G04 #@! TO.C,TP1*
G36*
X191574207Y-53176926D02*
X191613036Y-53182686D01*
X191651114Y-53192224D01*
X191688073Y-53205448D01*
X191723559Y-53222231D01*
X191757228Y-53242412D01*
X191788757Y-53265796D01*
X191817843Y-53292157D01*
X191844204Y-53321243D01*
X191867588Y-53352772D01*
X191887769Y-53386441D01*
X191904552Y-53421927D01*
X191917776Y-53458886D01*
X191927314Y-53496964D01*
X191933074Y-53535793D01*
X191935000Y-53575000D01*
X191935000Y-54375000D01*
X191933074Y-54414207D01*
X191927314Y-54453036D01*
X191917776Y-54491114D01*
X191904552Y-54528073D01*
X191887769Y-54563559D01*
X191867588Y-54597228D01*
X191844204Y-54628757D01*
X191817843Y-54657843D01*
X191788757Y-54684204D01*
X191757228Y-54707588D01*
X191723559Y-54727769D01*
X191688073Y-54744552D01*
X191651114Y-54757776D01*
X191613036Y-54767314D01*
X191574207Y-54773074D01*
X191535000Y-54775000D01*
X190735000Y-54775000D01*
X190695793Y-54773074D01*
X190656964Y-54767314D01*
X190618886Y-54757776D01*
X190581927Y-54744552D01*
X190546441Y-54727769D01*
X190512772Y-54707588D01*
X190481243Y-54684204D01*
X190452157Y-54657843D01*
X190425796Y-54628757D01*
X190402412Y-54597228D01*
X190382231Y-54563559D01*
X190365448Y-54528073D01*
X190352224Y-54491114D01*
X190342686Y-54453036D01*
X190336926Y-54414207D01*
X190335000Y-54375000D01*
X190335000Y-53575000D01*
X190336926Y-53535793D01*
X190342686Y-53496964D01*
X190352224Y-53458886D01*
X190365448Y-53421927D01*
X190382231Y-53386441D01*
X190402412Y-53352772D01*
X190425796Y-53321243D01*
X190452157Y-53292157D01*
X190481243Y-53265796D01*
X190512772Y-53242412D01*
X190546441Y-53222231D01*
X190581927Y-53205448D01*
X190618886Y-53192224D01*
X190656964Y-53182686D01*
X190695793Y-53176926D01*
X190735000Y-53175000D01*
X191535000Y-53175000D01*
X191574207Y-53176926D01*
X191574207Y-53176926D01*
G37*
D41*
X191135000Y-53975000D03*
G04 #@! TD*
D40*
G04 #@! TO.C,J23*
G36*
X182684207Y-88101926D02*
X182723036Y-88107686D01*
X182761114Y-88117224D01*
X182798073Y-88130448D01*
X182833559Y-88147231D01*
X182867228Y-88167412D01*
X182898757Y-88190796D01*
X182927843Y-88217157D01*
X182954204Y-88246243D01*
X182977588Y-88277772D01*
X182997769Y-88311441D01*
X183014552Y-88346927D01*
X183027776Y-88383886D01*
X183037314Y-88421964D01*
X183043074Y-88460793D01*
X183045000Y-88500000D01*
X183045000Y-89300000D01*
X183043074Y-89339207D01*
X183037314Y-89378036D01*
X183027776Y-89416114D01*
X183014552Y-89453073D01*
X182997769Y-89488559D01*
X182977588Y-89522228D01*
X182954204Y-89553757D01*
X182927843Y-89582843D01*
X182898757Y-89609204D01*
X182867228Y-89632588D01*
X182833559Y-89652769D01*
X182798073Y-89669552D01*
X182761114Y-89682776D01*
X182723036Y-89692314D01*
X182684207Y-89698074D01*
X182645000Y-89700000D01*
X181845000Y-89700000D01*
X181805793Y-89698074D01*
X181766964Y-89692314D01*
X181728886Y-89682776D01*
X181691927Y-89669552D01*
X181656441Y-89652769D01*
X181622772Y-89632588D01*
X181591243Y-89609204D01*
X181562157Y-89582843D01*
X181535796Y-89553757D01*
X181512412Y-89522228D01*
X181492231Y-89488559D01*
X181475448Y-89453073D01*
X181462224Y-89416114D01*
X181452686Y-89378036D01*
X181446926Y-89339207D01*
X181445000Y-89300000D01*
X181445000Y-88500000D01*
X181446926Y-88460793D01*
X181452686Y-88421964D01*
X181462224Y-88383886D01*
X181475448Y-88346927D01*
X181492231Y-88311441D01*
X181512412Y-88277772D01*
X181535796Y-88246243D01*
X181562157Y-88217157D01*
X181591243Y-88190796D01*
X181622772Y-88167412D01*
X181656441Y-88147231D01*
X181691927Y-88130448D01*
X181728886Y-88117224D01*
X181766964Y-88107686D01*
X181805793Y-88101926D01*
X181845000Y-88100000D01*
X182645000Y-88100000D01*
X182684207Y-88101926D01*
X182684207Y-88101926D01*
G37*
D41*
X182245000Y-88900000D03*
G04 #@! TD*
D40*
G04 #@! TO.C,J22*
G36*
X175064207Y-88101926D02*
X175103036Y-88107686D01*
X175141114Y-88117224D01*
X175178073Y-88130448D01*
X175213559Y-88147231D01*
X175247228Y-88167412D01*
X175278757Y-88190796D01*
X175307843Y-88217157D01*
X175334204Y-88246243D01*
X175357588Y-88277772D01*
X175377769Y-88311441D01*
X175394552Y-88346927D01*
X175407776Y-88383886D01*
X175417314Y-88421964D01*
X175423074Y-88460793D01*
X175425000Y-88500000D01*
X175425000Y-89300000D01*
X175423074Y-89339207D01*
X175417314Y-89378036D01*
X175407776Y-89416114D01*
X175394552Y-89453073D01*
X175377769Y-89488559D01*
X175357588Y-89522228D01*
X175334204Y-89553757D01*
X175307843Y-89582843D01*
X175278757Y-89609204D01*
X175247228Y-89632588D01*
X175213559Y-89652769D01*
X175178073Y-89669552D01*
X175141114Y-89682776D01*
X175103036Y-89692314D01*
X175064207Y-89698074D01*
X175025000Y-89700000D01*
X174225000Y-89700000D01*
X174185793Y-89698074D01*
X174146964Y-89692314D01*
X174108886Y-89682776D01*
X174071927Y-89669552D01*
X174036441Y-89652769D01*
X174002772Y-89632588D01*
X173971243Y-89609204D01*
X173942157Y-89582843D01*
X173915796Y-89553757D01*
X173892412Y-89522228D01*
X173872231Y-89488559D01*
X173855448Y-89453073D01*
X173842224Y-89416114D01*
X173832686Y-89378036D01*
X173826926Y-89339207D01*
X173825000Y-89300000D01*
X173825000Y-88500000D01*
X173826926Y-88460793D01*
X173832686Y-88421964D01*
X173842224Y-88383886D01*
X173855448Y-88346927D01*
X173872231Y-88311441D01*
X173892412Y-88277772D01*
X173915796Y-88246243D01*
X173942157Y-88217157D01*
X173971243Y-88190796D01*
X174002772Y-88167412D01*
X174036441Y-88147231D01*
X174071927Y-88130448D01*
X174108886Y-88117224D01*
X174146964Y-88107686D01*
X174185793Y-88101926D01*
X174225000Y-88100000D01*
X175025000Y-88100000D01*
X175064207Y-88101926D01*
X175064207Y-88101926D01*
G37*
D41*
X174625000Y-88900000D03*
G04 #@! TD*
D40*
G04 #@! TO.C,J21*
G36*
X182684207Y-85561926D02*
X182723036Y-85567686D01*
X182761114Y-85577224D01*
X182798073Y-85590448D01*
X182833559Y-85607231D01*
X182867228Y-85627412D01*
X182898757Y-85650796D01*
X182927843Y-85677157D01*
X182954204Y-85706243D01*
X182977588Y-85737772D01*
X182997769Y-85771441D01*
X183014552Y-85806927D01*
X183027776Y-85843886D01*
X183037314Y-85881964D01*
X183043074Y-85920793D01*
X183045000Y-85960000D01*
X183045000Y-86760000D01*
X183043074Y-86799207D01*
X183037314Y-86838036D01*
X183027776Y-86876114D01*
X183014552Y-86913073D01*
X182997769Y-86948559D01*
X182977588Y-86982228D01*
X182954204Y-87013757D01*
X182927843Y-87042843D01*
X182898757Y-87069204D01*
X182867228Y-87092588D01*
X182833559Y-87112769D01*
X182798073Y-87129552D01*
X182761114Y-87142776D01*
X182723036Y-87152314D01*
X182684207Y-87158074D01*
X182645000Y-87160000D01*
X181845000Y-87160000D01*
X181805793Y-87158074D01*
X181766964Y-87152314D01*
X181728886Y-87142776D01*
X181691927Y-87129552D01*
X181656441Y-87112769D01*
X181622772Y-87092588D01*
X181591243Y-87069204D01*
X181562157Y-87042843D01*
X181535796Y-87013757D01*
X181512412Y-86982228D01*
X181492231Y-86948559D01*
X181475448Y-86913073D01*
X181462224Y-86876114D01*
X181452686Y-86838036D01*
X181446926Y-86799207D01*
X181445000Y-86760000D01*
X181445000Y-85960000D01*
X181446926Y-85920793D01*
X181452686Y-85881964D01*
X181462224Y-85843886D01*
X181475448Y-85806927D01*
X181492231Y-85771441D01*
X181512412Y-85737772D01*
X181535796Y-85706243D01*
X181562157Y-85677157D01*
X181591243Y-85650796D01*
X181622772Y-85627412D01*
X181656441Y-85607231D01*
X181691927Y-85590448D01*
X181728886Y-85577224D01*
X181766964Y-85567686D01*
X181805793Y-85561926D01*
X181845000Y-85560000D01*
X182645000Y-85560000D01*
X182684207Y-85561926D01*
X182684207Y-85561926D01*
G37*
D41*
X182245000Y-86360000D03*
G04 #@! TD*
D40*
G04 #@! TO.C,J19*
G36*
X175064207Y-85561926D02*
X175103036Y-85567686D01*
X175141114Y-85577224D01*
X175178073Y-85590448D01*
X175213559Y-85607231D01*
X175247228Y-85627412D01*
X175278757Y-85650796D01*
X175307843Y-85677157D01*
X175334204Y-85706243D01*
X175357588Y-85737772D01*
X175377769Y-85771441D01*
X175394552Y-85806927D01*
X175407776Y-85843886D01*
X175417314Y-85881964D01*
X175423074Y-85920793D01*
X175425000Y-85960000D01*
X175425000Y-86760000D01*
X175423074Y-86799207D01*
X175417314Y-86838036D01*
X175407776Y-86876114D01*
X175394552Y-86913073D01*
X175377769Y-86948559D01*
X175357588Y-86982228D01*
X175334204Y-87013757D01*
X175307843Y-87042843D01*
X175278757Y-87069204D01*
X175247228Y-87092588D01*
X175213559Y-87112769D01*
X175178073Y-87129552D01*
X175141114Y-87142776D01*
X175103036Y-87152314D01*
X175064207Y-87158074D01*
X175025000Y-87160000D01*
X174225000Y-87160000D01*
X174185793Y-87158074D01*
X174146964Y-87152314D01*
X174108886Y-87142776D01*
X174071927Y-87129552D01*
X174036441Y-87112769D01*
X174002772Y-87092588D01*
X173971243Y-87069204D01*
X173942157Y-87042843D01*
X173915796Y-87013757D01*
X173892412Y-86982228D01*
X173872231Y-86948559D01*
X173855448Y-86913073D01*
X173842224Y-86876114D01*
X173832686Y-86838036D01*
X173826926Y-86799207D01*
X173825000Y-86760000D01*
X173825000Y-85960000D01*
X173826926Y-85920793D01*
X173832686Y-85881964D01*
X173842224Y-85843886D01*
X173855448Y-85806927D01*
X173872231Y-85771441D01*
X173892412Y-85737772D01*
X173915796Y-85706243D01*
X173942157Y-85677157D01*
X173971243Y-85650796D01*
X174002772Y-85627412D01*
X174036441Y-85607231D01*
X174071927Y-85590448D01*
X174108886Y-85577224D01*
X174146964Y-85567686D01*
X174185793Y-85561926D01*
X174225000Y-85560000D01*
X175025000Y-85560000D01*
X175064207Y-85561926D01*
X175064207Y-85561926D01*
G37*
D41*
X174625000Y-86360000D03*
G04 #@! TD*
D40*
G04 #@! TO.C,J18*
G36*
X182684207Y-83021926D02*
X182723036Y-83027686D01*
X182761114Y-83037224D01*
X182798073Y-83050448D01*
X182833559Y-83067231D01*
X182867228Y-83087412D01*
X182898757Y-83110796D01*
X182927843Y-83137157D01*
X182954204Y-83166243D01*
X182977588Y-83197772D01*
X182997769Y-83231441D01*
X183014552Y-83266927D01*
X183027776Y-83303886D01*
X183037314Y-83341964D01*
X183043074Y-83380793D01*
X183045000Y-83420000D01*
X183045000Y-84220000D01*
X183043074Y-84259207D01*
X183037314Y-84298036D01*
X183027776Y-84336114D01*
X183014552Y-84373073D01*
X182997769Y-84408559D01*
X182977588Y-84442228D01*
X182954204Y-84473757D01*
X182927843Y-84502843D01*
X182898757Y-84529204D01*
X182867228Y-84552588D01*
X182833559Y-84572769D01*
X182798073Y-84589552D01*
X182761114Y-84602776D01*
X182723036Y-84612314D01*
X182684207Y-84618074D01*
X182645000Y-84620000D01*
X181845000Y-84620000D01*
X181805793Y-84618074D01*
X181766964Y-84612314D01*
X181728886Y-84602776D01*
X181691927Y-84589552D01*
X181656441Y-84572769D01*
X181622772Y-84552588D01*
X181591243Y-84529204D01*
X181562157Y-84502843D01*
X181535796Y-84473757D01*
X181512412Y-84442228D01*
X181492231Y-84408559D01*
X181475448Y-84373073D01*
X181462224Y-84336114D01*
X181452686Y-84298036D01*
X181446926Y-84259207D01*
X181445000Y-84220000D01*
X181445000Y-83420000D01*
X181446926Y-83380793D01*
X181452686Y-83341964D01*
X181462224Y-83303886D01*
X181475448Y-83266927D01*
X181492231Y-83231441D01*
X181512412Y-83197772D01*
X181535796Y-83166243D01*
X181562157Y-83137157D01*
X181591243Y-83110796D01*
X181622772Y-83087412D01*
X181656441Y-83067231D01*
X181691927Y-83050448D01*
X181728886Y-83037224D01*
X181766964Y-83027686D01*
X181805793Y-83021926D01*
X181845000Y-83020000D01*
X182645000Y-83020000D01*
X182684207Y-83021926D01*
X182684207Y-83021926D01*
G37*
D41*
X182245000Y-83820000D03*
G04 #@! TD*
D40*
G04 #@! TO.C,J17*
G36*
X175064207Y-83021926D02*
X175103036Y-83027686D01*
X175141114Y-83037224D01*
X175178073Y-83050448D01*
X175213559Y-83067231D01*
X175247228Y-83087412D01*
X175278757Y-83110796D01*
X175307843Y-83137157D01*
X175334204Y-83166243D01*
X175357588Y-83197772D01*
X175377769Y-83231441D01*
X175394552Y-83266927D01*
X175407776Y-83303886D01*
X175417314Y-83341964D01*
X175423074Y-83380793D01*
X175425000Y-83420000D01*
X175425000Y-84220000D01*
X175423074Y-84259207D01*
X175417314Y-84298036D01*
X175407776Y-84336114D01*
X175394552Y-84373073D01*
X175377769Y-84408559D01*
X175357588Y-84442228D01*
X175334204Y-84473757D01*
X175307843Y-84502843D01*
X175278757Y-84529204D01*
X175247228Y-84552588D01*
X175213559Y-84572769D01*
X175178073Y-84589552D01*
X175141114Y-84602776D01*
X175103036Y-84612314D01*
X175064207Y-84618074D01*
X175025000Y-84620000D01*
X174225000Y-84620000D01*
X174185793Y-84618074D01*
X174146964Y-84612314D01*
X174108886Y-84602776D01*
X174071927Y-84589552D01*
X174036441Y-84572769D01*
X174002772Y-84552588D01*
X173971243Y-84529204D01*
X173942157Y-84502843D01*
X173915796Y-84473757D01*
X173892412Y-84442228D01*
X173872231Y-84408559D01*
X173855448Y-84373073D01*
X173842224Y-84336114D01*
X173832686Y-84298036D01*
X173826926Y-84259207D01*
X173825000Y-84220000D01*
X173825000Y-83420000D01*
X173826926Y-83380793D01*
X173832686Y-83341964D01*
X173842224Y-83303886D01*
X173855448Y-83266927D01*
X173872231Y-83231441D01*
X173892412Y-83197772D01*
X173915796Y-83166243D01*
X173942157Y-83137157D01*
X173971243Y-83110796D01*
X174002772Y-83087412D01*
X174036441Y-83067231D01*
X174071927Y-83050448D01*
X174108886Y-83037224D01*
X174146964Y-83027686D01*
X174185793Y-83021926D01*
X174225000Y-83020000D01*
X175025000Y-83020000D01*
X175064207Y-83021926D01*
X175064207Y-83021926D01*
G37*
D41*
X174625000Y-83820000D03*
G04 #@! TD*
D40*
G04 #@! TO.C,TP3*
G36*
X196654207Y-53176926D02*
X196693036Y-53182686D01*
X196731114Y-53192224D01*
X196768073Y-53205448D01*
X196803559Y-53222231D01*
X196837228Y-53242412D01*
X196868757Y-53265796D01*
X196897843Y-53292157D01*
X196924204Y-53321243D01*
X196947588Y-53352772D01*
X196967769Y-53386441D01*
X196984552Y-53421927D01*
X196997776Y-53458886D01*
X197007314Y-53496964D01*
X197013074Y-53535793D01*
X197015000Y-53575000D01*
X197015000Y-54375000D01*
X197013074Y-54414207D01*
X197007314Y-54453036D01*
X196997776Y-54491114D01*
X196984552Y-54528073D01*
X196967769Y-54563559D01*
X196947588Y-54597228D01*
X196924204Y-54628757D01*
X196897843Y-54657843D01*
X196868757Y-54684204D01*
X196837228Y-54707588D01*
X196803559Y-54727769D01*
X196768073Y-54744552D01*
X196731114Y-54757776D01*
X196693036Y-54767314D01*
X196654207Y-54773074D01*
X196615000Y-54775000D01*
X195815000Y-54775000D01*
X195775793Y-54773074D01*
X195736964Y-54767314D01*
X195698886Y-54757776D01*
X195661927Y-54744552D01*
X195626441Y-54727769D01*
X195592772Y-54707588D01*
X195561243Y-54684204D01*
X195532157Y-54657843D01*
X195505796Y-54628757D01*
X195482412Y-54597228D01*
X195462231Y-54563559D01*
X195445448Y-54528073D01*
X195432224Y-54491114D01*
X195422686Y-54453036D01*
X195416926Y-54414207D01*
X195415000Y-54375000D01*
X195415000Y-53575000D01*
X195416926Y-53535793D01*
X195422686Y-53496964D01*
X195432224Y-53458886D01*
X195445448Y-53421927D01*
X195462231Y-53386441D01*
X195482412Y-53352772D01*
X195505796Y-53321243D01*
X195532157Y-53292157D01*
X195561243Y-53265796D01*
X195592772Y-53242412D01*
X195626441Y-53222231D01*
X195661927Y-53205448D01*
X195698886Y-53192224D01*
X195736964Y-53182686D01*
X195775793Y-53176926D01*
X195815000Y-53175000D01*
X196615000Y-53175000D01*
X196654207Y-53176926D01*
X196654207Y-53176926D01*
G37*
D41*
X196215000Y-53975000D03*
G04 #@! TD*
D40*
G04 #@! TO.C,TP2*
G36*
X194114207Y-53176926D02*
X194153036Y-53182686D01*
X194191114Y-53192224D01*
X194228073Y-53205448D01*
X194263559Y-53222231D01*
X194297228Y-53242412D01*
X194328757Y-53265796D01*
X194357843Y-53292157D01*
X194384204Y-53321243D01*
X194407588Y-53352772D01*
X194427769Y-53386441D01*
X194444552Y-53421927D01*
X194457776Y-53458886D01*
X194467314Y-53496964D01*
X194473074Y-53535793D01*
X194475000Y-53575000D01*
X194475000Y-54375000D01*
X194473074Y-54414207D01*
X194467314Y-54453036D01*
X194457776Y-54491114D01*
X194444552Y-54528073D01*
X194427769Y-54563559D01*
X194407588Y-54597228D01*
X194384204Y-54628757D01*
X194357843Y-54657843D01*
X194328757Y-54684204D01*
X194297228Y-54707588D01*
X194263559Y-54727769D01*
X194228073Y-54744552D01*
X194191114Y-54757776D01*
X194153036Y-54767314D01*
X194114207Y-54773074D01*
X194075000Y-54775000D01*
X193275000Y-54775000D01*
X193235793Y-54773074D01*
X193196964Y-54767314D01*
X193158886Y-54757776D01*
X193121927Y-54744552D01*
X193086441Y-54727769D01*
X193052772Y-54707588D01*
X193021243Y-54684204D01*
X192992157Y-54657843D01*
X192965796Y-54628757D01*
X192942412Y-54597228D01*
X192922231Y-54563559D01*
X192905448Y-54528073D01*
X192892224Y-54491114D01*
X192882686Y-54453036D01*
X192876926Y-54414207D01*
X192875000Y-54375000D01*
X192875000Y-53575000D01*
X192876926Y-53535793D01*
X192882686Y-53496964D01*
X192892224Y-53458886D01*
X192905448Y-53421927D01*
X192922231Y-53386441D01*
X192942412Y-53352772D01*
X192965796Y-53321243D01*
X192992157Y-53292157D01*
X193021243Y-53265796D01*
X193052772Y-53242412D01*
X193086441Y-53222231D01*
X193121927Y-53205448D01*
X193158886Y-53192224D01*
X193196964Y-53182686D01*
X193235793Y-53176926D01*
X193275000Y-53175000D01*
X194075000Y-53175000D01*
X194114207Y-53176926D01*
X194114207Y-53176926D01*
G37*
D41*
X193675000Y-53975000D03*
G04 #@! TD*
D42*
G04 #@! TO.C,LDR1*
X85725000Y-53975000D03*
D43*
X84225000Y-53975000D03*
X87225000Y-53975000D03*
D44*
X88265000Y-53975000D03*
X83185000Y-53975000D03*
G04 #@! TD*
D42*
G04 #@! TO.C,LDR2*
X177165000Y-53975000D03*
D43*
X178665000Y-53975000D03*
X175665000Y-53975000D03*
D44*
X174625000Y-53975000D03*
X179705000Y-53975000D03*
G04 #@! TD*
D45*
G04 #@! TO.C,U130*
X176959260Y-76835000D03*
X176959260Y-75565000D03*
X176959260Y-74295000D03*
X176959260Y-73025000D03*
X176959260Y-71755000D03*
X176959260Y-70485000D03*
X176959260Y-69215000D03*
X176959260Y-67945000D03*
X186260740Y-67945000D03*
X186260740Y-69215000D03*
X186260740Y-70485000D03*
X186260740Y-71755000D03*
X186260740Y-73025000D03*
X186260740Y-74295000D03*
X186260740Y-75565000D03*
X186260740Y-76835000D03*
G04 #@! TD*
D46*
G04 #@! TO.C,C17*
X104500000Y-70936000D03*
X104500000Y-79064000D03*
G04 #@! TD*
G04 #@! TO.C,C27*
X135186000Y-54500000D03*
X143314000Y-54500000D03*
G04 #@! TD*
G04 #@! TO.C,C18*
X122682000Y-70866000D03*
X122682000Y-78994000D03*
G04 #@! TD*
G04 #@! TO.C,C25*
X85524000Y-88064000D03*
X85524000Y-79936000D03*
G04 #@! TD*
G04 #@! TO.C,C23*
X80524000Y-88064000D03*
X80524000Y-79936000D03*
G04 #@! TD*
D15*
G04 #@! TO.C,U127*
X67605000Y-224460000D03*
X63205000Y-224460000D03*
X63205000Y-226060000D03*
X67605000Y-226060000D03*
X67605000Y-227660000D03*
X63205000Y-227660000D03*
G04 #@! TD*
G04 #@! TO.C,U18*
X199685000Y-117780000D03*
X195285000Y-117780000D03*
X195285000Y-119380000D03*
X199685000Y-119380000D03*
X199685000Y-120980000D03*
X195285000Y-120980000D03*
G04 #@! TD*
G04 #@! TO.C,U1*
X53045000Y-103200000D03*
X57445000Y-103200000D03*
X57445000Y-101600000D03*
X53045000Y-101600000D03*
X53045000Y-100000000D03*
X57445000Y-100000000D03*
G04 #@! TD*
G04 #@! TO.C,U3*
X73365000Y-103200000D03*
X77765000Y-103200000D03*
X77765000Y-101600000D03*
X73365000Y-101600000D03*
X73365000Y-100000000D03*
X77765000Y-100000000D03*
G04 #@! TD*
G04 #@! TO.C,U4*
X83525000Y-103200000D03*
X87925000Y-103200000D03*
X87925000Y-101600000D03*
X83525000Y-101600000D03*
X83525000Y-100000000D03*
X87925000Y-100000000D03*
G04 #@! TD*
G04 #@! TO.C,U5*
X93685000Y-103200000D03*
X98085000Y-103200000D03*
X98085000Y-101600000D03*
X93685000Y-101600000D03*
X93685000Y-100000000D03*
X98085000Y-100000000D03*
G04 #@! TD*
G04 #@! TO.C,U6*
X103845000Y-103200000D03*
X108245000Y-103200000D03*
X108245000Y-101600000D03*
X103845000Y-101600000D03*
X103845000Y-100000000D03*
X108245000Y-100000000D03*
G04 #@! TD*
G04 #@! TO.C,U7*
X114005000Y-103200000D03*
X118405000Y-103200000D03*
X118405000Y-101600000D03*
X114005000Y-101600000D03*
X114005000Y-100000000D03*
X118405000Y-100000000D03*
G04 #@! TD*
G04 #@! TO.C,U8*
X124165000Y-103200000D03*
X128565000Y-103200000D03*
X128565000Y-101600000D03*
X124165000Y-101600000D03*
X124165000Y-100000000D03*
X128565000Y-100000000D03*
G04 #@! TD*
G04 #@! TO.C,U9*
X134325000Y-103200000D03*
X138725000Y-103200000D03*
X138725000Y-101600000D03*
X134325000Y-101600000D03*
X134325000Y-100000000D03*
X138725000Y-100000000D03*
G04 #@! TD*
G04 #@! TO.C,U10*
X144485000Y-103200000D03*
X148885000Y-103200000D03*
X148885000Y-101600000D03*
X144485000Y-101600000D03*
X144485000Y-100000000D03*
X148885000Y-100000000D03*
G04 #@! TD*
G04 #@! TO.C,U11*
X154645000Y-103200000D03*
X159045000Y-103200000D03*
X159045000Y-101600000D03*
X154645000Y-101600000D03*
X154645000Y-100000000D03*
X159045000Y-100000000D03*
G04 #@! TD*
G04 #@! TO.C,U12*
X164805000Y-103200000D03*
X169205000Y-103200000D03*
X169205000Y-101600000D03*
X164805000Y-101600000D03*
X164805000Y-100000000D03*
X169205000Y-100000000D03*
G04 #@! TD*
G04 #@! TO.C,U13*
X174965000Y-103200000D03*
X179365000Y-103200000D03*
X179365000Y-101600000D03*
X174965000Y-101600000D03*
X174965000Y-100000000D03*
X179365000Y-100000000D03*
G04 #@! TD*
G04 #@! TO.C,U14*
X185125000Y-103200000D03*
X189525000Y-103200000D03*
X189525000Y-101600000D03*
X185125000Y-101600000D03*
X185125000Y-100000000D03*
X189525000Y-100000000D03*
G04 #@! TD*
G04 #@! TO.C,U15*
X195285000Y-103200000D03*
X199685000Y-103200000D03*
X199685000Y-101600000D03*
X195285000Y-101600000D03*
X195285000Y-100000000D03*
X199685000Y-100000000D03*
G04 #@! TD*
G04 #@! TO.C,U16*
X205445000Y-103200000D03*
X209845000Y-103200000D03*
X209845000Y-101600000D03*
X205445000Y-101600000D03*
X205445000Y-100000000D03*
X209845000Y-100000000D03*
G04 #@! TD*
G04 #@! TO.C,U17*
X209845000Y-117780000D03*
X205445000Y-117780000D03*
X205445000Y-119380000D03*
X209845000Y-119380000D03*
X209845000Y-120980000D03*
X205445000Y-120980000D03*
G04 #@! TD*
G04 #@! TO.C,U19*
X189525000Y-117780000D03*
X185125000Y-117780000D03*
X185125000Y-119380000D03*
X189525000Y-119380000D03*
X189525000Y-120980000D03*
X185125000Y-120980000D03*
G04 #@! TD*
G04 #@! TO.C,U20*
X179365000Y-117780000D03*
X174965000Y-117780000D03*
X174965000Y-119380000D03*
X179365000Y-119380000D03*
X179365000Y-120980000D03*
X174965000Y-120980000D03*
G04 #@! TD*
G04 #@! TO.C,U21*
X169205000Y-117780000D03*
X164805000Y-117780000D03*
X164805000Y-119380000D03*
X169205000Y-119380000D03*
X169205000Y-120980000D03*
X164805000Y-120980000D03*
G04 #@! TD*
G04 #@! TO.C,U22*
X159045000Y-117780000D03*
X154645000Y-117780000D03*
X154645000Y-119380000D03*
X159045000Y-119380000D03*
X159045000Y-120980000D03*
X154645000Y-120980000D03*
G04 #@! TD*
G04 #@! TO.C,U23*
X148885000Y-117780000D03*
X144485000Y-117780000D03*
X144485000Y-119380000D03*
X148885000Y-119380000D03*
X148885000Y-120980000D03*
X144485000Y-120980000D03*
G04 #@! TD*
G04 #@! TO.C,U24*
X138725000Y-117780000D03*
X134325000Y-117780000D03*
X134325000Y-119380000D03*
X138725000Y-119380000D03*
X138725000Y-120980000D03*
X134325000Y-120980000D03*
G04 #@! TD*
G04 #@! TO.C,U25*
X128565000Y-117780000D03*
X124165000Y-117780000D03*
X124165000Y-119380000D03*
X128565000Y-119380000D03*
X128565000Y-120980000D03*
X124165000Y-120980000D03*
G04 #@! TD*
G04 #@! TO.C,U26*
X118405000Y-117780000D03*
X114005000Y-117780000D03*
X114005000Y-119380000D03*
X118405000Y-119380000D03*
X118405000Y-120980000D03*
X114005000Y-120980000D03*
G04 #@! TD*
G04 #@! TO.C,U27*
X108245000Y-117780000D03*
X103845000Y-117780000D03*
X103845000Y-119380000D03*
X108245000Y-119380000D03*
X108245000Y-120980000D03*
X103845000Y-120980000D03*
G04 #@! TD*
G04 #@! TO.C,U28*
X98085000Y-117780000D03*
X93685000Y-117780000D03*
X93685000Y-119380000D03*
X98085000Y-119380000D03*
X98085000Y-120980000D03*
X93685000Y-120980000D03*
G04 #@! TD*
G04 #@! TO.C,U29*
X87925000Y-117780000D03*
X83525000Y-117780000D03*
X83525000Y-119380000D03*
X87925000Y-119380000D03*
X87925000Y-120980000D03*
X83525000Y-120980000D03*
G04 #@! TD*
G04 #@! TO.C,U30*
X77765000Y-117780000D03*
X73365000Y-117780000D03*
X73365000Y-119380000D03*
X77765000Y-119380000D03*
X77765000Y-120980000D03*
X73365000Y-120980000D03*
G04 #@! TD*
G04 #@! TO.C,U31*
X67605000Y-117780000D03*
X63205000Y-117780000D03*
X63205000Y-119380000D03*
X67605000Y-119380000D03*
X67605000Y-120980000D03*
X63205000Y-120980000D03*
G04 #@! TD*
G04 #@! TO.C,U32*
X57445000Y-117780000D03*
X53045000Y-117780000D03*
X53045000Y-119380000D03*
X57445000Y-119380000D03*
X57445000Y-120980000D03*
X53045000Y-120980000D03*
G04 #@! TD*
G04 #@! TO.C,U33*
X53045000Y-138760000D03*
X57445000Y-138760000D03*
X57445000Y-137160000D03*
X53045000Y-137160000D03*
X53045000Y-135560000D03*
X57445000Y-135560000D03*
G04 #@! TD*
G04 #@! TO.C,U34*
X63205000Y-138760000D03*
X67605000Y-138760000D03*
X67605000Y-137160000D03*
X63205000Y-137160000D03*
X63205000Y-135560000D03*
X67605000Y-135560000D03*
G04 #@! TD*
G04 #@! TO.C,U35*
X73365000Y-138760000D03*
X77765000Y-138760000D03*
X77765000Y-137160000D03*
X73365000Y-137160000D03*
X73365000Y-135560000D03*
X77765000Y-135560000D03*
G04 #@! TD*
G04 #@! TO.C,U36*
X83525000Y-138760000D03*
X87925000Y-138760000D03*
X87925000Y-137160000D03*
X83525000Y-137160000D03*
X83525000Y-135560000D03*
X87925000Y-135560000D03*
G04 #@! TD*
G04 #@! TO.C,U37*
X93685000Y-138760000D03*
X98085000Y-138760000D03*
X98085000Y-137160000D03*
X93685000Y-137160000D03*
X93685000Y-135560000D03*
X98085000Y-135560000D03*
G04 #@! TD*
G04 #@! TO.C,U38*
X103845000Y-138760000D03*
X108245000Y-138760000D03*
X108245000Y-137160000D03*
X103845000Y-137160000D03*
X103845000Y-135560000D03*
X108245000Y-135560000D03*
G04 #@! TD*
G04 #@! TO.C,U39*
X114005000Y-138760000D03*
X118405000Y-138760000D03*
X118405000Y-137160000D03*
X114005000Y-137160000D03*
X114005000Y-135560000D03*
X118405000Y-135560000D03*
G04 #@! TD*
G04 #@! TO.C,U40*
X124165000Y-138760000D03*
X128565000Y-138760000D03*
X128565000Y-137160000D03*
X124165000Y-137160000D03*
X124165000Y-135560000D03*
X128565000Y-135560000D03*
G04 #@! TD*
G04 #@! TO.C,U41*
X134325000Y-138760000D03*
X138725000Y-138760000D03*
X138725000Y-137160000D03*
X134325000Y-137160000D03*
X134325000Y-135560000D03*
X138725000Y-135560000D03*
G04 #@! TD*
G04 #@! TO.C,U42*
X144485000Y-138760000D03*
X148885000Y-138760000D03*
X148885000Y-137160000D03*
X144485000Y-137160000D03*
X144485000Y-135560000D03*
X148885000Y-135560000D03*
G04 #@! TD*
G04 #@! TO.C,U43*
X154645000Y-138760000D03*
X159045000Y-138760000D03*
X159045000Y-137160000D03*
X154645000Y-137160000D03*
X154645000Y-135560000D03*
X159045000Y-135560000D03*
G04 #@! TD*
G04 #@! TO.C,U44*
X164805000Y-138760000D03*
X169205000Y-138760000D03*
X169205000Y-137160000D03*
X164805000Y-137160000D03*
X164805000Y-135560000D03*
X169205000Y-135560000D03*
G04 #@! TD*
G04 #@! TO.C,U45*
X174965000Y-138760000D03*
X179365000Y-138760000D03*
X179365000Y-137160000D03*
X174965000Y-137160000D03*
X174965000Y-135560000D03*
X179365000Y-135560000D03*
G04 #@! TD*
G04 #@! TO.C,U46*
X185125000Y-138760000D03*
X189525000Y-138760000D03*
X189525000Y-137160000D03*
X185125000Y-137160000D03*
X185125000Y-135560000D03*
X189525000Y-135560000D03*
G04 #@! TD*
G04 #@! TO.C,U47*
X195285000Y-138760000D03*
X199685000Y-138760000D03*
X199685000Y-137160000D03*
X195285000Y-137160000D03*
X195285000Y-135560000D03*
X199685000Y-135560000D03*
G04 #@! TD*
G04 #@! TO.C,U48*
X205445000Y-138760000D03*
X209845000Y-138760000D03*
X209845000Y-137160000D03*
X205445000Y-137160000D03*
X205445000Y-135560000D03*
X209845000Y-135560000D03*
G04 #@! TD*
G04 #@! TO.C,U49*
X209845000Y-153340000D03*
X205445000Y-153340000D03*
X205445000Y-154940000D03*
X209845000Y-154940000D03*
X209845000Y-156540000D03*
X205445000Y-156540000D03*
G04 #@! TD*
G04 #@! TO.C,U50*
X199685000Y-153340000D03*
X195285000Y-153340000D03*
X195285000Y-154940000D03*
X199685000Y-154940000D03*
X199685000Y-156540000D03*
X195285000Y-156540000D03*
G04 #@! TD*
G04 #@! TO.C,U51*
X189525000Y-153340000D03*
X185125000Y-153340000D03*
X185125000Y-154940000D03*
X189525000Y-154940000D03*
X189525000Y-156540000D03*
X185125000Y-156540000D03*
G04 #@! TD*
G04 #@! TO.C,U52*
X179365000Y-153340000D03*
X174965000Y-153340000D03*
X174965000Y-154940000D03*
X179365000Y-154940000D03*
X179365000Y-156540000D03*
X174965000Y-156540000D03*
G04 #@! TD*
G04 #@! TO.C,U53*
X169205000Y-153340000D03*
X164805000Y-153340000D03*
X164805000Y-154940000D03*
X169205000Y-154940000D03*
X169205000Y-156540000D03*
X164805000Y-156540000D03*
G04 #@! TD*
G04 #@! TO.C,U54*
X159045000Y-153340000D03*
X154645000Y-153340000D03*
X154645000Y-154940000D03*
X159045000Y-154940000D03*
X159045000Y-156540000D03*
X154645000Y-156540000D03*
G04 #@! TD*
G04 #@! TO.C,U55*
X148885000Y-153340000D03*
X144485000Y-153340000D03*
X144485000Y-154940000D03*
X148885000Y-154940000D03*
X148885000Y-156540000D03*
X144485000Y-156540000D03*
G04 #@! TD*
G04 #@! TO.C,U56*
X138725000Y-153340000D03*
X134325000Y-153340000D03*
X134325000Y-154940000D03*
X138725000Y-154940000D03*
X138725000Y-156540000D03*
X134325000Y-156540000D03*
G04 #@! TD*
G04 #@! TO.C,U57*
X128565000Y-153340000D03*
X124165000Y-153340000D03*
X124165000Y-154940000D03*
X128565000Y-154940000D03*
X128565000Y-156540000D03*
X124165000Y-156540000D03*
G04 #@! TD*
G04 #@! TO.C,U58*
X118405000Y-153340000D03*
X114005000Y-153340000D03*
X114005000Y-154940000D03*
X118405000Y-154940000D03*
X118405000Y-156540000D03*
X114005000Y-156540000D03*
G04 #@! TD*
G04 #@! TO.C,U59*
X108245000Y-153340000D03*
X103845000Y-153340000D03*
X103845000Y-154940000D03*
X108245000Y-154940000D03*
X108245000Y-156540000D03*
X103845000Y-156540000D03*
G04 #@! TD*
G04 #@! TO.C,U60*
X98085000Y-153340000D03*
X93685000Y-153340000D03*
X93685000Y-154940000D03*
X98085000Y-154940000D03*
X98085000Y-156540000D03*
X93685000Y-156540000D03*
G04 #@! TD*
G04 #@! TO.C,U61*
X87925000Y-153340000D03*
X83525000Y-153340000D03*
X83525000Y-154940000D03*
X87925000Y-154940000D03*
X87925000Y-156540000D03*
X83525000Y-156540000D03*
G04 #@! TD*
G04 #@! TO.C,U62*
X77765000Y-153340000D03*
X73365000Y-153340000D03*
X73365000Y-154940000D03*
X77765000Y-154940000D03*
X77765000Y-156540000D03*
X73365000Y-156540000D03*
G04 #@! TD*
G04 #@! TO.C,U63*
X67605000Y-153340000D03*
X63205000Y-153340000D03*
X63205000Y-154940000D03*
X67605000Y-154940000D03*
X67605000Y-156540000D03*
X63205000Y-156540000D03*
G04 #@! TD*
G04 #@! TO.C,U64*
X57445000Y-153340000D03*
X53045000Y-153340000D03*
X53045000Y-154940000D03*
X57445000Y-154940000D03*
X57445000Y-156540000D03*
X53045000Y-156540000D03*
G04 #@! TD*
G04 #@! TO.C,U65*
X53045000Y-174320000D03*
X57445000Y-174320000D03*
X57445000Y-172720000D03*
X53045000Y-172720000D03*
X53045000Y-171120000D03*
X57445000Y-171120000D03*
G04 #@! TD*
G04 #@! TO.C,U66*
X63205000Y-174320000D03*
X67605000Y-174320000D03*
X67605000Y-172720000D03*
X63205000Y-172720000D03*
X63205000Y-171120000D03*
X67605000Y-171120000D03*
G04 #@! TD*
G04 #@! TO.C,U67*
X73365000Y-174320000D03*
X77765000Y-174320000D03*
X77765000Y-172720000D03*
X73365000Y-172720000D03*
X73365000Y-171120000D03*
X77765000Y-171120000D03*
G04 #@! TD*
G04 #@! TO.C,U68*
X83525000Y-174320000D03*
X87925000Y-174320000D03*
X87925000Y-172720000D03*
X83525000Y-172720000D03*
X83525000Y-171120000D03*
X87925000Y-171120000D03*
G04 #@! TD*
G04 #@! TO.C,U69*
X93685000Y-174320000D03*
X98085000Y-174320000D03*
X98085000Y-172720000D03*
X93685000Y-172720000D03*
X93685000Y-171120000D03*
X98085000Y-171120000D03*
G04 #@! TD*
G04 #@! TO.C,U70*
X103845000Y-174320000D03*
X108245000Y-174320000D03*
X108245000Y-172720000D03*
X103845000Y-172720000D03*
X103845000Y-171120000D03*
X108245000Y-171120000D03*
G04 #@! TD*
G04 #@! TO.C,U71*
X114005000Y-174320000D03*
X118405000Y-174320000D03*
X118405000Y-172720000D03*
X114005000Y-172720000D03*
X114005000Y-171120000D03*
X118405000Y-171120000D03*
G04 #@! TD*
G04 #@! TO.C,U72*
X124165000Y-174320000D03*
X128565000Y-174320000D03*
X128565000Y-172720000D03*
X124165000Y-172720000D03*
X124165000Y-171120000D03*
X128565000Y-171120000D03*
G04 #@! TD*
G04 #@! TO.C,U73*
X134325000Y-174320000D03*
X138725000Y-174320000D03*
X138725000Y-172720000D03*
X134325000Y-172720000D03*
X134325000Y-171120000D03*
X138725000Y-171120000D03*
G04 #@! TD*
G04 #@! TO.C,U74*
X144485000Y-174320000D03*
X148885000Y-174320000D03*
X148885000Y-172720000D03*
X144485000Y-172720000D03*
X144485000Y-171120000D03*
X148885000Y-171120000D03*
G04 #@! TD*
G04 #@! TO.C,U75*
X154645000Y-174320000D03*
X159045000Y-174320000D03*
X159045000Y-172720000D03*
X154645000Y-172720000D03*
X154645000Y-171120000D03*
X159045000Y-171120000D03*
G04 #@! TD*
G04 #@! TO.C,U76*
X164805000Y-174320000D03*
X169205000Y-174320000D03*
X169205000Y-172720000D03*
X164805000Y-172720000D03*
X164805000Y-171120000D03*
X169205000Y-171120000D03*
G04 #@! TD*
G04 #@! TO.C,U77*
X174965000Y-174320000D03*
X179365000Y-174320000D03*
X179365000Y-172720000D03*
X174965000Y-172720000D03*
X174965000Y-171120000D03*
X179365000Y-171120000D03*
G04 #@! TD*
G04 #@! TO.C,U78*
X185125000Y-174320000D03*
X189525000Y-174320000D03*
X189525000Y-172720000D03*
X185125000Y-172720000D03*
X185125000Y-171120000D03*
X189525000Y-171120000D03*
G04 #@! TD*
G04 #@! TO.C,U79*
X195285000Y-174320000D03*
X199685000Y-174320000D03*
X199685000Y-172720000D03*
X195285000Y-172720000D03*
X195285000Y-171120000D03*
X199685000Y-171120000D03*
G04 #@! TD*
G04 #@! TO.C,U80*
X205445000Y-174320000D03*
X209845000Y-174320000D03*
X209845000Y-172720000D03*
X205445000Y-172720000D03*
X205445000Y-171120000D03*
X209845000Y-171120000D03*
G04 #@! TD*
G04 #@! TO.C,U81*
X209845000Y-188900000D03*
X205445000Y-188900000D03*
X205445000Y-190500000D03*
X209845000Y-190500000D03*
X209845000Y-192100000D03*
X205445000Y-192100000D03*
G04 #@! TD*
G04 #@! TO.C,U82*
X199685000Y-188900000D03*
X195285000Y-188900000D03*
X195285000Y-190500000D03*
X199685000Y-190500000D03*
X199685000Y-192100000D03*
X195285000Y-192100000D03*
G04 #@! TD*
G04 #@! TO.C,U83*
X189525000Y-188900000D03*
X185125000Y-188900000D03*
X185125000Y-190500000D03*
X189525000Y-190500000D03*
X189525000Y-192100000D03*
X185125000Y-192100000D03*
G04 #@! TD*
G04 #@! TO.C,U84*
X179365000Y-188900000D03*
X174965000Y-188900000D03*
X174965000Y-190500000D03*
X179365000Y-190500000D03*
X179365000Y-192100000D03*
X174965000Y-192100000D03*
G04 #@! TD*
G04 #@! TO.C,U85*
X169205000Y-188900000D03*
X164805000Y-188900000D03*
X164805000Y-190500000D03*
X169205000Y-190500000D03*
X169205000Y-192100000D03*
X164805000Y-192100000D03*
G04 #@! TD*
G04 #@! TO.C,U86*
X159045000Y-188900000D03*
X154645000Y-188900000D03*
X154645000Y-190500000D03*
X159045000Y-190500000D03*
X159045000Y-192100000D03*
X154645000Y-192100000D03*
G04 #@! TD*
G04 #@! TO.C,U87*
X148885000Y-188900000D03*
X144485000Y-188900000D03*
X144485000Y-190500000D03*
X148885000Y-190500000D03*
X148885000Y-192100000D03*
X144485000Y-192100000D03*
G04 #@! TD*
G04 #@! TO.C,U88*
X138725000Y-188900000D03*
X134325000Y-188900000D03*
X134325000Y-190500000D03*
X138725000Y-190500000D03*
X138725000Y-192100000D03*
X134325000Y-192100000D03*
G04 #@! TD*
G04 #@! TO.C,U89*
X128565000Y-188900000D03*
X124165000Y-188900000D03*
X124165000Y-190500000D03*
X128565000Y-190500000D03*
X128565000Y-192100000D03*
X124165000Y-192100000D03*
G04 #@! TD*
G04 #@! TO.C,U90*
X118405000Y-188900000D03*
X114005000Y-188900000D03*
X114005000Y-190500000D03*
X118405000Y-190500000D03*
X118405000Y-192100000D03*
X114005000Y-192100000D03*
G04 #@! TD*
G04 #@! TO.C,U91*
X108245000Y-188900000D03*
X103845000Y-188900000D03*
X103845000Y-190500000D03*
X108245000Y-190500000D03*
X108245000Y-192100000D03*
X103845000Y-192100000D03*
G04 #@! TD*
G04 #@! TO.C,U92*
X98085000Y-188900000D03*
X93685000Y-188900000D03*
X93685000Y-190500000D03*
X98085000Y-190500000D03*
X98085000Y-192100000D03*
X93685000Y-192100000D03*
G04 #@! TD*
G04 #@! TO.C,U93*
X87925000Y-188900000D03*
X83525000Y-188900000D03*
X83525000Y-190500000D03*
X87925000Y-190500000D03*
X87925000Y-192100000D03*
X83525000Y-192100000D03*
G04 #@! TD*
G04 #@! TO.C,U94*
X77765000Y-188900000D03*
X73365000Y-188900000D03*
X73365000Y-190500000D03*
X77765000Y-190500000D03*
X77765000Y-192100000D03*
X73365000Y-192100000D03*
G04 #@! TD*
G04 #@! TO.C,U95*
X67605000Y-188900000D03*
X63205000Y-188900000D03*
X63205000Y-190500000D03*
X67605000Y-190500000D03*
X67605000Y-192100000D03*
X63205000Y-192100000D03*
G04 #@! TD*
G04 #@! TO.C,U96*
X57445000Y-188900000D03*
X53045000Y-188900000D03*
X53045000Y-190500000D03*
X57445000Y-190500000D03*
X57445000Y-192100000D03*
X53045000Y-192100000D03*
G04 #@! TD*
G04 #@! TO.C,U97*
X53045000Y-209880000D03*
X57445000Y-209880000D03*
X57445000Y-208280000D03*
X53045000Y-208280000D03*
X53045000Y-206680000D03*
X57445000Y-206680000D03*
G04 #@! TD*
G04 #@! TO.C,U98*
X63205000Y-209880000D03*
X67605000Y-209880000D03*
X67605000Y-208280000D03*
X63205000Y-208280000D03*
X63205000Y-206680000D03*
X67605000Y-206680000D03*
G04 #@! TD*
G04 #@! TO.C,U99*
X73365000Y-209880000D03*
X77765000Y-209880000D03*
X77765000Y-208280000D03*
X73365000Y-208280000D03*
X73365000Y-206680000D03*
X77765000Y-206680000D03*
G04 #@! TD*
G04 #@! TO.C,U100*
X83525000Y-209880000D03*
X87925000Y-209880000D03*
X87925000Y-208280000D03*
X83525000Y-208280000D03*
X83525000Y-206680000D03*
X87925000Y-206680000D03*
G04 #@! TD*
G04 #@! TO.C,U101*
X93685000Y-209880000D03*
X98085000Y-209880000D03*
X98085000Y-208280000D03*
X93685000Y-208280000D03*
X93685000Y-206680000D03*
X98085000Y-206680000D03*
G04 #@! TD*
G04 #@! TO.C,U102*
X103845000Y-209880000D03*
X108245000Y-209880000D03*
X108245000Y-208280000D03*
X103845000Y-208280000D03*
X103845000Y-206680000D03*
X108245000Y-206680000D03*
G04 #@! TD*
G04 #@! TO.C,U103*
X114005000Y-209880000D03*
X118405000Y-209880000D03*
X118405000Y-208280000D03*
X114005000Y-208280000D03*
X114005000Y-206680000D03*
X118405000Y-206680000D03*
G04 #@! TD*
G04 #@! TO.C,U104*
X124165000Y-209880000D03*
X128565000Y-209880000D03*
X128565000Y-208280000D03*
X124165000Y-208280000D03*
X124165000Y-206680000D03*
X128565000Y-206680000D03*
G04 #@! TD*
G04 #@! TO.C,U105*
X134325000Y-209880000D03*
X138725000Y-209880000D03*
X138725000Y-208280000D03*
X134325000Y-208280000D03*
X134325000Y-206680000D03*
X138725000Y-206680000D03*
G04 #@! TD*
G04 #@! TO.C,U106*
X144485000Y-209880000D03*
X148885000Y-209880000D03*
X148885000Y-208280000D03*
X144485000Y-208280000D03*
X144485000Y-206680000D03*
X148885000Y-206680000D03*
G04 #@! TD*
G04 #@! TO.C,U107*
X154645000Y-209880000D03*
X159045000Y-209880000D03*
X159045000Y-208280000D03*
X154645000Y-208280000D03*
X154645000Y-206680000D03*
X159045000Y-206680000D03*
G04 #@! TD*
G04 #@! TO.C,U108*
X164805000Y-209880000D03*
X169205000Y-209880000D03*
X169205000Y-208280000D03*
X164805000Y-208280000D03*
X164805000Y-206680000D03*
X169205000Y-206680000D03*
G04 #@! TD*
G04 #@! TO.C,U109*
X174965000Y-209880000D03*
X179365000Y-209880000D03*
X179365000Y-208280000D03*
X174965000Y-208280000D03*
X174965000Y-206680000D03*
X179365000Y-206680000D03*
G04 #@! TD*
G04 #@! TO.C,U110*
X185125000Y-209880000D03*
X189525000Y-209880000D03*
X189525000Y-208280000D03*
X185125000Y-208280000D03*
X185125000Y-206680000D03*
X189525000Y-206680000D03*
G04 #@! TD*
G04 #@! TO.C,U111*
X195285000Y-209880000D03*
X199685000Y-209880000D03*
X199685000Y-208280000D03*
X195285000Y-208280000D03*
X195285000Y-206680000D03*
X199685000Y-206680000D03*
G04 #@! TD*
G04 #@! TO.C,U112*
X205445000Y-209880000D03*
X209845000Y-209880000D03*
X209845000Y-208280000D03*
X205445000Y-208280000D03*
X205445000Y-206680000D03*
X209845000Y-206680000D03*
G04 #@! TD*
G04 #@! TO.C,U113*
X209845000Y-224460000D03*
X205445000Y-224460000D03*
X205445000Y-226060000D03*
X209845000Y-226060000D03*
X209845000Y-227660000D03*
X205445000Y-227660000D03*
G04 #@! TD*
G04 #@! TO.C,U114*
X199685000Y-224460000D03*
X195285000Y-224460000D03*
X195285000Y-226060000D03*
X199685000Y-226060000D03*
X199685000Y-227660000D03*
X195285000Y-227660000D03*
G04 #@! TD*
G04 #@! TO.C,U115*
X189525000Y-224460000D03*
X185125000Y-224460000D03*
X185125000Y-226060000D03*
X189525000Y-226060000D03*
X189525000Y-227660000D03*
X185125000Y-227660000D03*
G04 #@! TD*
G04 #@! TO.C,U116*
X179365000Y-224460000D03*
X174965000Y-224460000D03*
X174965000Y-226060000D03*
X179365000Y-226060000D03*
X179365000Y-227660000D03*
X174965000Y-227660000D03*
G04 #@! TD*
G04 #@! TO.C,U117*
X169205000Y-224460000D03*
X164805000Y-224460000D03*
X164805000Y-226060000D03*
X169205000Y-226060000D03*
X169205000Y-227660000D03*
X164805000Y-227660000D03*
G04 #@! TD*
G04 #@! TO.C,U118*
X159045000Y-224460000D03*
X154645000Y-224460000D03*
X154645000Y-226060000D03*
X159045000Y-226060000D03*
X159045000Y-227660000D03*
X154645000Y-227660000D03*
G04 #@! TD*
G04 #@! TO.C,U119*
X148885000Y-224460000D03*
X144485000Y-224460000D03*
X144485000Y-226060000D03*
X148885000Y-226060000D03*
X148885000Y-227660000D03*
X144485000Y-227660000D03*
G04 #@! TD*
G04 #@! TO.C,U120*
X138725000Y-224460000D03*
X134325000Y-224460000D03*
X134325000Y-226060000D03*
X138725000Y-226060000D03*
X138725000Y-227660000D03*
X134325000Y-227660000D03*
G04 #@! TD*
G04 #@! TO.C,U121*
X128565000Y-224460000D03*
X124165000Y-224460000D03*
X124165000Y-226060000D03*
X128565000Y-226060000D03*
X128565000Y-227660000D03*
X124165000Y-227660000D03*
G04 #@! TD*
G04 #@! TO.C,U122*
X118405000Y-224460000D03*
X114005000Y-224460000D03*
X114005000Y-226060000D03*
X118405000Y-226060000D03*
X118405000Y-227660000D03*
X114005000Y-227660000D03*
G04 #@! TD*
G04 #@! TO.C,U124*
X98085000Y-224460000D03*
X93685000Y-224460000D03*
X93685000Y-226060000D03*
X98085000Y-226060000D03*
X98085000Y-227660000D03*
X93685000Y-227660000D03*
G04 #@! TD*
G04 #@! TO.C,U125*
X87925000Y-224460000D03*
X83525000Y-224460000D03*
X83525000Y-226060000D03*
X87925000Y-226060000D03*
X87925000Y-227660000D03*
X83525000Y-227660000D03*
G04 #@! TD*
G04 #@! TO.C,U126*
X77765000Y-224460000D03*
X73365000Y-224460000D03*
X73365000Y-226060000D03*
X77765000Y-226060000D03*
X77765000Y-227660000D03*
X73365000Y-227660000D03*
G04 #@! TD*
G04 #@! TO.C,U128*
X57445000Y-224460000D03*
X53045000Y-224460000D03*
X53045000Y-226060000D03*
X57445000Y-226060000D03*
X57445000Y-227660000D03*
X53045000Y-227660000D03*
G04 #@! TD*
G04 #@! TO.C,U2*
X63205000Y-103200000D03*
X67605000Y-103200000D03*
X67605000Y-101600000D03*
X63205000Y-101600000D03*
X63205000Y-100000000D03*
X67605000Y-100000000D03*
G04 #@! TD*
D47*
G04 #@! TO.C,Q1*
X133550000Y-71150000D03*
X133550000Y-69850000D03*
X135450000Y-70500000D03*
X133550000Y-70500000D03*
X135450000Y-69850000D03*
X135450000Y-71150000D03*
G04 #@! TD*
D48*
G04 #@! TO.C,U132*
X91500000Y-74153096D03*
D40*
G36*
X90315596Y-74153096D02*
X91500000Y-72968692D01*
X92684404Y-74153096D01*
X91500000Y-75337500D01*
X90315596Y-74153096D01*
X90315596Y-74153096D01*
G37*
D48*
X90315596Y-75337500D03*
D40*
G36*
X89131192Y-75337500D02*
X90315596Y-74153096D01*
X91500000Y-75337500D01*
X90315596Y-76521904D01*
X89131192Y-75337500D01*
X89131192Y-75337500D01*
G37*
D48*
X92684404Y-75337500D03*
D40*
G36*
X91500000Y-75337500D02*
X92684404Y-74153096D01*
X93868808Y-75337500D01*
X92684404Y-76521904D01*
X91500000Y-75337500D01*
X91500000Y-75337500D01*
G37*
D48*
X91500000Y-76521904D03*
D40*
G36*
X90315596Y-76521904D02*
X91500000Y-75337500D01*
X92684404Y-76521904D01*
X91500000Y-77706308D01*
X90315596Y-76521904D01*
X90315596Y-76521904D01*
G37*
D49*
X92171751Y-72544428D03*
D50*
X91977297Y-72738882D02*
X92366205Y-72349974D01*
D49*
X92525305Y-72897982D03*
D50*
X92330851Y-73092436D02*
X92719759Y-72703528D01*
D49*
X92878858Y-73251535D03*
D50*
X92684404Y-73445989D02*
X93073312Y-73057081D01*
D49*
X93232412Y-73605088D03*
D50*
X93037958Y-73799542D02*
X93426866Y-73410634D01*
D49*
X93585965Y-73958642D03*
D50*
X93391511Y-74153096D02*
X93780419Y-73764188D01*
D49*
X93939518Y-74312195D03*
D50*
X93745064Y-74506649D02*
X94133972Y-74117741D01*
D49*
X94293072Y-74665749D03*
D50*
X94098618Y-74860203D02*
X94487526Y-74471295D01*
D49*
X94293072Y-76009251D03*
D50*
X94098618Y-75814797D02*
X94487526Y-76203705D01*
D49*
X93939518Y-76362805D03*
D50*
X93745064Y-76168351D02*
X94133972Y-76557259D01*
D49*
X93585965Y-76716358D03*
D50*
X93391511Y-76521904D02*
X93780419Y-76910812D01*
D49*
X93232412Y-77069912D03*
D50*
X93037958Y-76875458D02*
X93426866Y-77264366D01*
D49*
X92878858Y-77423465D03*
D50*
X92684404Y-77229011D02*
X93073312Y-77617919D01*
D49*
X92525305Y-77777018D03*
D50*
X92330851Y-77582564D02*
X92719759Y-77971472D01*
D49*
X92171751Y-78130572D03*
D50*
X91977297Y-77936118D02*
X92366205Y-78325026D01*
D49*
X90828249Y-78130572D03*
D50*
X90633795Y-78325026D02*
X91022703Y-77936118D01*
D49*
X90474695Y-77777018D03*
D50*
X90280241Y-77971472D02*
X90669149Y-77582564D01*
D49*
X90121142Y-77423465D03*
D50*
X89926688Y-77617919D02*
X90315596Y-77229011D01*
D49*
X89767588Y-77069912D03*
D50*
X89573134Y-77264366D02*
X89962042Y-76875458D01*
D49*
X89414035Y-76716358D03*
D50*
X89219581Y-76910812D02*
X89608489Y-76521904D01*
D49*
X89060482Y-76362805D03*
D50*
X88866028Y-76557259D02*
X89254936Y-76168351D01*
D49*
X88706928Y-76009251D03*
D50*
X88512474Y-76203705D02*
X88901382Y-75814797D01*
D49*
X88706928Y-74665749D03*
D50*
X88512474Y-74471295D02*
X88901382Y-74860203D01*
D49*
X89060482Y-74312195D03*
D50*
X88866028Y-74117741D02*
X89254936Y-74506649D01*
D49*
X89414035Y-73958642D03*
D50*
X89219581Y-73764188D02*
X89608489Y-74153096D01*
D49*
X89767588Y-73605088D03*
D50*
X89573134Y-73410634D02*
X89962042Y-73799542D01*
D49*
X90121142Y-73251535D03*
D50*
X89926688Y-73057081D02*
X90315596Y-73445989D01*
D49*
X90474695Y-72897982D03*
D50*
X90280241Y-72703528D02*
X90669149Y-73092436D01*
D49*
X90828249Y-72544428D03*
D50*
X90633795Y-72349974D02*
X91022703Y-72738882D01*
D30*
X91500000Y-74439474D03*
X92398026Y-75337500D03*
X91500000Y-76235526D03*
X90601974Y-75337500D03*
X91500000Y-75337500D03*
G04 #@! TD*
D51*
G04 #@! TO.C,HB45*
X53975000Y-53340000D03*
G04 #@! TD*
G04 #@! TO.C,HB46*
X208915000Y-53340000D03*
G04 #@! TD*
M02*
