M48
; DRILL file {KiCad 5.1.4-e60b266~84~ubuntu18.04.1} date Mon Sep  9 13:41:25 2019
; FORMAT={-:-/ absolute / inch / decimal}
; #@! TF.CreationDate,2019-09-09T13:41:25+05:30
; #@! TF.GenerationSoftware,Kicad,Pcbnew,5.1.4-e60b266~84~ubuntu18.04.1
FMAT,2
INCH
T1C0.0177
T2C0.0197
T3C0.0250
T4C0.0300
T5C0.0400
T6C0.0402
T7C0.0472
T8C0.0900
T9C0.1260
T10C0.0200
T11C0.0236
T12C0.0500
T13C0.0800
T14C0.1260
%
G90
G05
T2
X2.075Y-2.49
X2.375Y-3.01
X2.375Y-3.05
X2.415Y-3.01
X2.415Y-3.05
X2.4665Y-2.4386
X2.6Y-3.285
X2.832Y-2.512
X2.836Y-2.849
X3.0Y-3.285
X3.015Y-3.0512
X3.015Y-2.9724
X3.078Y-2.4386
X3.0915Y-3.435
X3.0915Y-3.4941
X3.249Y-3.435
X3.249Y-3.4941
X3.2883Y-3.435
X3.2883Y-3.4941
X3.4Y-3.85
X3.424Y-2.72
X3.424Y-2.8
X3.425Y-4.85
X3.4338Y-2.5122
X3.4458Y-3.435
X3.4458Y-3.4941
X3.48Y-3.055
X3.515Y-3.075
X3.55Y-3.85
X3.565Y-3.245
X3.575Y-4.85
X3.625Y-3.8
X3.6421Y-2.774
X3.675Y-3.85
X3.6846Y-2.7736
X3.7031Y-2.4386
X3.71Y-2.125
X3.725Y-5.6
X3.7315Y-2.774
X3.76Y-3.165
X3.7791Y-2.8327
X3.7795Y-2.8839
X3.8Y-4.85
X3.8Y-5.6
X3.81Y-2.68
X3.85Y-3.85
X3.8681Y-3.2185
X3.875Y-5.6
X3.9Y-4.85
X3.9173Y-2.7382
X3.9173Y-3.2185
X3.9665Y-3.2185
X3.975Y-3.85
X4.0Y-4.85
X4.026Y-2.5122
X4.0323Y-2.7929
X4.05Y-3.8
X4.05Y-5.6
X4.1142Y-2.711
X4.125Y-3.85
X4.125Y-5.6
X4.1957Y-2.7929
X4.252Y-3.0118
X4.252Y-3.2185
X4.278Y-2.4386
X4.311Y-3.0118
X4.311Y-3.2185
X4.5374Y-2.7067
X4.5866Y-2.7067
X4.6063Y-2.776
X4.6299Y-2.5118
X4.7539Y-2.79
X4.8299Y-2.7083
X4.8783Y-2.4386
X4.9114Y-2.7902
X5.0591Y-2.2146
X5.1535Y-2.8012
X5.1752Y-2.9874
X5.1772Y-2.1358
X5.2244Y-3.1575
X5.2264Y-2.1161
X5.2264Y-2.185
X5.2579Y-2.7197
X5.2756Y-3.1575
X5.3291Y-2.9587
X5.3307Y-3.1575
X5.3318Y-3.1181
X5.3327Y-2.872
X5.374Y-2.5984
X5.4134Y-2.1063
X5.4134Y-2.185
X5.474Y-2.4386
X5.5118Y-2.2933
X5.563Y-2.7953
X5.637Y-2.95
X5.825Y-6.25
X5.825Y-6.625
X5.825Y-7.65
X5.8268Y-2.989
X5.9Y-6.25
X5.9Y-6.625
X5.9Y-7.65
X5.975Y-7.65
X6.05Y-6.625
X6.075Y-6.25
X6.125Y-6.625
X6.1472Y-2.5346
X6.15Y-6.25
X6.2472Y-2.635
X6.2476Y-2.4339
X6.3476Y-2.5346
X6.5406Y-2.2299
X6.9291Y-2.5197
X7.0276Y-2.7748
X7.0276Y-2.824
X7.028Y-2.6752
X7.028Y-2.7248
X7.028Y-2.8744
X7.1933Y-2.9752
X7.2713Y-2.6752
X7.2717Y-2.7248
X7.2717Y-2.7752
X7.2717Y-2.8248
X7.311Y-3.1299
X7.8Y-8.025
X7.825Y-9.05
X7.85Y-8.025
X7.9Y-9.05
X7.975Y-9.05
X8.05Y-8.025
X8.125Y-8.025
X8.1299Y-2.4705
X8.1299Y-2.9799
X5.8222Y-2.2433
X5.8222Y-2.2933
X5.8222Y-2.3433
X5.8222Y-2.3933
X5.8222Y-2.4433
X5.8222Y-2.4933
X5.8222Y-2.5433
X5.8222Y-2.5933
X5.8222Y-2.6433
X5.8222Y-2.6933
X5.8222Y-2.7433
X5.8222Y-2.7933
X5.8222Y-2.8433
X5.8222Y-2.8933
X6.05Y-3.0504
X6.1Y-3.0504
X6.15Y-3.0504
X6.2Y-3.0504
X6.25Y-3.0504
X6.3Y-3.0504
X6.35Y-3.0504
X6.4Y-3.0504
X6.45Y-3.0504
X6.5Y-3.0504
X6.7278Y-2.2433
X6.7278Y-2.2933
X6.7278Y-2.3433
X6.7278Y-2.3933
X6.7278Y-2.4433
X6.7278Y-2.4933
X6.7278Y-2.5433
X6.7278Y-2.5933
X6.7278Y-2.6433
X6.7278Y-2.6933
X6.7278Y-2.7433
X6.7278Y-2.7933
X6.7278Y-2.8433
X6.7278Y-2.8933
X8.0805Y-9.45
X8.1082Y-9.3832
X8.1082Y-9.5168
X8.175Y-9.3555
X8.175Y-9.5445
X8.2418Y-9.3832
X8.2418Y-9.5168
X8.2695Y-9.45
X2.0805Y-9.45
X2.1082Y-9.3832
X2.1082Y-9.5168
X2.175Y-9.3555
X2.175Y-9.5445
X2.2418Y-9.3832
X2.2418Y-9.5168
X2.2695Y-9.45
X2.0805Y-3.45
X2.1082Y-3.3832
X2.1082Y-3.5168
X2.175Y-3.3555
X2.175Y-3.5445
X2.2418Y-3.3832
X2.2418Y-3.5168
X2.2695Y-3.45
X8.0805Y-3.45
X8.1082Y-3.3832
X8.1082Y-3.5168
X8.175Y-3.3555
X8.175Y-3.5445
X8.2418Y-3.3832
X8.2418Y-3.5168
X8.2695Y-3.45
X3.567Y-2.966
X3.6024Y-2.9307
X3.6024Y-2.966
X3.6024Y-3.0014
X3.6377Y-2.966
T3
X5.7396Y-6.0409
X5.8104Y-6.0409
X4.1396Y-8.2591
X4.2104Y-8.2591
X8.1396Y-5.4591
X8.2104Y-5.4591
X8.1396Y-6.0409
X8.2104Y-6.0409
X4.9396Y-8.8409
X5.0104Y-8.8409
X3.3396Y-8.2591
X3.4104Y-8.2591
X6.1396Y-8.8409
X6.2104Y-8.8409
X7.3396Y-8.8409
X7.4104Y-8.8409
X4.5396Y-8.8409
X4.6104Y-8.8409
X4.1396Y-4.6409
X4.2104Y-4.6409
X6.9396Y-7.4409
X7.0104Y-7.4409
X3.7396Y-8.2591
X3.8104Y-8.2591
X5.7396Y-8.8409
X5.8104Y-8.8409
X7.3396Y-4.6409
X7.4104Y-4.6409
X6.9396Y-4.6409
X7.0104Y-4.6409
X6.9396Y-8.8409
X7.0104Y-8.8409
X6.1396Y-6.0409
X6.2104Y-6.0409
X5.3396Y-8.8409
X5.4104Y-8.8409
X6.5396Y-8.8409
X6.6104Y-8.8409
X5.7396Y-5.4591
X5.8104Y-5.4591
X4.5396Y-4.6409
X4.6104Y-4.6409
X8.1396Y-6.8591
X8.2104Y-6.8591
X8.1396Y-7.4409
X8.2104Y-7.4409
X2.9396Y-4.0591
X3.0104Y-4.0591
X3.3396Y-4.0591
X3.4104Y-4.0591
X8.1396Y-4.0591
X8.2104Y-4.0591
X8.1396Y-4.6409
X8.2104Y-4.6409
X2.9396Y-6.0409
X3.0104Y-6.0409
X2.5396Y-6.0409
X2.6104Y-6.0409
X6.5396Y-6.0409
X6.6104Y-6.0409
X7.7396Y-5.4591
X7.8104Y-5.4591
X4.5396Y-5.4591
X4.6104Y-5.4591
X4.9396Y-5.4591
X5.0104Y-5.4591
X5.3396Y-5.4591
X5.4104Y-5.4591
X7.7396Y-8.8409
X7.8104Y-8.8409
X2.9396Y-8.2591
X3.0104Y-8.2591
X3.7396Y-6.8591
X3.8104Y-6.8591
X8.1396Y-8.2591
X8.2104Y-8.2591
X2.1396Y-4.0591
X2.2104Y-4.0591
X3.3396Y-6.0409
X3.4104Y-6.0409
X8.1396Y-8.8409
X8.2104Y-8.8409
X7.3396Y-5.4591
X7.4104Y-5.4591
X2.5396Y-7.4409
X2.6104Y-7.4409
X2.1396Y-7.4409
X2.2104Y-7.4409
X2.1396Y-8.2591
X2.2104Y-8.2591
X2.5396Y-8.2591
X2.6104Y-8.2591
X7.7396Y-8.2591
X7.8104Y-8.2591
X2.1396Y-5.4591
X2.2104Y-5.4591
X4.5396Y-7.4409
X4.6104Y-7.4409
X4.1396Y-7.4409
X4.2104Y-7.4409
X3.3396Y-6.8591
X3.4104Y-6.8591
X6.9396Y-6.8591
X7.0104Y-6.8591
X7.3396Y-6.8591
X7.4104Y-6.8591
X7.7396Y-6.8591
X7.8104Y-6.8591
X7.7396Y-4.6409
X7.8104Y-4.6409
X6.5396Y-4.0591
X6.6104Y-4.0591
X6.9396Y-4.0591
X7.0104Y-4.0591
X7.7396Y-4.0591
X7.8104Y-4.0591
X4.1396Y-6.0409
X4.2104Y-6.0409
X3.7396Y-6.0409
X3.8104Y-6.0409
X6.9396Y-8.2591
X7.0104Y-8.2591
X2.5396Y-4.0591
X2.6104Y-4.0591
X4.9396Y-4.0591
X5.0104Y-4.0591
X6.9396Y-6.0409
X7.0104Y-6.0409
X6.9396Y-5.4591
X7.0104Y-5.4591
X7.3396Y-8.2591
X7.4104Y-8.2591
X4.1396Y-5.4591
X4.2104Y-5.4591
X2.1396Y-4.6409
X2.2104Y-4.6409
X4.9396Y-7.4409
X5.0104Y-7.4409
X6.5396Y-8.2591
X6.6104Y-8.2591
X2.1396Y-8.8409
X2.2104Y-8.8409
X5.3396Y-4.6409
X5.4104Y-4.6409
X4.9396Y-4.6409
X5.0104Y-4.6409
X6.5396Y-6.8591
X6.6104Y-6.8591
X6.1396Y-4.0591
X6.2104Y-4.0591
X7.3396Y-4.0591
X7.4104Y-4.0591
X5.3396Y-6.0409
X5.4104Y-6.0409
X4.9396Y-6.0409
X5.0104Y-6.0409
X4.5396Y-6.0409
X4.6104Y-6.0409
X7.3396Y-6.0409
X7.4104Y-6.0409
X6.5396Y-5.4591
X6.6104Y-5.4591
X3.3396Y-5.4591
X3.4104Y-5.4591
X3.7396Y-5.4591
X3.8104Y-5.4591
X2.9396Y-8.8409
X3.0104Y-8.8409
X2.9396Y-7.4409
X3.0104Y-7.4409
X2.9396Y-4.6409
X3.0104Y-4.6409
X2.5396Y-4.6409
X2.6104Y-4.6409
X4.9396Y-6.8591
X5.0104Y-6.8591
X5.3396Y-7.4409
X5.4104Y-7.4409
X4.5396Y-4.0591
X4.6104Y-4.0591
X6.1396Y-4.6409
X6.2104Y-4.6409
X5.7396Y-4.6409
X5.8104Y-4.6409
X2.5396Y-6.8591
X2.6104Y-6.8591
X2.9396Y-6.8591
X3.0104Y-6.8591
X4.1396Y-8.8409
X4.2104Y-8.8409
X7.7396Y-6.0409
X7.8104Y-6.0409
X6.1396Y-5.4591
X6.2104Y-5.4591
X6.1396Y-8.2591
X6.2104Y-8.2591
X3.7396Y-7.4409
X3.8104Y-7.4409
X3.3396Y-7.4409
X3.4104Y-7.4409
X3.3396Y-4.6409
X3.4104Y-4.6409
X6.5396Y-7.4409
X6.6104Y-7.4409
X6.1396Y-7.4409
X6.2104Y-7.4409
X5.7396Y-7.4409
X5.8104Y-7.4409
X3.7396Y-4.0591
X3.8104Y-4.0591
X4.1396Y-4.0591
X4.2104Y-4.0591
X6.5396Y-4.6409
X6.6104Y-4.6409
X2.1396Y-6.8591
X2.2104Y-6.8591
X6.1396Y-6.8591
X6.2104Y-6.8591
X5.3396Y-8.2591
X5.4104Y-8.2591
X3.7396Y-8.8409
X3.8104Y-8.8409
X2.5396Y-8.8409
X2.6104Y-8.8409
X5.3396Y-4.0591
X5.4104Y-4.0591
X5.7396Y-4.0591
X5.8104Y-4.0591
X5.7396Y-8.2591
X5.8104Y-8.2591
X3.3396Y-8.8409
X3.4104Y-8.8409
X4.5396Y-8.2591
X4.6104Y-8.2591
X5.3396Y-6.8591
X5.4104Y-6.8591
X2.9396Y-5.4591
X3.0104Y-5.4591
X4.9396Y-8.2591
X5.0104Y-8.2591
X3.7396Y-4.6409
X3.8104Y-4.6409
X4.1396Y-6.8591
X4.2104Y-6.8591
X4.5396Y-6.8591
X4.6104Y-6.8591
X7.7396Y-7.4409
X7.8104Y-7.4409
X7.3396Y-7.4409
X7.4104Y-7.4409
X2.5396Y-5.4591
X2.6104Y-5.4591
X2.1396Y-6.0409
X2.2104Y-6.0409
X5.7396Y-6.8591
X5.8104Y-6.8591
T4
X2.4Y-2.6
X2.4Y-3.3
X2.5Y-2.6
X2.5Y-2.7
X2.5Y-2.8
X2.5Y-2.9
X2.5Y-3.0
X2.5Y-3.1
X2.5Y-3.2
X2.5Y-3.3
T5
X6.975Y-3.3
X6.975Y-3.4
X6.975Y-3.5
X7.075Y-3.3
X7.075Y-3.4
X7.075Y-3.5
T6
X7.525Y-2.125
X2.075Y-9.125
X2.175Y-9.125
X2.275Y-9.125
X7.175Y-3.5
X2.695Y-3.45
X2.795Y-3.45
X2.895Y-3.45
X2.995Y-3.45
X6.875Y-3.5
X7.175Y-3.4
X7.175Y-3.3
X6.875Y-3.3
X6.875Y-3.4
X7.725Y-2.125
X8.075Y-9.125
X8.175Y-9.125
X8.275Y-9.125
X7.625Y-2.125
X7.525Y-3.45
X7.625Y-3.45
X7.725Y-3.45
X7.825Y-3.45
T7
X3.275Y-2.125
X3.475Y-2.125
X6.875Y-2.125
X7.075Y-2.125
T8
X2.1Y-2.65
X2.1Y-3.25
T9
X5.375Y-5.175
X5.775Y-5.175
X4.175Y-5.175
X6.575Y-8.675
X3.775Y-5.175
X8.175Y-9.45
X3.775Y-3.475
X6.575Y-5.875
X5.375Y-3.475
X4.175Y-3.475
X3.775Y-5.875
X2.175Y-9.45
X5.775Y-3.475
X2.175Y-3.45
X8.175Y-3.45
X3.775Y-8.675
T10
X2.085Y-3.61
X2.085Y-3.69
X2.125Y-3.61
X2.125Y-3.69
X2.165Y-3.61
X2.165Y-3.69
X8.21Y-9.21
X8.21Y-9.29
X8.25Y-9.21
X8.25Y-9.29
X8.29Y-9.21
X8.29Y-9.29
X6.535Y-9.21
X6.535Y-9.29
X6.575Y-9.21
X6.575Y-9.29
X6.615Y-9.21
X6.615Y-9.29
X5.335Y-9.21
X5.335Y-9.29
X5.375Y-9.21
X5.375Y-9.29
X5.415Y-9.21
X5.415Y-9.29
X4.935Y-9.21
X4.935Y-9.29
X4.975Y-9.21
X4.975Y-9.29
X5.015Y-9.21
X5.015Y-9.29
X3.735Y-9.21
X3.735Y-9.29
X3.775Y-9.21
X3.775Y-9.29
X3.815Y-9.21
X3.815Y-9.29
X2.06Y-9.21
X2.06Y-9.29
X2.1Y-9.21
X2.1Y-9.29
X2.14Y-9.21
X2.14Y-9.29
X8.185Y-3.61
X8.185Y-3.69
X8.225Y-3.61
X8.225Y-3.69
X8.265Y-3.61
X8.265Y-3.69
T11
X2.1417Y-2.8713
X2.1417Y-3.0287
T12
X3.375Y-2.125
X6.975Y-2.125
T13
X5.975Y-7.85
X3.575Y-7.85
X2.375Y-5.05
X7.375Y-7.15
X2.975Y-7.85
X7.575Y-5.05
X2.975Y-4.35
X5.575Y-5.05
X4.375Y-5.05
X6.375Y-7.85
X3.975Y-7.85
X7.375Y-7.85
X2.975Y-8.55
X2.775Y-5.05
X7.975Y-5.05
X2.975Y-5.05
X5.975Y-5.05
X6.775Y-7.85
X4.375Y-7.85
X4.775Y-5.05
X7.375Y-8.55
X7.375Y-4.35
X2.975Y-5.75
X6.375Y-5.05
X4.775Y-7.85
X2.375Y-7.85
X7.375Y-5.05
X3.175Y-5.05
X2.975Y-6.45
X7.175Y-7.85
X6.775Y-5.05
X5.175Y-7.85
X2.775Y-7.85
X7.375Y-5.75
X3.575Y-5.05
X2.975Y-7.15
X7.575Y-7.85
X5.175Y-5.05
X5.575Y-7.85
X3.175Y-7.85
X7.375Y-6.45
X7.175Y-5.05
X7.975Y-7.85
X3.975Y-5.05
T14
X8.225Y-2.1
X2.125Y-2.1
T1
G00X2.0354Y-2.8384
M15
G01X2.0787Y-2.8384
M16
G05
G00X2.0787Y-3.0616
M15
G01X2.0354Y-3.0616
M16
G05
T0
M30
