G04 #@! TF.GenerationSoftware,KiCad,Pcbnew,5.0.0-rc2-unknown-6d77e59~65~ubuntu16.04.1*
G04 #@! TF.CreationDate,2018-06-13T00:13:32+05:30*
G04 #@! TF.ProjectId,ClockIOT,436C6F636B494F542E6B696361645F70,rev 1*
G04 #@! TF.SameCoordinates,PX2fd7508PY2fd7508*
G04 #@! TF.FileFunction,Soldermask,Bot*
G04 #@! TF.FilePolarity,Negative*
%FSLAX46Y46*%
G04 Gerber Fmt 4.6, Leading zero omitted, Abs format (unit mm)*
G04 Created by KiCad (PCBNEW 5.0.0-rc2-unknown-6d77e59~65~ubuntu16.04.1) date Wed Jun 13 00:13:32 2018*
%MOMM*%
%LPD*%
G01*
G04 APERTURE LIST*
%ADD10C,0.254000*%
%ADD11C,0.762000*%
%ADD12O,1.900000X1.200000*%
%ADD13C,1.450000*%
%ADD14C,5.200000*%
%ADD15C,6.400000*%
%ADD16C,0.800000*%
%ADD17O,2.000000X1.000000*%
%ADD18O,1.000000X2.000000*%
%ADD19C,2.082800*%
%ADD20O,2.000000X2.000000*%
%ADD21R,2.000000X2.000000*%
%ADD22C,0.508000*%
%ADD23C,1.800000*%
%ADD24C,1.524000*%
%ADD25R,1.524000X1.524000*%
%ADD26C,0.127000*%
%ADD27C,1.600000*%
%ADD28C,1.270000*%
%ADD29C,2.000000*%
%ADD30R,2.100000X1.400000*%
%ADD31C,3.200000*%
G04 APERTURE END LIST*
D10*
X135889999Y-189804523D02*
X135587619Y-191074523D01*
X135345714Y-190167380D01*
X135103809Y-191074523D01*
X134801428Y-189804523D01*
X134438571Y-190227857D02*
X134136190Y-191074523D01*
X133833809Y-190227857D02*
X134136190Y-191074523D01*
X134257142Y-191376904D01*
X134317619Y-191437380D01*
X134438571Y-191497857D01*
X133168571Y-191074523D02*
X133289523Y-191014047D01*
X133349999Y-190953571D01*
X133410476Y-190832619D01*
X133410476Y-190469761D01*
X133349999Y-190348809D01*
X133289523Y-190288333D01*
X133168571Y-190227857D01*
X132987142Y-190227857D01*
X132866190Y-190288333D01*
X132805714Y-190348809D01*
X132745238Y-190469761D01*
X132745238Y-190832619D01*
X132805714Y-190953571D01*
X132866190Y-191014047D01*
X132987142Y-191074523D01*
X133168571Y-191074523D01*
X131596190Y-191074523D02*
X132200952Y-191074523D01*
X132200952Y-189804523D01*
X130628571Y-190227857D02*
X130628571Y-191074523D01*
X131172857Y-190227857D02*
X131172857Y-190893095D01*
X131112380Y-191014047D01*
X130991428Y-191074523D01*
X130809999Y-191074523D01*
X130689047Y-191014047D01*
X130628571Y-190953571D01*
X130023809Y-191074523D02*
X130023809Y-190227857D01*
X130023809Y-190348809D02*
X129963333Y-190288333D01*
X129842380Y-190227857D01*
X129660952Y-190227857D01*
X129539999Y-190288333D01*
X129479523Y-190409285D01*
X129479523Y-191074523D01*
X129479523Y-190409285D02*
X129419047Y-190288333D01*
X129298095Y-190227857D01*
X129116666Y-190227857D01*
X128995714Y-190288333D01*
X128935238Y-190409285D01*
X128935238Y-191074523D01*
X126637142Y-190953571D02*
X126697619Y-191014047D01*
X126879047Y-191074523D01*
X127000000Y-191074523D01*
X127181428Y-191014047D01*
X127302380Y-190893095D01*
X127362857Y-190772142D01*
X127423333Y-190530238D01*
X127423333Y-190348809D01*
X127362857Y-190106904D01*
X127302380Y-189985952D01*
X127181428Y-189865000D01*
X127000000Y-189804523D01*
X126879047Y-189804523D01*
X126697619Y-189865000D01*
X126637142Y-189925476D01*
X125911428Y-191074523D02*
X126032380Y-191014047D01*
X126092857Y-190893095D01*
X126092857Y-189804523D01*
X125246190Y-191074523D02*
X125367142Y-191014047D01*
X125427619Y-190953571D01*
X125488095Y-190832619D01*
X125488095Y-190469761D01*
X125427619Y-190348809D01*
X125367142Y-190288333D01*
X125246190Y-190227857D01*
X125064761Y-190227857D01*
X124943809Y-190288333D01*
X124883333Y-190348809D01*
X124822857Y-190469761D01*
X124822857Y-190832619D01*
X124883333Y-190953571D01*
X124943809Y-191014047D01*
X125064761Y-191074523D01*
X125246190Y-191074523D01*
X123734285Y-191014047D02*
X123855238Y-191074523D01*
X124097142Y-191074523D01*
X124218095Y-191014047D01*
X124278571Y-190953571D01*
X124339047Y-190832619D01*
X124339047Y-190469761D01*
X124278571Y-190348809D01*
X124218095Y-190288333D01*
X124097142Y-190227857D01*
X123855238Y-190227857D01*
X123734285Y-190288333D01*
X123190000Y-191074523D02*
X123190000Y-189804523D01*
X123069047Y-190590714D02*
X122706190Y-191074523D01*
X122706190Y-190227857D02*
X123190000Y-190711666D01*
X122222380Y-191014047D02*
X122101428Y-191074523D01*
X121859523Y-191074523D01*
X121738571Y-191014047D01*
X121678095Y-190893095D01*
X121678095Y-190832619D01*
X121738571Y-190711666D01*
X121859523Y-190651190D01*
X122040952Y-190651190D01*
X122161904Y-190590714D01*
X122222380Y-190469761D01*
X122222380Y-190409285D01*
X122161904Y-190288333D01*
X122040952Y-190227857D01*
X121859523Y-190227857D01*
X121738571Y-190288333D01*
X120166190Y-190953571D02*
X120105714Y-191014047D01*
X120166190Y-191074523D01*
X120226666Y-191014047D01*
X120166190Y-190953571D01*
X120166190Y-191074523D01*
X120166190Y-190288333D02*
X120105714Y-190348809D01*
X120166190Y-190409285D01*
X120226666Y-190348809D01*
X120166190Y-190288333D01*
X120166190Y-190409285D01*
X118714761Y-189804523D02*
X118412380Y-191074523D01*
X118170476Y-190167380D01*
X117928571Y-191074523D01*
X117626190Y-189804523D01*
X116960952Y-191074523D02*
X117081904Y-191014047D01*
X117142380Y-190953571D01*
X117202857Y-190832619D01*
X117202857Y-190469761D01*
X117142380Y-190348809D01*
X117081904Y-190288333D01*
X116960952Y-190227857D01*
X116779523Y-190227857D01*
X116658571Y-190288333D01*
X116598095Y-190348809D01*
X116537619Y-190469761D01*
X116537619Y-190832619D01*
X116598095Y-190953571D01*
X116658571Y-191014047D01*
X116779523Y-191074523D01*
X116960952Y-191074523D01*
X115993333Y-191074523D02*
X115993333Y-190227857D01*
X115993333Y-190469761D02*
X115932857Y-190348809D01*
X115872380Y-190288333D01*
X115751428Y-190227857D01*
X115630476Y-190227857D01*
X114662857Y-191074523D02*
X114662857Y-189804523D01*
X114662857Y-191014047D02*
X114783809Y-191074523D01*
X115025714Y-191074523D01*
X115146666Y-191014047D01*
X115207142Y-190953571D01*
X115267619Y-190832619D01*
X115267619Y-190469761D01*
X115207142Y-190348809D01*
X115146666Y-190288333D01*
X115025714Y-190227857D01*
X114783809Y-190227857D01*
X114662857Y-190288333D01*
X113513809Y-190227857D02*
X113513809Y-191074523D01*
X114058095Y-190227857D02*
X114058095Y-190893095D01*
X113997619Y-191014047D01*
X113876666Y-191074523D01*
X113695238Y-191074523D01*
X113574285Y-191014047D01*
X113513809Y-190953571D01*
X112909047Y-191074523D02*
X112909047Y-190227857D01*
X112909047Y-189804523D02*
X112969523Y-189865000D01*
X112909047Y-189925476D01*
X112848571Y-189865000D01*
X112909047Y-189804523D01*
X112909047Y-189925476D01*
X112304285Y-190227857D02*
X112304285Y-191074523D01*
X112304285Y-190348809D02*
X112243809Y-190288333D01*
X112122857Y-190227857D01*
X111941428Y-190227857D01*
X111820476Y-190288333D01*
X111760000Y-190409285D01*
X111760000Y-191074523D01*
X110973809Y-191074523D02*
X111094761Y-191014047D01*
X111155238Y-190953571D01*
X111215714Y-190832619D01*
X111215714Y-190469761D01*
X111155238Y-190348809D01*
X111094761Y-190288333D01*
X110973809Y-190227857D01*
X110792380Y-190227857D01*
X110671428Y-190288333D01*
X110610952Y-190348809D01*
X110550476Y-190469761D01*
X110550476Y-190832619D01*
X110610952Y-190953571D01*
X110671428Y-191014047D01*
X110792380Y-191074523D01*
X110973809Y-191074523D01*
X109038571Y-190227857D02*
X108070952Y-190590714D01*
X109038571Y-190953571D01*
X105772857Y-190953571D02*
X105833333Y-191014047D01*
X106014761Y-191074523D01*
X106135714Y-191074523D01*
X106317142Y-191014047D01*
X106438095Y-190893095D01*
X106498571Y-190772142D01*
X106559047Y-190530238D01*
X106559047Y-190348809D01*
X106498571Y-190106904D01*
X106438095Y-189985952D01*
X106317142Y-189865000D01*
X106135714Y-189804523D01*
X106014761Y-189804523D01*
X105833333Y-189865000D01*
X105772857Y-189925476D01*
X105047142Y-191074523D02*
X105168095Y-191014047D01*
X105228571Y-190893095D01*
X105228571Y-189804523D01*
X104381904Y-191074523D02*
X104502857Y-191014047D01*
X104563333Y-190953571D01*
X104623809Y-190832619D01*
X104623809Y-190469761D01*
X104563333Y-190348809D01*
X104502857Y-190288333D01*
X104381904Y-190227857D01*
X104200476Y-190227857D01*
X104079523Y-190288333D01*
X104019047Y-190348809D01*
X103958571Y-190469761D01*
X103958571Y-190832619D01*
X104019047Y-190953571D01*
X104079523Y-191014047D01*
X104200476Y-191074523D01*
X104381904Y-191074523D01*
X102870000Y-191014047D02*
X102990952Y-191074523D01*
X103232857Y-191074523D01*
X103353809Y-191014047D01*
X103414285Y-190953571D01*
X103474761Y-190832619D01*
X103474761Y-190469761D01*
X103414285Y-190348809D01*
X103353809Y-190288333D01*
X103232857Y-190227857D01*
X102990952Y-190227857D01*
X102870000Y-190288333D01*
X102325714Y-191074523D02*
X102325714Y-189804523D01*
X102204761Y-190590714D02*
X101841904Y-191074523D01*
X101841904Y-190227857D02*
X102325714Y-190711666D01*
X101479047Y-189804523D02*
X100753333Y-189804523D01*
X101116190Y-191074523D02*
X101116190Y-189804523D01*
X100450952Y-189804523D02*
X100148571Y-191074523D01*
X99906666Y-190167380D01*
X99664761Y-191074523D01*
X99362380Y-189804523D01*
X98636666Y-189804523D02*
X98394761Y-189804523D01*
X98273809Y-189865000D01*
X98152857Y-189985952D01*
X98092380Y-190227857D01*
X98092380Y-190651190D01*
X98152857Y-190893095D01*
X98273809Y-191014047D01*
X98394761Y-191074523D01*
X98636666Y-191074523D01*
X98757619Y-191014047D01*
X98878571Y-190893095D01*
X98939047Y-190651190D01*
X98939047Y-190227857D01*
X98878571Y-189985952D01*
X98757619Y-189865000D01*
X98636666Y-189804523D01*
X96580476Y-190227857D02*
X95612857Y-190590714D01*
X96580476Y-190953571D01*
X93314761Y-190953571D02*
X93375238Y-191014047D01*
X93556666Y-191074523D01*
X93677619Y-191074523D01*
X93859047Y-191014047D01*
X93980000Y-190893095D01*
X94040476Y-190772142D01*
X94100952Y-190530238D01*
X94100952Y-190348809D01*
X94040476Y-190106904D01*
X93980000Y-189985952D01*
X93859047Y-189865000D01*
X93677619Y-189804523D01*
X93556666Y-189804523D01*
X93375238Y-189865000D01*
X93314761Y-189925476D01*
X92589047Y-191074523D02*
X92710000Y-191014047D01*
X92770476Y-190893095D01*
X92770476Y-189804523D01*
X91923809Y-191074523D02*
X92044761Y-191014047D01*
X92105238Y-190953571D01*
X92165714Y-190832619D01*
X92165714Y-190469761D01*
X92105238Y-190348809D01*
X92044761Y-190288333D01*
X91923809Y-190227857D01*
X91742380Y-190227857D01*
X91621428Y-190288333D01*
X91560952Y-190348809D01*
X91500476Y-190469761D01*
X91500476Y-190832619D01*
X91560952Y-190953571D01*
X91621428Y-191014047D01*
X91742380Y-191074523D01*
X91923809Y-191074523D01*
X90411904Y-191014047D02*
X90532857Y-191074523D01*
X90774761Y-191074523D01*
X90895714Y-191014047D01*
X90956190Y-190953571D01*
X91016666Y-190832619D01*
X91016666Y-190469761D01*
X90956190Y-190348809D01*
X90895714Y-190288333D01*
X90774761Y-190227857D01*
X90532857Y-190227857D01*
X90411904Y-190288333D01*
X89867619Y-191074523D02*
X89867619Y-189804523D01*
X89746666Y-190590714D02*
X89383809Y-191074523D01*
X89383809Y-190227857D02*
X89867619Y-190711666D01*
X89020952Y-189804523D02*
X88295238Y-189804523D01*
X88658095Y-191074523D02*
X88658095Y-189804523D01*
X87871904Y-191074523D02*
X87871904Y-189804523D01*
X87871904Y-190409285D02*
X87146190Y-190409285D01*
X87146190Y-191074523D02*
X87146190Y-189804523D01*
X85815714Y-191074523D02*
X86239047Y-190469761D01*
X86541428Y-191074523D02*
X86541428Y-189804523D01*
X86057619Y-189804523D01*
X85936666Y-189865000D01*
X85876190Y-189925476D01*
X85815714Y-190046428D01*
X85815714Y-190227857D01*
X85876190Y-190348809D01*
X85936666Y-190409285D01*
X86057619Y-190469761D01*
X86541428Y-190469761D01*
X85271428Y-190409285D02*
X84848095Y-190409285D01*
X84666666Y-191074523D02*
X85271428Y-191074523D01*
X85271428Y-189804523D01*
X84666666Y-189804523D01*
X84122380Y-190409285D02*
X83699047Y-190409285D01*
X83517619Y-191074523D02*
X84122380Y-191074523D01*
X84122380Y-189804523D01*
X83517619Y-189804523D01*
X82005714Y-190227857D02*
X81038095Y-190590714D01*
X82005714Y-190953571D01*
X78740000Y-190953571D02*
X78800476Y-191014047D01*
X78981904Y-191074523D01*
X79102857Y-191074523D01*
X79284285Y-191014047D01*
X79405238Y-190893095D01*
X79465714Y-190772142D01*
X79526190Y-190530238D01*
X79526190Y-190348809D01*
X79465714Y-190106904D01*
X79405238Y-189985952D01*
X79284285Y-189865000D01*
X79102857Y-189804523D01*
X78981904Y-189804523D01*
X78800476Y-189865000D01*
X78740000Y-189925476D01*
X78014285Y-191074523D02*
X78135238Y-191014047D01*
X78195714Y-190893095D01*
X78195714Y-189804523D01*
X77349047Y-191074523D02*
X77470000Y-191014047D01*
X77530476Y-190953571D01*
X77590952Y-190832619D01*
X77590952Y-190469761D01*
X77530476Y-190348809D01*
X77470000Y-190288333D01*
X77349047Y-190227857D01*
X77167619Y-190227857D01*
X77046666Y-190288333D01*
X76986190Y-190348809D01*
X76925714Y-190469761D01*
X76925714Y-190832619D01*
X76986190Y-190953571D01*
X77046666Y-191014047D01*
X77167619Y-191074523D01*
X77349047Y-191074523D01*
X75837142Y-191014047D02*
X75958095Y-191074523D01*
X76200000Y-191074523D01*
X76320952Y-191014047D01*
X76381428Y-190953571D01*
X76441904Y-190832619D01*
X76441904Y-190469761D01*
X76381428Y-190348809D01*
X76320952Y-190288333D01*
X76200000Y-190227857D01*
X75958095Y-190227857D01*
X75837142Y-190288333D01*
X75292857Y-191074523D02*
X75292857Y-189804523D01*
X75171904Y-190590714D02*
X74809047Y-191074523D01*
X74809047Y-190227857D02*
X75292857Y-190711666D01*
X74446190Y-189804523D02*
X73720476Y-189804523D01*
X74083333Y-191074523D02*
X74083333Y-189804523D01*
X73297142Y-191074523D02*
X73297142Y-189804523D01*
X73297142Y-190409285D02*
X72571428Y-190409285D01*
X72571428Y-191074523D02*
X72571428Y-189804523D01*
X71240952Y-191074523D02*
X71664285Y-190469761D01*
X71966666Y-191074523D02*
X71966666Y-189804523D01*
X71482857Y-189804523D01*
X71361904Y-189865000D01*
X71301428Y-189925476D01*
X71240952Y-190046428D01*
X71240952Y-190227857D01*
X71301428Y-190348809D01*
X71361904Y-190409285D01*
X71482857Y-190469761D01*
X71966666Y-190469761D01*
X70696666Y-190409285D02*
X70273333Y-190409285D01*
X70091904Y-191074523D02*
X70696666Y-191074523D01*
X70696666Y-189804523D01*
X70091904Y-189804523D01*
X69547619Y-190409285D02*
X69124285Y-190409285D01*
X68942857Y-191074523D02*
X69547619Y-191074523D01*
X69547619Y-189804523D01*
X68942857Y-189804523D01*
X68398571Y-190227857D02*
X68398571Y-191316428D01*
X68459047Y-191437380D01*
X68580000Y-191497857D01*
X68640476Y-191497857D01*
X68398571Y-189804523D02*
X68459047Y-189865000D01*
X68398571Y-189925476D01*
X68338095Y-189865000D01*
X68398571Y-189804523D01*
X68398571Y-189925476D01*
X67793809Y-191074523D02*
X67793809Y-190227857D01*
X67793809Y-190469761D02*
X67733333Y-190348809D01*
X67672857Y-190288333D01*
X67551904Y-190227857D01*
X67430952Y-190227857D01*
X66040000Y-190227857D02*
X65072380Y-190590714D01*
X66040000Y-190953571D01*
X62774285Y-190953571D02*
X62834761Y-191014047D01*
X63016190Y-191074523D01*
X63137142Y-191074523D01*
X63318571Y-191014047D01*
X63439523Y-190893095D01*
X63500000Y-190772142D01*
X63560476Y-190530238D01*
X63560476Y-190348809D01*
X63500000Y-190106904D01*
X63439523Y-189985952D01*
X63318571Y-189865000D01*
X63137142Y-189804523D01*
X63016190Y-189804523D01*
X62834761Y-189865000D01*
X62774285Y-189925476D01*
X62048571Y-191074523D02*
X62169523Y-191014047D01*
X62230000Y-190893095D01*
X62230000Y-189804523D01*
X61383333Y-191074523D02*
X61504285Y-191014047D01*
X61564761Y-190953571D01*
X61625238Y-190832619D01*
X61625238Y-190469761D01*
X61564761Y-190348809D01*
X61504285Y-190288333D01*
X61383333Y-190227857D01*
X61201904Y-190227857D01*
X61080952Y-190288333D01*
X61020476Y-190348809D01*
X60960000Y-190469761D01*
X60960000Y-190832619D01*
X61020476Y-190953571D01*
X61080952Y-191014047D01*
X61201904Y-191074523D01*
X61383333Y-191074523D01*
X59871428Y-191014047D02*
X59992380Y-191074523D01*
X60234285Y-191074523D01*
X60355238Y-191014047D01*
X60415714Y-190953571D01*
X60476190Y-190832619D01*
X60476190Y-190469761D01*
X60415714Y-190348809D01*
X60355238Y-190288333D01*
X60234285Y-190227857D01*
X59992380Y-190227857D01*
X59871428Y-190288333D01*
X59327142Y-191074523D02*
X59327142Y-189804523D01*
X59206190Y-190590714D02*
X58843333Y-191074523D01*
X58843333Y-190227857D02*
X59327142Y-190711666D01*
X57875714Y-190409285D02*
X58299047Y-190409285D01*
X58299047Y-191074523D02*
X58299047Y-189804523D01*
X57694285Y-189804523D01*
X56968571Y-189804523D02*
X56726666Y-189804523D01*
X56605714Y-189865000D01*
X56484761Y-189985952D01*
X56424285Y-190227857D01*
X56424285Y-190651190D01*
X56484761Y-190893095D01*
X56605714Y-191014047D01*
X56726666Y-191074523D01*
X56968571Y-191074523D01*
X57089523Y-191014047D01*
X57210476Y-190893095D01*
X57270952Y-190651190D01*
X57270952Y-190227857D01*
X57210476Y-189985952D01*
X57089523Y-189865000D01*
X56968571Y-189804523D01*
X55880000Y-189804523D02*
X55880000Y-190832619D01*
X55819523Y-190953571D01*
X55759047Y-191014047D01*
X55638095Y-191074523D01*
X55396190Y-191074523D01*
X55275238Y-191014047D01*
X55214761Y-190953571D01*
X55154285Y-190832619D01*
X55154285Y-189804523D01*
X53823809Y-191074523D02*
X54247142Y-190469761D01*
X54549523Y-191074523D02*
X54549523Y-189804523D01*
X54065714Y-189804523D01*
X53944761Y-189865000D01*
X53884285Y-189925476D01*
X53823809Y-190046428D01*
X53823809Y-190227857D01*
X53884285Y-190348809D01*
X53944761Y-190409285D01*
X54065714Y-190469761D01*
X54549523Y-190469761D01*
X52311904Y-190227857D02*
X51344285Y-190590714D01*
X52311904Y-190953571D01*
X49046190Y-190953571D02*
X49106666Y-191014047D01*
X49288095Y-191074523D01*
X49409047Y-191074523D01*
X49590476Y-191014047D01*
X49711428Y-190893095D01*
X49771904Y-190772142D01*
X49832380Y-190530238D01*
X49832380Y-190348809D01*
X49771904Y-190106904D01*
X49711428Y-189985952D01*
X49590476Y-189865000D01*
X49409047Y-189804523D01*
X49288095Y-189804523D01*
X49106666Y-189865000D01*
X49046190Y-189925476D01*
X48501904Y-191074523D02*
X48501904Y-189804523D01*
X47957619Y-191074523D02*
X47957619Y-190409285D01*
X48018095Y-190288333D01*
X48139047Y-190227857D01*
X48320476Y-190227857D01*
X48441428Y-190288333D01*
X48501904Y-190348809D01*
X47352857Y-191074523D02*
X47352857Y-190227857D01*
X47352857Y-190469761D02*
X47292380Y-190348809D01*
X47231904Y-190288333D01*
X47110952Y-190227857D01*
X46990000Y-190227857D01*
X46385238Y-191074523D02*
X46506190Y-191014047D01*
X46566666Y-190953571D01*
X46627142Y-190832619D01*
X46627142Y-190469761D01*
X46566666Y-190348809D01*
X46506190Y-190288333D01*
X46385238Y-190227857D01*
X46203809Y-190227857D01*
X46082857Y-190288333D01*
X46022380Y-190348809D01*
X45961904Y-190469761D01*
X45961904Y-190832619D01*
X46022380Y-190953571D01*
X46082857Y-191014047D01*
X46203809Y-191074523D01*
X46385238Y-191074523D01*
X45417619Y-191074523D02*
X45417619Y-190227857D01*
X45417619Y-190348809D02*
X45357142Y-190288333D01*
X45236190Y-190227857D01*
X45054761Y-190227857D01*
X44933809Y-190288333D01*
X44873333Y-190409285D01*
X44873333Y-191074523D01*
X44873333Y-190409285D02*
X44812857Y-190288333D01*
X44691904Y-190227857D01*
X44510476Y-190227857D01*
X44389523Y-190288333D01*
X44329047Y-190409285D01*
X44329047Y-191074523D01*
X43542857Y-191074523D02*
X43663809Y-191014047D01*
X43724285Y-190953571D01*
X43784761Y-190832619D01*
X43784761Y-190469761D01*
X43724285Y-190348809D01*
X43663809Y-190288333D01*
X43542857Y-190227857D01*
X43361428Y-190227857D01*
X43240476Y-190288333D01*
X43180000Y-190348809D01*
X43119523Y-190469761D01*
X43119523Y-190832619D01*
X43180000Y-190953571D01*
X43240476Y-191014047D01*
X43361428Y-191074523D01*
X43542857Y-191074523D01*
X42030952Y-190227857D02*
X42030952Y-191255952D01*
X42091428Y-191376904D01*
X42151904Y-191437380D01*
X42272857Y-191497857D01*
X42454285Y-191497857D01*
X42575238Y-191437380D01*
X42030952Y-191014047D02*
X42151904Y-191074523D01*
X42393809Y-191074523D01*
X42514761Y-191014047D01*
X42575238Y-190953571D01*
X42635714Y-190832619D01*
X42635714Y-190469761D01*
X42575238Y-190348809D01*
X42514761Y-190288333D01*
X42393809Y-190227857D01*
X42151904Y-190227857D01*
X42030952Y-190288333D01*
X41426190Y-191074523D02*
X41426190Y-190227857D01*
X41426190Y-190469761D02*
X41365714Y-190348809D01*
X41305238Y-190288333D01*
X41184285Y-190227857D01*
X41063333Y-190227857D01*
X40095714Y-191074523D02*
X40095714Y-190409285D01*
X40156190Y-190288333D01*
X40277142Y-190227857D01*
X40519047Y-190227857D01*
X40640000Y-190288333D01*
X40095714Y-191014047D02*
X40216666Y-191074523D01*
X40519047Y-191074523D01*
X40640000Y-191014047D01*
X40700476Y-190893095D01*
X40700476Y-190772142D01*
X40640000Y-190651190D01*
X40519047Y-190590714D01*
X40216666Y-190590714D01*
X40095714Y-190530238D01*
X39490952Y-191074523D02*
X39490952Y-190227857D01*
X39490952Y-190348809D02*
X39430476Y-190288333D01*
X39309523Y-190227857D01*
X39128095Y-190227857D01*
X39007142Y-190288333D01*
X38946666Y-190409285D01*
X38946666Y-191074523D01*
X38946666Y-190409285D02*
X38886190Y-190288333D01*
X38765238Y-190227857D01*
X38583809Y-190227857D01*
X38462857Y-190288333D01*
X38402380Y-190409285D01*
X38402380Y-191074523D01*
X36830000Y-190227857D02*
X35862380Y-190590714D01*
X36830000Y-190953571D01*
X33564285Y-190953571D02*
X33624761Y-191014047D01*
X33806190Y-191074523D01*
X33927142Y-191074523D01*
X34108571Y-191014047D01*
X34229523Y-190893095D01*
X34290000Y-190772142D01*
X34350476Y-190530238D01*
X34350476Y-190348809D01*
X34290000Y-190106904D01*
X34229523Y-189985952D01*
X34108571Y-189865000D01*
X33927142Y-189804523D01*
X33806190Y-189804523D01*
X33624761Y-189865000D01*
X33564285Y-189925476D01*
X32838571Y-191074523D02*
X32959523Y-191014047D01*
X33020000Y-190893095D01*
X33020000Y-189804523D01*
X32173333Y-191074523D02*
X32294285Y-191014047D01*
X32354761Y-190953571D01*
X32415238Y-190832619D01*
X32415238Y-190469761D01*
X32354761Y-190348809D01*
X32294285Y-190288333D01*
X32173333Y-190227857D01*
X31991904Y-190227857D01*
X31870952Y-190288333D01*
X31810476Y-190348809D01*
X31750000Y-190469761D01*
X31750000Y-190832619D01*
X31810476Y-190953571D01*
X31870952Y-191014047D01*
X31991904Y-191074523D01*
X32173333Y-191074523D01*
X30661428Y-191014047D02*
X30782380Y-191074523D01*
X31024285Y-191074523D01*
X31145238Y-191014047D01*
X31205714Y-190953571D01*
X31266190Y-190832619D01*
X31266190Y-190469761D01*
X31205714Y-190348809D01*
X31145238Y-190288333D01*
X31024285Y-190227857D01*
X30782380Y-190227857D01*
X30661428Y-190288333D01*
X30117142Y-191074523D02*
X30117142Y-189804523D01*
X29996190Y-190590714D02*
X29633333Y-191074523D01*
X29633333Y-190227857D02*
X30117142Y-190711666D01*
X29089047Y-191074523D02*
X29089047Y-189804523D01*
X28242380Y-189804523D02*
X28000476Y-189804523D01*
X27879523Y-189865000D01*
X27758571Y-189985952D01*
X27698095Y-190227857D01*
X27698095Y-190651190D01*
X27758571Y-190893095D01*
X27879523Y-191014047D01*
X28000476Y-191074523D01*
X28242380Y-191074523D01*
X28363333Y-191014047D01*
X28484285Y-190893095D01*
X28544761Y-190651190D01*
X28544761Y-190227857D01*
X28484285Y-189985952D01*
X28363333Y-189865000D01*
X28242380Y-189804523D01*
X27335238Y-189804523D02*
X26609523Y-189804523D01*
X26972380Y-191074523D02*
X26972380Y-189804523D01*
D11*
X90986428Y-114390714D02*
X91167857Y-114572142D01*
X91712142Y-114753571D01*
X92075000Y-114753571D01*
X92619285Y-114572142D01*
X92982142Y-114209285D01*
X93163571Y-113846428D01*
X93345000Y-113120714D01*
X93345000Y-112576428D01*
X93163571Y-111850714D01*
X92982142Y-111487857D01*
X92619285Y-111125000D01*
X92075000Y-110943571D01*
X91712142Y-110943571D01*
X91167857Y-111125000D01*
X90986428Y-111306428D01*
X88809285Y-114753571D02*
X89172142Y-114572142D01*
X89353571Y-114209285D01*
X89353571Y-110943571D01*
X86813571Y-114753571D02*
X87176428Y-114572142D01*
X87357857Y-114390714D01*
X87539285Y-114027857D01*
X87539285Y-112939285D01*
X87357857Y-112576428D01*
X87176428Y-112395000D01*
X86813571Y-112213571D01*
X86269285Y-112213571D01*
X85906428Y-112395000D01*
X85725000Y-112576428D01*
X85543571Y-112939285D01*
X85543571Y-114027857D01*
X85725000Y-114390714D01*
X85906428Y-114572142D01*
X86269285Y-114753571D01*
X86813571Y-114753571D01*
X82277857Y-114572142D02*
X82640714Y-114753571D01*
X83366428Y-114753571D01*
X83729285Y-114572142D01*
X83910714Y-114390714D01*
X84092142Y-114027857D01*
X84092142Y-112939285D01*
X83910714Y-112576428D01*
X83729285Y-112395000D01*
X83366428Y-112213571D01*
X82640714Y-112213571D01*
X82277857Y-112395000D01*
X80645000Y-114753571D02*
X80645000Y-110943571D01*
X80282142Y-113302142D02*
X79193571Y-114753571D01*
X79193571Y-112213571D02*
X80645000Y-113665000D01*
X77560714Y-114753571D02*
X77560714Y-110943571D01*
X75020714Y-110943571D02*
X74295000Y-110943571D01*
X73932142Y-111125000D01*
X73569285Y-111487857D01*
X73387857Y-112213571D01*
X73387857Y-113483571D01*
X73569285Y-114209285D01*
X73932142Y-114572142D01*
X74295000Y-114753571D01*
X75020714Y-114753571D01*
X75383571Y-114572142D01*
X75746428Y-114209285D01*
X75927857Y-113483571D01*
X75927857Y-112213571D01*
X75746428Y-111487857D01*
X75383571Y-111125000D01*
X75020714Y-110943571D01*
X72299285Y-110943571D02*
X70122142Y-110943571D01*
X71210714Y-114753571D02*
X71210714Y-110943571D01*
D10*
X90623571Y-3719285D02*
X90442142Y-3779761D01*
X90381666Y-3840238D01*
X90321190Y-3961190D01*
X90321190Y-4142619D01*
X90381666Y-4263571D01*
X90442142Y-4324047D01*
X90563095Y-4384523D01*
X91046904Y-4384523D01*
X91046904Y-3114523D01*
X90623571Y-3114523D01*
X90502619Y-3175000D01*
X90442142Y-3235476D01*
X90381666Y-3356428D01*
X90381666Y-3477380D01*
X90442142Y-3598333D01*
X90502619Y-3658809D01*
X90623571Y-3719285D01*
X91046904Y-3719285D01*
X89535000Y-3114523D02*
X89293095Y-3114523D01*
X89172142Y-3175000D01*
X89051190Y-3295952D01*
X88990714Y-3537857D01*
X88990714Y-3961190D01*
X89051190Y-4203095D01*
X89172142Y-4324047D01*
X89293095Y-4384523D01*
X89535000Y-4384523D01*
X89655952Y-4324047D01*
X89776904Y-4203095D01*
X89837380Y-3961190D01*
X89837380Y-3537857D01*
X89776904Y-3295952D01*
X89655952Y-3175000D01*
X89535000Y-3114523D01*
X88204523Y-3114523D02*
X87962619Y-3114523D01*
X87841666Y-3175000D01*
X87720714Y-3295952D01*
X87660238Y-3537857D01*
X87660238Y-3961190D01*
X87720714Y-4203095D01*
X87841666Y-4324047D01*
X87962619Y-4384523D01*
X88204523Y-4384523D01*
X88325476Y-4324047D01*
X88446428Y-4203095D01*
X88506904Y-3961190D01*
X88506904Y-3537857D01*
X88446428Y-3295952D01*
X88325476Y-3175000D01*
X88204523Y-3114523D01*
X87297380Y-3114523D02*
X86571666Y-3114523D01*
X86934523Y-4384523D02*
X86934523Y-3114523D01*
X76290714Y-3719285D02*
X75867380Y-3719285D01*
X75685952Y-4384523D02*
X76290714Y-4384523D01*
X76290714Y-3114523D01*
X75685952Y-3114523D01*
X75141666Y-4384523D02*
X75141666Y-3114523D01*
X74415952Y-4384523D01*
X74415952Y-3114523D01*
X73992619Y-3114523D02*
X73266904Y-3114523D01*
X73629761Y-4384523D02*
X73629761Y-3114523D01*
X72843571Y-3719285D02*
X72420238Y-3719285D01*
X72238809Y-4384523D02*
X72843571Y-4384523D01*
X72843571Y-3114523D01*
X72238809Y-3114523D01*
X70968809Y-4384523D02*
X71392142Y-3779761D01*
X71694523Y-4384523D02*
X71694523Y-3114523D01*
X71210714Y-3114523D01*
X71089761Y-3175000D01*
X71029285Y-3235476D01*
X70968809Y-3356428D01*
X70968809Y-3537857D01*
X71029285Y-3658809D01*
X71089761Y-3719285D01*
X71210714Y-3779761D01*
X71694523Y-3779761D01*
X59720238Y-4384523D02*
X59720238Y-3114523D01*
X59115476Y-4384523D02*
X59115476Y-3114523D01*
X58389761Y-4384523D01*
X58389761Y-3114523D01*
X57059285Y-4263571D02*
X57119761Y-4324047D01*
X57301190Y-4384523D01*
X57422142Y-4384523D01*
X57603571Y-4324047D01*
X57724523Y-4203095D01*
X57785000Y-4082142D01*
X57845476Y-3840238D01*
X57845476Y-3658809D01*
X57785000Y-3416904D01*
X57724523Y-3295952D01*
X57603571Y-3175000D01*
X57422142Y-3114523D01*
X57301190Y-3114523D01*
X57119761Y-3175000D01*
X57059285Y-3235476D01*
X44722142Y-4384523D02*
X44722142Y-3114523D01*
X44419761Y-3114523D01*
X44238333Y-3175000D01*
X44117380Y-3295952D01*
X44056904Y-3416904D01*
X43996428Y-3658809D01*
X43996428Y-3840238D01*
X44056904Y-4082142D01*
X44117380Y-4203095D01*
X44238333Y-4324047D01*
X44419761Y-4384523D01*
X44722142Y-4384523D01*
X43452142Y-3719285D02*
X43028809Y-3719285D01*
X42847380Y-4384523D02*
X43452142Y-4384523D01*
X43452142Y-3114523D01*
X42847380Y-3114523D01*
X41577380Y-4263571D02*
X41637857Y-4324047D01*
X41819285Y-4384523D01*
X41940238Y-4384523D01*
X42121666Y-4324047D01*
X42242619Y-4203095D01*
X42303095Y-4082142D01*
X42363571Y-3840238D01*
X42363571Y-3658809D01*
X42303095Y-3416904D01*
X42242619Y-3295952D01*
X42121666Y-3175000D01*
X41940238Y-3114523D01*
X41819285Y-3114523D01*
X41637857Y-3175000D01*
X41577380Y-3235476D01*
X30238095Y-4384523D02*
X30238095Y-3114523D01*
X29814761Y-4021666D01*
X29391428Y-3114523D01*
X29391428Y-4384523D01*
X28544761Y-3114523D02*
X28302857Y-3114523D01*
X28181904Y-3175000D01*
X28060952Y-3295952D01*
X28000476Y-3537857D01*
X28000476Y-3961190D01*
X28060952Y-4203095D01*
X28181904Y-4324047D01*
X28302857Y-4384523D01*
X28544761Y-4384523D01*
X28665714Y-4324047D01*
X28786666Y-4203095D01*
X28847142Y-3961190D01*
X28847142Y-3537857D01*
X28786666Y-3295952D01*
X28665714Y-3175000D01*
X28544761Y-3114523D01*
X27456190Y-4384523D02*
X27456190Y-3114523D01*
X27153809Y-3114523D01*
X26972380Y-3175000D01*
X26851428Y-3295952D01*
X26790952Y-3416904D01*
X26730476Y-3658809D01*
X26730476Y-3840238D01*
X26790952Y-4082142D01*
X26851428Y-4203095D01*
X26972380Y-4324047D01*
X27153809Y-4384523D01*
X27456190Y-4384523D01*
X26186190Y-3719285D02*
X25762857Y-3719285D01*
X25581428Y-4384523D02*
X26186190Y-4384523D01*
X26186190Y-3114523D01*
X25581428Y-3114523D01*
X13637380Y-3719285D02*
X13214047Y-3719285D01*
X13032619Y-4384523D02*
X13637380Y-4384523D01*
X13637380Y-3114523D01*
X13032619Y-3114523D01*
X12488333Y-4384523D02*
X12488333Y-3114523D01*
X11762619Y-4384523D01*
X11762619Y-3114523D01*
D12*
G04 #@! TO.C,P1*
X2185000Y-30835000D03*
X2185000Y-23835000D03*
D13*
X4885000Y-29835000D03*
X4885000Y-24835000D03*
G04 #@! TD*
D14*
G04 #@! TO.C,HB54*
X45720000Y-170180000D03*
G04 #@! TD*
G04 #@! TO.C,HB53*
X116840000Y-170180000D03*
G04 #@! TD*
G04 #@! TO.C,HB52*
X116840000Y-99060000D03*
G04 #@! TD*
G04 #@! TO.C,HB51*
X45720000Y-99060000D03*
G04 #@! TD*
D15*
G04 #@! TO.C,HB47*
X5080000Y-37465000D03*
D16*
X7480000Y-37465000D03*
X6777056Y-39162056D03*
X5080000Y-39865000D03*
X3382944Y-39162056D03*
X2680000Y-37465000D03*
X3382944Y-35767944D03*
X5080000Y-35065000D03*
X6777056Y-35767944D03*
G04 #@! TD*
D15*
G04 #@! TO.C,HB48*
X157480000Y-37465000D03*
D16*
X159880000Y-37465000D03*
X159177056Y-39162056D03*
X157480000Y-39865000D03*
X155782944Y-39162056D03*
X155080000Y-37465000D03*
X155782944Y-35767944D03*
X157480000Y-35065000D03*
X159177056Y-35767944D03*
G04 #@! TD*
D15*
G04 #@! TO.C,HB49*
X5080000Y-189865000D03*
D16*
X7480000Y-189865000D03*
X6777056Y-191562056D03*
X5080000Y-192265000D03*
X3382944Y-191562056D03*
X2680000Y-189865000D03*
X3382944Y-188167944D03*
X5080000Y-187465000D03*
X6777056Y-188167944D03*
G04 #@! TD*
D15*
G04 #@! TO.C,HB50*
X157480000Y-189865000D03*
D16*
X159880000Y-189865000D03*
X159177056Y-191562056D03*
X157480000Y-192265000D03*
X155782944Y-191562056D03*
X155080000Y-189865000D03*
X155782944Y-188167944D03*
X157480000Y-187465000D03*
X159177056Y-188167944D03*
G04 #@! TD*
D17*
G04 #@! TO.C,U129*
X97720000Y-6815000D03*
X97720000Y-8085000D03*
X97720000Y-9355000D03*
X97720000Y-10625000D03*
X97720000Y-11895000D03*
X97720000Y-13165000D03*
X97720000Y-14435000D03*
X97720000Y-15705000D03*
X97720000Y-16975000D03*
X97720000Y-18245000D03*
X97720000Y-19515000D03*
X97720000Y-20785000D03*
X97720000Y-22055000D03*
X97720000Y-23325000D03*
X120720000Y-8085000D03*
X120720000Y-16975000D03*
X120720000Y-18245000D03*
X120720000Y-10625000D03*
X120720000Y-6815000D03*
X120720000Y-19515000D03*
X120720000Y-13165000D03*
X120720000Y-23325000D03*
X120720000Y-22055000D03*
X120720000Y-15705000D03*
X120720000Y-14435000D03*
X120720000Y-11895000D03*
X120720000Y-20785000D03*
X120720000Y-9355000D03*
D18*
X103505000Y-27315000D03*
X104775000Y-27315000D03*
X106045000Y-27315000D03*
X107315000Y-27315000D03*
X108585000Y-27315000D03*
X111125000Y-27315000D03*
X112395000Y-27315000D03*
X113665000Y-27315000D03*
X114935000Y-27315000D03*
X109855000Y-27315000D03*
G04 #@! TD*
D19*
G04 #@! TO.C,HB44*
X137160000Y-167005000D03*
G04 #@! TD*
G04 #@! TO.C,HB43*
X137160000Y-149225000D03*
G04 #@! TD*
G04 #@! TO.C,HB42*
X137160000Y-131445000D03*
G04 #@! TD*
G04 #@! TO.C,HB41*
X137160000Y-113665000D03*
G04 #@! TD*
G04 #@! TO.C,HB40*
X137160000Y-95885000D03*
G04 #@! TD*
G04 #@! TO.C,HB39*
X137160000Y-78105000D03*
G04 #@! TD*
G04 #@! TO.C,HB38*
X137160000Y-60325000D03*
G04 #@! TD*
G04 #@! TO.C,HB37*
X25400000Y-167005000D03*
G04 #@! TD*
G04 #@! TO.C,HB36*
X25400000Y-149225000D03*
G04 #@! TD*
G04 #@! TO.C,HB35*
X25400000Y-131445000D03*
G04 #@! TD*
G04 #@! TO.C,HB34*
X25400000Y-113665000D03*
G04 #@! TD*
G04 #@! TO.C,HB33*
X25400000Y-95885000D03*
G04 #@! TD*
G04 #@! TO.C,HB32*
X25400000Y-78105000D03*
G04 #@! TD*
G04 #@! TO.C,HB31*
X25400000Y-60325000D03*
G04 #@! TD*
G04 #@! TO.C,HB30*
X152400000Y-149225000D03*
G04 #@! TD*
G04 #@! TO.C,HB29*
X142240000Y-149225000D03*
G04 #@! TD*
G04 #@! TO.C,HB28*
X132080000Y-149225000D03*
G04 #@! TD*
G04 #@! TO.C,HB27*
X121920000Y-149225000D03*
G04 #@! TD*
G04 #@! TO.C,HB26*
X111760000Y-149225000D03*
G04 #@! TD*
G04 #@! TO.C,HB25*
X101600000Y-149225000D03*
G04 #@! TD*
G04 #@! TO.C,HB24*
X91440000Y-149225000D03*
G04 #@! TD*
G04 #@! TO.C,HB23*
X81280000Y-149225000D03*
G04 #@! TD*
G04 #@! TO.C,HB22*
X71120000Y-149225000D03*
G04 #@! TD*
G04 #@! TO.C,HB21*
X60960000Y-149225000D03*
G04 #@! TD*
G04 #@! TO.C,HB20*
X50800000Y-149225000D03*
G04 #@! TD*
G04 #@! TO.C,HB19*
X40640000Y-149225000D03*
G04 #@! TD*
G04 #@! TO.C,HB18*
X30480000Y-149225000D03*
G04 #@! TD*
G04 #@! TO.C,HB17*
X20320000Y-149225000D03*
G04 #@! TD*
G04 #@! TO.C,HB16*
X10160000Y-149225000D03*
G04 #@! TD*
G04 #@! TO.C,HB15*
X152400000Y-78105000D03*
G04 #@! TD*
G04 #@! TO.C,HB14*
X142240000Y-78105000D03*
G04 #@! TD*
G04 #@! TO.C,HB13*
X132080000Y-78105000D03*
G04 #@! TD*
G04 #@! TO.C,HB12*
X121920000Y-78105000D03*
G04 #@! TD*
G04 #@! TO.C,HB11*
X111760000Y-78105000D03*
G04 #@! TD*
G04 #@! TO.C,HB10*
X101600000Y-78105000D03*
G04 #@! TD*
G04 #@! TO.C,HB9*
X91440000Y-78105000D03*
G04 #@! TD*
G04 #@! TO.C,HB8*
X81280000Y-78105000D03*
G04 #@! TD*
G04 #@! TO.C,HB7*
X71120000Y-78105000D03*
G04 #@! TD*
G04 #@! TO.C,HB6*
X60960000Y-78105000D03*
G04 #@! TD*
G04 #@! TO.C,HB5*
X50800000Y-78105000D03*
G04 #@! TD*
G04 #@! TO.C,HB4*
X40640000Y-78105000D03*
G04 #@! TD*
G04 #@! TO.C,HB3*
X30480000Y-78105000D03*
G04 #@! TD*
G04 #@! TO.C,HB2*
X20320000Y-78105000D03*
G04 #@! TD*
G04 #@! TO.C,HB1*
X10160000Y-78105000D03*
G04 #@! TD*
D20*
G04 #@! TO.C,P2*
X3810000Y-181610000D03*
D21*
X6350000Y-181610000D03*
G04 #@! TD*
D22*
G04 #@! TO.C,BITE1*
X4826000Y-43561000D03*
X2794000Y-43561000D03*
X2794000Y-41529000D03*
X4826000Y-41529000D03*
X3810000Y-43561000D03*
X3810000Y-41529000D03*
G04 #@! TD*
G04 #@! TO.C,BITE2*
X159766000Y-43561000D03*
X157734000Y-43561000D03*
X157734000Y-41529000D03*
X159766000Y-41529000D03*
X158750000Y-43561000D03*
X158750000Y-41529000D03*
G04 #@! TD*
G04 #@! TO.C,BITE3*
X4191000Y-185801000D03*
X2159000Y-185801000D03*
X2159000Y-183769000D03*
X4191000Y-183769000D03*
X3175000Y-185801000D03*
X3175000Y-183769000D03*
G04 #@! TD*
G04 #@! TO.C,BITE4*
X46736000Y-185801000D03*
X44704000Y-185801000D03*
X44704000Y-183769000D03*
X46736000Y-183769000D03*
X45720000Y-185801000D03*
X45720000Y-183769000D03*
G04 #@! TD*
G04 #@! TO.C,BITE5*
X77216000Y-185801000D03*
X75184000Y-185801000D03*
X75184000Y-183769000D03*
X77216000Y-183769000D03*
X76200000Y-185801000D03*
X76200000Y-183769000D03*
G04 #@! TD*
G04 #@! TO.C,BITE6*
X87376000Y-185801000D03*
X85344000Y-185801000D03*
X85344000Y-183769000D03*
X87376000Y-183769000D03*
X86360000Y-185801000D03*
X86360000Y-183769000D03*
G04 #@! TD*
G04 #@! TO.C,BITE7*
X117856000Y-185801000D03*
X115824000Y-185801000D03*
X115824000Y-183769000D03*
X117856000Y-183769000D03*
X116840000Y-185801000D03*
X116840000Y-183769000D03*
G04 #@! TD*
G04 #@! TO.C,BITE8*
X160401000Y-185801000D03*
X158369000Y-185801000D03*
X158369000Y-183769000D03*
X160401000Y-183769000D03*
X159385000Y-185801000D03*
X159385000Y-183769000D03*
G04 #@! TD*
D23*
G04 #@! TO.C,J25*
X21590000Y-37465000D03*
X19050000Y-37465000D03*
X16510000Y-37465000D03*
X13970000Y-37465000D03*
G04 #@! TD*
G04 #@! TO.C,J24*
X140970000Y-37465000D03*
X143510000Y-37465000D03*
X146050000Y-37465000D03*
X148590000Y-37465000D03*
G04 #@! TD*
D24*
G04 #@! TO.C,J20*
X127000000Y-38735000D03*
D25*
X129540000Y-38735000D03*
D24*
X127000000Y-36195000D03*
X129540000Y-36195000D03*
X127000000Y-33655000D03*
X129540000Y-33655000D03*
G04 #@! TD*
D14*
G04 #@! TO.C,J8*
X86360000Y-38100000D03*
G04 #@! TD*
G04 #@! TO.C,J7*
X96520000Y-38100000D03*
G04 #@! TD*
G04 #@! TO.C,J2*
X55880000Y-38100000D03*
G04 #@! TD*
G04 #@! TO.C,J1*
X45720000Y-38100000D03*
G04 #@! TD*
G04 #@! TO.C,J9*
X45720000Y-81280000D03*
G04 #@! TD*
G04 #@! TO.C,J10*
X55880000Y-81280000D03*
G04 #@! TD*
G04 #@! TO.C,J15*
X96520000Y-81280000D03*
G04 #@! TD*
G04 #@! TO.C,J16*
X86360000Y-81280000D03*
G04 #@! TD*
D26*
G04 #@! TO.C,TP1*
G36*
X141409207Y-3011926D02*
X141448036Y-3017686D01*
X141486114Y-3027224D01*
X141523073Y-3040448D01*
X141558559Y-3057231D01*
X141592228Y-3077412D01*
X141623757Y-3100796D01*
X141652843Y-3127157D01*
X141679204Y-3156243D01*
X141702588Y-3187772D01*
X141722769Y-3221441D01*
X141739552Y-3256927D01*
X141752776Y-3293886D01*
X141762314Y-3331964D01*
X141768074Y-3370793D01*
X141770000Y-3410000D01*
X141770000Y-4210000D01*
X141768074Y-4249207D01*
X141762314Y-4288036D01*
X141752776Y-4326114D01*
X141739552Y-4363073D01*
X141722769Y-4398559D01*
X141702588Y-4432228D01*
X141679204Y-4463757D01*
X141652843Y-4492843D01*
X141623757Y-4519204D01*
X141592228Y-4542588D01*
X141558559Y-4562769D01*
X141523073Y-4579552D01*
X141486114Y-4592776D01*
X141448036Y-4602314D01*
X141409207Y-4608074D01*
X141370000Y-4610000D01*
X140570000Y-4610000D01*
X140530793Y-4608074D01*
X140491964Y-4602314D01*
X140453886Y-4592776D01*
X140416927Y-4579552D01*
X140381441Y-4562769D01*
X140347772Y-4542588D01*
X140316243Y-4519204D01*
X140287157Y-4492843D01*
X140260796Y-4463757D01*
X140237412Y-4432228D01*
X140217231Y-4398559D01*
X140200448Y-4363073D01*
X140187224Y-4326114D01*
X140177686Y-4288036D01*
X140171926Y-4249207D01*
X140170000Y-4210000D01*
X140170000Y-3410000D01*
X140171926Y-3370793D01*
X140177686Y-3331964D01*
X140187224Y-3293886D01*
X140200448Y-3256927D01*
X140217231Y-3221441D01*
X140237412Y-3187772D01*
X140260796Y-3156243D01*
X140287157Y-3127157D01*
X140316243Y-3100796D01*
X140347772Y-3077412D01*
X140381441Y-3057231D01*
X140416927Y-3040448D01*
X140453886Y-3027224D01*
X140491964Y-3017686D01*
X140530793Y-3011926D01*
X140570000Y-3010000D01*
X141370000Y-3010000D01*
X141409207Y-3011926D01*
X141409207Y-3011926D01*
G37*
D27*
X140970000Y-3810000D03*
G04 #@! TD*
D26*
G04 #@! TO.C,J23*
G36*
X132519207Y-37936926D02*
X132558036Y-37942686D01*
X132596114Y-37952224D01*
X132633073Y-37965448D01*
X132668559Y-37982231D01*
X132702228Y-38002412D01*
X132733757Y-38025796D01*
X132762843Y-38052157D01*
X132789204Y-38081243D01*
X132812588Y-38112772D01*
X132832769Y-38146441D01*
X132849552Y-38181927D01*
X132862776Y-38218886D01*
X132872314Y-38256964D01*
X132878074Y-38295793D01*
X132880000Y-38335000D01*
X132880000Y-39135000D01*
X132878074Y-39174207D01*
X132872314Y-39213036D01*
X132862776Y-39251114D01*
X132849552Y-39288073D01*
X132832769Y-39323559D01*
X132812588Y-39357228D01*
X132789204Y-39388757D01*
X132762843Y-39417843D01*
X132733757Y-39444204D01*
X132702228Y-39467588D01*
X132668559Y-39487769D01*
X132633073Y-39504552D01*
X132596114Y-39517776D01*
X132558036Y-39527314D01*
X132519207Y-39533074D01*
X132480000Y-39535000D01*
X131680000Y-39535000D01*
X131640793Y-39533074D01*
X131601964Y-39527314D01*
X131563886Y-39517776D01*
X131526927Y-39504552D01*
X131491441Y-39487769D01*
X131457772Y-39467588D01*
X131426243Y-39444204D01*
X131397157Y-39417843D01*
X131370796Y-39388757D01*
X131347412Y-39357228D01*
X131327231Y-39323559D01*
X131310448Y-39288073D01*
X131297224Y-39251114D01*
X131287686Y-39213036D01*
X131281926Y-39174207D01*
X131280000Y-39135000D01*
X131280000Y-38335000D01*
X131281926Y-38295793D01*
X131287686Y-38256964D01*
X131297224Y-38218886D01*
X131310448Y-38181927D01*
X131327231Y-38146441D01*
X131347412Y-38112772D01*
X131370796Y-38081243D01*
X131397157Y-38052157D01*
X131426243Y-38025796D01*
X131457772Y-38002412D01*
X131491441Y-37982231D01*
X131526927Y-37965448D01*
X131563886Y-37952224D01*
X131601964Y-37942686D01*
X131640793Y-37936926D01*
X131680000Y-37935000D01*
X132480000Y-37935000D01*
X132519207Y-37936926D01*
X132519207Y-37936926D01*
G37*
D27*
X132080000Y-38735000D03*
G04 #@! TD*
D26*
G04 #@! TO.C,J22*
G36*
X124899207Y-37936926D02*
X124938036Y-37942686D01*
X124976114Y-37952224D01*
X125013073Y-37965448D01*
X125048559Y-37982231D01*
X125082228Y-38002412D01*
X125113757Y-38025796D01*
X125142843Y-38052157D01*
X125169204Y-38081243D01*
X125192588Y-38112772D01*
X125212769Y-38146441D01*
X125229552Y-38181927D01*
X125242776Y-38218886D01*
X125252314Y-38256964D01*
X125258074Y-38295793D01*
X125260000Y-38335000D01*
X125260000Y-39135000D01*
X125258074Y-39174207D01*
X125252314Y-39213036D01*
X125242776Y-39251114D01*
X125229552Y-39288073D01*
X125212769Y-39323559D01*
X125192588Y-39357228D01*
X125169204Y-39388757D01*
X125142843Y-39417843D01*
X125113757Y-39444204D01*
X125082228Y-39467588D01*
X125048559Y-39487769D01*
X125013073Y-39504552D01*
X124976114Y-39517776D01*
X124938036Y-39527314D01*
X124899207Y-39533074D01*
X124860000Y-39535000D01*
X124060000Y-39535000D01*
X124020793Y-39533074D01*
X123981964Y-39527314D01*
X123943886Y-39517776D01*
X123906927Y-39504552D01*
X123871441Y-39487769D01*
X123837772Y-39467588D01*
X123806243Y-39444204D01*
X123777157Y-39417843D01*
X123750796Y-39388757D01*
X123727412Y-39357228D01*
X123707231Y-39323559D01*
X123690448Y-39288073D01*
X123677224Y-39251114D01*
X123667686Y-39213036D01*
X123661926Y-39174207D01*
X123660000Y-39135000D01*
X123660000Y-38335000D01*
X123661926Y-38295793D01*
X123667686Y-38256964D01*
X123677224Y-38218886D01*
X123690448Y-38181927D01*
X123707231Y-38146441D01*
X123727412Y-38112772D01*
X123750796Y-38081243D01*
X123777157Y-38052157D01*
X123806243Y-38025796D01*
X123837772Y-38002412D01*
X123871441Y-37982231D01*
X123906927Y-37965448D01*
X123943886Y-37952224D01*
X123981964Y-37942686D01*
X124020793Y-37936926D01*
X124060000Y-37935000D01*
X124860000Y-37935000D01*
X124899207Y-37936926D01*
X124899207Y-37936926D01*
G37*
D27*
X124460000Y-38735000D03*
G04 #@! TD*
D26*
G04 #@! TO.C,J21*
G36*
X132519207Y-35396926D02*
X132558036Y-35402686D01*
X132596114Y-35412224D01*
X132633073Y-35425448D01*
X132668559Y-35442231D01*
X132702228Y-35462412D01*
X132733757Y-35485796D01*
X132762843Y-35512157D01*
X132789204Y-35541243D01*
X132812588Y-35572772D01*
X132832769Y-35606441D01*
X132849552Y-35641927D01*
X132862776Y-35678886D01*
X132872314Y-35716964D01*
X132878074Y-35755793D01*
X132880000Y-35795000D01*
X132880000Y-36595000D01*
X132878074Y-36634207D01*
X132872314Y-36673036D01*
X132862776Y-36711114D01*
X132849552Y-36748073D01*
X132832769Y-36783559D01*
X132812588Y-36817228D01*
X132789204Y-36848757D01*
X132762843Y-36877843D01*
X132733757Y-36904204D01*
X132702228Y-36927588D01*
X132668559Y-36947769D01*
X132633073Y-36964552D01*
X132596114Y-36977776D01*
X132558036Y-36987314D01*
X132519207Y-36993074D01*
X132480000Y-36995000D01*
X131680000Y-36995000D01*
X131640793Y-36993074D01*
X131601964Y-36987314D01*
X131563886Y-36977776D01*
X131526927Y-36964552D01*
X131491441Y-36947769D01*
X131457772Y-36927588D01*
X131426243Y-36904204D01*
X131397157Y-36877843D01*
X131370796Y-36848757D01*
X131347412Y-36817228D01*
X131327231Y-36783559D01*
X131310448Y-36748073D01*
X131297224Y-36711114D01*
X131287686Y-36673036D01*
X131281926Y-36634207D01*
X131280000Y-36595000D01*
X131280000Y-35795000D01*
X131281926Y-35755793D01*
X131287686Y-35716964D01*
X131297224Y-35678886D01*
X131310448Y-35641927D01*
X131327231Y-35606441D01*
X131347412Y-35572772D01*
X131370796Y-35541243D01*
X131397157Y-35512157D01*
X131426243Y-35485796D01*
X131457772Y-35462412D01*
X131491441Y-35442231D01*
X131526927Y-35425448D01*
X131563886Y-35412224D01*
X131601964Y-35402686D01*
X131640793Y-35396926D01*
X131680000Y-35395000D01*
X132480000Y-35395000D01*
X132519207Y-35396926D01*
X132519207Y-35396926D01*
G37*
D27*
X132080000Y-36195000D03*
G04 #@! TD*
D26*
G04 #@! TO.C,J19*
G36*
X124899207Y-35396926D02*
X124938036Y-35402686D01*
X124976114Y-35412224D01*
X125013073Y-35425448D01*
X125048559Y-35442231D01*
X125082228Y-35462412D01*
X125113757Y-35485796D01*
X125142843Y-35512157D01*
X125169204Y-35541243D01*
X125192588Y-35572772D01*
X125212769Y-35606441D01*
X125229552Y-35641927D01*
X125242776Y-35678886D01*
X125252314Y-35716964D01*
X125258074Y-35755793D01*
X125260000Y-35795000D01*
X125260000Y-36595000D01*
X125258074Y-36634207D01*
X125252314Y-36673036D01*
X125242776Y-36711114D01*
X125229552Y-36748073D01*
X125212769Y-36783559D01*
X125192588Y-36817228D01*
X125169204Y-36848757D01*
X125142843Y-36877843D01*
X125113757Y-36904204D01*
X125082228Y-36927588D01*
X125048559Y-36947769D01*
X125013073Y-36964552D01*
X124976114Y-36977776D01*
X124938036Y-36987314D01*
X124899207Y-36993074D01*
X124860000Y-36995000D01*
X124060000Y-36995000D01*
X124020793Y-36993074D01*
X123981964Y-36987314D01*
X123943886Y-36977776D01*
X123906927Y-36964552D01*
X123871441Y-36947769D01*
X123837772Y-36927588D01*
X123806243Y-36904204D01*
X123777157Y-36877843D01*
X123750796Y-36848757D01*
X123727412Y-36817228D01*
X123707231Y-36783559D01*
X123690448Y-36748073D01*
X123677224Y-36711114D01*
X123667686Y-36673036D01*
X123661926Y-36634207D01*
X123660000Y-36595000D01*
X123660000Y-35795000D01*
X123661926Y-35755793D01*
X123667686Y-35716964D01*
X123677224Y-35678886D01*
X123690448Y-35641927D01*
X123707231Y-35606441D01*
X123727412Y-35572772D01*
X123750796Y-35541243D01*
X123777157Y-35512157D01*
X123806243Y-35485796D01*
X123837772Y-35462412D01*
X123871441Y-35442231D01*
X123906927Y-35425448D01*
X123943886Y-35412224D01*
X123981964Y-35402686D01*
X124020793Y-35396926D01*
X124060000Y-35395000D01*
X124860000Y-35395000D01*
X124899207Y-35396926D01*
X124899207Y-35396926D01*
G37*
D27*
X124460000Y-36195000D03*
G04 #@! TD*
D26*
G04 #@! TO.C,J18*
G36*
X132519207Y-32856926D02*
X132558036Y-32862686D01*
X132596114Y-32872224D01*
X132633073Y-32885448D01*
X132668559Y-32902231D01*
X132702228Y-32922412D01*
X132733757Y-32945796D01*
X132762843Y-32972157D01*
X132789204Y-33001243D01*
X132812588Y-33032772D01*
X132832769Y-33066441D01*
X132849552Y-33101927D01*
X132862776Y-33138886D01*
X132872314Y-33176964D01*
X132878074Y-33215793D01*
X132880000Y-33255000D01*
X132880000Y-34055000D01*
X132878074Y-34094207D01*
X132872314Y-34133036D01*
X132862776Y-34171114D01*
X132849552Y-34208073D01*
X132832769Y-34243559D01*
X132812588Y-34277228D01*
X132789204Y-34308757D01*
X132762843Y-34337843D01*
X132733757Y-34364204D01*
X132702228Y-34387588D01*
X132668559Y-34407769D01*
X132633073Y-34424552D01*
X132596114Y-34437776D01*
X132558036Y-34447314D01*
X132519207Y-34453074D01*
X132480000Y-34455000D01*
X131680000Y-34455000D01*
X131640793Y-34453074D01*
X131601964Y-34447314D01*
X131563886Y-34437776D01*
X131526927Y-34424552D01*
X131491441Y-34407769D01*
X131457772Y-34387588D01*
X131426243Y-34364204D01*
X131397157Y-34337843D01*
X131370796Y-34308757D01*
X131347412Y-34277228D01*
X131327231Y-34243559D01*
X131310448Y-34208073D01*
X131297224Y-34171114D01*
X131287686Y-34133036D01*
X131281926Y-34094207D01*
X131280000Y-34055000D01*
X131280000Y-33255000D01*
X131281926Y-33215793D01*
X131287686Y-33176964D01*
X131297224Y-33138886D01*
X131310448Y-33101927D01*
X131327231Y-33066441D01*
X131347412Y-33032772D01*
X131370796Y-33001243D01*
X131397157Y-32972157D01*
X131426243Y-32945796D01*
X131457772Y-32922412D01*
X131491441Y-32902231D01*
X131526927Y-32885448D01*
X131563886Y-32872224D01*
X131601964Y-32862686D01*
X131640793Y-32856926D01*
X131680000Y-32855000D01*
X132480000Y-32855000D01*
X132519207Y-32856926D01*
X132519207Y-32856926D01*
G37*
D27*
X132080000Y-33655000D03*
G04 #@! TD*
D26*
G04 #@! TO.C,J17*
G36*
X124899207Y-32856926D02*
X124938036Y-32862686D01*
X124976114Y-32872224D01*
X125013073Y-32885448D01*
X125048559Y-32902231D01*
X125082228Y-32922412D01*
X125113757Y-32945796D01*
X125142843Y-32972157D01*
X125169204Y-33001243D01*
X125192588Y-33032772D01*
X125212769Y-33066441D01*
X125229552Y-33101927D01*
X125242776Y-33138886D01*
X125252314Y-33176964D01*
X125258074Y-33215793D01*
X125260000Y-33255000D01*
X125260000Y-34055000D01*
X125258074Y-34094207D01*
X125252314Y-34133036D01*
X125242776Y-34171114D01*
X125229552Y-34208073D01*
X125212769Y-34243559D01*
X125192588Y-34277228D01*
X125169204Y-34308757D01*
X125142843Y-34337843D01*
X125113757Y-34364204D01*
X125082228Y-34387588D01*
X125048559Y-34407769D01*
X125013073Y-34424552D01*
X124976114Y-34437776D01*
X124938036Y-34447314D01*
X124899207Y-34453074D01*
X124860000Y-34455000D01*
X124060000Y-34455000D01*
X124020793Y-34453074D01*
X123981964Y-34447314D01*
X123943886Y-34437776D01*
X123906927Y-34424552D01*
X123871441Y-34407769D01*
X123837772Y-34387588D01*
X123806243Y-34364204D01*
X123777157Y-34337843D01*
X123750796Y-34308757D01*
X123727412Y-34277228D01*
X123707231Y-34243559D01*
X123690448Y-34208073D01*
X123677224Y-34171114D01*
X123667686Y-34133036D01*
X123661926Y-34094207D01*
X123660000Y-34055000D01*
X123660000Y-33255000D01*
X123661926Y-33215793D01*
X123667686Y-33176964D01*
X123677224Y-33138886D01*
X123690448Y-33101927D01*
X123707231Y-33066441D01*
X123727412Y-33032772D01*
X123750796Y-33001243D01*
X123777157Y-32972157D01*
X123806243Y-32945796D01*
X123837772Y-32922412D01*
X123871441Y-32902231D01*
X123906927Y-32885448D01*
X123943886Y-32872224D01*
X123981964Y-32862686D01*
X124020793Y-32856926D01*
X124060000Y-32855000D01*
X124860000Y-32855000D01*
X124899207Y-32856926D01*
X124899207Y-32856926D01*
G37*
D27*
X124460000Y-33655000D03*
G04 #@! TD*
D26*
G04 #@! TO.C,TP3*
G36*
X146489207Y-3011926D02*
X146528036Y-3017686D01*
X146566114Y-3027224D01*
X146603073Y-3040448D01*
X146638559Y-3057231D01*
X146672228Y-3077412D01*
X146703757Y-3100796D01*
X146732843Y-3127157D01*
X146759204Y-3156243D01*
X146782588Y-3187772D01*
X146802769Y-3221441D01*
X146819552Y-3256927D01*
X146832776Y-3293886D01*
X146842314Y-3331964D01*
X146848074Y-3370793D01*
X146850000Y-3410000D01*
X146850000Y-4210000D01*
X146848074Y-4249207D01*
X146842314Y-4288036D01*
X146832776Y-4326114D01*
X146819552Y-4363073D01*
X146802769Y-4398559D01*
X146782588Y-4432228D01*
X146759204Y-4463757D01*
X146732843Y-4492843D01*
X146703757Y-4519204D01*
X146672228Y-4542588D01*
X146638559Y-4562769D01*
X146603073Y-4579552D01*
X146566114Y-4592776D01*
X146528036Y-4602314D01*
X146489207Y-4608074D01*
X146450000Y-4610000D01*
X145650000Y-4610000D01*
X145610793Y-4608074D01*
X145571964Y-4602314D01*
X145533886Y-4592776D01*
X145496927Y-4579552D01*
X145461441Y-4562769D01*
X145427772Y-4542588D01*
X145396243Y-4519204D01*
X145367157Y-4492843D01*
X145340796Y-4463757D01*
X145317412Y-4432228D01*
X145297231Y-4398559D01*
X145280448Y-4363073D01*
X145267224Y-4326114D01*
X145257686Y-4288036D01*
X145251926Y-4249207D01*
X145250000Y-4210000D01*
X145250000Y-3410000D01*
X145251926Y-3370793D01*
X145257686Y-3331964D01*
X145267224Y-3293886D01*
X145280448Y-3256927D01*
X145297231Y-3221441D01*
X145317412Y-3187772D01*
X145340796Y-3156243D01*
X145367157Y-3127157D01*
X145396243Y-3100796D01*
X145427772Y-3077412D01*
X145461441Y-3057231D01*
X145496927Y-3040448D01*
X145533886Y-3027224D01*
X145571964Y-3017686D01*
X145610793Y-3011926D01*
X145650000Y-3010000D01*
X146450000Y-3010000D01*
X146489207Y-3011926D01*
X146489207Y-3011926D01*
G37*
D27*
X146050000Y-3810000D03*
G04 #@! TD*
D26*
G04 #@! TO.C,TP2*
G36*
X143949207Y-3011926D02*
X143988036Y-3017686D01*
X144026114Y-3027224D01*
X144063073Y-3040448D01*
X144098559Y-3057231D01*
X144132228Y-3077412D01*
X144163757Y-3100796D01*
X144192843Y-3127157D01*
X144219204Y-3156243D01*
X144242588Y-3187772D01*
X144262769Y-3221441D01*
X144279552Y-3256927D01*
X144292776Y-3293886D01*
X144302314Y-3331964D01*
X144308074Y-3370793D01*
X144310000Y-3410000D01*
X144310000Y-4210000D01*
X144308074Y-4249207D01*
X144302314Y-4288036D01*
X144292776Y-4326114D01*
X144279552Y-4363073D01*
X144262769Y-4398559D01*
X144242588Y-4432228D01*
X144219204Y-4463757D01*
X144192843Y-4492843D01*
X144163757Y-4519204D01*
X144132228Y-4542588D01*
X144098559Y-4562769D01*
X144063073Y-4579552D01*
X144026114Y-4592776D01*
X143988036Y-4602314D01*
X143949207Y-4608074D01*
X143910000Y-4610000D01*
X143110000Y-4610000D01*
X143070793Y-4608074D01*
X143031964Y-4602314D01*
X142993886Y-4592776D01*
X142956927Y-4579552D01*
X142921441Y-4562769D01*
X142887772Y-4542588D01*
X142856243Y-4519204D01*
X142827157Y-4492843D01*
X142800796Y-4463757D01*
X142777412Y-4432228D01*
X142757231Y-4398559D01*
X142740448Y-4363073D01*
X142727224Y-4326114D01*
X142717686Y-4288036D01*
X142711926Y-4249207D01*
X142710000Y-4210000D01*
X142710000Y-3410000D01*
X142711926Y-3370793D01*
X142717686Y-3331964D01*
X142727224Y-3293886D01*
X142740448Y-3256927D01*
X142757231Y-3221441D01*
X142777412Y-3187772D01*
X142800796Y-3156243D01*
X142827157Y-3127157D01*
X142856243Y-3100796D01*
X142887772Y-3077412D01*
X142921441Y-3057231D01*
X142956927Y-3040448D01*
X142993886Y-3027224D01*
X143031964Y-3017686D01*
X143070793Y-3011926D01*
X143110000Y-3010000D01*
X143910000Y-3010000D01*
X143949207Y-3011926D01*
X143949207Y-3011926D01*
G37*
D27*
X143510000Y-3810000D03*
G04 #@! TD*
D28*
G04 #@! TO.C,LDR1*
X35560000Y-3810000D03*
D29*
X38100000Y-3810000D03*
X33020000Y-3810000D03*
G04 #@! TD*
D28*
G04 #@! TO.C,LDR2*
X127000000Y-3810000D03*
D29*
X124460000Y-3810000D03*
X129540000Y-3810000D03*
G04 #@! TD*
D30*
G04 #@! TO.C,S5*
X38630000Y-7275000D03*
X47730000Y-7275000D03*
X47730000Y-11775000D03*
X38630000Y-11775000D03*
G04 #@! TD*
G04 #@! TO.C,S6*
X23390000Y-7275000D03*
X32490000Y-7275000D03*
X32490000Y-11775000D03*
X23390000Y-11775000D03*
G04 #@! TD*
G04 #@! TO.C,S4*
X84350000Y-7275000D03*
X93450000Y-7275000D03*
X93450000Y-11775000D03*
X84350000Y-11775000D03*
G04 #@! TD*
G04 #@! TO.C,S2*
X53870000Y-7275000D03*
X62970000Y-7275000D03*
X62970000Y-11775000D03*
X53870000Y-11775000D03*
G04 #@! TD*
G04 #@! TO.C,S3*
X8150000Y-7275000D03*
X17250000Y-7275000D03*
X17250000Y-11775000D03*
X8150000Y-11775000D03*
G04 #@! TD*
G04 #@! TO.C,S1*
X69110000Y-7275000D03*
X78210000Y-7275000D03*
X78210000Y-11775000D03*
X69110000Y-11775000D03*
G04 #@! TD*
D16*
G04 #@! TO.C,U132*
X41335000Y-24274474D03*
X42233026Y-25172500D03*
X41335000Y-26070526D03*
X40436974Y-25172500D03*
X41335000Y-25172500D03*
G04 #@! TD*
D31*
G04 #@! TO.C,HB45*
X3810000Y-3175000D03*
G04 #@! TD*
G04 #@! TO.C,HB46*
X158750000Y-3175000D03*
G04 #@! TD*
M02*
