M48
INCH,TZ
T1C0.0197
T2C0.0236
T3C0.0250
T4C0.0335
T5C0.0400
T6C0.0402
T7C0.0472
T8C0.1260
T9C0.0200
T10C0.0500
T11C0.0800
T12C0.1260
%
G90
G05
T1
X0.2002Y-0.7711
X0.2396Y-1.1267
X0.2888Y-1.1746
X0.3116Y-1.127
X0.3715Y-1.1746
X0.4266Y-1.1156
X0.4915Y-0.4636
X0.5545Y-1.1156
X0.6037Y-0.9187
X0.8006Y-0.5841
X0.84Y-1.0762
X0.84Y-0.9974
X0.9778Y-1.2919
X1.0565Y-1.46
X1.0565Y-1.5191
X1.103Y-0.4636
X1.214Y-1.46
X1.214Y-1.5191
X1.2533Y-1.46
X1.2533Y-1.5191
X1.401Y-0.5841
X1.4108Y-1.46
X1.4108Y-1.5191
X1.5486Y-1.2435
X1.65Y-1.825
X1.6671Y-0.799
X1.7096Y-0.7986
X1.7281Y-0.4636
X1.7565Y-0.799
X1.8041Y-0.8577
X1.8045Y-0.9089
X1.8742Y-0.6927
X1.8931Y-1.2435
X1.9423Y-0.7632
X1.9423Y-1.2435
X1.9915Y-1.2435
X2.051Y-0.5372
X2.0573Y-0.8179
X2.075Y-1.825
X2.09Y-0.151
X2.1392Y-0.736
X2.2207Y-0.8179
X2.277Y-1.0368
X2.277Y-1.2435
X2.303Y-0.4636
X2.336Y-1.0368
X2.336Y-1.2435
X2.5482Y-0.5376
X2.5624Y-0.7317
X2.6116Y-0.7317
X2.6313Y-0.801
X2.7789Y-0.815
X2.8549Y-0.7333
X2.9033Y-0.4636
X2.9364Y-0.8152
X3.0841Y-0.2396
X3.1344Y-0.8262
X3.1435Y-1.1892
X3.1915Y-1.1892
X3.2002Y-1.0124
X3.2022Y-0.1608
X3.2514Y-0.1411
X3.2514Y-0.21
X3.2549Y-1.1589
X3.2809Y-1.1254
X3.2829Y-0.7447
X3.3541Y-0.9837
X3.3577Y-0.897
X3.399Y-0.6234
X3.4187Y-0.2297
X3.499Y-0.4636
X3.5368Y-0.3183
X3.5762Y-1.1274
X3.588Y-0.8203
X3.6156Y-1.1593
X3.662Y-0.975
X3.8518Y-1.014
X4.1722Y-0.5596
X4.2722Y-0.66
X4.2726Y-0.4589
X4.3726Y-0.5596
X4.5656Y-0.2549
X5.0526Y-0.7998
X5.0526Y-0.849
X5.053Y-0.7002
X5.053Y-0.7498
X5.053Y-0.8994
X5.09Y-1.149
X5.2183Y-1.0002
X5.2963Y-0.7002
X5.2967Y-0.7498
X5.2967Y-0.8002
X5.2967Y-0.8498
X6.1549Y-0.4955
X6.1549Y-1.0049
X1.592Y-0.991
X1.6274Y-0.9557
X1.6274Y-0.991
X1.6274Y-1.0264
X1.6627Y-0.991
X6.1055Y-1.475
X6.1332Y-1.4082
X6.1332Y-1.5418
X6.2Y-1.3805
X6.2Y-1.5695
X6.2668Y-1.4082
X6.2668Y-1.5418
X6.2945Y-1.475
X6.1055Y-7.475
X6.1332Y-7.4082
X6.1332Y-7.5418
X6.2Y-7.3805
X6.2Y-7.5695
X6.2668Y-7.4082
X6.2668Y-7.5418
X6.2945Y-7.475
X0.1055Y-1.475
X0.1332Y-1.4082
X0.1332Y-1.5418
X0.2Y-1.3805
X0.2Y-1.5695
X0.2668Y-1.4082
X0.2668Y-1.5418
X0.2945Y-1.475
X0.1055Y-7.475
X0.1332Y-7.4082
X0.1332Y-7.5418
X0.2Y-7.3805
X0.2Y-7.5695
X0.2668Y-7.4082
X0.2668Y-7.5418
X0.2945Y-7.475
X3.8472Y-0.2683
X3.8472Y-0.3183
X3.8472Y-0.3683
X3.8472Y-0.4183
X3.8472Y-0.4683
X3.8472Y-0.5183
X3.8472Y-0.5683
X3.8472Y-0.6183
X3.8472Y-0.6683
X3.8472Y-0.7183
X3.8472Y-0.7683
X3.8472Y-0.8183
X3.8472Y-0.8683
X3.8472Y-0.9183
X4.075Y-1.0754
X4.125Y-1.0754
X4.175Y-1.0754
X4.225Y-1.0754
X4.275Y-1.0754
X4.325Y-1.0754
X4.375Y-1.0754
X4.425Y-1.0754
X4.475Y-1.0754
X4.525Y-1.0754
X4.7528Y-0.2683
X4.7528Y-0.3183
X4.7528Y-0.3683
X4.7528Y-0.4183
X4.7528Y-0.4683
X4.7528Y-0.5183
X4.7528Y-0.5683
X4.7528Y-0.6183
X4.7528Y-0.6683
X4.7528Y-0.7183
X4.7528Y-0.7683
X4.7528Y-0.8183
X4.7528Y-0.8683
X4.7528Y-0.9183
T3
X2.5646Y-6.2841
X2.6354Y-6.2841
X1.7646Y-5.4659
X1.8354Y-5.4659
X1.7646Y-6.2841
X1.8354Y-6.2841
X0.9646Y-2.6659
X1.0354Y-2.6659
X0.5646Y-2.0841
X0.6354Y-2.0841
X2.1646Y-3.4841
X2.2354Y-3.4841
X0.1646Y-4.0659
X0.2354Y-4.0659
X2.5646Y-6.8659
X2.6354Y-6.8659
X1.7646Y-2.6659
X1.8354Y-2.6659
X5.3646Y-3.4841
X5.4354Y-3.4841
X3.3646Y-6.8659
X3.4354Y-6.8659
X2.9646Y-2.0841
X3.0354Y-2.0841
X2.5646Y-2.6659
X2.6354Y-2.6659
X3.7646Y-3.4841
X3.8354Y-3.4841
X4.1646Y-3.4841
X4.2354Y-3.4841
X4.1646Y-6.8659
X4.2354Y-6.8659
X1.7646Y-4.0659
X1.8354Y-4.0659
X5.3646Y-5.4659
X5.4354Y-5.4659
X4.9646Y-5.4659
X5.0354Y-5.4659
X2.1646Y-6.2841
X2.2354Y-6.2841
X4.1646Y-2.6659
X4.2354Y-2.6659
X3.3646Y-4.8841
X3.4354Y-4.8841
X4.1646Y-4.8841
X4.2354Y-4.8841
X1.3646Y-6.2841
X1.4354Y-6.2841
X4.1646Y-6.2841
X4.2354Y-6.2841
X5.7646Y-6.8659
X5.8354Y-6.8659
X3.7646Y-4.0659
X3.8354Y-4.0659
X6.1646Y-5.4659
X6.2354Y-5.4659
X5.7646Y-2.6659
X5.8354Y-2.6659
X5.3646Y-2.6659
X5.4354Y-2.6659
X4.9646Y-2.6659
X5.0354Y-2.6659
X6.1646Y-6.2841
X6.2354Y-6.2841
X2.5646Y-4.8841
X2.6354Y-4.8841
X5.3646Y-4.8841
X5.4354Y-4.8841
X1.3646Y-3.4841
X1.4354Y-3.4841
X1.7646Y-3.4841
X1.8354Y-3.4841
X4.9646Y-4.0659
X5.0354Y-4.0659
X5.7646Y-4.8841
X5.8354Y-4.8841
X5.3646Y-6.2841
X5.4354Y-6.2841
X5.7646Y-2.0841
X5.8354Y-2.0841
X3.7646Y-6.8659
X3.8354Y-6.8659
X1.3646Y-4.8841
X1.4354Y-4.8841
X1.7646Y-4.8841
X1.8354Y-4.8841
X0.9646Y-5.4659
X1.0354Y-5.4659
X0.5646Y-5.4659
X0.6354Y-5.4659
X0.1646Y-3.4841
X0.2354Y-3.4841
X0.5646Y-3.4841
X0.6354Y-3.4841
X6.1646Y-4.0659
X6.2354Y-4.0659
X5.7646Y-4.0659
X5.8354Y-4.0659
X1.3646Y-6.8659
X1.4354Y-6.8659
X0.1646Y-4.8841
X0.2354Y-4.8841
X0.5646Y-4.8841
X0.6354Y-4.8841
X1.3646Y-2.6659
X1.4354Y-2.6659
X0.5646Y-2.6659
X0.6354Y-2.6659
X5.7646Y-3.4841
X5.8354Y-3.4841
X3.7646Y-6.2841
X3.8354Y-6.2841
X6.1646Y-6.8659
X6.2354Y-6.8659
X2.9646Y-5.4659
X3.0354Y-5.4659
X0.5646Y-6.8659
X0.6354Y-6.8659
X4.1646Y-2.0841
X4.2354Y-2.0841
X2.1646Y-2.6659
X2.2354Y-2.6659
X4.5646Y-3.4841
X4.6354Y-3.4841
X4.9646Y-3.4841
X5.0354Y-3.4841
X5.7646Y-6.2841
X5.8354Y-6.2841
X1.3646Y-4.0659
X1.4354Y-4.0659
X0.9646Y-4.0659
X1.0354Y-4.0659
X4.1646Y-5.4659
X4.2354Y-5.4659
X4.9646Y-6.2841
X5.0354Y-6.2841
X2.1646Y-6.8659
X2.2354Y-6.8659
X2.1646Y-2.0841
X2.2354Y-2.0841
X2.9646Y-2.6659
X3.0354Y-2.6659
X4.5646Y-4.8841
X4.6354Y-4.8841
X4.9646Y-4.8841
X5.0354Y-4.8841
X2.5646Y-4.0659
X2.6354Y-4.0659
X2.1646Y-4.0659
X2.2354Y-4.0659
X0.9646Y-2.0841
X1.0354Y-2.0841
X4.5646Y-2.6659
X4.6354Y-2.6659
X2.9646Y-4.8841
X3.0354Y-4.8841
X3.7646Y-4.8841
X3.8354Y-4.8841
X4.5646Y-4.0659
X4.6354Y-4.0659
X3.3646Y-4.0659
X3.4354Y-4.0659
X6.1646Y-4.8841
X6.2354Y-4.8841
X6.1646Y-2.6659
X6.2354Y-2.6659
X0.1646Y-6.8659
X0.2354Y-6.8659
X0.1646Y-6.2841
X0.2354Y-6.2841
X0.5646Y-6.2841
X0.6354Y-6.2841
X2.9646Y-6.8659
X3.0354Y-6.8659
X0.9646Y-3.4841
X1.0354Y-3.4841
X5.3646Y-4.0659
X5.4354Y-4.0659
X5.3646Y-2.0841
X5.4354Y-2.0841
X0.9646Y-4.8841
X1.0354Y-4.8841
X1.3646Y-5.4659
X1.4354Y-5.4659
X4.5646Y-6.2841
X4.6354Y-6.2841
X5.3646Y-6.8659
X5.4354Y-6.8659
X0.1646Y-2.6659
X0.2354Y-2.6659
X6.1646Y-3.4841
X6.2354Y-3.4841
X4.5646Y-6.8659
X4.6354Y-6.8659
X2.5646Y-5.4659
X2.6354Y-5.4659
X2.1646Y-5.4659
X2.2354Y-5.4659
X4.5646Y-2.0841
X4.6354Y-2.0841
X0.5646Y-4.0659
X0.6354Y-4.0659
X3.7646Y-5.4659
X3.8354Y-5.4659
X3.3646Y-5.4659
X3.4354Y-5.4659
X3.3646Y-2.0841
X3.4354Y-2.0841
X3.7646Y-2.0841
X3.8354Y-2.0841
X2.9646Y-6.2841
X3.0354Y-6.2841
X0.9646Y-6.8659
X1.0354Y-6.8659
X2.5646Y-3.4841
X2.6354Y-3.4841
X4.5646Y-5.4659
X4.6354Y-5.4659
X1.3646Y-2.0841
X1.4354Y-2.0841
X1.7646Y-2.0841
X1.8354Y-2.0841
X2.5646Y-2.0841
X2.6354Y-2.0841
X3.7646Y-2.6659
X3.8354Y-2.6659
X3.3646Y-2.6659
X3.4354Y-2.6659
X2.9646Y-3.4841
X3.0354Y-3.4841
X3.3646Y-3.4841
X3.4354Y-3.4841
X2.9646Y-4.0659
X3.0354Y-4.0659
X5.7646Y-5.4659
X5.8354Y-5.4659
X4.9646Y-6.8659
X5.0354Y-6.8659
X1.7646Y-6.8659
X1.8354Y-6.8659
X0.1646Y-2.0841
X0.2354Y-2.0841
X0.9646Y-6.2841
X1.0354Y-6.2841
X4.1646Y-4.0659
X4.2354Y-4.0659
X4.9646Y-2.0841
X5.0354Y-2.0841
X6.1646Y-2.0841
X6.2354Y-2.0841
X3.3646Y-6.2841
X3.4354Y-6.2841
X2.1646Y-4.8841
X2.2354Y-4.8841
X0.1646Y-5.4659
X0.2354Y-5.4659
T4
X0.1923Y-0.9778
X0.1923Y-1.1746
T5
X5.Y-1.325
X5.Y-1.425
X5.Y-1.525
X5.1Y-1.325
X5.1Y-1.425
X5.1Y-1.525
T6
X5.65Y-0.15
X5.75Y-0.15
X5.2Y-1.325
X0.55Y-1.475
X0.65Y-1.475
X0.75Y-1.475
X0.85Y-1.475
X5.2Y-1.525
X5.55Y-0.15
X4.9Y-1.425
X0.15Y-7.15
X0.25Y-7.15
X4.9Y-1.525
X5.2Y-1.425
X5.55Y-1.475
X5.65Y-1.475
X5.75Y-1.475
X5.85Y-1.475
X4.9Y-1.325
T7
X4.9Y-0.15
X5.1Y-0.15
X1.3Y-0.15
X1.5Y-0.15
T8
X3.8Y-1.5
X4.6Y-3.9
X1.8Y-6.7
X1.8Y-3.2
X6.2Y-1.475
X6.2Y-7.475
X2.2Y-3.2
X0.2Y-1.475
X0.2Y-7.475
X2.2Y-1.5
X4.6Y-6.7
X1.8Y-3.9
X3.8Y-3.2
X3.4Y-1.5
X1.8Y-1.5
X3.4Y-3.2
T9
X6.235Y-7.235
X6.235Y-7.315
X6.275Y-7.235
X6.275Y-7.315
X6.315Y-7.235
X6.315Y-7.315
X3.36Y-7.235
X3.36Y-7.315
X3.4Y-7.235
X3.4Y-7.315
X3.44Y-7.235
X3.44Y-7.315
X2.96Y-7.235
X2.96Y-7.315
X3.Y-7.235
X3.Y-7.315
X3.04Y-7.235
X3.04Y-7.315
X1.76Y-7.235
X1.76Y-7.315
X1.8Y-7.235
X1.8Y-7.315
X1.84Y-7.235
X1.84Y-7.315
X0.085Y-7.235
X0.085Y-7.315
X0.125Y-7.235
X0.125Y-7.315
X0.165Y-7.235
X0.165Y-7.315
X0.11Y-1.635
X0.11Y-1.715
X0.15Y-1.635
X0.15Y-1.715
X0.19Y-1.635
X0.19Y-1.715
X6.21Y-1.635
X6.21Y-1.715
X6.25Y-1.635
X6.25Y-1.715
X6.29Y-1.635
X6.29Y-1.715
X4.56Y-7.235
X4.56Y-7.315
X4.6Y-7.235
X4.6Y-7.315
X4.64Y-7.235
X4.64Y-7.315
T10
X5.Y-0.15
X1.4Y-0.15
T11
X6.Y-5.875
X1.2Y-3.075
X5.4Y-5.875
X1.2Y-5.875
X0.8Y-5.875
X1.Y-3.775
X1.Y-3.075
X1.Y-2.375
X5.4Y-5.175
X5.4Y-4.475
X1.6Y-3.075
X2.8Y-5.875
X5.4Y-6.575
X5.4Y-2.375
X2.8Y-3.075
X2.Y-3.075
X0.4Y-5.875
X3.2Y-3.075
X2.4Y-5.875
X2.Y-5.875
X1.6Y-5.875
X2.4Y-3.075
X0.8Y-3.075
X6.Y-3.075
X5.6Y-3.075
X5.2Y-3.075
X4.8Y-5.875
X1.Y-6.575
X1.Y-5.875
X0.4Y-3.075
X1.Y-5.175
X1.Y-4.475
X5.6Y-5.875
X5.2Y-5.875
X5.4Y-3.775
X3.6Y-5.875
X3.2Y-5.875
X5.4Y-3.075
X4.8Y-3.075
X4.4Y-3.075
X4.Y-3.075
X3.6Y-3.075
X4.4Y-5.875
X4.Y-5.875
T12
X6.25Y-0.125
X0.15Y-0.125
T2
X0.0722Y-0.9384G85X0.0998Y-0.9384
G05
X0.0998Y-1.214G85X0.0722Y-1.214
G05
T0
M30
