G04 #@! TF.GenerationSoftware,KiCad,Pcbnew,5.0.0-rc2-unknown-0a91f0b~65~ubuntu16.04.1*
G04 #@! TF.CreationDate,2018-06-04T20:45:33+05:30*
G04 #@! TF.ProjectId,ClockIOT,436C6F636B494F542E6B696361645F70,rev 1*
G04 #@! TF.SameCoordinates,PX2fd7508PY2fd7508*
G04 #@! TF.FileFunction,Soldermask,Bot*
G04 #@! TF.FilePolarity,Negative*
%FSLAX46Y46*%
G04 Gerber Fmt 4.6, Leading zero omitted, Abs format (unit mm)*
G04 Created by KiCad (PCBNEW 5.0.0-rc2-unknown-0a91f0b~65~ubuntu16.04.1) date Mon Jun  4 20:45:33 2018*
%MOMM*%
%LPD*%
G01*
G04 APERTURE LIST*
%ADD10C,0.762000*%
%ADD11C,0.254000*%
%ADD12C,5.200000*%
%ADD13C,6.400000*%
%ADD14C,0.800000*%
%ADD15O,2.000000X1.000000*%
%ADD16O,1.000000X2.000000*%
%ADD17C,2.082800*%
%ADD18O,2.000000X2.000000*%
%ADD19R,2.000000X2.000000*%
%ADD20C,0.508000*%
%ADD21C,1.800000*%
%ADD22C,1.524000*%
%ADD23R,1.524000X1.524000*%
%ADD24C,0.127000*%
%ADD25C,1.600000*%
%ADD26C,1.270000*%
%ADD27C,2.000000*%
%ADD28R,2.100000X1.400000*%
%ADD29C,1.450000*%
%ADD30O,1.900000X1.200000*%
%ADD31C,3.200000*%
G04 APERTURE END LIST*
D10*
X90351428Y-114390714D02*
X90532857Y-114572142D01*
X91077142Y-114753571D01*
X91440000Y-114753571D01*
X91984285Y-114572142D01*
X92347142Y-114209285D01*
X92528571Y-113846428D01*
X92710000Y-113120714D01*
X92710000Y-112576428D01*
X92528571Y-111850714D01*
X92347142Y-111487857D01*
X91984285Y-111125000D01*
X91440000Y-110943571D01*
X91077142Y-110943571D01*
X90532857Y-111125000D01*
X90351428Y-111306428D01*
X88174285Y-114753571D02*
X88537142Y-114572142D01*
X88718571Y-114209285D01*
X88718571Y-110943571D01*
X86178571Y-114753571D02*
X86541428Y-114572142D01*
X86722857Y-114390714D01*
X86904285Y-114027857D01*
X86904285Y-112939285D01*
X86722857Y-112576428D01*
X86541428Y-112395000D01*
X86178571Y-112213571D01*
X85634285Y-112213571D01*
X85271428Y-112395000D01*
X85090000Y-112576428D01*
X84908571Y-112939285D01*
X84908571Y-114027857D01*
X85090000Y-114390714D01*
X85271428Y-114572142D01*
X85634285Y-114753571D01*
X86178571Y-114753571D01*
X81642857Y-114572142D02*
X82005714Y-114753571D01*
X82731428Y-114753571D01*
X83094285Y-114572142D01*
X83275714Y-114390714D01*
X83457142Y-114027857D01*
X83457142Y-112939285D01*
X83275714Y-112576428D01*
X83094285Y-112395000D01*
X82731428Y-112213571D01*
X82005714Y-112213571D01*
X81642857Y-112395000D01*
X80010000Y-114753571D02*
X80010000Y-110943571D01*
X79647142Y-113302142D02*
X78558571Y-114753571D01*
X78558571Y-112213571D02*
X80010000Y-113665000D01*
X76925714Y-114753571D02*
X76925714Y-110943571D01*
X74385714Y-110943571D02*
X73660000Y-110943571D01*
X73297142Y-111125000D01*
X72934285Y-111487857D01*
X72752857Y-112213571D01*
X72752857Y-113483571D01*
X72934285Y-114209285D01*
X73297142Y-114572142D01*
X73660000Y-114753571D01*
X74385714Y-114753571D01*
X74748571Y-114572142D01*
X75111428Y-114209285D01*
X75292857Y-113483571D01*
X75292857Y-112213571D01*
X75111428Y-111487857D01*
X74748571Y-111125000D01*
X74385714Y-110943571D01*
X71664285Y-110943571D02*
X69487142Y-110943571D01*
X70575714Y-114753571D02*
X70575714Y-110943571D01*
D11*
X90623571Y-3719285D02*
X90442142Y-3779761D01*
X90381666Y-3840238D01*
X90321190Y-3961190D01*
X90321190Y-4142619D01*
X90381666Y-4263571D01*
X90442142Y-4324047D01*
X90563095Y-4384523D01*
X91046904Y-4384523D01*
X91046904Y-3114523D01*
X90623571Y-3114523D01*
X90502619Y-3175000D01*
X90442142Y-3235476D01*
X90381666Y-3356428D01*
X90381666Y-3477380D01*
X90442142Y-3598333D01*
X90502619Y-3658809D01*
X90623571Y-3719285D01*
X91046904Y-3719285D01*
X89535000Y-3114523D02*
X89293095Y-3114523D01*
X89172142Y-3175000D01*
X89051190Y-3295952D01*
X88990714Y-3537857D01*
X88990714Y-3961190D01*
X89051190Y-4203095D01*
X89172142Y-4324047D01*
X89293095Y-4384523D01*
X89535000Y-4384523D01*
X89655952Y-4324047D01*
X89776904Y-4203095D01*
X89837380Y-3961190D01*
X89837380Y-3537857D01*
X89776904Y-3295952D01*
X89655952Y-3175000D01*
X89535000Y-3114523D01*
X88204523Y-3114523D02*
X87962619Y-3114523D01*
X87841666Y-3175000D01*
X87720714Y-3295952D01*
X87660238Y-3537857D01*
X87660238Y-3961190D01*
X87720714Y-4203095D01*
X87841666Y-4324047D01*
X87962619Y-4384523D01*
X88204523Y-4384523D01*
X88325476Y-4324047D01*
X88446428Y-4203095D01*
X88506904Y-3961190D01*
X88506904Y-3537857D01*
X88446428Y-3295952D01*
X88325476Y-3175000D01*
X88204523Y-3114523D01*
X87297380Y-3114523D02*
X86571666Y-3114523D01*
X86934523Y-4384523D02*
X86934523Y-3114523D01*
X76290714Y-3719285D02*
X75867380Y-3719285D01*
X75685952Y-4384523D02*
X76290714Y-4384523D01*
X76290714Y-3114523D01*
X75685952Y-3114523D01*
X75141666Y-4384523D02*
X75141666Y-3114523D01*
X74415952Y-4384523D01*
X74415952Y-3114523D01*
X73992619Y-3114523D02*
X73266904Y-3114523D01*
X73629761Y-4384523D02*
X73629761Y-3114523D01*
X72843571Y-3719285D02*
X72420238Y-3719285D01*
X72238809Y-4384523D02*
X72843571Y-4384523D01*
X72843571Y-3114523D01*
X72238809Y-3114523D01*
X70968809Y-4384523D02*
X71392142Y-3779761D01*
X71694523Y-4384523D02*
X71694523Y-3114523D01*
X71210714Y-3114523D01*
X71089761Y-3175000D01*
X71029285Y-3235476D01*
X70968809Y-3356428D01*
X70968809Y-3537857D01*
X71029285Y-3658809D01*
X71089761Y-3719285D01*
X71210714Y-3779761D01*
X71694523Y-3779761D01*
X59720238Y-4384523D02*
X59720238Y-3114523D01*
X59115476Y-4384523D02*
X59115476Y-3114523D01*
X58389761Y-4384523D01*
X58389761Y-3114523D01*
X57059285Y-4263571D02*
X57119761Y-4324047D01*
X57301190Y-4384523D01*
X57422142Y-4384523D01*
X57603571Y-4324047D01*
X57724523Y-4203095D01*
X57785000Y-4082142D01*
X57845476Y-3840238D01*
X57845476Y-3658809D01*
X57785000Y-3416904D01*
X57724523Y-3295952D01*
X57603571Y-3175000D01*
X57422142Y-3114523D01*
X57301190Y-3114523D01*
X57119761Y-3175000D01*
X57059285Y-3235476D01*
X44722142Y-4384523D02*
X44722142Y-3114523D01*
X44419761Y-3114523D01*
X44238333Y-3175000D01*
X44117380Y-3295952D01*
X44056904Y-3416904D01*
X43996428Y-3658809D01*
X43996428Y-3840238D01*
X44056904Y-4082142D01*
X44117380Y-4203095D01*
X44238333Y-4324047D01*
X44419761Y-4384523D01*
X44722142Y-4384523D01*
X43452142Y-3719285D02*
X43028809Y-3719285D01*
X42847380Y-4384523D02*
X43452142Y-4384523D01*
X43452142Y-3114523D01*
X42847380Y-3114523D01*
X41577380Y-4263571D02*
X41637857Y-4324047D01*
X41819285Y-4384523D01*
X41940238Y-4384523D01*
X42121666Y-4324047D01*
X42242619Y-4203095D01*
X42303095Y-4082142D01*
X42363571Y-3840238D01*
X42363571Y-3658809D01*
X42303095Y-3416904D01*
X42242619Y-3295952D01*
X42121666Y-3175000D01*
X41940238Y-3114523D01*
X41819285Y-3114523D01*
X41637857Y-3175000D01*
X41577380Y-3235476D01*
X30238095Y-4384523D02*
X30238095Y-3114523D01*
X29814761Y-4021666D01*
X29391428Y-3114523D01*
X29391428Y-4384523D01*
X28544761Y-3114523D02*
X28302857Y-3114523D01*
X28181904Y-3175000D01*
X28060952Y-3295952D01*
X28000476Y-3537857D01*
X28000476Y-3961190D01*
X28060952Y-4203095D01*
X28181904Y-4324047D01*
X28302857Y-4384523D01*
X28544761Y-4384523D01*
X28665714Y-4324047D01*
X28786666Y-4203095D01*
X28847142Y-3961190D01*
X28847142Y-3537857D01*
X28786666Y-3295952D01*
X28665714Y-3175000D01*
X28544761Y-3114523D01*
X27456190Y-4384523D02*
X27456190Y-3114523D01*
X27153809Y-3114523D01*
X26972380Y-3175000D01*
X26851428Y-3295952D01*
X26790952Y-3416904D01*
X26730476Y-3658809D01*
X26730476Y-3840238D01*
X26790952Y-4082142D01*
X26851428Y-4203095D01*
X26972380Y-4324047D01*
X27153809Y-4384523D01*
X27456190Y-4384523D01*
X26186190Y-3719285D02*
X25762857Y-3719285D01*
X25581428Y-4384523D02*
X26186190Y-4384523D01*
X26186190Y-3114523D01*
X25581428Y-3114523D01*
X13637380Y-3719285D02*
X13214047Y-3719285D01*
X13032619Y-4384523D02*
X13637380Y-4384523D01*
X13637380Y-3114523D01*
X13032619Y-3114523D01*
X12488333Y-4384523D02*
X12488333Y-3114523D01*
X11762619Y-4384523D01*
X11762619Y-3114523D01*
D12*
G04 #@! TO.C,HB54*
X45720000Y-170180000D03*
G04 #@! TD*
G04 #@! TO.C,HB53*
X116840000Y-170180000D03*
G04 #@! TD*
G04 #@! TO.C,HB52*
X116840000Y-99060000D03*
G04 #@! TD*
G04 #@! TO.C,HB51*
X45720000Y-99060000D03*
G04 #@! TD*
D13*
G04 #@! TO.C,HB47*
X5080000Y-37465000D03*
D14*
X7480000Y-37465000D03*
X6777056Y-39162056D03*
X5080000Y-39865000D03*
X3382944Y-39162056D03*
X2680000Y-37465000D03*
X3382944Y-35767944D03*
X5080000Y-35065000D03*
X6777056Y-35767944D03*
G04 #@! TD*
D13*
G04 #@! TO.C,HB48*
X157480000Y-37465000D03*
D14*
X159880000Y-37465000D03*
X159177056Y-39162056D03*
X157480000Y-39865000D03*
X155782944Y-39162056D03*
X155080000Y-37465000D03*
X155782944Y-35767944D03*
X157480000Y-35065000D03*
X159177056Y-35767944D03*
G04 #@! TD*
D13*
G04 #@! TO.C,HB49*
X5080000Y-189865000D03*
D14*
X7480000Y-189865000D03*
X6777056Y-191562056D03*
X5080000Y-192265000D03*
X3382944Y-191562056D03*
X2680000Y-189865000D03*
X3382944Y-188167944D03*
X5080000Y-187465000D03*
X6777056Y-188167944D03*
G04 #@! TD*
D13*
G04 #@! TO.C,HB50*
X157480000Y-189865000D03*
D14*
X159880000Y-189865000D03*
X159177056Y-191562056D03*
X157480000Y-192265000D03*
X155782944Y-191562056D03*
X155080000Y-189865000D03*
X155782944Y-188167944D03*
X157480000Y-187465000D03*
X159177056Y-188167944D03*
G04 #@! TD*
D15*
G04 #@! TO.C,U129*
X97720000Y-6815000D03*
X97720000Y-8085000D03*
X97720000Y-9355000D03*
X97720000Y-10625000D03*
X97720000Y-11895000D03*
X97720000Y-13165000D03*
X97720000Y-14435000D03*
X97720000Y-15705000D03*
X97720000Y-16975000D03*
X97720000Y-18245000D03*
X97720000Y-19515000D03*
X97720000Y-20785000D03*
X97720000Y-22055000D03*
X97720000Y-23325000D03*
X120720000Y-8085000D03*
X120720000Y-16975000D03*
X120720000Y-18245000D03*
X120720000Y-10625000D03*
X120720000Y-6815000D03*
X120720000Y-19515000D03*
X120720000Y-13165000D03*
X120720000Y-23325000D03*
X120720000Y-22055000D03*
X120720000Y-15705000D03*
X120720000Y-14435000D03*
X120720000Y-11895000D03*
X120720000Y-20785000D03*
X120720000Y-9355000D03*
D16*
X103505000Y-27315000D03*
X104775000Y-27315000D03*
X106045000Y-27315000D03*
X107315000Y-27315000D03*
X108585000Y-27315000D03*
X111125000Y-27315000D03*
X112395000Y-27315000D03*
X113665000Y-27315000D03*
X114935000Y-27315000D03*
X109855000Y-27315000D03*
G04 #@! TD*
D17*
G04 #@! TO.C,HB44*
X137160000Y-167005000D03*
G04 #@! TD*
G04 #@! TO.C,HB43*
X137160000Y-149225000D03*
G04 #@! TD*
G04 #@! TO.C,HB42*
X137160000Y-131445000D03*
G04 #@! TD*
G04 #@! TO.C,HB41*
X137160000Y-113665000D03*
G04 #@! TD*
G04 #@! TO.C,HB40*
X137160000Y-95885000D03*
G04 #@! TD*
G04 #@! TO.C,HB39*
X137160000Y-78105000D03*
G04 #@! TD*
G04 #@! TO.C,HB38*
X137160000Y-60325000D03*
G04 #@! TD*
G04 #@! TO.C,HB37*
X25400000Y-167005000D03*
G04 #@! TD*
G04 #@! TO.C,HB36*
X25400000Y-149225000D03*
G04 #@! TD*
G04 #@! TO.C,HB35*
X25400000Y-131445000D03*
G04 #@! TD*
G04 #@! TO.C,HB34*
X25400000Y-113665000D03*
G04 #@! TD*
G04 #@! TO.C,HB33*
X25400000Y-95885000D03*
G04 #@! TD*
G04 #@! TO.C,HB32*
X25400000Y-78105000D03*
G04 #@! TD*
G04 #@! TO.C,HB31*
X25400000Y-60325000D03*
G04 #@! TD*
G04 #@! TO.C,HB30*
X152400000Y-149225000D03*
G04 #@! TD*
G04 #@! TO.C,HB29*
X142240000Y-149225000D03*
G04 #@! TD*
G04 #@! TO.C,HB28*
X132080000Y-149225000D03*
G04 #@! TD*
G04 #@! TO.C,HB27*
X121920000Y-149225000D03*
G04 #@! TD*
G04 #@! TO.C,HB26*
X111760000Y-149225000D03*
G04 #@! TD*
G04 #@! TO.C,HB25*
X101600000Y-149225000D03*
G04 #@! TD*
G04 #@! TO.C,HB24*
X91440000Y-149225000D03*
G04 #@! TD*
G04 #@! TO.C,HB23*
X81280000Y-149225000D03*
G04 #@! TD*
G04 #@! TO.C,HB22*
X71120000Y-149225000D03*
G04 #@! TD*
G04 #@! TO.C,HB21*
X60960000Y-149225000D03*
G04 #@! TD*
G04 #@! TO.C,HB20*
X50800000Y-149225000D03*
G04 #@! TD*
G04 #@! TO.C,HB19*
X40640000Y-149225000D03*
G04 #@! TD*
G04 #@! TO.C,HB18*
X30480000Y-149225000D03*
G04 #@! TD*
G04 #@! TO.C,HB17*
X20320000Y-149225000D03*
G04 #@! TD*
G04 #@! TO.C,HB16*
X10160000Y-149225000D03*
G04 #@! TD*
G04 #@! TO.C,HB15*
X152400000Y-78105000D03*
G04 #@! TD*
G04 #@! TO.C,HB14*
X142240000Y-78105000D03*
G04 #@! TD*
G04 #@! TO.C,HB13*
X132080000Y-78105000D03*
G04 #@! TD*
G04 #@! TO.C,HB12*
X121920000Y-78105000D03*
G04 #@! TD*
G04 #@! TO.C,HB11*
X111760000Y-78105000D03*
G04 #@! TD*
G04 #@! TO.C,HB10*
X101600000Y-78105000D03*
G04 #@! TD*
G04 #@! TO.C,HB9*
X91440000Y-78105000D03*
G04 #@! TD*
G04 #@! TO.C,HB8*
X81280000Y-78105000D03*
G04 #@! TD*
G04 #@! TO.C,HB7*
X71120000Y-78105000D03*
G04 #@! TD*
G04 #@! TO.C,HB6*
X60960000Y-78105000D03*
G04 #@! TD*
G04 #@! TO.C,HB5*
X50800000Y-78105000D03*
G04 #@! TD*
G04 #@! TO.C,HB4*
X40640000Y-78105000D03*
G04 #@! TD*
G04 #@! TO.C,HB3*
X30480000Y-78105000D03*
G04 #@! TD*
G04 #@! TO.C,HB2*
X20320000Y-78105000D03*
G04 #@! TD*
G04 #@! TO.C,HB1*
X10160000Y-78105000D03*
G04 #@! TD*
D18*
G04 #@! TO.C,P2*
X3810000Y-181610000D03*
D19*
X6350000Y-181610000D03*
G04 #@! TD*
D20*
G04 #@! TO.C,BITE1*
X4826000Y-43561000D03*
X2794000Y-43561000D03*
X2794000Y-41529000D03*
X4826000Y-41529000D03*
X3810000Y-43561000D03*
X3810000Y-41529000D03*
G04 #@! TD*
G04 #@! TO.C,BITE2*
X159766000Y-43561000D03*
X157734000Y-43561000D03*
X157734000Y-41529000D03*
X159766000Y-41529000D03*
X158750000Y-43561000D03*
X158750000Y-41529000D03*
G04 #@! TD*
G04 #@! TO.C,BITE3*
X4191000Y-185801000D03*
X2159000Y-185801000D03*
X2159000Y-183769000D03*
X4191000Y-183769000D03*
X3175000Y-185801000D03*
X3175000Y-183769000D03*
G04 #@! TD*
G04 #@! TO.C,BITE4*
X46736000Y-185801000D03*
X44704000Y-185801000D03*
X44704000Y-183769000D03*
X46736000Y-183769000D03*
X45720000Y-185801000D03*
X45720000Y-183769000D03*
G04 #@! TD*
G04 #@! TO.C,BITE5*
X77216000Y-185801000D03*
X75184000Y-185801000D03*
X75184000Y-183769000D03*
X77216000Y-183769000D03*
X76200000Y-185801000D03*
X76200000Y-183769000D03*
G04 #@! TD*
G04 #@! TO.C,BITE6*
X87376000Y-185801000D03*
X85344000Y-185801000D03*
X85344000Y-183769000D03*
X87376000Y-183769000D03*
X86360000Y-185801000D03*
X86360000Y-183769000D03*
G04 #@! TD*
G04 #@! TO.C,BITE7*
X117856000Y-185801000D03*
X115824000Y-185801000D03*
X115824000Y-183769000D03*
X117856000Y-183769000D03*
X116840000Y-185801000D03*
X116840000Y-183769000D03*
G04 #@! TD*
G04 #@! TO.C,BITE8*
X160401000Y-185801000D03*
X158369000Y-185801000D03*
X158369000Y-183769000D03*
X160401000Y-183769000D03*
X159385000Y-185801000D03*
X159385000Y-183769000D03*
G04 #@! TD*
D21*
G04 #@! TO.C,J25*
X21590000Y-37465000D03*
X19050000Y-37465000D03*
X16510000Y-37465000D03*
X13970000Y-37465000D03*
G04 #@! TD*
G04 #@! TO.C,J24*
X140970000Y-37465000D03*
X143510000Y-37465000D03*
X146050000Y-37465000D03*
X148590000Y-37465000D03*
G04 #@! TD*
D22*
G04 #@! TO.C,J20*
X127000000Y-38735000D03*
D23*
X129540000Y-38735000D03*
D22*
X127000000Y-36195000D03*
X129540000Y-36195000D03*
X127000000Y-33655000D03*
X129540000Y-33655000D03*
G04 #@! TD*
D12*
G04 #@! TO.C,J8*
X86360000Y-38100000D03*
G04 #@! TD*
G04 #@! TO.C,J7*
X96520000Y-38100000D03*
G04 #@! TD*
G04 #@! TO.C,J2*
X55880000Y-38100000D03*
G04 #@! TD*
G04 #@! TO.C,J1*
X45720000Y-38100000D03*
G04 #@! TD*
G04 #@! TO.C,J9*
X45720000Y-81280000D03*
G04 #@! TD*
G04 #@! TO.C,J10*
X55880000Y-81280000D03*
G04 #@! TD*
G04 #@! TO.C,J15*
X96520000Y-81280000D03*
G04 #@! TD*
G04 #@! TO.C,J16*
X86360000Y-81280000D03*
G04 #@! TD*
D24*
G04 #@! TO.C,TP1*
G36*
X141409207Y-3011926D02*
X141448036Y-3017686D01*
X141486114Y-3027224D01*
X141523073Y-3040448D01*
X141558559Y-3057231D01*
X141592228Y-3077412D01*
X141623757Y-3100796D01*
X141652843Y-3127157D01*
X141679204Y-3156243D01*
X141702588Y-3187772D01*
X141722769Y-3221441D01*
X141739552Y-3256927D01*
X141752776Y-3293886D01*
X141762314Y-3331964D01*
X141768074Y-3370793D01*
X141770000Y-3410000D01*
X141770000Y-4210000D01*
X141768074Y-4249207D01*
X141762314Y-4288036D01*
X141752776Y-4326114D01*
X141739552Y-4363073D01*
X141722769Y-4398559D01*
X141702588Y-4432228D01*
X141679204Y-4463757D01*
X141652843Y-4492843D01*
X141623757Y-4519204D01*
X141592228Y-4542588D01*
X141558559Y-4562769D01*
X141523073Y-4579552D01*
X141486114Y-4592776D01*
X141448036Y-4602314D01*
X141409207Y-4608074D01*
X141370000Y-4610000D01*
X140570000Y-4610000D01*
X140530793Y-4608074D01*
X140491964Y-4602314D01*
X140453886Y-4592776D01*
X140416927Y-4579552D01*
X140381441Y-4562769D01*
X140347772Y-4542588D01*
X140316243Y-4519204D01*
X140287157Y-4492843D01*
X140260796Y-4463757D01*
X140237412Y-4432228D01*
X140217231Y-4398559D01*
X140200448Y-4363073D01*
X140187224Y-4326114D01*
X140177686Y-4288036D01*
X140171926Y-4249207D01*
X140170000Y-4210000D01*
X140170000Y-3410000D01*
X140171926Y-3370793D01*
X140177686Y-3331964D01*
X140187224Y-3293886D01*
X140200448Y-3256927D01*
X140217231Y-3221441D01*
X140237412Y-3187772D01*
X140260796Y-3156243D01*
X140287157Y-3127157D01*
X140316243Y-3100796D01*
X140347772Y-3077412D01*
X140381441Y-3057231D01*
X140416927Y-3040448D01*
X140453886Y-3027224D01*
X140491964Y-3017686D01*
X140530793Y-3011926D01*
X140570000Y-3010000D01*
X141370000Y-3010000D01*
X141409207Y-3011926D01*
X141409207Y-3011926D01*
G37*
D25*
X140970000Y-3810000D03*
G04 #@! TD*
D24*
G04 #@! TO.C,J23*
G36*
X132519207Y-37936926D02*
X132558036Y-37942686D01*
X132596114Y-37952224D01*
X132633073Y-37965448D01*
X132668559Y-37982231D01*
X132702228Y-38002412D01*
X132733757Y-38025796D01*
X132762843Y-38052157D01*
X132789204Y-38081243D01*
X132812588Y-38112772D01*
X132832769Y-38146441D01*
X132849552Y-38181927D01*
X132862776Y-38218886D01*
X132872314Y-38256964D01*
X132878074Y-38295793D01*
X132880000Y-38335000D01*
X132880000Y-39135000D01*
X132878074Y-39174207D01*
X132872314Y-39213036D01*
X132862776Y-39251114D01*
X132849552Y-39288073D01*
X132832769Y-39323559D01*
X132812588Y-39357228D01*
X132789204Y-39388757D01*
X132762843Y-39417843D01*
X132733757Y-39444204D01*
X132702228Y-39467588D01*
X132668559Y-39487769D01*
X132633073Y-39504552D01*
X132596114Y-39517776D01*
X132558036Y-39527314D01*
X132519207Y-39533074D01*
X132480000Y-39535000D01*
X131680000Y-39535000D01*
X131640793Y-39533074D01*
X131601964Y-39527314D01*
X131563886Y-39517776D01*
X131526927Y-39504552D01*
X131491441Y-39487769D01*
X131457772Y-39467588D01*
X131426243Y-39444204D01*
X131397157Y-39417843D01*
X131370796Y-39388757D01*
X131347412Y-39357228D01*
X131327231Y-39323559D01*
X131310448Y-39288073D01*
X131297224Y-39251114D01*
X131287686Y-39213036D01*
X131281926Y-39174207D01*
X131280000Y-39135000D01*
X131280000Y-38335000D01*
X131281926Y-38295793D01*
X131287686Y-38256964D01*
X131297224Y-38218886D01*
X131310448Y-38181927D01*
X131327231Y-38146441D01*
X131347412Y-38112772D01*
X131370796Y-38081243D01*
X131397157Y-38052157D01*
X131426243Y-38025796D01*
X131457772Y-38002412D01*
X131491441Y-37982231D01*
X131526927Y-37965448D01*
X131563886Y-37952224D01*
X131601964Y-37942686D01*
X131640793Y-37936926D01*
X131680000Y-37935000D01*
X132480000Y-37935000D01*
X132519207Y-37936926D01*
X132519207Y-37936926D01*
G37*
D25*
X132080000Y-38735000D03*
G04 #@! TD*
D24*
G04 #@! TO.C,J22*
G36*
X124899207Y-37936926D02*
X124938036Y-37942686D01*
X124976114Y-37952224D01*
X125013073Y-37965448D01*
X125048559Y-37982231D01*
X125082228Y-38002412D01*
X125113757Y-38025796D01*
X125142843Y-38052157D01*
X125169204Y-38081243D01*
X125192588Y-38112772D01*
X125212769Y-38146441D01*
X125229552Y-38181927D01*
X125242776Y-38218886D01*
X125252314Y-38256964D01*
X125258074Y-38295793D01*
X125260000Y-38335000D01*
X125260000Y-39135000D01*
X125258074Y-39174207D01*
X125252314Y-39213036D01*
X125242776Y-39251114D01*
X125229552Y-39288073D01*
X125212769Y-39323559D01*
X125192588Y-39357228D01*
X125169204Y-39388757D01*
X125142843Y-39417843D01*
X125113757Y-39444204D01*
X125082228Y-39467588D01*
X125048559Y-39487769D01*
X125013073Y-39504552D01*
X124976114Y-39517776D01*
X124938036Y-39527314D01*
X124899207Y-39533074D01*
X124860000Y-39535000D01*
X124060000Y-39535000D01*
X124020793Y-39533074D01*
X123981964Y-39527314D01*
X123943886Y-39517776D01*
X123906927Y-39504552D01*
X123871441Y-39487769D01*
X123837772Y-39467588D01*
X123806243Y-39444204D01*
X123777157Y-39417843D01*
X123750796Y-39388757D01*
X123727412Y-39357228D01*
X123707231Y-39323559D01*
X123690448Y-39288073D01*
X123677224Y-39251114D01*
X123667686Y-39213036D01*
X123661926Y-39174207D01*
X123660000Y-39135000D01*
X123660000Y-38335000D01*
X123661926Y-38295793D01*
X123667686Y-38256964D01*
X123677224Y-38218886D01*
X123690448Y-38181927D01*
X123707231Y-38146441D01*
X123727412Y-38112772D01*
X123750796Y-38081243D01*
X123777157Y-38052157D01*
X123806243Y-38025796D01*
X123837772Y-38002412D01*
X123871441Y-37982231D01*
X123906927Y-37965448D01*
X123943886Y-37952224D01*
X123981964Y-37942686D01*
X124020793Y-37936926D01*
X124060000Y-37935000D01*
X124860000Y-37935000D01*
X124899207Y-37936926D01*
X124899207Y-37936926D01*
G37*
D25*
X124460000Y-38735000D03*
G04 #@! TD*
D24*
G04 #@! TO.C,J21*
G36*
X132519207Y-35396926D02*
X132558036Y-35402686D01*
X132596114Y-35412224D01*
X132633073Y-35425448D01*
X132668559Y-35442231D01*
X132702228Y-35462412D01*
X132733757Y-35485796D01*
X132762843Y-35512157D01*
X132789204Y-35541243D01*
X132812588Y-35572772D01*
X132832769Y-35606441D01*
X132849552Y-35641927D01*
X132862776Y-35678886D01*
X132872314Y-35716964D01*
X132878074Y-35755793D01*
X132880000Y-35795000D01*
X132880000Y-36595000D01*
X132878074Y-36634207D01*
X132872314Y-36673036D01*
X132862776Y-36711114D01*
X132849552Y-36748073D01*
X132832769Y-36783559D01*
X132812588Y-36817228D01*
X132789204Y-36848757D01*
X132762843Y-36877843D01*
X132733757Y-36904204D01*
X132702228Y-36927588D01*
X132668559Y-36947769D01*
X132633073Y-36964552D01*
X132596114Y-36977776D01*
X132558036Y-36987314D01*
X132519207Y-36993074D01*
X132480000Y-36995000D01*
X131680000Y-36995000D01*
X131640793Y-36993074D01*
X131601964Y-36987314D01*
X131563886Y-36977776D01*
X131526927Y-36964552D01*
X131491441Y-36947769D01*
X131457772Y-36927588D01*
X131426243Y-36904204D01*
X131397157Y-36877843D01*
X131370796Y-36848757D01*
X131347412Y-36817228D01*
X131327231Y-36783559D01*
X131310448Y-36748073D01*
X131297224Y-36711114D01*
X131287686Y-36673036D01*
X131281926Y-36634207D01*
X131280000Y-36595000D01*
X131280000Y-35795000D01*
X131281926Y-35755793D01*
X131287686Y-35716964D01*
X131297224Y-35678886D01*
X131310448Y-35641927D01*
X131327231Y-35606441D01*
X131347412Y-35572772D01*
X131370796Y-35541243D01*
X131397157Y-35512157D01*
X131426243Y-35485796D01*
X131457772Y-35462412D01*
X131491441Y-35442231D01*
X131526927Y-35425448D01*
X131563886Y-35412224D01*
X131601964Y-35402686D01*
X131640793Y-35396926D01*
X131680000Y-35395000D01*
X132480000Y-35395000D01*
X132519207Y-35396926D01*
X132519207Y-35396926D01*
G37*
D25*
X132080000Y-36195000D03*
G04 #@! TD*
D24*
G04 #@! TO.C,J19*
G36*
X124899207Y-35396926D02*
X124938036Y-35402686D01*
X124976114Y-35412224D01*
X125013073Y-35425448D01*
X125048559Y-35442231D01*
X125082228Y-35462412D01*
X125113757Y-35485796D01*
X125142843Y-35512157D01*
X125169204Y-35541243D01*
X125192588Y-35572772D01*
X125212769Y-35606441D01*
X125229552Y-35641927D01*
X125242776Y-35678886D01*
X125252314Y-35716964D01*
X125258074Y-35755793D01*
X125260000Y-35795000D01*
X125260000Y-36595000D01*
X125258074Y-36634207D01*
X125252314Y-36673036D01*
X125242776Y-36711114D01*
X125229552Y-36748073D01*
X125212769Y-36783559D01*
X125192588Y-36817228D01*
X125169204Y-36848757D01*
X125142843Y-36877843D01*
X125113757Y-36904204D01*
X125082228Y-36927588D01*
X125048559Y-36947769D01*
X125013073Y-36964552D01*
X124976114Y-36977776D01*
X124938036Y-36987314D01*
X124899207Y-36993074D01*
X124860000Y-36995000D01*
X124060000Y-36995000D01*
X124020793Y-36993074D01*
X123981964Y-36987314D01*
X123943886Y-36977776D01*
X123906927Y-36964552D01*
X123871441Y-36947769D01*
X123837772Y-36927588D01*
X123806243Y-36904204D01*
X123777157Y-36877843D01*
X123750796Y-36848757D01*
X123727412Y-36817228D01*
X123707231Y-36783559D01*
X123690448Y-36748073D01*
X123677224Y-36711114D01*
X123667686Y-36673036D01*
X123661926Y-36634207D01*
X123660000Y-36595000D01*
X123660000Y-35795000D01*
X123661926Y-35755793D01*
X123667686Y-35716964D01*
X123677224Y-35678886D01*
X123690448Y-35641927D01*
X123707231Y-35606441D01*
X123727412Y-35572772D01*
X123750796Y-35541243D01*
X123777157Y-35512157D01*
X123806243Y-35485796D01*
X123837772Y-35462412D01*
X123871441Y-35442231D01*
X123906927Y-35425448D01*
X123943886Y-35412224D01*
X123981964Y-35402686D01*
X124020793Y-35396926D01*
X124060000Y-35395000D01*
X124860000Y-35395000D01*
X124899207Y-35396926D01*
X124899207Y-35396926D01*
G37*
D25*
X124460000Y-36195000D03*
G04 #@! TD*
D24*
G04 #@! TO.C,J18*
G36*
X132519207Y-32856926D02*
X132558036Y-32862686D01*
X132596114Y-32872224D01*
X132633073Y-32885448D01*
X132668559Y-32902231D01*
X132702228Y-32922412D01*
X132733757Y-32945796D01*
X132762843Y-32972157D01*
X132789204Y-33001243D01*
X132812588Y-33032772D01*
X132832769Y-33066441D01*
X132849552Y-33101927D01*
X132862776Y-33138886D01*
X132872314Y-33176964D01*
X132878074Y-33215793D01*
X132880000Y-33255000D01*
X132880000Y-34055000D01*
X132878074Y-34094207D01*
X132872314Y-34133036D01*
X132862776Y-34171114D01*
X132849552Y-34208073D01*
X132832769Y-34243559D01*
X132812588Y-34277228D01*
X132789204Y-34308757D01*
X132762843Y-34337843D01*
X132733757Y-34364204D01*
X132702228Y-34387588D01*
X132668559Y-34407769D01*
X132633073Y-34424552D01*
X132596114Y-34437776D01*
X132558036Y-34447314D01*
X132519207Y-34453074D01*
X132480000Y-34455000D01*
X131680000Y-34455000D01*
X131640793Y-34453074D01*
X131601964Y-34447314D01*
X131563886Y-34437776D01*
X131526927Y-34424552D01*
X131491441Y-34407769D01*
X131457772Y-34387588D01*
X131426243Y-34364204D01*
X131397157Y-34337843D01*
X131370796Y-34308757D01*
X131347412Y-34277228D01*
X131327231Y-34243559D01*
X131310448Y-34208073D01*
X131297224Y-34171114D01*
X131287686Y-34133036D01*
X131281926Y-34094207D01*
X131280000Y-34055000D01*
X131280000Y-33255000D01*
X131281926Y-33215793D01*
X131287686Y-33176964D01*
X131297224Y-33138886D01*
X131310448Y-33101927D01*
X131327231Y-33066441D01*
X131347412Y-33032772D01*
X131370796Y-33001243D01*
X131397157Y-32972157D01*
X131426243Y-32945796D01*
X131457772Y-32922412D01*
X131491441Y-32902231D01*
X131526927Y-32885448D01*
X131563886Y-32872224D01*
X131601964Y-32862686D01*
X131640793Y-32856926D01*
X131680000Y-32855000D01*
X132480000Y-32855000D01*
X132519207Y-32856926D01*
X132519207Y-32856926D01*
G37*
D25*
X132080000Y-33655000D03*
G04 #@! TD*
D24*
G04 #@! TO.C,J17*
G36*
X124899207Y-32856926D02*
X124938036Y-32862686D01*
X124976114Y-32872224D01*
X125013073Y-32885448D01*
X125048559Y-32902231D01*
X125082228Y-32922412D01*
X125113757Y-32945796D01*
X125142843Y-32972157D01*
X125169204Y-33001243D01*
X125192588Y-33032772D01*
X125212769Y-33066441D01*
X125229552Y-33101927D01*
X125242776Y-33138886D01*
X125252314Y-33176964D01*
X125258074Y-33215793D01*
X125260000Y-33255000D01*
X125260000Y-34055000D01*
X125258074Y-34094207D01*
X125252314Y-34133036D01*
X125242776Y-34171114D01*
X125229552Y-34208073D01*
X125212769Y-34243559D01*
X125192588Y-34277228D01*
X125169204Y-34308757D01*
X125142843Y-34337843D01*
X125113757Y-34364204D01*
X125082228Y-34387588D01*
X125048559Y-34407769D01*
X125013073Y-34424552D01*
X124976114Y-34437776D01*
X124938036Y-34447314D01*
X124899207Y-34453074D01*
X124860000Y-34455000D01*
X124060000Y-34455000D01*
X124020793Y-34453074D01*
X123981964Y-34447314D01*
X123943886Y-34437776D01*
X123906927Y-34424552D01*
X123871441Y-34407769D01*
X123837772Y-34387588D01*
X123806243Y-34364204D01*
X123777157Y-34337843D01*
X123750796Y-34308757D01*
X123727412Y-34277228D01*
X123707231Y-34243559D01*
X123690448Y-34208073D01*
X123677224Y-34171114D01*
X123667686Y-34133036D01*
X123661926Y-34094207D01*
X123660000Y-34055000D01*
X123660000Y-33255000D01*
X123661926Y-33215793D01*
X123667686Y-33176964D01*
X123677224Y-33138886D01*
X123690448Y-33101927D01*
X123707231Y-33066441D01*
X123727412Y-33032772D01*
X123750796Y-33001243D01*
X123777157Y-32972157D01*
X123806243Y-32945796D01*
X123837772Y-32922412D01*
X123871441Y-32902231D01*
X123906927Y-32885448D01*
X123943886Y-32872224D01*
X123981964Y-32862686D01*
X124020793Y-32856926D01*
X124060000Y-32855000D01*
X124860000Y-32855000D01*
X124899207Y-32856926D01*
X124899207Y-32856926D01*
G37*
D25*
X124460000Y-33655000D03*
G04 #@! TD*
D24*
G04 #@! TO.C,TP3*
G36*
X146489207Y-3011926D02*
X146528036Y-3017686D01*
X146566114Y-3027224D01*
X146603073Y-3040448D01*
X146638559Y-3057231D01*
X146672228Y-3077412D01*
X146703757Y-3100796D01*
X146732843Y-3127157D01*
X146759204Y-3156243D01*
X146782588Y-3187772D01*
X146802769Y-3221441D01*
X146819552Y-3256927D01*
X146832776Y-3293886D01*
X146842314Y-3331964D01*
X146848074Y-3370793D01*
X146850000Y-3410000D01*
X146850000Y-4210000D01*
X146848074Y-4249207D01*
X146842314Y-4288036D01*
X146832776Y-4326114D01*
X146819552Y-4363073D01*
X146802769Y-4398559D01*
X146782588Y-4432228D01*
X146759204Y-4463757D01*
X146732843Y-4492843D01*
X146703757Y-4519204D01*
X146672228Y-4542588D01*
X146638559Y-4562769D01*
X146603073Y-4579552D01*
X146566114Y-4592776D01*
X146528036Y-4602314D01*
X146489207Y-4608074D01*
X146450000Y-4610000D01*
X145650000Y-4610000D01*
X145610793Y-4608074D01*
X145571964Y-4602314D01*
X145533886Y-4592776D01*
X145496927Y-4579552D01*
X145461441Y-4562769D01*
X145427772Y-4542588D01*
X145396243Y-4519204D01*
X145367157Y-4492843D01*
X145340796Y-4463757D01*
X145317412Y-4432228D01*
X145297231Y-4398559D01*
X145280448Y-4363073D01*
X145267224Y-4326114D01*
X145257686Y-4288036D01*
X145251926Y-4249207D01*
X145250000Y-4210000D01*
X145250000Y-3410000D01*
X145251926Y-3370793D01*
X145257686Y-3331964D01*
X145267224Y-3293886D01*
X145280448Y-3256927D01*
X145297231Y-3221441D01*
X145317412Y-3187772D01*
X145340796Y-3156243D01*
X145367157Y-3127157D01*
X145396243Y-3100796D01*
X145427772Y-3077412D01*
X145461441Y-3057231D01*
X145496927Y-3040448D01*
X145533886Y-3027224D01*
X145571964Y-3017686D01*
X145610793Y-3011926D01*
X145650000Y-3010000D01*
X146450000Y-3010000D01*
X146489207Y-3011926D01*
X146489207Y-3011926D01*
G37*
D25*
X146050000Y-3810000D03*
G04 #@! TD*
D24*
G04 #@! TO.C,TP2*
G36*
X143949207Y-3011926D02*
X143988036Y-3017686D01*
X144026114Y-3027224D01*
X144063073Y-3040448D01*
X144098559Y-3057231D01*
X144132228Y-3077412D01*
X144163757Y-3100796D01*
X144192843Y-3127157D01*
X144219204Y-3156243D01*
X144242588Y-3187772D01*
X144262769Y-3221441D01*
X144279552Y-3256927D01*
X144292776Y-3293886D01*
X144302314Y-3331964D01*
X144308074Y-3370793D01*
X144310000Y-3410000D01*
X144310000Y-4210000D01*
X144308074Y-4249207D01*
X144302314Y-4288036D01*
X144292776Y-4326114D01*
X144279552Y-4363073D01*
X144262769Y-4398559D01*
X144242588Y-4432228D01*
X144219204Y-4463757D01*
X144192843Y-4492843D01*
X144163757Y-4519204D01*
X144132228Y-4542588D01*
X144098559Y-4562769D01*
X144063073Y-4579552D01*
X144026114Y-4592776D01*
X143988036Y-4602314D01*
X143949207Y-4608074D01*
X143910000Y-4610000D01*
X143110000Y-4610000D01*
X143070793Y-4608074D01*
X143031964Y-4602314D01*
X142993886Y-4592776D01*
X142956927Y-4579552D01*
X142921441Y-4562769D01*
X142887772Y-4542588D01*
X142856243Y-4519204D01*
X142827157Y-4492843D01*
X142800796Y-4463757D01*
X142777412Y-4432228D01*
X142757231Y-4398559D01*
X142740448Y-4363073D01*
X142727224Y-4326114D01*
X142717686Y-4288036D01*
X142711926Y-4249207D01*
X142710000Y-4210000D01*
X142710000Y-3410000D01*
X142711926Y-3370793D01*
X142717686Y-3331964D01*
X142727224Y-3293886D01*
X142740448Y-3256927D01*
X142757231Y-3221441D01*
X142777412Y-3187772D01*
X142800796Y-3156243D01*
X142827157Y-3127157D01*
X142856243Y-3100796D01*
X142887772Y-3077412D01*
X142921441Y-3057231D01*
X142956927Y-3040448D01*
X142993886Y-3027224D01*
X143031964Y-3017686D01*
X143070793Y-3011926D01*
X143110000Y-3010000D01*
X143910000Y-3010000D01*
X143949207Y-3011926D01*
X143949207Y-3011926D01*
G37*
D25*
X143510000Y-3810000D03*
G04 #@! TD*
D26*
G04 #@! TO.C,LDR1*
X35560000Y-3810000D03*
D27*
X38100000Y-3810000D03*
X33020000Y-3810000D03*
G04 #@! TD*
D26*
G04 #@! TO.C,LDR2*
X127000000Y-3810000D03*
D27*
X124460000Y-3810000D03*
X129540000Y-3810000D03*
G04 #@! TD*
D28*
G04 #@! TO.C,S5*
X38630000Y-7275000D03*
X47730000Y-7275000D03*
X47730000Y-11775000D03*
X38630000Y-11775000D03*
G04 #@! TD*
G04 #@! TO.C,S6*
X23390000Y-7275000D03*
X32490000Y-7275000D03*
X32490000Y-11775000D03*
X23390000Y-11775000D03*
G04 #@! TD*
G04 #@! TO.C,S4*
X93450000Y-11775000D03*
X84350000Y-11775000D03*
X84350000Y-7275000D03*
X93450000Y-7275000D03*
G04 #@! TD*
G04 #@! TO.C,S2*
X53870000Y-7275000D03*
X62970000Y-7275000D03*
X62970000Y-11775000D03*
X53870000Y-11775000D03*
G04 #@! TD*
G04 #@! TO.C,S3*
X17250000Y-11775000D03*
X8150000Y-11775000D03*
X8150000Y-7275000D03*
X17250000Y-7275000D03*
G04 #@! TD*
G04 #@! TO.C,S1*
X69110000Y-7275000D03*
X78210000Y-7275000D03*
X78210000Y-11775000D03*
X69110000Y-11775000D03*
G04 #@! TD*
D14*
G04 #@! TO.C,U132*
X41335000Y-24274474D03*
X42233026Y-25172500D03*
X41335000Y-26070526D03*
X40436974Y-25172500D03*
X41335000Y-25172500D03*
G04 #@! TD*
D29*
G04 #@! TO.C,P1*
X4885000Y-24835000D03*
X4885000Y-29835000D03*
D30*
X2185000Y-23835000D03*
X2185000Y-30835000D03*
G04 #@! TD*
D31*
G04 #@! TO.C,HB45*
X3810000Y-3175000D03*
G04 #@! TD*
G04 #@! TO.C,HB46*
X158750000Y-3175000D03*
G04 #@! TD*
M02*
