M48
METRIC,TZ
T1C0.450
T2C0.500
T3C0.635
T4C0.762
T5C1.016
T6C1.020
T7C1.200
T8C2.286
T9C3.200
T10C0.508
T11C0.600
T12C1.270
T13C2.032
T14C3.200
%
G90
G05
T2
X052705Y-063246
X060325Y-076454
X060325Y-077470
X061341Y-076454
X061341Y-077470
X062650Y-061940
X066040Y-083439
X071933Y-063805
X072034Y-072365
X076200Y-083439
X076580Y-077500
X076580Y-075500
X078180Y-061940
X078524Y-087250
X078524Y-088750
X082524Y-087250
X082524Y-088750
X083524Y-087250
X083524Y-088750
X086970Y-069088
X086970Y-071120
X087218Y-063810
X087524Y-087250
X087524Y-088750
X088392Y-077597
X089281Y-078105
X090551Y-082423
X092075Y-096520
X092510Y-070460
X093590Y-070450
X094060Y-061940
X094234Y-053975
X094780Y-070460
X095504Y-080391
X095990Y-071950
X096000Y-073250
X096774Y-068072
X098250Y-081750
X099500Y-069550
X099500Y-081750
X100750Y-081750
X102260Y-063810
X102420Y-070940
X102870Y-096520
X104500Y-068860
X106570Y-070940
X108000Y-076500
X108000Y-081750
X108660Y-061940
X109500Y-076500
X109500Y-081750
X115250Y-068750
X116500Y-068750
X117000Y-070510
X117600Y-063800
X120750Y-070866
X122680Y-068790
X123910Y-061940
X124750Y-070870
X128500Y-056250
X130900Y-071150
X131450Y-075880
X131500Y-054250
X132700Y-080200
X132750Y-053750
X132750Y-055500
X133550Y-069080
X134000Y-080200
X135360Y-075150
X135400Y-080200
X135427Y-079199
X135450Y-072950
X136500Y-066000
X137500Y-053500
X137500Y-055500
X139040Y-061940
X140000Y-058250
X141300Y-071000
X143180Y-074930
X148000Y-075920
X156140Y-064380
X158680Y-066930
X158690Y-061820
X161230Y-064380
X166130Y-056640
X176000Y-064000
X178500Y-070480
X178500Y-071730
X178510Y-067950
X178510Y-069210
X178510Y-073010
X182710Y-075570
X184690Y-067950
X184700Y-069210
X184700Y-070490
X184700Y-071750
X185700Y-079500
X206500Y-062750
X206500Y-075690
X052845Y-240030
X053548Y-238333
X053548Y-241727
X055245Y-237630
X055245Y-242430
X056942Y-238333
X056942Y-241727
X057645Y-240030
X205245Y-087630
X205948Y-085933
X205948Y-089327
X207645Y-085230
X207645Y-090030
X209342Y-085933
X209342Y-089327
X210045Y-087630
X205245Y-240030
X205948Y-238333
X205948Y-241727
X207645Y-237630
X207645Y-242430
X209342Y-238333
X209342Y-241727
X210045Y-240030
X052845Y-087630
X053548Y-085933
X053548Y-089327
X055245Y-085230
X055245Y-090030
X056942Y-085933
X056942Y-089327
X057645Y-087630
X147885Y-056980
X147885Y-058250
X147885Y-059520
X147885Y-060790
X147885Y-062060
X147885Y-063330
X147885Y-064600
X147885Y-065870
X147885Y-067140
X147885Y-068410
X147885Y-069680
X147885Y-070950
X147885Y-072220
X147885Y-073490
X153670Y-077480
X154940Y-077480
X156210Y-077480
X157480Y-077480
X158750Y-077480
X160020Y-077480
X161290Y-077480
X162560Y-077480
X163830Y-077480
X165100Y-077480
X170885Y-056980
X170885Y-058250
X170885Y-059520
X170885Y-060790
X170885Y-062060
X170885Y-063330
X170885Y-064600
X170885Y-065870
X170885Y-067140
X170885Y-068410
X170885Y-069680
X170885Y-070950
X170885Y-072220
X170885Y-073490
X090602Y-075337
X091500Y-074439
X091500Y-075337
X091500Y-076236
X092398Y-075337
T3
X054345Y-224560
X056145Y-224560
X105145Y-103100
X106945Y-103100
X094985Y-138660
X096785Y-138660
X166105Y-138660
X167905Y-138660
X084825Y-153440
X086625Y-153440
X054345Y-189000
X056145Y-189000
X145785Y-174220
X147585Y-174220
X206745Y-103100
X208545Y-103100
X206745Y-117880
X208545Y-117880
X186425Y-117880
X188225Y-117880
X115305Y-103100
X117105Y-103100
X155945Y-153440
X157745Y-153440
X206745Y-174220
X208545Y-174220
X054345Y-138660
X056145Y-138660
X125465Y-138660
X127265Y-138660
X176265Y-153440
X178065Y-153440
X054345Y-209780
X056145Y-209780
X074665Y-224560
X076465Y-224560
X155945Y-138660
X157745Y-138660
X196585Y-209780
X198385Y-209780
X084825Y-189000
X086625Y-189000
X074665Y-138660
X076465Y-138660
X084825Y-138660
X086625Y-138660
X206745Y-189000
X208545Y-189000
X135625Y-189000
X137425Y-189000
X084825Y-103100
X086625Y-103100
X145785Y-103100
X147585Y-103100
X135625Y-117880
X137425Y-117880
X135625Y-174220
X137425Y-174220
X094985Y-189000
X096785Y-189000
X064505Y-209780
X066305Y-209780
X176265Y-224560
X178065Y-224560
X135625Y-224560
X137425Y-224560
X176265Y-138660
X178065Y-138660
X125465Y-103100
X127265Y-103100
X206745Y-209780
X208545Y-209780
X054345Y-117880
X056145Y-117880
X166105Y-153440
X167905Y-153440
X064505Y-189000
X066305Y-189000
X054345Y-174220
X056145Y-174220
X155945Y-189000
X157745Y-189000
X135625Y-138660
X137425Y-138660
X145785Y-138660
X147585Y-138660
X115305Y-174220
X117105Y-174220
X115305Y-189000
X117105Y-189000
X125465Y-224560
X127265Y-224560
X074665Y-189000
X076465Y-189000
X186425Y-224560
X188225Y-224560
X145785Y-117880
X147585Y-117880
X155945Y-174220
X157745Y-174220
X166105Y-189000
X167905Y-189000
X155945Y-209780
X157745Y-209780
X074665Y-103100
X076465Y-103100
X105145Y-174220
X106945Y-174220
X125465Y-189000
X127265Y-189000
X135625Y-209780
X137425Y-209780
X186425Y-153440
X188225Y-153440
X115305Y-153440
X117105Y-153440
X196585Y-103100
X198385Y-103100
X176265Y-189000
X178065Y-189000
X084825Y-224560
X086625Y-224560
X196585Y-117880
X198385Y-117880
X135625Y-153440
X137425Y-153440
X094985Y-174220
X096785Y-174220
X115305Y-224560
X117105Y-224560
X064505Y-153440
X066305Y-153440
X105145Y-209780
X106945Y-209780
X186425Y-209780
X188225Y-209780
X166105Y-209780
X167905Y-209780
X196585Y-224560
X198385Y-224560
X145785Y-189000
X147585Y-189000
X145785Y-209780
X147585Y-209780
X054345Y-103100
X056145Y-103100
X105145Y-117880
X106945Y-117880
X125465Y-174220
X127265Y-174220
X186425Y-174220
X188225Y-174220
X105145Y-189000
X106945Y-189000
X125465Y-209780
X127265Y-209780
X155945Y-103100
X157745Y-103100
X135625Y-103100
X137425Y-103100
X196585Y-174220
X198385Y-174220
X166105Y-117880
X167905Y-117880
X155945Y-117880
X157745Y-117880
X074665Y-153440
X076465Y-153440
X074665Y-174220
X076465Y-174220
X094985Y-224560
X096785Y-224560
X186425Y-103100
X188225Y-103100
X064505Y-138660
X066305Y-138660
X105145Y-224560
X106945Y-224560
X094985Y-209780
X096785Y-209780
X074665Y-117880
X076465Y-117880
X064505Y-174220
X066305Y-174220
X115305Y-209780
X117105Y-209780
X105145Y-138660
X106945Y-138660
X206745Y-153440
X208545Y-153440
X125465Y-117880
X127265Y-117880
X115305Y-117880
X117105Y-117880
X186425Y-138660
X188225Y-138660
X196585Y-138660
X198385Y-138660
X186425Y-189000
X188225Y-189000
X084825Y-174220
X086625Y-174220
X176265Y-174220
X178065Y-174220
X084825Y-209780
X086625Y-209780
X064505Y-103100
X066305Y-103100
X084825Y-117880
X086625Y-117880
X094985Y-153440
X096785Y-153440
X064505Y-224560
X066305Y-224560
X166105Y-174220
X167905Y-174220
X094985Y-103100
X096785Y-103100
X176265Y-209780
X178065Y-209780
X064505Y-117880
X066305Y-117880
X196585Y-153440
X198385Y-153440
X125465Y-153440
X127265Y-153440
X115305Y-138660
X117105Y-138660
X145785Y-153440
X147585Y-153440
X206745Y-138660
X208545Y-138660
X176265Y-117880
X178065Y-117880
X094985Y-117880
X096785Y-117880
X196585Y-189000
X198385Y-189000
X166105Y-103100
X167905Y-103100
X176265Y-103100
X178065Y-103100
X074665Y-209780
X076465Y-209780
X166105Y-224560
X167905Y-224560
X155945Y-224560
X157745Y-224560
X105145Y-153440
X106945Y-153440
X054345Y-153440
X056145Y-153440
X145785Y-224560
X147585Y-224560
X206745Y-224560
X208545Y-224560
T4
X060960Y-066040
X060960Y-083820
X063500Y-066040
X063500Y-068580
X063500Y-071120
X063500Y-073660
X063500Y-076200
X063500Y-078740
X063500Y-081280
X063500Y-083820
T5
X177165Y-083820
X177165Y-086360
X177165Y-088900
X179705Y-083820
X179705Y-086360
X179705Y-088900
T6
X182245Y-088900
X174625Y-088900
X174625Y-086360
X196215Y-053975
X053975Y-231775
X056515Y-231775
X182245Y-086360
X068453Y-087630
X070993Y-087630
X073533Y-087630
X076073Y-087630
X191135Y-087630
X193675Y-087630
X196215Y-087630
X198755Y-087630
X193675Y-053975
X182245Y-083820
X191135Y-053975
X174625Y-083820
T7
X083185Y-053975
X088265Y-053975
X174625Y-053975
X179705Y-053975
T8
X053340Y-067310
X053340Y-082550
T9
X136525Y-088265
X146685Y-131445
X095885Y-220345
X055245Y-240030
X095885Y-149225
X106045Y-131445
X207645Y-087630
X106045Y-088265
X207645Y-240030
X136525Y-131445
X055245Y-087630
X095885Y-088265
X167005Y-220345
X167005Y-149225
X146685Y-088265
X095885Y-131445
T10
X094869Y-233934
X094869Y-235966
X095885Y-233934
X095885Y-235966
X096901Y-233934
X096901Y-235966
X052324Y-233934
X052324Y-235966
X053340Y-233934
X053340Y-235966
X054356Y-233934
X054356Y-235966
X125349Y-233934
X125349Y-235966
X126365Y-233934
X126365Y-235966
X127381Y-233934
X127381Y-235966
X052959Y-091694
X052959Y-093726
X053975Y-091694
X053975Y-093726
X054991Y-091694
X054991Y-093726
X135509Y-233934
X135509Y-235966
X136525Y-233934
X136525Y-235966
X137541Y-233934
X137541Y-235966
X165989Y-233934
X165989Y-235966
X167005Y-233934
X167005Y-235966
X168021Y-233934
X168021Y-235966
X208534Y-233934
X208534Y-235966
X209550Y-233934
X209550Y-235966
X210566Y-233934
X210566Y-235966
X207899Y-091694
X207899Y-093726
X208915Y-091694
X208915Y-093726
X209931Y-091694
X209931Y-093726
T11
X054400Y-072930
X054400Y-076930
T12
X085725Y-053975
X177165Y-053975
T13
X187325Y-217170
X202565Y-128270
X111125Y-199390
X161925Y-199390
X151765Y-199390
X187325Y-128270
X161925Y-128270
X187325Y-146050
X182245Y-199390
X187325Y-163830
X187325Y-110490
X070485Y-199390
X080645Y-199390
X075565Y-110490
X192405Y-199390
X192405Y-128270
X075565Y-181610
X090805Y-128270
X141605Y-128270
X060325Y-199390
X172085Y-128270
X100965Y-199390
X141605Y-199390
X187325Y-181610
X121285Y-199390
X121285Y-128270
X111125Y-128270
X172085Y-199390
X131445Y-128270
X075565Y-217170
X151765Y-128270
X202565Y-199390
X187325Y-199390
X182245Y-128270
X075565Y-199390
X075565Y-163830
X075565Y-146050
X100965Y-128270
X075565Y-128270
X080645Y-128270
X070485Y-128270
X090805Y-199390
X131445Y-199390
X060325Y-128270
T14
X208915Y-053340
X053975Y-053340
T1
X051700Y-072095G85X052800Y-072095
G05
X052800Y-077765G85X051700Y-077765
G05
T0
M30
