M48
INCH,TZ
T1C0.0197
T2C0.0236
T3C0.0250
T4C0.0335
T5C0.0400
T6C0.0402
T7C0.0472
T8C0.1260
T9C0.0200
T10C0.0500
T11C0.0800
T12C0.1260
%
G90
G05
T1
X002002Y-007711
X002396Y-011267
X002888Y-011746
X003116Y-011270
X003715Y-011746
X004266Y-011156
X004915Y-004636
X005545Y-011156
X006037Y-009187
X008006Y-005841
X008400Y-010762
X008400Y-009974
X009778Y-012919
X010565Y-014600
X010565Y-015191
X011030Y-004636
X012140Y-014600
X012140Y-015191
X012533Y-014600
X012533Y-015191
X014010Y-005841
X014108Y-014600
X014108Y-015191
X015486Y-012435
X016500Y-018250
X016671Y-007990
X017096Y-007986
X017281Y-004636
X017565Y-007990
X018041Y-008577
X018045Y-009089
X018742Y-006927
X018931Y-012435
X019423Y-007632
X019423Y-012435
X019915Y-012435
X020510Y-005372
X020573Y-008179
X020750Y-018250
X020900Y-001510
X021392Y-007360
X022207Y-008179
X022770Y-010368
X022770Y-012435
X023030Y-004636
X023360Y-010368
X023360Y-012435
X025482Y-005376
X025624Y-007317
X026116Y-007317
X026313Y-008010
X027789Y-008150
X028549Y-007333
X029033Y-004636
X029364Y-008152
X030841Y-002396
X031344Y-008262
X031435Y-011892
X031915Y-011892
X032002Y-010124
X032022Y-001608
X032514Y-001411
X032514Y-002100
X032549Y-011589
X032809Y-011254
X032829Y-007447
X033541Y-009837
X033577Y-008970
X034033Y-006246
X034187Y-002297
X034990Y-004636
X035368Y-003183
X035762Y-011274
X035848Y-008246
X036156Y-011593
X036620Y-009750
X038518Y-010140
X041722Y-005596
X042722Y-006600
X042726Y-004589
X043726Y-005596
X045656Y-002549
X050526Y-007998
X050526Y-008490
X050530Y-007002
X050530Y-007498
X050530Y-008994
X050900Y-011490
X052183Y-010002
X052963Y-007002
X052967Y-007498
X052967Y-008002
X052967Y-008498
X061549Y-004955
X061549Y-010049
X015920Y-009910
X016274Y-009557
X016274Y-009910
X016274Y-010264
X016627Y-009910
X061055Y-074750
X061332Y-074082
X061332Y-075418
X062000Y-073805
X062000Y-075695
X062668Y-074082
X062668Y-075418
X062945Y-074750
X001055Y-014750
X001332Y-014082
X001332Y-015418
X002000Y-013805
X002000Y-015695
X002668Y-014082
X002668Y-015418
X002945Y-014750
X038472Y-002683
X038472Y-003183
X038472Y-003683
X038472Y-004183
X038472Y-004683
X038472Y-005183
X038472Y-005683
X038472Y-006183
X038472Y-006683
X038472Y-007183
X038472Y-007683
X038472Y-008183
X038472Y-008683
X038472Y-009183
X040750Y-010754
X041250Y-010754
X041750Y-010754
X042250Y-010754
X042750Y-010754
X043250Y-010754
X043750Y-010754
X044250Y-010754
X044750Y-010754
X045250Y-010754
X047528Y-002683
X047528Y-003183
X047528Y-003683
X047528Y-004183
X047528Y-004683
X047528Y-005183
X047528Y-005683
X047528Y-006183
X047528Y-006683
X047528Y-007183
X047528Y-007683
X047528Y-008183
X047528Y-008683
X047528Y-009183
X061055Y-014750
X061332Y-014082
X061332Y-015418
X062000Y-013805
X062000Y-015695
X062668Y-014082
X062668Y-015418
X062945Y-014750
X001055Y-074750
X001332Y-074082
X001332Y-075418
X002000Y-073805
X002000Y-075695
X002668Y-074082
X002668Y-075418
X002945Y-074750
T3
X021646Y-054659
X022354Y-054659
X057646Y-026659
X058354Y-026659
X057646Y-020841
X058354Y-020841
X013646Y-020841
X014354Y-020841
X053646Y-026659
X054354Y-026659
X017646Y-034841
X018354Y-034841
X009646Y-048841
X010354Y-048841
X009646Y-062841
X010354Y-062841
X021646Y-020841
X022354Y-020841
X061646Y-068659
X062354Y-068659
X049646Y-034841
X050354Y-034841
X041646Y-048841
X042354Y-048841
X017646Y-062841
X018354Y-062841
X029646Y-068659
X030354Y-068659
X041646Y-040659
X042354Y-040659
X033646Y-054659
X034354Y-054659
X037646Y-062841
X038354Y-062841
X049646Y-068659
X050354Y-068659
X005646Y-034841
X006354Y-034841
X001646Y-040659
X002354Y-040659
X021646Y-026659
X022354Y-026659
X001646Y-054659
X002354Y-054659
X017646Y-026659
X018354Y-026659
X037646Y-034841
X038354Y-034841
X049646Y-020841
X050354Y-020841
X021646Y-068659
X022354Y-068659
X029646Y-048841
X030354Y-048841
X057646Y-062841
X058354Y-062841
X045646Y-054659
X046354Y-054659
X005646Y-026659
X006354Y-026659
X057646Y-040659
X058354Y-040659
X013646Y-040659
X014354Y-040659
X013646Y-054659
X014354Y-054659
X025646Y-034841
X026354Y-034841
X017646Y-048841
X018354Y-048841
X029646Y-062841
X030354Y-062841
X041646Y-068659
X042354Y-068659
X017646Y-068659
X018354Y-068659
X053646Y-020841
X054354Y-020841
X057646Y-034841
X058354Y-034841
X049646Y-048841
X050354Y-048841
X001646Y-020841
X002354Y-020841
X025646Y-054659
X026354Y-054659
X001646Y-068659
X002354Y-068659
X033646Y-020841
X034354Y-020841
X013646Y-034841
X014354Y-034841
X005646Y-048841
X006354Y-048841
X045646Y-062841
X046354Y-062841
X005646Y-062841
X006354Y-062841
X017646Y-040659
X018354Y-040659
X045646Y-040659
X046354Y-040659
X045646Y-034841
X046354Y-034841
X037646Y-048841
X038354Y-048841
X049646Y-026659
X050354Y-026659
X037646Y-054659
X038354Y-054659
X021646Y-062841
X022354Y-062841
X033646Y-068659
X034354Y-068659
X025646Y-020841
X026354Y-020841
X001646Y-034841
X002354Y-034841
X049646Y-040659
X050354Y-040659
X005646Y-040659
X006354Y-040659
X041646Y-062841
X042354Y-062841
X057646Y-068659
X058354Y-068659
X053646Y-068659
X054354Y-068659
X057646Y-054659
X058354Y-054659
X005646Y-054659
X006354Y-054659
X033646Y-034841
X034354Y-034841
X037646Y-040659
X038354Y-040659
X025646Y-048841
X026354Y-048841
X057646Y-048841
X058354Y-048841
X049646Y-054659
X050354Y-054659
X049646Y-062841
X050354Y-062841
X029646Y-026659
X030354Y-026659
X029646Y-040659
X030354Y-040659
X009646Y-026659
X010354Y-026659
X061646Y-040659
X062354Y-040659
X021646Y-040659
X022354Y-040659
X017646Y-020841
X018354Y-020841
X061646Y-048841
X062354Y-048841
X017646Y-054659
X018354Y-054659
X061646Y-062841
X062354Y-062841
X033646Y-026659
X034354Y-026659
X061646Y-026659
X062354Y-026659
X021646Y-034841
X022354Y-034841
X013646Y-048841
X014354Y-048841
X013646Y-062841
X014354Y-062841
X025646Y-068659
X026354Y-068659
X033646Y-062841
X034354Y-062841
X045646Y-068659
X046354Y-068659
X009646Y-020841
X010354Y-020841
X053646Y-034841
X054354Y-034841
X045646Y-048841
X046354Y-048841
X029646Y-054659
X030354Y-054659
X053646Y-062841
X054354Y-062841
X009646Y-034841
X010354Y-034841
X001646Y-048841
X002354Y-048841
X009646Y-068659
X010354Y-068659
X005646Y-068659
X006354Y-068659
X001646Y-062841
X002354Y-062841
X025646Y-026659
X026354Y-026659
X041646Y-034841
X042354Y-034841
X033646Y-048841
X034354Y-048841
X041646Y-054659
X042354Y-054659
X041646Y-020841
X042354Y-020841
X045646Y-020841
X046354Y-020841
X061646Y-054659
X062354Y-054659
X001646Y-026659
X002354Y-026659
X053646Y-040659
X054354Y-040659
X009646Y-040659
X010354Y-040659
X013646Y-068659
X014354Y-068659
X009646Y-054659
X010354Y-054659
X025646Y-062841
X026354Y-062841
X037646Y-068659
X038354Y-068659
X037646Y-020841
X038354Y-020841
X045646Y-026659
X046354Y-026659
X029646Y-034841
X030354Y-034841
X021646Y-048841
X022354Y-048841
X029646Y-020841
X030354Y-020841
X025646Y-040659
X026354Y-040659
X053646Y-054659
X054354Y-054659
X037646Y-026659
X038354Y-026659
X005646Y-020841
X006354Y-020841
X053646Y-048841
X054354Y-048841
X061646Y-020841
X062354Y-020841
X041646Y-026659
X042354Y-026659
X013646Y-026659
X014354Y-026659
X061646Y-034841
X062354Y-034841
X033646Y-040659
X034354Y-040659
T4
X001923Y-009778
X001923Y-011746
T5
X050000Y-013250
X050000Y-014250
X050000Y-015250
X051000Y-013250
X051000Y-014250
X051000Y-015250
T6
X001500Y-071500
X002500Y-071500
X049000Y-014250
X052000Y-014250
X049000Y-013250
X055500Y-014750
X056500Y-014750
X057500Y-014750
X058500Y-014750
X052000Y-015250
X052000Y-013250
X055500Y-001500
X057500Y-001500
X005500Y-014750
X006500Y-014750
X007500Y-014750
X008500Y-014750
X056500Y-001500
X049000Y-015250
T7
X049000Y-001500
X051000Y-001500
X013000Y-001500
X015000Y-001500
T8
X034000Y-015000
X062000Y-014750
X002000Y-074750
X038000Y-015000
X018000Y-039000
X046000Y-067000
X022000Y-015000
X034000Y-032000
X018000Y-032000
X018000Y-067000
X018000Y-015000
X062000Y-074750
X002000Y-014750
X038000Y-032000
X022000Y-032000
X046000Y-039000
T9
X033600Y-072350
X033600Y-073150
X034000Y-072350
X034000Y-073150
X034400Y-072350
X034400Y-073150
X000850Y-072350
X000850Y-073150
X001250Y-072350
X001250Y-073150
X001650Y-072350
X001650Y-073150
X062100Y-016350
X062100Y-017150
X062500Y-016350
X062500Y-017150
X062900Y-016350
X062900Y-017150
X017600Y-072350
X017600Y-073150
X018000Y-072350
X018000Y-073150
X018400Y-072350
X018400Y-073150
X029600Y-072350
X029600Y-073150
X030000Y-072350
X030000Y-073150
X030400Y-072350
X030400Y-073150
X062350Y-072350
X062350Y-073150
X062750Y-072350
X062750Y-073150
X063150Y-072350
X063150Y-073150
X045600Y-072350
X045600Y-073150
X046000Y-072350
X046000Y-073150
X046400Y-072350
X046400Y-073150
X001100Y-016350
X001100Y-017150
X001500Y-016350
X001500Y-017150
X001900Y-016350
X001900Y-017150
T10
X050000Y-001500
X014000Y-001500
T11
X008000Y-058750
X052000Y-058750
X028000Y-058750
X040000Y-058750
X052000Y-030750
X032000Y-030750
X044000Y-058750
X028000Y-030750
X012000Y-030750
X036000Y-030750
X004000Y-058750
X054000Y-044750
X054000Y-023750
X048000Y-058750
X054000Y-037750
X010000Y-058750
X036000Y-058750
X054000Y-051750
X040000Y-030750
X054000Y-065750
X054000Y-058750
X008000Y-030750
X056000Y-030750
X016000Y-030750
X010000Y-023750
X020000Y-058750
X010000Y-037750
X056000Y-058750
X032000Y-058750
X024000Y-030750
X004000Y-030750
X010000Y-051750
X012000Y-058750
X024000Y-058750
X044000Y-030750
X010000Y-065750
X048000Y-030750
X054000Y-030750
X060000Y-030750
X010000Y-044750
X060000Y-058750
X010000Y-030750
X020000Y-030750
X016000Y-058750
T12
X062500Y-001250
X001500Y-001250
T2
X000722Y-009384G85X000998Y-009384
G05
X000998Y-012140G85X000722Y-012140
G05
T0
M30
