G04 #@! TF.GenerationSoftware,KiCad,Pcbnew,5.0.1-33cea8e~67~ubuntu16.04.1*
G04 #@! TF.CreationDate,2018-10-19T22:17:04+05:30*
G04 #@! TF.ProjectId,ClockIOT,436C6F636B494F542E6B696361645F70,rev 4*
G04 #@! TF.SameCoordinates,Original*
G04 #@! TF.FileFunction,Paste,Top*
G04 #@! TF.FilePolarity,Positive*
%FSLAX46Y46*%
G04 Gerber Fmt 4.6, Leading zero omitted, Abs format (unit mm)*
G04 Created by KiCad (PCBNEW 5.0.1-33cea8e~67~ubuntu16.04.1) date Fri Oct 19 22:17:04 2018*
%MOMM*%
%LPD*%
G01*
G04 APERTURE LIST*
%ADD10R,3.800000X2.000000*%
%ADD11R,1.500000X2.000000*%
%ADD12R,2.000000X2.000000*%
%ADD13R,1.400000X1.400000*%
%ADD14R,1.350000X0.400000*%
%ADD15R,1.400000X1.200000*%
%ADD16R,1.550000X1.350000*%
%ADD17R,5.200000X2.200000*%
%ADD18R,1.350000X1.550000*%
%ADD19R,0.600000X0.400000*%
%ADD20R,1.198880X1.198880*%
%ADD21R,2.000000X1.000000*%
%ADD22R,1.000000X2.000000*%
%ADD23R,4.000000X4.000000*%
%ADD24R,1.300480X1.498600*%
%ADD25R,1.998980X0.599440*%
%ADD26R,3.048000X3.048000*%
%ADD27R,0.650000X0.400000*%
%ADD28C,1.005000*%
%ADD29C,0.127000*%
%ADD30C,0.300000*%
%ADD31C,0.300000*%
G04 APERTURE END LIST*
D10*
G04 #@! TO.C,U131*
X113665000Y-76810000D03*
D11*
X113665000Y-70510000D03*
X111365000Y-70510000D03*
X115965000Y-70510000D03*
G04 #@! TD*
D12*
G04 #@! TO.C,P1*
X52250000Y-73780000D03*
D13*
X54500000Y-78130000D03*
D14*
X54925000Y-74930000D03*
X54925000Y-75580000D03*
X54925000Y-76230000D03*
X54925000Y-73630000D03*
X54925000Y-74280000D03*
D13*
X54500000Y-71730000D03*
D12*
X52250000Y-76080000D03*
G04 #@! TD*
D15*
G04 #@! TO.C,D1*
X74630000Y-73400000D03*
X74630000Y-75600000D03*
X72030000Y-75600000D03*
D13*
X72030000Y-73500000D03*
G04 #@! TD*
D16*
G04 #@! TO.C,C31*
X66040000Y-82280000D03*
X66040000Y-80280000D03*
G04 #@! TD*
G04 #@! TO.C,C26*
X89408000Y-80407000D03*
X89408000Y-82407000D03*
G04 #@! TD*
D17*
G04 #@! TO.C,BT1*
X200025000Y-80215000D03*
X200025000Y-58215000D03*
G04 #@! TD*
D18*
G04 #@! TO.C,C12*
X127365000Y-185420000D03*
X125365000Y-185420000D03*
G04 #@! TD*
G04 #@! TO.C,C7*
X208645000Y-149860000D03*
X206645000Y-149860000D03*
G04 #@! TD*
G04 #@! TO.C,C8*
X127365000Y-149860000D03*
X125365000Y-149860000D03*
G04 #@! TD*
D16*
G04 #@! TO.C,C24*
X76200000Y-80280000D03*
X76200000Y-82280000D03*
G04 #@! TD*
D18*
G04 #@! TO.C,C22*
X182610000Y-79375000D03*
X180610000Y-79375000D03*
G04 #@! TD*
G04 #@! TO.C,C28*
X143250000Y-59000000D03*
X141250000Y-59000000D03*
G04 #@! TD*
D16*
G04 #@! TO.C,C21*
X131445000Y-55515000D03*
X131445000Y-57515000D03*
G04 #@! TD*
G04 #@! TO.C,C20*
X52705000Y-59960000D03*
X52705000Y-61960000D03*
G04 #@! TD*
G04 #@! TO.C,C29*
X186055000Y-85360000D03*
X186055000Y-87360000D03*
G04 #@! TD*
D18*
G04 #@! TO.C,C30*
X198485000Y-85090000D03*
X196485000Y-85090000D03*
G04 #@! TD*
D16*
G04 #@! TO.C,C19*
X131445000Y-72660000D03*
X131445000Y-74660000D03*
G04 #@! TD*
D18*
G04 #@! TO.C,C9*
X56245000Y-177800000D03*
X54245000Y-177800000D03*
G04 #@! TD*
G04 #@! TO.C,C6*
X137525000Y-142240000D03*
X135525000Y-142240000D03*
G04 #@! TD*
G04 #@! TO.C,C1*
X56245000Y-106680000D03*
X54245000Y-106680000D03*
G04 #@! TD*
G04 #@! TO.C,C2*
X137525000Y-106680000D03*
X135525000Y-106680000D03*
G04 #@! TD*
G04 #@! TO.C,C3*
X208645000Y-114300000D03*
X206645000Y-114300000D03*
G04 #@! TD*
G04 #@! TO.C,C4*
X127365000Y-114300000D03*
X125365000Y-114300000D03*
G04 #@! TD*
G04 #@! TO.C,C5*
X56245000Y-142240000D03*
X54245000Y-142240000D03*
G04 #@! TD*
G04 #@! TO.C,C10*
X137525000Y-177800000D03*
X135525000Y-177800000D03*
G04 #@! TD*
G04 #@! TO.C,C11*
X208645000Y-185420000D03*
X206645000Y-185420000D03*
G04 #@! TD*
G04 #@! TO.C,C13*
X56245000Y-213360000D03*
X54245000Y-213360000D03*
G04 #@! TD*
G04 #@! TO.C,C14*
X137525000Y-213360000D03*
X135525000Y-213360000D03*
G04 #@! TD*
G04 #@! TO.C,C15*
X208645000Y-220980000D03*
X206645000Y-220980000D03*
G04 #@! TD*
G04 #@! TO.C,C16*
X127365000Y-220980000D03*
X125365000Y-220980000D03*
G04 #@! TD*
D16*
G04 #@! TO.C,R9*
X69850000Y-80280000D03*
X69850000Y-82280000D03*
G04 #@! TD*
G04 #@! TO.C,L2*
X58420000Y-76470000D03*
X58420000Y-78470000D03*
G04 #@! TD*
G04 #@! TO.C,R25*
X70485000Y-61865000D03*
X70485000Y-63865000D03*
G04 #@! TD*
G04 #@! TO.C,R24*
X85725000Y-61865000D03*
X85725000Y-63865000D03*
G04 #@! TD*
G04 #@! TO.C,R11*
X100965000Y-61865000D03*
X100965000Y-63865000D03*
G04 #@! TD*
G04 #@! TO.C,R10*
X116205000Y-61865000D03*
X116205000Y-63865000D03*
G04 #@! TD*
D18*
G04 #@! TO.C,R23*
X140000000Y-68250000D03*
X138000000Y-68250000D03*
G04 #@! TD*
G04 #@! TO.C,R22*
X140000000Y-71000000D03*
X138000000Y-71000000D03*
G04 #@! TD*
G04 #@! TO.C,R20*
X140000000Y-73750000D03*
X138000000Y-73750000D03*
G04 #@! TD*
G04 #@! TO.C,R19*
X140000000Y-76500000D03*
X138000000Y-76500000D03*
G04 #@! TD*
D16*
G04 #@! TO.C,R18*
X131445000Y-61865000D03*
X131445000Y-63865000D03*
G04 #@! TD*
G04 #@! TO.C,R16*
X55626000Y-59960000D03*
X55626000Y-61960000D03*
G04 #@! TD*
G04 #@! TO.C,R4*
X99500000Y-77500000D03*
X99500000Y-79500000D03*
G04 #@! TD*
G04 #@! TO.C,R3*
X131445000Y-67580000D03*
X131445000Y-69580000D03*
G04 #@! TD*
G04 #@! TO.C,R8*
X73025000Y-80280000D03*
X73025000Y-82280000D03*
G04 #@! TD*
G04 #@! TO.C,R7*
X179500000Y-63250000D03*
X179500000Y-65250000D03*
G04 #@! TD*
G04 #@! TO.C,R6*
X183500000Y-63250000D03*
X183500000Y-65250000D03*
G04 #@! TD*
D18*
G04 #@! TO.C,R21*
X140000000Y-65500000D03*
X138000000Y-65500000D03*
G04 #@! TD*
G04 #@! TO.C,R1*
X66500000Y-96000000D03*
X64500000Y-96000000D03*
G04 #@! TD*
G04 #@! TO.C,R2*
X76500000Y-96000000D03*
X74500000Y-96000000D03*
G04 #@! TD*
G04 #@! TO.C,R12*
X101965000Y-53975000D03*
X99965000Y-53975000D03*
G04 #@! TD*
G04 #@! TO.C,R13*
X172450000Y-53975000D03*
X170450000Y-53975000D03*
G04 #@! TD*
D16*
G04 #@! TO.C,L1*
X58420000Y-71390000D03*
X58420000Y-73390000D03*
G04 #@! TD*
D19*
G04 #@! TO.C,JP1*
X99500000Y-71200000D03*
X99500000Y-70300000D03*
G04 #@! TD*
D20*
G04 #@! TO.C,D2*
X99500000Y-73200980D03*
X99500000Y-75299020D03*
G04 #@! TD*
D13*
G04 #@! TO.C,U123*
X108245000Y-224460000D03*
X103845000Y-224460000D03*
X103845000Y-226060000D03*
X108245000Y-226060000D03*
X108245000Y-227660000D03*
X103845000Y-227660000D03*
G04 #@! TD*
D21*
G04 #@! TO.C,U129*
X150385000Y-56980000D03*
X150385000Y-58250000D03*
X150385000Y-59520000D03*
X150385000Y-60790000D03*
X150385000Y-62060000D03*
X150385000Y-63330000D03*
X150385000Y-64600000D03*
X150385000Y-65870000D03*
X150385000Y-67140000D03*
X150385000Y-68410000D03*
X150385000Y-69680000D03*
X150385000Y-70950000D03*
X150385000Y-72220000D03*
X150385000Y-73490000D03*
D22*
X153670000Y-74980000D03*
X154940000Y-74980000D03*
X156210000Y-74980000D03*
X157480000Y-74980000D03*
X158750000Y-74980000D03*
X160020000Y-74980000D03*
X161290000Y-74980000D03*
X162560000Y-74980000D03*
X163830000Y-74980000D03*
X165100000Y-74980000D03*
D21*
X168385000Y-73490000D03*
X168385000Y-72220000D03*
X168385000Y-70950000D03*
X168385000Y-69680000D03*
X168385000Y-68410000D03*
X168385000Y-67140000D03*
X168385000Y-65870000D03*
X168385000Y-64600000D03*
X168385000Y-63330000D03*
X168385000Y-62060000D03*
X168385000Y-60790000D03*
X168385000Y-59520000D03*
X168385000Y-58250000D03*
X168385000Y-56980000D03*
D23*
X158685000Y-64380000D03*
G04 #@! TD*
D24*
G04 #@! TO.C,LDR1*
X84225000Y-53975000D03*
X87225000Y-53975000D03*
G04 #@! TD*
G04 #@! TO.C,LDR2*
X178665000Y-53975000D03*
X175665000Y-53975000D03*
G04 #@! TD*
D25*
G04 #@! TO.C,U130*
X176959260Y-76835000D03*
X176959260Y-75565000D03*
X176959260Y-74295000D03*
X176959260Y-73025000D03*
X176959260Y-71755000D03*
X176959260Y-70485000D03*
X176959260Y-69215000D03*
X176959260Y-67945000D03*
X186260740Y-67945000D03*
X186260740Y-69215000D03*
X186260740Y-70485000D03*
X186260740Y-71755000D03*
X186260740Y-73025000D03*
X186260740Y-74295000D03*
X186260740Y-75565000D03*
X186260740Y-76835000D03*
G04 #@! TD*
D26*
G04 #@! TO.C,C17*
X104500000Y-70936000D03*
X104500000Y-79064000D03*
G04 #@! TD*
G04 #@! TO.C,C27*
X135186000Y-54500000D03*
X143314000Y-54500000D03*
G04 #@! TD*
G04 #@! TO.C,C18*
X122682000Y-70866000D03*
X122682000Y-78994000D03*
G04 #@! TD*
G04 #@! TO.C,C25*
X85524000Y-88064000D03*
X85524000Y-79936000D03*
G04 #@! TD*
G04 #@! TO.C,C23*
X80524000Y-88064000D03*
X80524000Y-79936000D03*
G04 #@! TD*
D13*
G04 #@! TO.C,U127*
X67605000Y-224460000D03*
X63205000Y-224460000D03*
X63205000Y-226060000D03*
X67605000Y-226060000D03*
X67605000Y-227660000D03*
X63205000Y-227660000D03*
G04 #@! TD*
G04 #@! TO.C,U18*
X199685000Y-117780000D03*
X195285000Y-117780000D03*
X195285000Y-119380000D03*
X199685000Y-119380000D03*
X199685000Y-120980000D03*
X195285000Y-120980000D03*
G04 #@! TD*
G04 #@! TO.C,U1*
X53045000Y-103200000D03*
X57445000Y-103200000D03*
X57445000Y-101600000D03*
X53045000Y-101600000D03*
X53045000Y-100000000D03*
X57445000Y-100000000D03*
G04 #@! TD*
G04 #@! TO.C,U3*
X73365000Y-103200000D03*
X77765000Y-103200000D03*
X77765000Y-101600000D03*
X73365000Y-101600000D03*
X73365000Y-100000000D03*
X77765000Y-100000000D03*
G04 #@! TD*
G04 #@! TO.C,U4*
X83525000Y-103200000D03*
X87925000Y-103200000D03*
X87925000Y-101600000D03*
X83525000Y-101600000D03*
X83525000Y-100000000D03*
X87925000Y-100000000D03*
G04 #@! TD*
G04 #@! TO.C,U5*
X93685000Y-103200000D03*
X98085000Y-103200000D03*
X98085000Y-101600000D03*
X93685000Y-101600000D03*
X93685000Y-100000000D03*
X98085000Y-100000000D03*
G04 #@! TD*
G04 #@! TO.C,U6*
X103845000Y-103200000D03*
X108245000Y-103200000D03*
X108245000Y-101600000D03*
X103845000Y-101600000D03*
X103845000Y-100000000D03*
X108245000Y-100000000D03*
G04 #@! TD*
G04 #@! TO.C,U7*
X114005000Y-103200000D03*
X118405000Y-103200000D03*
X118405000Y-101600000D03*
X114005000Y-101600000D03*
X114005000Y-100000000D03*
X118405000Y-100000000D03*
G04 #@! TD*
G04 #@! TO.C,U8*
X124165000Y-103200000D03*
X128565000Y-103200000D03*
X128565000Y-101600000D03*
X124165000Y-101600000D03*
X124165000Y-100000000D03*
X128565000Y-100000000D03*
G04 #@! TD*
G04 #@! TO.C,U9*
X134325000Y-103200000D03*
X138725000Y-103200000D03*
X138725000Y-101600000D03*
X134325000Y-101600000D03*
X134325000Y-100000000D03*
X138725000Y-100000000D03*
G04 #@! TD*
G04 #@! TO.C,U10*
X144485000Y-103200000D03*
X148885000Y-103200000D03*
X148885000Y-101600000D03*
X144485000Y-101600000D03*
X144485000Y-100000000D03*
X148885000Y-100000000D03*
G04 #@! TD*
G04 #@! TO.C,U11*
X154645000Y-103200000D03*
X159045000Y-103200000D03*
X159045000Y-101600000D03*
X154645000Y-101600000D03*
X154645000Y-100000000D03*
X159045000Y-100000000D03*
G04 #@! TD*
G04 #@! TO.C,U12*
X164805000Y-103200000D03*
X169205000Y-103200000D03*
X169205000Y-101600000D03*
X164805000Y-101600000D03*
X164805000Y-100000000D03*
X169205000Y-100000000D03*
G04 #@! TD*
G04 #@! TO.C,U13*
X174965000Y-103200000D03*
X179365000Y-103200000D03*
X179365000Y-101600000D03*
X174965000Y-101600000D03*
X174965000Y-100000000D03*
X179365000Y-100000000D03*
G04 #@! TD*
G04 #@! TO.C,U14*
X185125000Y-103200000D03*
X189525000Y-103200000D03*
X189525000Y-101600000D03*
X185125000Y-101600000D03*
X185125000Y-100000000D03*
X189525000Y-100000000D03*
G04 #@! TD*
G04 #@! TO.C,U15*
X195285000Y-103200000D03*
X199685000Y-103200000D03*
X199685000Y-101600000D03*
X195285000Y-101600000D03*
X195285000Y-100000000D03*
X199685000Y-100000000D03*
G04 #@! TD*
G04 #@! TO.C,U16*
X205445000Y-103200000D03*
X209845000Y-103200000D03*
X209845000Y-101600000D03*
X205445000Y-101600000D03*
X205445000Y-100000000D03*
X209845000Y-100000000D03*
G04 #@! TD*
G04 #@! TO.C,U17*
X209845000Y-117780000D03*
X205445000Y-117780000D03*
X205445000Y-119380000D03*
X209845000Y-119380000D03*
X209845000Y-120980000D03*
X205445000Y-120980000D03*
G04 #@! TD*
G04 #@! TO.C,U19*
X189525000Y-117780000D03*
X185125000Y-117780000D03*
X185125000Y-119380000D03*
X189525000Y-119380000D03*
X189525000Y-120980000D03*
X185125000Y-120980000D03*
G04 #@! TD*
G04 #@! TO.C,U20*
X179365000Y-117780000D03*
X174965000Y-117780000D03*
X174965000Y-119380000D03*
X179365000Y-119380000D03*
X179365000Y-120980000D03*
X174965000Y-120980000D03*
G04 #@! TD*
G04 #@! TO.C,U21*
X169205000Y-117780000D03*
X164805000Y-117780000D03*
X164805000Y-119380000D03*
X169205000Y-119380000D03*
X169205000Y-120980000D03*
X164805000Y-120980000D03*
G04 #@! TD*
G04 #@! TO.C,U22*
X159045000Y-117780000D03*
X154645000Y-117780000D03*
X154645000Y-119380000D03*
X159045000Y-119380000D03*
X159045000Y-120980000D03*
X154645000Y-120980000D03*
G04 #@! TD*
G04 #@! TO.C,U23*
X148885000Y-117780000D03*
X144485000Y-117780000D03*
X144485000Y-119380000D03*
X148885000Y-119380000D03*
X148885000Y-120980000D03*
X144485000Y-120980000D03*
G04 #@! TD*
G04 #@! TO.C,U24*
X138725000Y-117780000D03*
X134325000Y-117780000D03*
X134325000Y-119380000D03*
X138725000Y-119380000D03*
X138725000Y-120980000D03*
X134325000Y-120980000D03*
G04 #@! TD*
G04 #@! TO.C,U25*
X128565000Y-117780000D03*
X124165000Y-117780000D03*
X124165000Y-119380000D03*
X128565000Y-119380000D03*
X128565000Y-120980000D03*
X124165000Y-120980000D03*
G04 #@! TD*
G04 #@! TO.C,U26*
X118405000Y-117780000D03*
X114005000Y-117780000D03*
X114005000Y-119380000D03*
X118405000Y-119380000D03*
X118405000Y-120980000D03*
X114005000Y-120980000D03*
G04 #@! TD*
G04 #@! TO.C,U27*
X108245000Y-117780000D03*
X103845000Y-117780000D03*
X103845000Y-119380000D03*
X108245000Y-119380000D03*
X108245000Y-120980000D03*
X103845000Y-120980000D03*
G04 #@! TD*
G04 #@! TO.C,U28*
X98085000Y-117780000D03*
X93685000Y-117780000D03*
X93685000Y-119380000D03*
X98085000Y-119380000D03*
X98085000Y-120980000D03*
X93685000Y-120980000D03*
G04 #@! TD*
G04 #@! TO.C,U29*
X87925000Y-117780000D03*
X83525000Y-117780000D03*
X83525000Y-119380000D03*
X87925000Y-119380000D03*
X87925000Y-120980000D03*
X83525000Y-120980000D03*
G04 #@! TD*
G04 #@! TO.C,U30*
X77765000Y-117780000D03*
X73365000Y-117780000D03*
X73365000Y-119380000D03*
X77765000Y-119380000D03*
X77765000Y-120980000D03*
X73365000Y-120980000D03*
G04 #@! TD*
G04 #@! TO.C,U31*
X67605000Y-117780000D03*
X63205000Y-117780000D03*
X63205000Y-119380000D03*
X67605000Y-119380000D03*
X67605000Y-120980000D03*
X63205000Y-120980000D03*
G04 #@! TD*
G04 #@! TO.C,U32*
X57445000Y-117780000D03*
X53045000Y-117780000D03*
X53045000Y-119380000D03*
X57445000Y-119380000D03*
X57445000Y-120980000D03*
X53045000Y-120980000D03*
G04 #@! TD*
G04 #@! TO.C,U33*
X53045000Y-138760000D03*
X57445000Y-138760000D03*
X57445000Y-137160000D03*
X53045000Y-137160000D03*
X53045000Y-135560000D03*
X57445000Y-135560000D03*
G04 #@! TD*
G04 #@! TO.C,U34*
X63205000Y-138760000D03*
X67605000Y-138760000D03*
X67605000Y-137160000D03*
X63205000Y-137160000D03*
X63205000Y-135560000D03*
X67605000Y-135560000D03*
G04 #@! TD*
G04 #@! TO.C,U35*
X73365000Y-138760000D03*
X77765000Y-138760000D03*
X77765000Y-137160000D03*
X73365000Y-137160000D03*
X73365000Y-135560000D03*
X77765000Y-135560000D03*
G04 #@! TD*
G04 #@! TO.C,U36*
X83525000Y-138760000D03*
X87925000Y-138760000D03*
X87925000Y-137160000D03*
X83525000Y-137160000D03*
X83525000Y-135560000D03*
X87925000Y-135560000D03*
G04 #@! TD*
G04 #@! TO.C,U37*
X93685000Y-138760000D03*
X98085000Y-138760000D03*
X98085000Y-137160000D03*
X93685000Y-137160000D03*
X93685000Y-135560000D03*
X98085000Y-135560000D03*
G04 #@! TD*
G04 #@! TO.C,U38*
X103845000Y-138760000D03*
X108245000Y-138760000D03*
X108245000Y-137160000D03*
X103845000Y-137160000D03*
X103845000Y-135560000D03*
X108245000Y-135560000D03*
G04 #@! TD*
G04 #@! TO.C,U39*
X114005000Y-138760000D03*
X118405000Y-138760000D03*
X118405000Y-137160000D03*
X114005000Y-137160000D03*
X114005000Y-135560000D03*
X118405000Y-135560000D03*
G04 #@! TD*
G04 #@! TO.C,U40*
X124165000Y-138760000D03*
X128565000Y-138760000D03*
X128565000Y-137160000D03*
X124165000Y-137160000D03*
X124165000Y-135560000D03*
X128565000Y-135560000D03*
G04 #@! TD*
G04 #@! TO.C,U41*
X134325000Y-138760000D03*
X138725000Y-138760000D03*
X138725000Y-137160000D03*
X134325000Y-137160000D03*
X134325000Y-135560000D03*
X138725000Y-135560000D03*
G04 #@! TD*
G04 #@! TO.C,U42*
X144485000Y-138760000D03*
X148885000Y-138760000D03*
X148885000Y-137160000D03*
X144485000Y-137160000D03*
X144485000Y-135560000D03*
X148885000Y-135560000D03*
G04 #@! TD*
G04 #@! TO.C,U43*
X154645000Y-138760000D03*
X159045000Y-138760000D03*
X159045000Y-137160000D03*
X154645000Y-137160000D03*
X154645000Y-135560000D03*
X159045000Y-135560000D03*
G04 #@! TD*
G04 #@! TO.C,U44*
X164805000Y-138760000D03*
X169205000Y-138760000D03*
X169205000Y-137160000D03*
X164805000Y-137160000D03*
X164805000Y-135560000D03*
X169205000Y-135560000D03*
G04 #@! TD*
G04 #@! TO.C,U45*
X174965000Y-138760000D03*
X179365000Y-138760000D03*
X179365000Y-137160000D03*
X174965000Y-137160000D03*
X174965000Y-135560000D03*
X179365000Y-135560000D03*
G04 #@! TD*
G04 #@! TO.C,U46*
X185125000Y-138760000D03*
X189525000Y-138760000D03*
X189525000Y-137160000D03*
X185125000Y-137160000D03*
X185125000Y-135560000D03*
X189525000Y-135560000D03*
G04 #@! TD*
G04 #@! TO.C,U47*
X195285000Y-138760000D03*
X199685000Y-138760000D03*
X199685000Y-137160000D03*
X195285000Y-137160000D03*
X195285000Y-135560000D03*
X199685000Y-135560000D03*
G04 #@! TD*
G04 #@! TO.C,U48*
X205445000Y-138760000D03*
X209845000Y-138760000D03*
X209845000Y-137160000D03*
X205445000Y-137160000D03*
X205445000Y-135560000D03*
X209845000Y-135560000D03*
G04 #@! TD*
G04 #@! TO.C,U49*
X209845000Y-153340000D03*
X205445000Y-153340000D03*
X205445000Y-154940000D03*
X209845000Y-154940000D03*
X209845000Y-156540000D03*
X205445000Y-156540000D03*
G04 #@! TD*
G04 #@! TO.C,U50*
X199685000Y-153340000D03*
X195285000Y-153340000D03*
X195285000Y-154940000D03*
X199685000Y-154940000D03*
X199685000Y-156540000D03*
X195285000Y-156540000D03*
G04 #@! TD*
G04 #@! TO.C,U51*
X189525000Y-153340000D03*
X185125000Y-153340000D03*
X185125000Y-154940000D03*
X189525000Y-154940000D03*
X189525000Y-156540000D03*
X185125000Y-156540000D03*
G04 #@! TD*
G04 #@! TO.C,U52*
X179365000Y-153340000D03*
X174965000Y-153340000D03*
X174965000Y-154940000D03*
X179365000Y-154940000D03*
X179365000Y-156540000D03*
X174965000Y-156540000D03*
G04 #@! TD*
G04 #@! TO.C,U53*
X169205000Y-153340000D03*
X164805000Y-153340000D03*
X164805000Y-154940000D03*
X169205000Y-154940000D03*
X169205000Y-156540000D03*
X164805000Y-156540000D03*
G04 #@! TD*
G04 #@! TO.C,U54*
X159045000Y-153340000D03*
X154645000Y-153340000D03*
X154645000Y-154940000D03*
X159045000Y-154940000D03*
X159045000Y-156540000D03*
X154645000Y-156540000D03*
G04 #@! TD*
G04 #@! TO.C,U55*
X148885000Y-153340000D03*
X144485000Y-153340000D03*
X144485000Y-154940000D03*
X148885000Y-154940000D03*
X148885000Y-156540000D03*
X144485000Y-156540000D03*
G04 #@! TD*
G04 #@! TO.C,U56*
X138725000Y-153340000D03*
X134325000Y-153340000D03*
X134325000Y-154940000D03*
X138725000Y-154940000D03*
X138725000Y-156540000D03*
X134325000Y-156540000D03*
G04 #@! TD*
G04 #@! TO.C,U57*
X128565000Y-153340000D03*
X124165000Y-153340000D03*
X124165000Y-154940000D03*
X128565000Y-154940000D03*
X128565000Y-156540000D03*
X124165000Y-156540000D03*
G04 #@! TD*
G04 #@! TO.C,U58*
X118405000Y-153340000D03*
X114005000Y-153340000D03*
X114005000Y-154940000D03*
X118405000Y-154940000D03*
X118405000Y-156540000D03*
X114005000Y-156540000D03*
G04 #@! TD*
G04 #@! TO.C,U59*
X108245000Y-153340000D03*
X103845000Y-153340000D03*
X103845000Y-154940000D03*
X108245000Y-154940000D03*
X108245000Y-156540000D03*
X103845000Y-156540000D03*
G04 #@! TD*
G04 #@! TO.C,U60*
X98085000Y-153340000D03*
X93685000Y-153340000D03*
X93685000Y-154940000D03*
X98085000Y-154940000D03*
X98085000Y-156540000D03*
X93685000Y-156540000D03*
G04 #@! TD*
G04 #@! TO.C,U61*
X87925000Y-153340000D03*
X83525000Y-153340000D03*
X83525000Y-154940000D03*
X87925000Y-154940000D03*
X87925000Y-156540000D03*
X83525000Y-156540000D03*
G04 #@! TD*
G04 #@! TO.C,U62*
X77765000Y-153340000D03*
X73365000Y-153340000D03*
X73365000Y-154940000D03*
X77765000Y-154940000D03*
X77765000Y-156540000D03*
X73365000Y-156540000D03*
G04 #@! TD*
G04 #@! TO.C,U63*
X67605000Y-153340000D03*
X63205000Y-153340000D03*
X63205000Y-154940000D03*
X67605000Y-154940000D03*
X67605000Y-156540000D03*
X63205000Y-156540000D03*
G04 #@! TD*
G04 #@! TO.C,U64*
X57445000Y-153340000D03*
X53045000Y-153340000D03*
X53045000Y-154940000D03*
X57445000Y-154940000D03*
X57445000Y-156540000D03*
X53045000Y-156540000D03*
G04 #@! TD*
G04 #@! TO.C,U65*
X53045000Y-174320000D03*
X57445000Y-174320000D03*
X57445000Y-172720000D03*
X53045000Y-172720000D03*
X53045000Y-171120000D03*
X57445000Y-171120000D03*
G04 #@! TD*
G04 #@! TO.C,U66*
X63205000Y-174320000D03*
X67605000Y-174320000D03*
X67605000Y-172720000D03*
X63205000Y-172720000D03*
X63205000Y-171120000D03*
X67605000Y-171120000D03*
G04 #@! TD*
G04 #@! TO.C,U67*
X73365000Y-174320000D03*
X77765000Y-174320000D03*
X77765000Y-172720000D03*
X73365000Y-172720000D03*
X73365000Y-171120000D03*
X77765000Y-171120000D03*
G04 #@! TD*
G04 #@! TO.C,U68*
X83525000Y-174320000D03*
X87925000Y-174320000D03*
X87925000Y-172720000D03*
X83525000Y-172720000D03*
X83525000Y-171120000D03*
X87925000Y-171120000D03*
G04 #@! TD*
G04 #@! TO.C,U69*
X93685000Y-174320000D03*
X98085000Y-174320000D03*
X98085000Y-172720000D03*
X93685000Y-172720000D03*
X93685000Y-171120000D03*
X98085000Y-171120000D03*
G04 #@! TD*
G04 #@! TO.C,U70*
X103845000Y-174320000D03*
X108245000Y-174320000D03*
X108245000Y-172720000D03*
X103845000Y-172720000D03*
X103845000Y-171120000D03*
X108245000Y-171120000D03*
G04 #@! TD*
G04 #@! TO.C,U71*
X114005000Y-174320000D03*
X118405000Y-174320000D03*
X118405000Y-172720000D03*
X114005000Y-172720000D03*
X114005000Y-171120000D03*
X118405000Y-171120000D03*
G04 #@! TD*
G04 #@! TO.C,U72*
X124165000Y-174320000D03*
X128565000Y-174320000D03*
X128565000Y-172720000D03*
X124165000Y-172720000D03*
X124165000Y-171120000D03*
X128565000Y-171120000D03*
G04 #@! TD*
G04 #@! TO.C,U73*
X134325000Y-174320000D03*
X138725000Y-174320000D03*
X138725000Y-172720000D03*
X134325000Y-172720000D03*
X134325000Y-171120000D03*
X138725000Y-171120000D03*
G04 #@! TD*
G04 #@! TO.C,U74*
X144485000Y-174320000D03*
X148885000Y-174320000D03*
X148885000Y-172720000D03*
X144485000Y-172720000D03*
X144485000Y-171120000D03*
X148885000Y-171120000D03*
G04 #@! TD*
G04 #@! TO.C,U75*
X154645000Y-174320000D03*
X159045000Y-174320000D03*
X159045000Y-172720000D03*
X154645000Y-172720000D03*
X154645000Y-171120000D03*
X159045000Y-171120000D03*
G04 #@! TD*
G04 #@! TO.C,U76*
X164805000Y-174320000D03*
X169205000Y-174320000D03*
X169205000Y-172720000D03*
X164805000Y-172720000D03*
X164805000Y-171120000D03*
X169205000Y-171120000D03*
G04 #@! TD*
G04 #@! TO.C,U77*
X174965000Y-174320000D03*
X179365000Y-174320000D03*
X179365000Y-172720000D03*
X174965000Y-172720000D03*
X174965000Y-171120000D03*
X179365000Y-171120000D03*
G04 #@! TD*
G04 #@! TO.C,U78*
X185125000Y-174320000D03*
X189525000Y-174320000D03*
X189525000Y-172720000D03*
X185125000Y-172720000D03*
X185125000Y-171120000D03*
X189525000Y-171120000D03*
G04 #@! TD*
G04 #@! TO.C,U79*
X195285000Y-174320000D03*
X199685000Y-174320000D03*
X199685000Y-172720000D03*
X195285000Y-172720000D03*
X195285000Y-171120000D03*
X199685000Y-171120000D03*
G04 #@! TD*
G04 #@! TO.C,U80*
X205445000Y-174320000D03*
X209845000Y-174320000D03*
X209845000Y-172720000D03*
X205445000Y-172720000D03*
X205445000Y-171120000D03*
X209845000Y-171120000D03*
G04 #@! TD*
G04 #@! TO.C,U81*
X209845000Y-188900000D03*
X205445000Y-188900000D03*
X205445000Y-190500000D03*
X209845000Y-190500000D03*
X209845000Y-192100000D03*
X205445000Y-192100000D03*
G04 #@! TD*
G04 #@! TO.C,U82*
X199685000Y-188900000D03*
X195285000Y-188900000D03*
X195285000Y-190500000D03*
X199685000Y-190500000D03*
X199685000Y-192100000D03*
X195285000Y-192100000D03*
G04 #@! TD*
G04 #@! TO.C,U83*
X189525000Y-188900000D03*
X185125000Y-188900000D03*
X185125000Y-190500000D03*
X189525000Y-190500000D03*
X189525000Y-192100000D03*
X185125000Y-192100000D03*
G04 #@! TD*
G04 #@! TO.C,U84*
X179365000Y-188900000D03*
X174965000Y-188900000D03*
X174965000Y-190500000D03*
X179365000Y-190500000D03*
X179365000Y-192100000D03*
X174965000Y-192100000D03*
G04 #@! TD*
G04 #@! TO.C,U85*
X169205000Y-188900000D03*
X164805000Y-188900000D03*
X164805000Y-190500000D03*
X169205000Y-190500000D03*
X169205000Y-192100000D03*
X164805000Y-192100000D03*
G04 #@! TD*
G04 #@! TO.C,U86*
X159045000Y-188900000D03*
X154645000Y-188900000D03*
X154645000Y-190500000D03*
X159045000Y-190500000D03*
X159045000Y-192100000D03*
X154645000Y-192100000D03*
G04 #@! TD*
G04 #@! TO.C,U87*
X148885000Y-188900000D03*
X144485000Y-188900000D03*
X144485000Y-190500000D03*
X148885000Y-190500000D03*
X148885000Y-192100000D03*
X144485000Y-192100000D03*
G04 #@! TD*
G04 #@! TO.C,U88*
X138725000Y-188900000D03*
X134325000Y-188900000D03*
X134325000Y-190500000D03*
X138725000Y-190500000D03*
X138725000Y-192100000D03*
X134325000Y-192100000D03*
G04 #@! TD*
G04 #@! TO.C,U89*
X128565000Y-188900000D03*
X124165000Y-188900000D03*
X124165000Y-190500000D03*
X128565000Y-190500000D03*
X128565000Y-192100000D03*
X124165000Y-192100000D03*
G04 #@! TD*
G04 #@! TO.C,U90*
X118405000Y-188900000D03*
X114005000Y-188900000D03*
X114005000Y-190500000D03*
X118405000Y-190500000D03*
X118405000Y-192100000D03*
X114005000Y-192100000D03*
G04 #@! TD*
G04 #@! TO.C,U91*
X108245000Y-188900000D03*
X103845000Y-188900000D03*
X103845000Y-190500000D03*
X108245000Y-190500000D03*
X108245000Y-192100000D03*
X103845000Y-192100000D03*
G04 #@! TD*
G04 #@! TO.C,U92*
X98085000Y-188900000D03*
X93685000Y-188900000D03*
X93685000Y-190500000D03*
X98085000Y-190500000D03*
X98085000Y-192100000D03*
X93685000Y-192100000D03*
G04 #@! TD*
G04 #@! TO.C,U93*
X87925000Y-188900000D03*
X83525000Y-188900000D03*
X83525000Y-190500000D03*
X87925000Y-190500000D03*
X87925000Y-192100000D03*
X83525000Y-192100000D03*
G04 #@! TD*
G04 #@! TO.C,U94*
X77765000Y-188900000D03*
X73365000Y-188900000D03*
X73365000Y-190500000D03*
X77765000Y-190500000D03*
X77765000Y-192100000D03*
X73365000Y-192100000D03*
G04 #@! TD*
G04 #@! TO.C,U95*
X67605000Y-188900000D03*
X63205000Y-188900000D03*
X63205000Y-190500000D03*
X67605000Y-190500000D03*
X67605000Y-192100000D03*
X63205000Y-192100000D03*
G04 #@! TD*
G04 #@! TO.C,U96*
X57445000Y-188900000D03*
X53045000Y-188900000D03*
X53045000Y-190500000D03*
X57445000Y-190500000D03*
X57445000Y-192100000D03*
X53045000Y-192100000D03*
G04 #@! TD*
G04 #@! TO.C,U97*
X53045000Y-209880000D03*
X57445000Y-209880000D03*
X57445000Y-208280000D03*
X53045000Y-208280000D03*
X53045000Y-206680000D03*
X57445000Y-206680000D03*
G04 #@! TD*
G04 #@! TO.C,U98*
X63205000Y-209880000D03*
X67605000Y-209880000D03*
X67605000Y-208280000D03*
X63205000Y-208280000D03*
X63205000Y-206680000D03*
X67605000Y-206680000D03*
G04 #@! TD*
G04 #@! TO.C,U99*
X73365000Y-209880000D03*
X77765000Y-209880000D03*
X77765000Y-208280000D03*
X73365000Y-208280000D03*
X73365000Y-206680000D03*
X77765000Y-206680000D03*
G04 #@! TD*
G04 #@! TO.C,U100*
X83525000Y-209880000D03*
X87925000Y-209880000D03*
X87925000Y-208280000D03*
X83525000Y-208280000D03*
X83525000Y-206680000D03*
X87925000Y-206680000D03*
G04 #@! TD*
G04 #@! TO.C,U101*
X93685000Y-209880000D03*
X98085000Y-209880000D03*
X98085000Y-208280000D03*
X93685000Y-208280000D03*
X93685000Y-206680000D03*
X98085000Y-206680000D03*
G04 #@! TD*
G04 #@! TO.C,U102*
X103845000Y-209880000D03*
X108245000Y-209880000D03*
X108245000Y-208280000D03*
X103845000Y-208280000D03*
X103845000Y-206680000D03*
X108245000Y-206680000D03*
G04 #@! TD*
G04 #@! TO.C,U103*
X114005000Y-209880000D03*
X118405000Y-209880000D03*
X118405000Y-208280000D03*
X114005000Y-208280000D03*
X114005000Y-206680000D03*
X118405000Y-206680000D03*
G04 #@! TD*
G04 #@! TO.C,U104*
X124165000Y-209880000D03*
X128565000Y-209880000D03*
X128565000Y-208280000D03*
X124165000Y-208280000D03*
X124165000Y-206680000D03*
X128565000Y-206680000D03*
G04 #@! TD*
G04 #@! TO.C,U105*
X134325000Y-209880000D03*
X138725000Y-209880000D03*
X138725000Y-208280000D03*
X134325000Y-208280000D03*
X134325000Y-206680000D03*
X138725000Y-206680000D03*
G04 #@! TD*
G04 #@! TO.C,U106*
X144485000Y-209880000D03*
X148885000Y-209880000D03*
X148885000Y-208280000D03*
X144485000Y-208280000D03*
X144485000Y-206680000D03*
X148885000Y-206680000D03*
G04 #@! TD*
G04 #@! TO.C,U107*
X154645000Y-209880000D03*
X159045000Y-209880000D03*
X159045000Y-208280000D03*
X154645000Y-208280000D03*
X154645000Y-206680000D03*
X159045000Y-206680000D03*
G04 #@! TD*
G04 #@! TO.C,U108*
X164805000Y-209880000D03*
X169205000Y-209880000D03*
X169205000Y-208280000D03*
X164805000Y-208280000D03*
X164805000Y-206680000D03*
X169205000Y-206680000D03*
G04 #@! TD*
G04 #@! TO.C,U109*
X174965000Y-209880000D03*
X179365000Y-209880000D03*
X179365000Y-208280000D03*
X174965000Y-208280000D03*
X174965000Y-206680000D03*
X179365000Y-206680000D03*
G04 #@! TD*
G04 #@! TO.C,U110*
X185125000Y-209880000D03*
X189525000Y-209880000D03*
X189525000Y-208280000D03*
X185125000Y-208280000D03*
X185125000Y-206680000D03*
X189525000Y-206680000D03*
G04 #@! TD*
G04 #@! TO.C,U111*
X195285000Y-209880000D03*
X199685000Y-209880000D03*
X199685000Y-208280000D03*
X195285000Y-208280000D03*
X195285000Y-206680000D03*
X199685000Y-206680000D03*
G04 #@! TD*
G04 #@! TO.C,U112*
X205445000Y-209880000D03*
X209845000Y-209880000D03*
X209845000Y-208280000D03*
X205445000Y-208280000D03*
X205445000Y-206680000D03*
X209845000Y-206680000D03*
G04 #@! TD*
G04 #@! TO.C,U113*
X209845000Y-224460000D03*
X205445000Y-224460000D03*
X205445000Y-226060000D03*
X209845000Y-226060000D03*
X209845000Y-227660000D03*
X205445000Y-227660000D03*
G04 #@! TD*
G04 #@! TO.C,U114*
X199685000Y-224460000D03*
X195285000Y-224460000D03*
X195285000Y-226060000D03*
X199685000Y-226060000D03*
X199685000Y-227660000D03*
X195285000Y-227660000D03*
G04 #@! TD*
G04 #@! TO.C,U115*
X189525000Y-224460000D03*
X185125000Y-224460000D03*
X185125000Y-226060000D03*
X189525000Y-226060000D03*
X189525000Y-227660000D03*
X185125000Y-227660000D03*
G04 #@! TD*
G04 #@! TO.C,U116*
X179365000Y-224460000D03*
X174965000Y-224460000D03*
X174965000Y-226060000D03*
X179365000Y-226060000D03*
X179365000Y-227660000D03*
X174965000Y-227660000D03*
G04 #@! TD*
G04 #@! TO.C,U117*
X169205000Y-224460000D03*
X164805000Y-224460000D03*
X164805000Y-226060000D03*
X169205000Y-226060000D03*
X169205000Y-227660000D03*
X164805000Y-227660000D03*
G04 #@! TD*
G04 #@! TO.C,U118*
X159045000Y-224460000D03*
X154645000Y-224460000D03*
X154645000Y-226060000D03*
X159045000Y-226060000D03*
X159045000Y-227660000D03*
X154645000Y-227660000D03*
G04 #@! TD*
G04 #@! TO.C,U119*
X148885000Y-224460000D03*
X144485000Y-224460000D03*
X144485000Y-226060000D03*
X148885000Y-226060000D03*
X148885000Y-227660000D03*
X144485000Y-227660000D03*
G04 #@! TD*
G04 #@! TO.C,U120*
X138725000Y-224460000D03*
X134325000Y-224460000D03*
X134325000Y-226060000D03*
X138725000Y-226060000D03*
X138725000Y-227660000D03*
X134325000Y-227660000D03*
G04 #@! TD*
G04 #@! TO.C,U121*
X128565000Y-224460000D03*
X124165000Y-224460000D03*
X124165000Y-226060000D03*
X128565000Y-226060000D03*
X128565000Y-227660000D03*
X124165000Y-227660000D03*
G04 #@! TD*
G04 #@! TO.C,U122*
X118405000Y-224460000D03*
X114005000Y-224460000D03*
X114005000Y-226060000D03*
X118405000Y-226060000D03*
X118405000Y-227660000D03*
X114005000Y-227660000D03*
G04 #@! TD*
G04 #@! TO.C,U124*
X98085000Y-224460000D03*
X93685000Y-224460000D03*
X93685000Y-226060000D03*
X98085000Y-226060000D03*
X98085000Y-227660000D03*
X93685000Y-227660000D03*
G04 #@! TD*
G04 #@! TO.C,U125*
X87925000Y-224460000D03*
X83525000Y-224460000D03*
X83525000Y-226060000D03*
X87925000Y-226060000D03*
X87925000Y-227660000D03*
X83525000Y-227660000D03*
G04 #@! TD*
G04 #@! TO.C,U126*
X77765000Y-224460000D03*
X73365000Y-224460000D03*
X73365000Y-226060000D03*
X77765000Y-226060000D03*
X77765000Y-227660000D03*
X73365000Y-227660000D03*
G04 #@! TD*
G04 #@! TO.C,U128*
X57445000Y-224460000D03*
X53045000Y-224460000D03*
X53045000Y-226060000D03*
X57445000Y-226060000D03*
X57445000Y-227660000D03*
X53045000Y-227660000D03*
G04 #@! TD*
G04 #@! TO.C,U2*
X63205000Y-103200000D03*
X67605000Y-103200000D03*
X67605000Y-101600000D03*
X63205000Y-101600000D03*
X63205000Y-100000000D03*
X67605000Y-100000000D03*
G04 #@! TD*
D27*
G04 #@! TO.C,Q1*
X133550000Y-71150000D03*
X133550000Y-69850000D03*
X135450000Y-70500000D03*
X133550000Y-70500000D03*
X135450000Y-69850000D03*
X135450000Y-71150000D03*
G04 #@! TD*
D28*
G04 #@! TO.C,U132*
X91500000Y-74153096D03*
D29*
G36*
X90789358Y-74153096D02*
X91500000Y-73442454D01*
X92210642Y-74153096D01*
X91500000Y-74863738D01*
X90789358Y-74153096D01*
X90789358Y-74153096D01*
G37*
D28*
X90315596Y-75337500D03*
D29*
G36*
X89604954Y-75337500D02*
X90315596Y-74626858D01*
X91026238Y-75337500D01*
X90315596Y-76048142D01*
X89604954Y-75337500D01*
X89604954Y-75337500D01*
G37*
D28*
X92684404Y-75337500D03*
D29*
G36*
X91973762Y-75337500D02*
X92684404Y-74626858D01*
X93395046Y-75337500D01*
X92684404Y-76048142D01*
X91973762Y-75337500D01*
X91973762Y-75337500D01*
G37*
D28*
X91500000Y-76521904D03*
D29*
G36*
X90789358Y-76521904D02*
X91500000Y-75811262D01*
X92210642Y-76521904D01*
X91500000Y-77232546D01*
X90789358Y-76521904D01*
X90789358Y-76521904D01*
G37*
D30*
X92171751Y-72544428D03*
D31*
X91977297Y-72738882D02*
X92366205Y-72349974D01*
D30*
X92525305Y-72897982D03*
D31*
X92330851Y-73092436D02*
X92719759Y-72703528D01*
D30*
X92878858Y-73251535D03*
D31*
X92684404Y-73445989D02*
X93073312Y-73057081D01*
D30*
X93232412Y-73605088D03*
D31*
X93037958Y-73799542D02*
X93426866Y-73410634D01*
D30*
X93585965Y-73958642D03*
D31*
X93391511Y-74153096D02*
X93780419Y-73764188D01*
D30*
X93939518Y-74312195D03*
D31*
X93745064Y-74506649D02*
X94133972Y-74117741D01*
D30*
X94293072Y-74665749D03*
D31*
X94098618Y-74860203D02*
X94487526Y-74471295D01*
D30*
X94293072Y-76009251D03*
D31*
X94098618Y-75814797D02*
X94487526Y-76203705D01*
D30*
X93939518Y-76362805D03*
D31*
X93745064Y-76168351D02*
X94133972Y-76557259D01*
D30*
X93585965Y-76716358D03*
D31*
X93391511Y-76521904D02*
X93780419Y-76910812D01*
D30*
X93232412Y-77069912D03*
D31*
X93037958Y-76875458D02*
X93426866Y-77264366D01*
D30*
X92878858Y-77423465D03*
D31*
X92684404Y-77229011D02*
X93073312Y-77617919D01*
D30*
X92525305Y-77777018D03*
D31*
X92330851Y-77582564D02*
X92719759Y-77971472D01*
D30*
X92171751Y-78130572D03*
D31*
X91977297Y-77936118D02*
X92366205Y-78325026D01*
D30*
X90828249Y-78130572D03*
D31*
X90633795Y-78325026D02*
X91022703Y-77936118D01*
D30*
X90474695Y-77777018D03*
D31*
X90280241Y-77971472D02*
X90669149Y-77582564D01*
D30*
X90121142Y-77423465D03*
D31*
X89926688Y-77617919D02*
X90315596Y-77229011D01*
D30*
X89767588Y-77069912D03*
D31*
X89573134Y-77264366D02*
X89962042Y-76875458D01*
D30*
X89414035Y-76716358D03*
D31*
X89219581Y-76910812D02*
X89608489Y-76521904D01*
D30*
X89060482Y-76362805D03*
D31*
X88866028Y-76557259D02*
X89254936Y-76168351D01*
D30*
X88706928Y-76009251D03*
D31*
X88512474Y-76203705D02*
X88901382Y-75814797D01*
D30*
X88706928Y-74665749D03*
D31*
X88512474Y-74471295D02*
X88901382Y-74860203D01*
D30*
X89060482Y-74312195D03*
D31*
X88866028Y-74117741D02*
X89254936Y-74506649D01*
D30*
X89414035Y-73958642D03*
D31*
X89219581Y-73764188D02*
X89608489Y-74153096D01*
D30*
X89767588Y-73605088D03*
D31*
X89573134Y-73410634D02*
X89962042Y-73799542D01*
D30*
X90121142Y-73251535D03*
D31*
X89926688Y-73057081D02*
X90315596Y-73445989D01*
D30*
X90474695Y-72897982D03*
D31*
X90280241Y-72703528D02*
X90669149Y-73092436D01*
D30*
X90828249Y-72544428D03*
D31*
X90633795Y-72349974D02*
X91022703Y-72738882D01*
G04 #@! TD*
M02*
