M48
; DRILL file {KiCad 5.1.5-52549c5~84~ubuntu18.04.1} date Mon Jan 27 00:33:43 2020
; FORMAT={-:-/ absolute / metric / decimal}
; #@! TF.CreationDate,2020-01-27T00:33:43+05:30
; #@! TF.GenerationSoftware,Kicad,Pcbnew,5.1.5-52549c5~84~ubuntu18.04.1
FMAT,2
METRIC
T1C0.450
T2C0.500
T3C0.635
T4C0.762
T5C1.000
T6C1.016
T7C1.020
T8C1.200
T9C2.286
T10C3.200
T11C0.508
T12C0.600
T13C1.270
T14C2.032
T15C3.200
%
G90
G05
T2
X52.705Y-63.246
X60.325Y-76.454
X60.325Y-77.47
X61.341Y-76.454
X61.341Y-77.47
X62.65Y-61.94
X65.659Y-88.773
X66.04Y-83.439
X71.628Y-87.63
X71.933Y-63.805
X72.034Y-72.365
X73.406Y-87.63
X76.2Y-83.439
X76.58Y-77.5
X76.58Y-75.5
X78.18Y-61.94
X78.524Y-87.25
X78.524Y-88.75
X82.524Y-87.25
X82.524Y-88.75
X83.524Y-87.25
X83.524Y-88.75
X86.36Y-97.79
X86.97Y-69.088
X86.97Y-71.12
X86.995Y-123.19
X87.218Y-63.81
X87.524Y-87.25
X87.524Y-88.75
X88.392Y-77.597
X89.281Y-78.105
X90.17Y-97.79
X90.551Y-82.423
X90.805Y-123.19
X92.075Y-96.52
X92.51Y-70.46
X93.345Y-97.79
X93.59Y-70.45
X94.06Y-61.94
X94.234Y-53.975
X94.615Y-142.24
X94.78Y-70.46
X95.504Y-80.391
X95.99Y-71.95
X96.0Y-73.25
X96.52Y-123.19
X96.52Y-142.24
X96.774Y-68.072
X97.79Y-97.79
X98.25Y-81.75
X98.425Y-142.24
X99.06Y-123.19
X99.5Y-69.55
X99.5Y-81.75
X100.75Y-81.75
X100.965Y-97.79
X101.6Y-123.19
X102.26Y-63.81
X102.42Y-70.94
X102.87Y-96.52
X102.87Y-142.24
X104.5Y-68.86
X104.775Y-97.79
X104.775Y-142.24
X106.57Y-70.94
X108.0Y-76.5
X108.0Y-81.75
X108.66Y-61.94
X109.5Y-76.5
X109.5Y-81.75
X115.25Y-68.75
X116.5Y-68.75
X117.0Y-70.51
X117.6Y-63.8
X120.75Y-70.866
X122.68Y-68.79
X123.91Y-61.94
X124.75Y-70.87
X128.5Y-56.25
X130.9Y-71.15
X131.45Y-75.88
X131.5Y-54.25
X132.7Y-80.2
X132.75Y-53.75
X132.75Y-55.5
X133.55Y-69.08
X134.0Y-80.2
X135.36Y-75.15
X135.4Y-80.2
X135.427Y-79.199
X135.45Y-72.95
X136.5Y-66.0
X137.5Y-53.5
X137.5Y-55.5
X139.04Y-61.94
X140.0Y-58.25
X141.3Y-71.0
X143.18Y-74.93
X147.955Y-158.75
X147.955Y-168.275
X147.955Y-194.31
X148.0Y-75.92
X149.86Y-158.75
X149.86Y-168.275
X149.86Y-194.31
X151.765Y-194.31
X153.67Y-168.275
X154.305Y-158.75
X155.575Y-168.275
X156.14Y-64.38
X156.21Y-158.75
X158.68Y-66.93
X158.69Y-61.82
X161.23Y-64.38
X166.13Y-56.64
X176.0Y-64.0
X178.5Y-70.48
X178.5Y-71.73
X178.51Y-67.95
X178.51Y-69.21
X178.51Y-73.01
X182.71Y-75.57
X184.658Y-231.14
X184.69Y-67.95
X184.7Y-69.21
X184.7Y-70.49
X184.7Y-71.75
X185.7Y-79.5
X191.262Y-90.805
X191.77Y-86.487
X192.278Y-87.63
X198.12Y-203.835
X198.501Y-83.439
X199.39Y-203.835
X204.47Y-203.835
X206.375Y-203.835
X206.5Y-62.75
X206.5Y-75.69
X90.602Y-75.337
X91.5Y-74.439
X91.5Y-75.337
X91.5Y-76.236
X92.398Y-75.337
X52.845Y-87.63
X53.548Y-85.933
X53.548Y-89.327
X55.245Y-85.23
X55.245Y-90.03
X56.942Y-85.933
X56.942Y-89.327
X57.645Y-87.63
X52.845Y-240.03
X53.548Y-238.333
X53.548Y-241.727
X55.245Y-237.63
X55.245Y-242.43
X56.942Y-238.333
X56.942Y-241.727
X57.645Y-240.03
X205.245Y-87.63
X205.948Y-85.933
X205.948Y-89.327
X207.645Y-85.23
X207.645Y-90.03
X209.342Y-85.933
X209.342Y-89.327
X210.045Y-87.63
X147.885Y-56.98
X147.885Y-58.25
X147.885Y-59.52
X147.885Y-60.79
X147.885Y-62.06
X147.885Y-63.33
X147.885Y-64.6
X147.885Y-65.87
X147.885Y-67.14
X147.885Y-68.41
X147.885Y-69.68
X147.885Y-70.95
X147.885Y-72.22
X147.885Y-73.49
X153.67Y-77.48
X154.94Y-77.48
X156.21Y-77.48
X157.48Y-77.48
X158.75Y-77.48
X160.02Y-77.48
X161.29Y-77.48
X162.56Y-77.48
X163.83Y-77.48
X165.1Y-77.48
X170.885Y-56.98
X170.885Y-58.25
X170.885Y-59.52
X170.885Y-60.79
X170.885Y-62.06
X170.885Y-63.33
X170.885Y-64.6
X170.885Y-65.87
X170.885Y-67.14
X170.885Y-68.41
X170.885Y-69.68
X170.885Y-70.95
X170.885Y-72.22
X170.885Y-73.49
X205.245Y-240.03
X205.948Y-238.333
X205.948Y-241.727
X207.645Y-237.63
X207.645Y-242.43
X209.342Y-238.333
X209.342Y-241.727
X210.045Y-240.03
T3
X186.425Y-103.1
X188.225Y-103.1
X84.825Y-138.66
X86.625Y-138.66
X125.465Y-103.1
X127.265Y-103.1
X206.745Y-209.78
X208.545Y-209.78
X206.745Y-103.1
X208.545Y-103.1
X206.745Y-224.56
X208.545Y-224.56
X74.665Y-224.56
X76.465Y-224.56
X74.665Y-209.78
X76.465Y-209.78
X64.505Y-209.78
X66.305Y-209.78
X84.825Y-209.78
X86.625Y-209.78
X94.985Y-209.78
X96.785Y-209.78
X196.585Y-224.56
X198.385Y-224.56
X54.345Y-224.56
X56.145Y-224.56
X74.665Y-174.22
X76.465Y-174.22
X94.985Y-174.22
X96.785Y-174.22
X115.305Y-189.0
X117.105Y-189.0
X54.345Y-209.78
X56.145Y-209.78
X176.265Y-103.1
X178.065Y-103.1
X64.505Y-138.66
X66.305Y-138.66
X84.825Y-174.22
X86.625Y-174.22
X125.465Y-189.0
X127.265Y-189.0
X115.305Y-174.22
X117.105Y-174.22
X105.145Y-209.78
X106.945Y-209.78
X135.625Y-189.0
X137.425Y-189.0
X186.425Y-224.56
X188.225Y-224.56
X64.505Y-103.1
X66.305Y-103.1
X64.505Y-153.44
X66.305Y-153.44
X176.265Y-224.56
X178.065Y-224.56
X64.505Y-174.22
X66.305Y-174.22
X145.785Y-103.1
X147.585Y-103.1
X54.345Y-174.22
X56.145Y-174.22
X125.465Y-174.22
X127.265Y-174.22
X54.345Y-153.44
X56.145Y-153.44
X54.345Y-189.0
X56.145Y-189.0
X166.105Y-103.1
X167.905Y-103.1
X115.305Y-209.78
X117.105Y-209.78
X125.465Y-209.78
X127.265Y-209.78
X155.945Y-103.1
X157.745Y-103.1
X105.145Y-174.22
X106.945Y-174.22
X145.785Y-189.0
X147.585Y-189.0
X74.665Y-153.44
X76.465Y-153.44
X74.665Y-189.0
X76.465Y-189.0
X54.345Y-138.66
X56.145Y-138.66
X84.825Y-153.44
X86.625Y-153.44
X84.825Y-189.0
X86.625Y-189.0
X135.625Y-103.1
X137.425Y-103.1
X54.345Y-117.88
X56.145Y-117.88
X94.985Y-153.44
X96.785Y-153.44
X84.825Y-103.1
X86.625Y-103.1
X64.505Y-117.88
X66.305Y-117.88
X176.265Y-189.0
X178.065Y-189.0
X64.505Y-189.0
X66.305Y-189.0
X64.505Y-224.56
X66.305Y-224.56
X135.625Y-209.78
X137.425Y-209.78
X166.105Y-224.56
X167.905Y-224.56
X115.305Y-103.1
X117.105Y-103.1
X145.785Y-209.78
X147.585Y-209.78
X155.945Y-224.56
X157.745Y-224.56
X186.425Y-189.0
X188.225Y-189.0
X145.785Y-224.56
X147.585Y-224.56
X135.625Y-224.56
X137.425Y-224.56
X105.145Y-103.1
X106.945Y-103.1
X155.945Y-189.0
X157.745Y-189.0
X125.465Y-117.88
X127.265Y-117.88
X166.105Y-189.0
X167.905Y-189.0
X206.745Y-189.0
X208.545Y-189.0
X94.985Y-189.0
X96.785Y-189.0
X105.145Y-153.44
X106.945Y-153.44
X105.145Y-189.0
X106.945Y-189.0
X74.665Y-103.1
X76.465Y-103.1
X74.665Y-117.88
X76.465Y-117.88
X155.945Y-209.78
X157.745Y-209.78
X115.305Y-153.44
X117.105Y-153.44
X196.585Y-174.22
X198.385Y-174.22
X125.465Y-224.56
X127.265Y-224.56
X54.345Y-103.1
X56.145Y-103.1
X84.825Y-117.88
X86.625Y-117.88
X196.585Y-189.0
X198.385Y-189.0
X115.305Y-224.56
X117.105Y-224.56
X94.985Y-103.1
X96.785Y-103.1
X145.785Y-138.66
X147.585Y-138.66
X196.585Y-117.88
X198.385Y-117.88
X94.985Y-117.88
X96.785Y-117.88
X206.745Y-153.44
X208.545Y-153.44
X135.625Y-117.88
X137.425Y-117.88
X135.625Y-138.66
X137.425Y-138.66
X176.265Y-153.44
X178.065Y-153.44
X105.145Y-117.88
X106.945Y-117.88
X206.745Y-174.22
X208.545Y-174.22
X145.785Y-117.88
X147.585Y-117.88
X145.785Y-153.44
X147.585Y-153.44
X186.425Y-153.44
X188.225Y-153.44
X115.305Y-117.88
X117.105Y-117.88
X196.585Y-138.66
X198.385Y-138.66
X155.945Y-153.44
X157.745Y-153.44
X196.585Y-153.44
X198.385Y-153.44
X186.425Y-138.66
X188.225Y-138.66
X125.465Y-153.44
X127.265Y-153.44
X186.425Y-174.22
X188.225Y-174.22
X166.105Y-153.44
X167.905Y-153.44
X105.145Y-224.56
X106.945Y-224.56
X176.265Y-138.66
X178.065Y-138.66
X176.265Y-117.88
X178.065Y-117.88
X206.745Y-138.66
X208.545Y-138.66
X166.105Y-138.66
X167.905Y-138.66
X125.465Y-138.66
X127.265Y-138.66
X166.105Y-209.78
X167.905Y-209.78
X155.945Y-117.88
X157.745Y-117.88
X155.945Y-138.66
X157.745Y-138.66
X155.945Y-174.22
X157.745Y-174.22
X176.265Y-209.78
X178.065Y-209.78
X94.985Y-224.56
X96.785Y-224.56
X166.105Y-117.88
X167.905Y-117.88
X145.785Y-174.22
X147.585Y-174.22
X84.825Y-224.56
X86.625Y-224.56
X105.145Y-138.66
X106.945Y-138.66
X135.625Y-153.44
X137.425Y-153.44
X176.265Y-174.22
X178.065Y-174.22
X94.985Y-138.66
X96.785Y-138.66
X166.105Y-174.22
X167.905Y-174.22
X186.425Y-117.88
X188.225Y-117.88
X135.625Y-174.22
X137.425Y-174.22
X206.745Y-117.88
X208.545Y-117.88
X115.305Y-138.66
X117.105Y-138.66
X186.425Y-209.78
X188.225Y-209.78
X74.665Y-138.66
X76.465Y-138.66
X196.585Y-209.78
X198.385Y-209.78
X196.585Y-103.1
X198.385Y-103.1
T4
X60.96Y-66.04
X60.96Y-83.82
X63.5Y-66.04
X63.5Y-68.58
X63.5Y-71.12
X63.5Y-73.66
X63.5Y-76.2
X63.5Y-78.74
X63.5Y-81.28
X63.5Y-83.82
T5
X194.945Y-220.345
X197.485Y-220.345
X200.025Y-220.345
X205.105Y-231.775
X207.645Y-231.775
X210.185Y-231.775
X52.705Y-231.775
X55.245Y-231.775
X57.785Y-231.775
X62.865Y-220.345
X65.405Y-220.345
X67.945Y-220.345
T6
X177.165Y-83.82
X177.165Y-86.36
X177.165Y-88.9
X179.705Y-83.82
X179.705Y-86.36
X179.705Y-88.9
T7
X174.625Y-83.82
X174.625Y-88.9
X191.135Y-53.975
X182.245Y-83.82
X182.245Y-88.9
X174.625Y-86.36
X193.675Y-53.975
X196.215Y-53.975
X182.245Y-86.36
T8
X174.625Y-53.975
X179.705Y-53.975
X83.185Y-53.975
X88.265Y-53.975
T9
X53.34Y-67.31
X53.34Y-82.55
T10
X55.245Y-87.63
X146.685Y-88.265
X167.005Y-149.225
X95.885Y-88.265
X55.245Y-240.03
X207.645Y-87.63
X95.885Y-131.445
X207.645Y-240.03
X106.045Y-131.445
X106.045Y-88.265
X95.885Y-220.345
X95.885Y-149.225
X167.005Y-220.345
X136.525Y-88.265
X146.685Y-131.445
X136.525Y-131.445
T11
X53.213Y-91.694
X53.213Y-93.726
X54.229Y-91.694
X54.229Y-93.726
X55.245Y-91.694
X55.245Y-93.726
X56.261Y-91.694
X56.261Y-93.726
X57.277Y-91.694
X57.277Y-93.726
X52.578Y-233.934
X52.578Y-235.966
X53.594Y-233.934
X53.594Y-235.966
X54.61Y-233.934
X54.61Y-235.966
X55.626Y-233.934
X55.626Y-235.966
X56.642Y-233.934
X56.642Y-235.966
X205.613Y-91.694
X205.613Y-93.726
X206.629Y-91.694
X206.629Y-93.726
X207.645Y-91.694
X207.645Y-93.726
X208.661Y-91.694
X208.661Y-93.726
X209.677Y-91.694
X209.677Y-93.726
X167.513Y-233.934
X167.513Y-235.966
X168.529Y-233.934
X168.529Y-235.966
X169.545Y-233.934
X169.545Y-235.966
X170.561Y-233.934
X170.561Y-235.966
X171.577Y-233.934
X171.577Y-235.966
X86.233Y-233.934
X86.233Y-235.966
X87.249Y-233.934
X87.249Y-235.966
X88.265Y-233.934
X88.265Y-235.966
X89.281Y-233.934
X89.281Y-235.966
X90.297Y-233.934
X90.297Y-235.966
X129.413Y-233.934
X129.413Y-235.966
X130.429Y-233.934
X130.429Y-235.966
X131.445Y-233.934
X131.445Y-235.966
X132.461Y-233.934
X132.461Y-235.966
X133.477Y-233.934
X133.477Y-235.966
X206.248Y-233.934
X206.248Y-235.966
X207.264Y-233.934
X207.264Y-235.966
X208.28Y-233.934
X208.28Y-235.966
X209.296Y-233.934
X209.296Y-235.966
X210.312Y-233.934
X210.312Y-235.966
T12
X54.4Y-72.93
X54.4Y-76.93
T13
X177.165Y-53.975
X85.725Y-53.975
T14
X75.565Y-199.39
X187.325Y-163.83
X192.405Y-128.27
X75.565Y-110.49
X141.605Y-128.27
X60.325Y-199.39
X111.125Y-199.39
X161.925Y-199.39
X111.125Y-128.27
X187.325Y-110.49
X187.325Y-199.39
X182.245Y-199.39
X75.565Y-146.05
X161.925Y-128.27
X70.485Y-128.27
X80.645Y-199.39
X131.445Y-199.39
X187.325Y-146.05
X182.245Y-128.27
X100.965Y-128.27
X131.445Y-128.27
X202.565Y-199.39
X75.565Y-181.61
X100.965Y-199.39
X151.765Y-199.39
X60.325Y-128.27
X75.565Y-217.17
X187.325Y-181.61
X202.565Y-128.27
X75.565Y-128.27
X151.765Y-128.27
X90.805Y-128.27
X70.485Y-199.39
X121.285Y-199.39
X172.085Y-199.39
X187.325Y-128.27
X187.325Y-217.17
X192.405Y-199.39
X75.565Y-163.83
X172.085Y-128.27
X121.285Y-128.27
X90.805Y-199.39
X141.605Y-199.39
X80.645Y-128.27
T15
X208.915Y-53.34
X53.975Y-53.34
T1
G00X51.7Y-72.095
M15
G01X52.8Y-72.095
M16
G05
G00X52.8Y-77.765
M15
G01X51.7Y-77.765
M16
G05
T0
M30
