G04 #@! TF.GenerationSoftware,KiCad,Pcbnew,5.0.0-rc2-unknown-0a91f0b~65~ubuntu16.04.1*
G04 #@! TF.CreationDate,2018-06-04T20:45:33+05:30*
G04 #@! TF.ProjectId,ClockIOT,436C6F636B494F542E6B696361645F70,rev 1*
G04 #@! TF.SameCoordinates,PX2fd7508PY2fd7508*
G04 #@! TF.FileFunction,Paste,Top*
G04 #@! TF.FilePolarity,Positive*
%FSLAX46Y46*%
G04 Gerber Fmt 4.6, Leading zero omitted, Abs format (unit mm)*
G04 Created by KiCad (PCBNEW 5.0.0-rc2-unknown-0a91f0b~65~ubuntu16.04.1) date Mon Jun  4 20:45:33 2018*
%MOMM*%
%LPD*%
G01*
G04 APERTURE LIST*
%ADD10R,1.400000X1.400000*%
%ADD11R,2.000000X1.000000*%
%ADD12R,1.000000X2.000000*%
%ADD13R,4.000000X4.000000*%
%ADD14R,1.300480X1.498600*%
%ADD15R,5.080000X2.794000*%
%ADD16R,1.998980X0.599440*%
%ADD17R,1.198880X1.198880*%
%ADD18R,3.048000X3.048000*%
%ADD19R,1.498600X1.300480*%
%ADD20R,1.350000X1.550000*%
%ADD21R,1.550000X1.350000*%
%ADD22R,0.650000X0.400000*%
%ADD23C,1.005000*%
%ADD24C,0.127000*%
%ADD25C,0.300000*%
%ADD26C,0.300000*%
%ADD27R,1.400000X1.200000*%
%ADD28R,1.900000X1.500000*%
%ADD29R,1.350000X0.400000*%
%ADD30R,3.800000X2.000000*%
%ADD31R,1.500000X2.000000*%
%ADD32R,0.600000X0.400000*%
G04 APERTURE END LIST*
D10*
G04 #@! TO.C,U123*
X58080000Y-174295000D03*
X53680000Y-174295000D03*
X53680000Y-175895000D03*
X58080000Y-175895000D03*
X58080000Y-177495000D03*
X53680000Y-177495000D03*
G04 #@! TD*
D11*
G04 #@! TO.C,U129*
X100220000Y-6815000D03*
X100220000Y-8085000D03*
X100220000Y-9355000D03*
X100220000Y-10625000D03*
X100220000Y-11895000D03*
X100220000Y-13165000D03*
X100220000Y-14435000D03*
X100220000Y-15705000D03*
X100220000Y-16975000D03*
X100220000Y-18245000D03*
X100220000Y-19515000D03*
X100220000Y-20785000D03*
X100220000Y-22055000D03*
X100220000Y-23325000D03*
D12*
X103505000Y-24815000D03*
X104775000Y-24815000D03*
X106045000Y-24815000D03*
X107315000Y-24815000D03*
X108585000Y-24815000D03*
X109855000Y-24815000D03*
X111125000Y-24815000D03*
X112395000Y-24815000D03*
X113665000Y-24815000D03*
X114935000Y-24815000D03*
D11*
X118220000Y-23325000D03*
X118220000Y-22055000D03*
X118220000Y-20785000D03*
X118220000Y-19515000D03*
X118220000Y-18245000D03*
X118220000Y-16975000D03*
X118220000Y-15705000D03*
X118220000Y-14435000D03*
X118220000Y-13165000D03*
X118220000Y-11895000D03*
X118220000Y-10625000D03*
X118220000Y-9355000D03*
X118220000Y-8085000D03*
X118220000Y-6815000D03*
D13*
X108520000Y-14215000D03*
G04 #@! TD*
D14*
G04 #@! TO.C,LDR1*
X34060000Y-3810000D03*
X37060000Y-3810000D03*
G04 #@! TD*
G04 #@! TO.C,LDR2*
X128500000Y-3810000D03*
X125500000Y-3810000D03*
G04 #@! TD*
D15*
G04 #@! TO.C,BT1*
X149860000Y-8128000D03*
X149860000Y-29972000D03*
G04 #@! TD*
D16*
G04 #@! TO.C,U130*
X126794260Y-26670000D03*
X126794260Y-25400000D03*
X126794260Y-24130000D03*
X126794260Y-22860000D03*
X126794260Y-21590000D03*
X126794260Y-20320000D03*
X126794260Y-19050000D03*
X126794260Y-17780000D03*
X136095740Y-17780000D03*
X136095740Y-19050000D03*
X136095740Y-20320000D03*
X136095740Y-21590000D03*
X136095740Y-22860000D03*
X136095740Y-24130000D03*
X136095740Y-25400000D03*
X136095740Y-26670000D03*
G04 #@! TD*
D17*
G04 #@! TO.C,D2*
X49335000Y-23035980D03*
X49335000Y-25134020D03*
G04 #@! TD*
D18*
G04 #@! TO.C,C17*
X54335000Y-20771000D03*
X54335000Y-28899000D03*
G04 #@! TD*
G04 #@! TO.C,C27*
X85021000Y-4335000D03*
X93149000Y-4335000D03*
G04 #@! TD*
G04 #@! TO.C,C18*
X72517000Y-20701000D03*
X72517000Y-28829000D03*
G04 #@! TD*
G04 #@! TO.C,C25*
X33835000Y-37899000D03*
X33835000Y-29771000D03*
G04 #@! TD*
G04 #@! TO.C,C23*
X28835000Y-37899000D03*
X28835000Y-29771000D03*
G04 #@! TD*
D19*
G04 #@! TO.C,L2*
X10835000Y-31537500D03*
X10835000Y-29632500D03*
G04 #@! TD*
G04 #@! TO.C,R25*
X20320000Y-11747500D03*
X20320000Y-13652500D03*
G04 #@! TD*
G04 #@! TO.C,R24*
X35560000Y-11747500D03*
X35560000Y-13652500D03*
G04 #@! TD*
G04 #@! TO.C,R11*
X50800000Y-11747500D03*
X50800000Y-13652500D03*
G04 #@! TD*
G04 #@! TO.C,R10*
X66040000Y-11747500D03*
X66040000Y-13652500D03*
G04 #@! TD*
G04 #@! TO.C,R9*
X19085000Y-29632500D03*
X19085000Y-31537500D03*
G04 #@! TD*
D14*
G04 #@! TO.C,R23*
X89852500Y-18415000D03*
X87947500Y-18415000D03*
G04 #@! TD*
G04 #@! TO.C,R22*
X87947500Y-20955000D03*
X89852500Y-20955000D03*
G04 #@! TD*
G04 #@! TO.C,R20*
X89852500Y-23495000D03*
X87947500Y-23495000D03*
G04 #@! TD*
G04 #@! TO.C,R19*
X89852500Y-26035000D03*
X87947500Y-26035000D03*
G04 #@! TD*
D19*
G04 #@! TO.C,R18*
X81280000Y-13652500D03*
X81280000Y-11747500D03*
G04 #@! TD*
G04 #@! TO.C,R16*
X5080000Y-13652500D03*
X5080000Y-11747500D03*
G04 #@! TD*
G04 #@! TO.C,R4*
X49335000Y-29287500D03*
X49335000Y-27382500D03*
G04 #@! TD*
G04 #@! TO.C,R3*
X81280000Y-17462500D03*
X81280000Y-19367500D03*
G04 #@! TD*
G04 #@! TO.C,R8*
X21835000Y-29632500D03*
X21835000Y-31537500D03*
G04 #@! TD*
G04 #@! TO.C,R7*
X129335000Y-13132500D03*
X129335000Y-15037500D03*
G04 #@! TD*
G04 #@! TO.C,R6*
X133335000Y-13132500D03*
X133335000Y-15037500D03*
G04 #@! TD*
D14*
G04 #@! TO.C,R21*
X89852500Y-15875000D03*
X87947500Y-15875000D03*
G04 #@! TD*
G04 #@! TO.C,R1*
X16287500Y-45835000D03*
X14382500Y-45835000D03*
G04 #@! TD*
G04 #@! TO.C,R2*
X26287500Y-45835000D03*
X24382500Y-45835000D03*
G04 #@! TD*
G04 #@! TO.C,R12*
X49847500Y-3810000D03*
X51752500Y-3810000D03*
G04 #@! TD*
G04 #@! TO.C,R13*
X122237500Y-3810000D03*
X120332500Y-3810000D03*
G04 #@! TD*
D19*
G04 #@! TO.C,L1*
X10835000Y-25287500D03*
X10835000Y-23382500D03*
G04 #@! TD*
D20*
G04 #@! TO.C,C12*
X77200000Y-135255000D03*
X75200000Y-135255000D03*
G04 #@! TD*
G04 #@! TO.C,C7*
X158480000Y-99695000D03*
X156480000Y-99695000D03*
G04 #@! TD*
G04 #@! TO.C,C8*
X77200000Y-99695000D03*
X75200000Y-99695000D03*
G04 #@! TD*
D21*
G04 #@! TO.C,C24*
X24835000Y-29585000D03*
X24835000Y-31585000D03*
G04 #@! TD*
G04 #@! TO.C,C31*
X14085000Y-31585000D03*
X14085000Y-29585000D03*
G04 #@! TD*
D20*
G04 #@! TO.C,C22*
X132445000Y-29210000D03*
X130445000Y-29210000D03*
G04 #@! TD*
G04 #@! TO.C,C28*
X93085000Y-8835000D03*
X91085000Y-8835000D03*
G04 #@! TD*
D21*
G04 #@! TO.C,C26*
X37835000Y-29585000D03*
X37835000Y-31585000D03*
G04 #@! TD*
G04 #@! TO.C,C21*
X81280000Y-7350000D03*
X81280000Y-5350000D03*
G04 #@! TD*
G04 #@! TO.C,C20*
X5080000Y-16272000D03*
X5080000Y-18272000D03*
G04 #@! TD*
G04 #@! TO.C,C29*
X135890000Y-35195000D03*
X135890000Y-37195000D03*
G04 #@! TD*
D20*
G04 #@! TO.C,C30*
X146320000Y-34925000D03*
X148320000Y-34925000D03*
G04 #@! TD*
D21*
G04 #@! TO.C,C19*
X81280000Y-22495000D03*
X81280000Y-24495000D03*
G04 #@! TD*
D20*
G04 #@! TO.C,C9*
X4080000Y-127635000D03*
X6080000Y-127635000D03*
G04 #@! TD*
G04 #@! TO.C,C6*
X85360000Y-92075000D03*
X87360000Y-92075000D03*
G04 #@! TD*
G04 #@! TO.C,C1*
X4080000Y-56515000D03*
X6080000Y-56515000D03*
G04 #@! TD*
G04 #@! TO.C,C2*
X85360000Y-56515000D03*
X87360000Y-56515000D03*
G04 #@! TD*
G04 #@! TO.C,C3*
X158480000Y-64135000D03*
X156480000Y-64135000D03*
G04 #@! TD*
G04 #@! TO.C,C4*
X77200000Y-64135000D03*
X75200000Y-64135000D03*
G04 #@! TD*
G04 #@! TO.C,C5*
X4080000Y-92075000D03*
X6080000Y-92075000D03*
G04 #@! TD*
G04 #@! TO.C,C10*
X85360000Y-127635000D03*
X87360000Y-127635000D03*
G04 #@! TD*
G04 #@! TO.C,C11*
X158480000Y-135255000D03*
X156480000Y-135255000D03*
G04 #@! TD*
G04 #@! TO.C,C13*
X4080000Y-163195000D03*
X6080000Y-163195000D03*
G04 #@! TD*
G04 #@! TO.C,C14*
X85360000Y-163195000D03*
X87360000Y-163195000D03*
G04 #@! TD*
G04 #@! TO.C,C15*
X158480000Y-170815000D03*
X156480000Y-170815000D03*
G04 #@! TD*
G04 #@! TO.C,C16*
X77200000Y-170815000D03*
X75200000Y-170815000D03*
G04 #@! TD*
D10*
G04 #@! TO.C,U127*
X17440000Y-174295000D03*
X13040000Y-174295000D03*
X13040000Y-175895000D03*
X17440000Y-175895000D03*
X17440000Y-177495000D03*
X13040000Y-177495000D03*
G04 #@! TD*
G04 #@! TO.C,U18*
X149520000Y-67615000D03*
X145120000Y-67615000D03*
X145120000Y-69215000D03*
X149520000Y-69215000D03*
X149520000Y-70815000D03*
X145120000Y-70815000D03*
G04 #@! TD*
G04 #@! TO.C,U1*
X2880000Y-53035000D03*
X7280000Y-53035000D03*
X7280000Y-51435000D03*
X2880000Y-51435000D03*
X2880000Y-49835000D03*
X7280000Y-49835000D03*
G04 #@! TD*
G04 #@! TO.C,U3*
X23200000Y-53035000D03*
X27600000Y-53035000D03*
X27600000Y-51435000D03*
X23200000Y-51435000D03*
X23200000Y-49835000D03*
X27600000Y-49835000D03*
G04 #@! TD*
G04 #@! TO.C,U4*
X33360000Y-53035000D03*
X37760000Y-53035000D03*
X37760000Y-51435000D03*
X33360000Y-51435000D03*
X33360000Y-49835000D03*
X37760000Y-49835000D03*
G04 #@! TD*
G04 #@! TO.C,U5*
X43520000Y-53035000D03*
X47920000Y-53035000D03*
X47920000Y-51435000D03*
X43520000Y-51435000D03*
X43520000Y-49835000D03*
X47920000Y-49835000D03*
G04 #@! TD*
G04 #@! TO.C,U6*
X53680000Y-53035000D03*
X58080000Y-53035000D03*
X58080000Y-51435000D03*
X53680000Y-51435000D03*
X53680000Y-49835000D03*
X58080000Y-49835000D03*
G04 #@! TD*
G04 #@! TO.C,U7*
X63840000Y-53035000D03*
X68240000Y-53035000D03*
X68240000Y-51435000D03*
X63840000Y-51435000D03*
X63840000Y-49835000D03*
X68240000Y-49835000D03*
G04 #@! TD*
G04 #@! TO.C,U8*
X74000000Y-53035000D03*
X78400000Y-53035000D03*
X78400000Y-51435000D03*
X74000000Y-51435000D03*
X74000000Y-49835000D03*
X78400000Y-49835000D03*
G04 #@! TD*
G04 #@! TO.C,U9*
X84160000Y-53035000D03*
X88560000Y-53035000D03*
X88560000Y-51435000D03*
X84160000Y-51435000D03*
X84160000Y-49835000D03*
X88560000Y-49835000D03*
G04 #@! TD*
G04 #@! TO.C,U10*
X94320000Y-53035000D03*
X98720000Y-53035000D03*
X98720000Y-51435000D03*
X94320000Y-51435000D03*
X94320000Y-49835000D03*
X98720000Y-49835000D03*
G04 #@! TD*
G04 #@! TO.C,U11*
X104480000Y-53035000D03*
X108880000Y-53035000D03*
X108880000Y-51435000D03*
X104480000Y-51435000D03*
X104480000Y-49835000D03*
X108880000Y-49835000D03*
G04 #@! TD*
G04 #@! TO.C,U12*
X114640000Y-53035000D03*
X119040000Y-53035000D03*
X119040000Y-51435000D03*
X114640000Y-51435000D03*
X114640000Y-49835000D03*
X119040000Y-49835000D03*
G04 #@! TD*
G04 #@! TO.C,U13*
X124800000Y-53035000D03*
X129200000Y-53035000D03*
X129200000Y-51435000D03*
X124800000Y-51435000D03*
X124800000Y-49835000D03*
X129200000Y-49835000D03*
G04 #@! TD*
G04 #@! TO.C,U14*
X134960000Y-53035000D03*
X139360000Y-53035000D03*
X139360000Y-51435000D03*
X134960000Y-51435000D03*
X134960000Y-49835000D03*
X139360000Y-49835000D03*
G04 #@! TD*
G04 #@! TO.C,U15*
X145120000Y-53035000D03*
X149520000Y-53035000D03*
X149520000Y-51435000D03*
X145120000Y-51435000D03*
X145120000Y-49835000D03*
X149520000Y-49835000D03*
G04 #@! TD*
G04 #@! TO.C,U16*
X155280000Y-53035000D03*
X159680000Y-53035000D03*
X159680000Y-51435000D03*
X155280000Y-51435000D03*
X155280000Y-49835000D03*
X159680000Y-49835000D03*
G04 #@! TD*
G04 #@! TO.C,U17*
X159680000Y-67615000D03*
X155280000Y-67615000D03*
X155280000Y-69215000D03*
X159680000Y-69215000D03*
X159680000Y-70815000D03*
X155280000Y-70815000D03*
G04 #@! TD*
G04 #@! TO.C,U19*
X139360000Y-67615000D03*
X134960000Y-67615000D03*
X134960000Y-69215000D03*
X139360000Y-69215000D03*
X139360000Y-70815000D03*
X134960000Y-70815000D03*
G04 #@! TD*
G04 #@! TO.C,U20*
X129200000Y-67615000D03*
X124800000Y-67615000D03*
X124800000Y-69215000D03*
X129200000Y-69215000D03*
X129200000Y-70815000D03*
X124800000Y-70815000D03*
G04 #@! TD*
G04 #@! TO.C,U21*
X119040000Y-67615000D03*
X114640000Y-67615000D03*
X114640000Y-69215000D03*
X119040000Y-69215000D03*
X119040000Y-70815000D03*
X114640000Y-70815000D03*
G04 #@! TD*
G04 #@! TO.C,U22*
X108880000Y-67615000D03*
X104480000Y-67615000D03*
X104480000Y-69215000D03*
X108880000Y-69215000D03*
X108880000Y-70815000D03*
X104480000Y-70815000D03*
G04 #@! TD*
G04 #@! TO.C,U23*
X98720000Y-67615000D03*
X94320000Y-67615000D03*
X94320000Y-69215000D03*
X98720000Y-69215000D03*
X98720000Y-70815000D03*
X94320000Y-70815000D03*
G04 #@! TD*
G04 #@! TO.C,U24*
X88560000Y-67615000D03*
X84160000Y-67615000D03*
X84160000Y-69215000D03*
X88560000Y-69215000D03*
X88560000Y-70815000D03*
X84160000Y-70815000D03*
G04 #@! TD*
G04 #@! TO.C,U25*
X78400000Y-67615000D03*
X74000000Y-67615000D03*
X74000000Y-69215000D03*
X78400000Y-69215000D03*
X78400000Y-70815000D03*
X74000000Y-70815000D03*
G04 #@! TD*
G04 #@! TO.C,U26*
X68240000Y-67615000D03*
X63840000Y-67615000D03*
X63840000Y-69215000D03*
X68240000Y-69215000D03*
X68240000Y-70815000D03*
X63840000Y-70815000D03*
G04 #@! TD*
G04 #@! TO.C,U27*
X58080000Y-67615000D03*
X53680000Y-67615000D03*
X53680000Y-69215000D03*
X58080000Y-69215000D03*
X58080000Y-70815000D03*
X53680000Y-70815000D03*
G04 #@! TD*
G04 #@! TO.C,U28*
X47920000Y-67615000D03*
X43520000Y-67615000D03*
X43520000Y-69215000D03*
X47920000Y-69215000D03*
X47920000Y-70815000D03*
X43520000Y-70815000D03*
G04 #@! TD*
G04 #@! TO.C,U29*
X37760000Y-67615000D03*
X33360000Y-67615000D03*
X33360000Y-69215000D03*
X37760000Y-69215000D03*
X37760000Y-70815000D03*
X33360000Y-70815000D03*
G04 #@! TD*
G04 #@! TO.C,U30*
X27600000Y-67615000D03*
X23200000Y-67615000D03*
X23200000Y-69215000D03*
X27600000Y-69215000D03*
X27600000Y-70815000D03*
X23200000Y-70815000D03*
G04 #@! TD*
G04 #@! TO.C,U31*
X17440000Y-67615000D03*
X13040000Y-67615000D03*
X13040000Y-69215000D03*
X17440000Y-69215000D03*
X17440000Y-70815000D03*
X13040000Y-70815000D03*
G04 #@! TD*
G04 #@! TO.C,U32*
X7280000Y-67615000D03*
X2880000Y-67615000D03*
X2880000Y-69215000D03*
X7280000Y-69215000D03*
X7280000Y-70815000D03*
X2880000Y-70815000D03*
G04 #@! TD*
G04 #@! TO.C,U33*
X2880000Y-88595000D03*
X7280000Y-88595000D03*
X7280000Y-86995000D03*
X2880000Y-86995000D03*
X2880000Y-85395000D03*
X7280000Y-85395000D03*
G04 #@! TD*
G04 #@! TO.C,U34*
X13040000Y-88595000D03*
X17440000Y-88595000D03*
X17440000Y-86995000D03*
X13040000Y-86995000D03*
X13040000Y-85395000D03*
X17440000Y-85395000D03*
G04 #@! TD*
G04 #@! TO.C,U35*
X23200000Y-88595000D03*
X27600000Y-88595000D03*
X27600000Y-86995000D03*
X23200000Y-86995000D03*
X23200000Y-85395000D03*
X27600000Y-85395000D03*
G04 #@! TD*
G04 #@! TO.C,U36*
X33360000Y-88595000D03*
X37760000Y-88595000D03*
X37760000Y-86995000D03*
X33360000Y-86995000D03*
X33360000Y-85395000D03*
X37760000Y-85395000D03*
G04 #@! TD*
G04 #@! TO.C,U37*
X43520000Y-88595000D03*
X47920000Y-88595000D03*
X47920000Y-86995000D03*
X43520000Y-86995000D03*
X43520000Y-85395000D03*
X47920000Y-85395000D03*
G04 #@! TD*
G04 #@! TO.C,U38*
X53680000Y-88595000D03*
X58080000Y-88595000D03*
X58080000Y-86995000D03*
X53680000Y-86995000D03*
X53680000Y-85395000D03*
X58080000Y-85395000D03*
G04 #@! TD*
G04 #@! TO.C,U39*
X63840000Y-88595000D03*
X68240000Y-88595000D03*
X68240000Y-86995000D03*
X63840000Y-86995000D03*
X63840000Y-85395000D03*
X68240000Y-85395000D03*
G04 #@! TD*
G04 #@! TO.C,U40*
X74000000Y-88595000D03*
X78400000Y-88595000D03*
X78400000Y-86995000D03*
X74000000Y-86995000D03*
X74000000Y-85395000D03*
X78400000Y-85395000D03*
G04 #@! TD*
G04 #@! TO.C,U41*
X84160000Y-88595000D03*
X88560000Y-88595000D03*
X88560000Y-86995000D03*
X84160000Y-86995000D03*
X84160000Y-85395000D03*
X88560000Y-85395000D03*
G04 #@! TD*
G04 #@! TO.C,U42*
X94320000Y-88595000D03*
X98720000Y-88595000D03*
X98720000Y-86995000D03*
X94320000Y-86995000D03*
X94320000Y-85395000D03*
X98720000Y-85395000D03*
G04 #@! TD*
G04 #@! TO.C,U43*
X104480000Y-88595000D03*
X108880000Y-88595000D03*
X108880000Y-86995000D03*
X104480000Y-86995000D03*
X104480000Y-85395000D03*
X108880000Y-85395000D03*
G04 #@! TD*
G04 #@! TO.C,U44*
X114640000Y-88595000D03*
X119040000Y-88595000D03*
X119040000Y-86995000D03*
X114640000Y-86995000D03*
X114640000Y-85395000D03*
X119040000Y-85395000D03*
G04 #@! TD*
G04 #@! TO.C,U45*
X124800000Y-88595000D03*
X129200000Y-88595000D03*
X129200000Y-86995000D03*
X124800000Y-86995000D03*
X124800000Y-85395000D03*
X129200000Y-85395000D03*
G04 #@! TD*
G04 #@! TO.C,U46*
X134960000Y-88595000D03*
X139360000Y-88595000D03*
X139360000Y-86995000D03*
X134960000Y-86995000D03*
X134960000Y-85395000D03*
X139360000Y-85395000D03*
G04 #@! TD*
G04 #@! TO.C,U47*
X145120000Y-88595000D03*
X149520000Y-88595000D03*
X149520000Y-86995000D03*
X145120000Y-86995000D03*
X145120000Y-85395000D03*
X149520000Y-85395000D03*
G04 #@! TD*
G04 #@! TO.C,U48*
X155280000Y-88595000D03*
X159680000Y-88595000D03*
X159680000Y-86995000D03*
X155280000Y-86995000D03*
X155280000Y-85395000D03*
X159680000Y-85395000D03*
G04 #@! TD*
G04 #@! TO.C,U49*
X159680000Y-103175000D03*
X155280000Y-103175000D03*
X155280000Y-104775000D03*
X159680000Y-104775000D03*
X159680000Y-106375000D03*
X155280000Y-106375000D03*
G04 #@! TD*
G04 #@! TO.C,U50*
X149520000Y-103175000D03*
X145120000Y-103175000D03*
X145120000Y-104775000D03*
X149520000Y-104775000D03*
X149520000Y-106375000D03*
X145120000Y-106375000D03*
G04 #@! TD*
G04 #@! TO.C,U51*
X139360000Y-103175000D03*
X134960000Y-103175000D03*
X134960000Y-104775000D03*
X139360000Y-104775000D03*
X139360000Y-106375000D03*
X134960000Y-106375000D03*
G04 #@! TD*
G04 #@! TO.C,U52*
X129200000Y-103175000D03*
X124800000Y-103175000D03*
X124800000Y-104775000D03*
X129200000Y-104775000D03*
X129200000Y-106375000D03*
X124800000Y-106375000D03*
G04 #@! TD*
G04 #@! TO.C,U53*
X119040000Y-103175000D03*
X114640000Y-103175000D03*
X114640000Y-104775000D03*
X119040000Y-104775000D03*
X119040000Y-106375000D03*
X114640000Y-106375000D03*
G04 #@! TD*
G04 #@! TO.C,U54*
X108880000Y-103175000D03*
X104480000Y-103175000D03*
X104480000Y-104775000D03*
X108880000Y-104775000D03*
X108880000Y-106375000D03*
X104480000Y-106375000D03*
G04 #@! TD*
G04 #@! TO.C,U55*
X98720000Y-103175000D03*
X94320000Y-103175000D03*
X94320000Y-104775000D03*
X98720000Y-104775000D03*
X98720000Y-106375000D03*
X94320000Y-106375000D03*
G04 #@! TD*
G04 #@! TO.C,U56*
X88560000Y-103175000D03*
X84160000Y-103175000D03*
X84160000Y-104775000D03*
X88560000Y-104775000D03*
X88560000Y-106375000D03*
X84160000Y-106375000D03*
G04 #@! TD*
G04 #@! TO.C,U57*
X78400000Y-103175000D03*
X74000000Y-103175000D03*
X74000000Y-104775000D03*
X78400000Y-104775000D03*
X78400000Y-106375000D03*
X74000000Y-106375000D03*
G04 #@! TD*
G04 #@! TO.C,U58*
X68240000Y-103175000D03*
X63840000Y-103175000D03*
X63840000Y-104775000D03*
X68240000Y-104775000D03*
X68240000Y-106375000D03*
X63840000Y-106375000D03*
G04 #@! TD*
G04 #@! TO.C,U59*
X58080000Y-103175000D03*
X53680000Y-103175000D03*
X53680000Y-104775000D03*
X58080000Y-104775000D03*
X58080000Y-106375000D03*
X53680000Y-106375000D03*
G04 #@! TD*
G04 #@! TO.C,U60*
X47920000Y-103175000D03*
X43520000Y-103175000D03*
X43520000Y-104775000D03*
X47920000Y-104775000D03*
X47920000Y-106375000D03*
X43520000Y-106375000D03*
G04 #@! TD*
G04 #@! TO.C,U61*
X37760000Y-103175000D03*
X33360000Y-103175000D03*
X33360000Y-104775000D03*
X37760000Y-104775000D03*
X37760000Y-106375000D03*
X33360000Y-106375000D03*
G04 #@! TD*
G04 #@! TO.C,U62*
X27600000Y-103175000D03*
X23200000Y-103175000D03*
X23200000Y-104775000D03*
X27600000Y-104775000D03*
X27600000Y-106375000D03*
X23200000Y-106375000D03*
G04 #@! TD*
G04 #@! TO.C,U63*
X17440000Y-103175000D03*
X13040000Y-103175000D03*
X13040000Y-104775000D03*
X17440000Y-104775000D03*
X17440000Y-106375000D03*
X13040000Y-106375000D03*
G04 #@! TD*
G04 #@! TO.C,U64*
X7280000Y-103175000D03*
X2880000Y-103175000D03*
X2880000Y-104775000D03*
X7280000Y-104775000D03*
X7280000Y-106375000D03*
X2880000Y-106375000D03*
G04 #@! TD*
G04 #@! TO.C,U65*
X2880000Y-124155000D03*
X7280000Y-124155000D03*
X7280000Y-122555000D03*
X2880000Y-122555000D03*
X2880000Y-120955000D03*
X7280000Y-120955000D03*
G04 #@! TD*
G04 #@! TO.C,U66*
X13040000Y-124155000D03*
X17440000Y-124155000D03*
X17440000Y-122555000D03*
X13040000Y-122555000D03*
X13040000Y-120955000D03*
X17440000Y-120955000D03*
G04 #@! TD*
G04 #@! TO.C,U67*
X23200000Y-124155000D03*
X27600000Y-124155000D03*
X27600000Y-122555000D03*
X23200000Y-122555000D03*
X23200000Y-120955000D03*
X27600000Y-120955000D03*
G04 #@! TD*
G04 #@! TO.C,U68*
X33360000Y-124155000D03*
X37760000Y-124155000D03*
X37760000Y-122555000D03*
X33360000Y-122555000D03*
X33360000Y-120955000D03*
X37760000Y-120955000D03*
G04 #@! TD*
G04 #@! TO.C,U69*
X43520000Y-124155000D03*
X47920000Y-124155000D03*
X47920000Y-122555000D03*
X43520000Y-122555000D03*
X43520000Y-120955000D03*
X47920000Y-120955000D03*
G04 #@! TD*
G04 #@! TO.C,U70*
X53680000Y-124155000D03*
X58080000Y-124155000D03*
X58080000Y-122555000D03*
X53680000Y-122555000D03*
X53680000Y-120955000D03*
X58080000Y-120955000D03*
G04 #@! TD*
G04 #@! TO.C,U71*
X63840000Y-124155000D03*
X68240000Y-124155000D03*
X68240000Y-122555000D03*
X63840000Y-122555000D03*
X63840000Y-120955000D03*
X68240000Y-120955000D03*
G04 #@! TD*
G04 #@! TO.C,U72*
X74000000Y-124155000D03*
X78400000Y-124155000D03*
X78400000Y-122555000D03*
X74000000Y-122555000D03*
X74000000Y-120955000D03*
X78400000Y-120955000D03*
G04 #@! TD*
G04 #@! TO.C,U73*
X84160000Y-124155000D03*
X88560000Y-124155000D03*
X88560000Y-122555000D03*
X84160000Y-122555000D03*
X84160000Y-120955000D03*
X88560000Y-120955000D03*
G04 #@! TD*
G04 #@! TO.C,U74*
X94320000Y-124155000D03*
X98720000Y-124155000D03*
X98720000Y-122555000D03*
X94320000Y-122555000D03*
X94320000Y-120955000D03*
X98720000Y-120955000D03*
G04 #@! TD*
G04 #@! TO.C,U75*
X104480000Y-124155000D03*
X108880000Y-124155000D03*
X108880000Y-122555000D03*
X104480000Y-122555000D03*
X104480000Y-120955000D03*
X108880000Y-120955000D03*
G04 #@! TD*
G04 #@! TO.C,U76*
X114640000Y-124155000D03*
X119040000Y-124155000D03*
X119040000Y-122555000D03*
X114640000Y-122555000D03*
X114640000Y-120955000D03*
X119040000Y-120955000D03*
G04 #@! TD*
G04 #@! TO.C,U77*
X124800000Y-124155000D03*
X129200000Y-124155000D03*
X129200000Y-122555000D03*
X124800000Y-122555000D03*
X124800000Y-120955000D03*
X129200000Y-120955000D03*
G04 #@! TD*
G04 #@! TO.C,U78*
X134960000Y-124155000D03*
X139360000Y-124155000D03*
X139360000Y-122555000D03*
X134960000Y-122555000D03*
X134960000Y-120955000D03*
X139360000Y-120955000D03*
G04 #@! TD*
G04 #@! TO.C,U79*
X145120000Y-124155000D03*
X149520000Y-124155000D03*
X149520000Y-122555000D03*
X145120000Y-122555000D03*
X145120000Y-120955000D03*
X149520000Y-120955000D03*
G04 #@! TD*
G04 #@! TO.C,U80*
X155280000Y-124155000D03*
X159680000Y-124155000D03*
X159680000Y-122555000D03*
X155280000Y-122555000D03*
X155280000Y-120955000D03*
X159680000Y-120955000D03*
G04 #@! TD*
G04 #@! TO.C,U81*
X159680000Y-138735000D03*
X155280000Y-138735000D03*
X155280000Y-140335000D03*
X159680000Y-140335000D03*
X159680000Y-141935000D03*
X155280000Y-141935000D03*
G04 #@! TD*
G04 #@! TO.C,U82*
X149520000Y-138735000D03*
X145120000Y-138735000D03*
X145120000Y-140335000D03*
X149520000Y-140335000D03*
X149520000Y-141935000D03*
X145120000Y-141935000D03*
G04 #@! TD*
G04 #@! TO.C,U83*
X139360000Y-138735000D03*
X134960000Y-138735000D03*
X134960000Y-140335000D03*
X139360000Y-140335000D03*
X139360000Y-141935000D03*
X134960000Y-141935000D03*
G04 #@! TD*
G04 #@! TO.C,U84*
X129200000Y-138735000D03*
X124800000Y-138735000D03*
X124800000Y-140335000D03*
X129200000Y-140335000D03*
X129200000Y-141935000D03*
X124800000Y-141935000D03*
G04 #@! TD*
G04 #@! TO.C,U85*
X119040000Y-138735000D03*
X114640000Y-138735000D03*
X114640000Y-140335000D03*
X119040000Y-140335000D03*
X119040000Y-141935000D03*
X114640000Y-141935000D03*
G04 #@! TD*
G04 #@! TO.C,U86*
X108880000Y-138735000D03*
X104480000Y-138735000D03*
X104480000Y-140335000D03*
X108880000Y-140335000D03*
X108880000Y-141935000D03*
X104480000Y-141935000D03*
G04 #@! TD*
G04 #@! TO.C,U87*
X98720000Y-138735000D03*
X94320000Y-138735000D03*
X94320000Y-140335000D03*
X98720000Y-140335000D03*
X98720000Y-141935000D03*
X94320000Y-141935000D03*
G04 #@! TD*
G04 #@! TO.C,U88*
X88560000Y-138735000D03*
X84160000Y-138735000D03*
X84160000Y-140335000D03*
X88560000Y-140335000D03*
X88560000Y-141935000D03*
X84160000Y-141935000D03*
G04 #@! TD*
G04 #@! TO.C,U89*
X78400000Y-138735000D03*
X74000000Y-138735000D03*
X74000000Y-140335000D03*
X78400000Y-140335000D03*
X78400000Y-141935000D03*
X74000000Y-141935000D03*
G04 #@! TD*
G04 #@! TO.C,U90*
X68240000Y-138735000D03*
X63840000Y-138735000D03*
X63840000Y-140335000D03*
X68240000Y-140335000D03*
X68240000Y-141935000D03*
X63840000Y-141935000D03*
G04 #@! TD*
G04 #@! TO.C,U91*
X58080000Y-138735000D03*
X53680000Y-138735000D03*
X53680000Y-140335000D03*
X58080000Y-140335000D03*
X58080000Y-141935000D03*
X53680000Y-141935000D03*
G04 #@! TD*
G04 #@! TO.C,U92*
X47920000Y-138735000D03*
X43520000Y-138735000D03*
X43520000Y-140335000D03*
X47920000Y-140335000D03*
X47920000Y-141935000D03*
X43520000Y-141935000D03*
G04 #@! TD*
G04 #@! TO.C,U93*
X37760000Y-138735000D03*
X33360000Y-138735000D03*
X33360000Y-140335000D03*
X37760000Y-140335000D03*
X37760000Y-141935000D03*
X33360000Y-141935000D03*
G04 #@! TD*
G04 #@! TO.C,U94*
X27600000Y-138735000D03*
X23200000Y-138735000D03*
X23200000Y-140335000D03*
X27600000Y-140335000D03*
X27600000Y-141935000D03*
X23200000Y-141935000D03*
G04 #@! TD*
G04 #@! TO.C,U95*
X17440000Y-138735000D03*
X13040000Y-138735000D03*
X13040000Y-140335000D03*
X17440000Y-140335000D03*
X17440000Y-141935000D03*
X13040000Y-141935000D03*
G04 #@! TD*
G04 #@! TO.C,U96*
X7280000Y-138735000D03*
X2880000Y-138735000D03*
X2880000Y-140335000D03*
X7280000Y-140335000D03*
X7280000Y-141935000D03*
X2880000Y-141935000D03*
G04 #@! TD*
G04 #@! TO.C,U97*
X2880000Y-159715000D03*
X7280000Y-159715000D03*
X7280000Y-158115000D03*
X2880000Y-158115000D03*
X2880000Y-156515000D03*
X7280000Y-156515000D03*
G04 #@! TD*
G04 #@! TO.C,U98*
X13040000Y-159715000D03*
X17440000Y-159715000D03*
X17440000Y-158115000D03*
X13040000Y-158115000D03*
X13040000Y-156515000D03*
X17440000Y-156515000D03*
G04 #@! TD*
G04 #@! TO.C,U99*
X23200000Y-159715000D03*
X27600000Y-159715000D03*
X27600000Y-158115000D03*
X23200000Y-158115000D03*
X23200000Y-156515000D03*
X27600000Y-156515000D03*
G04 #@! TD*
G04 #@! TO.C,U100*
X33360000Y-159715000D03*
X37760000Y-159715000D03*
X37760000Y-158115000D03*
X33360000Y-158115000D03*
X33360000Y-156515000D03*
X37760000Y-156515000D03*
G04 #@! TD*
G04 #@! TO.C,U101*
X43520000Y-159715000D03*
X47920000Y-159715000D03*
X47920000Y-158115000D03*
X43520000Y-158115000D03*
X43520000Y-156515000D03*
X47920000Y-156515000D03*
G04 #@! TD*
G04 #@! TO.C,U102*
X53680000Y-159715000D03*
X58080000Y-159715000D03*
X58080000Y-158115000D03*
X53680000Y-158115000D03*
X53680000Y-156515000D03*
X58080000Y-156515000D03*
G04 #@! TD*
G04 #@! TO.C,U103*
X63840000Y-159715000D03*
X68240000Y-159715000D03*
X68240000Y-158115000D03*
X63840000Y-158115000D03*
X63840000Y-156515000D03*
X68240000Y-156515000D03*
G04 #@! TD*
G04 #@! TO.C,U104*
X74000000Y-159715000D03*
X78400000Y-159715000D03*
X78400000Y-158115000D03*
X74000000Y-158115000D03*
X74000000Y-156515000D03*
X78400000Y-156515000D03*
G04 #@! TD*
G04 #@! TO.C,U105*
X84160000Y-159715000D03*
X88560000Y-159715000D03*
X88560000Y-158115000D03*
X84160000Y-158115000D03*
X84160000Y-156515000D03*
X88560000Y-156515000D03*
G04 #@! TD*
G04 #@! TO.C,U106*
X94320000Y-159715000D03*
X98720000Y-159715000D03*
X98720000Y-158115000D03*
X94320000Y-158115000D03*
X94320000Y-156515000D03*
X98720000Y-156515000D03*
G04 #@! TD*
G04 #@! TO.C,U107*
X104480000Y-159715000D03*
X108880000Y-159715000D03*
X108880000Y-158115000D03*
X104480000Y-158115000D03*
X104480000Y-156515000D03*
X108880000Y-156515000D03*
G04 #@! TD*
G04 #@! TO.C,U108*
X114640000Y-159715000D03*
X119040000Y-159715000D03*
X119040000Y-158115000D03*
X114640000Y-158115000D03*
X114640000Y-156515000D03*
X119040000Y-156515000D03*
G04 #@! TD*
G04 #@! TO.C,U109*
X124800000Y-159715000D03*
X129200000Y-159715000D03*
X129200000Y-158115000D03*
X124800000Y-158115000D03*
X124800000Y-156515000D03*
X129200000Y-156515000D03*
G04 #@! TD*
G04 #@! TO.C,U110*
X134960000Y-159715000D03*
X139360000Y-159715000D03*
X139360000Y-158115000D03*
X134960000Y-158115000D03*
X134960000Y-156515000D03*
X139360000Y-156515000D03*
G04 #@! TD*
G04 #@! TO.C,U111*
X145120000Y-159715000D03*
X149520000Y-159715000D03*
X149520000Y-158115000D03*
X145120000Y-158115000D03*
X145120000Y-156515000D03*
X149520000Y-156515000D03*
G04 #@! TD*
G04 #@! TO.C,U112*
X155280000Y-159715000D03*
X159680000Y-159715000D03*
X159680000Y-158115000D03*
X155280000Y-158115000D03*
X155280000Y-156515000D03*
X159680000Y-156515000D03*
G04 #@! TD*
G04 #@! TO.C,U113*
X159680000Y-174295000D03*
X155280000Y-174295000D03*
X155280000Y-175895000D03*
X159680000Y-175895000D03*
X159680000Y-177495000D03*
X155280000Y-177495000D03*
G04 #@! TD*
G04 #@! TO.C,U114*
X149520000Y-174295000D03*
X145120000Y-174295000D03*
X145120000Y-175895000D03*
X149520000Y-175895000D03*
X149520000Y-177495000D03*
X145120000Y-177495000D03*
G04 #@! TD*
G04 #@! TO.C,U115*
X139360000Y-174295000D03*
X134960000Y-174295000D03*
X134960000Y-175895000D03*
X139360000Y-175895000D03*
X139360000Y-177495000D03*
X134960000Y-177495000D03*
G04 #@! TD*
G04 #@! TO.C,U116*
X129200000Y-174295000D03*
X124800000Y-174295000D03*
X124800000Y-175895000D03*
X129200000Y-175895000D03*
X129200000Y-177495000D03*
X124800000Y-177495000D03*
G04 #@! TD*
G04 #@! TO.C,U117*
X119040000Y-174295000D03*
X114640000Y-174295000D03*
X114640000Y-175895000D03*
X119040000Y-175895000D03*
X119040000Y-177495000D03*
X114640000Y-177495000D03*
G04 #@! TD*
G04 #@! TO.C,U118*
X108880000Y-174295000D03*
X104480000Y-174295000D03*
X104480000Y-175895000D03*
X108880000Y-175895000D03*
X108880000Y-177495000D03*
X104480000Y-177495000D03*
G04 #@! TD*
G04 #@! TO.C,U119*
X98720000Y-174295000D03*
X94320000Y-174295000D03*
X94320000Y-175895000D03*
X98720000Y-175895000D03*
X98720000Y-177495000D03*
X94320000Y-177495000D03*
G04 #@! TD*
G04 #@! TO.C,U120*
X88560000Y-174295000D03*
X84160000Y-174295000D03*
X84160000Y-175895000D03*
X88560000Y-175895000D03*
X88560000Y-177495000D03*
X84160000Y-177495000D03*
G04 #@! TD*
G04 #@! TO.C,U121*
X78400000Y-174295000D03*
X74000000Y-174295000D03*
X74000000Y-175895000D03*
X78400000Y-175895000D03*
X78400000Y-177495000D03*
X74000000Y-177495000D03*
G04 #@! TD*
G04 #@! TO.C,U122*
X68240000Y-174295000D03*
X63840000Y-174295000D03*
X63840000Y-175895000D03*
X68240000Y-175895000D03*
X68240000Y-177495000D03*
X63840000Y-177495000D03*
G04 #@! TD*
G04 #@! TO.C,U124*
X47920000Y-174295000D03*
X43520000Y-174295000D03*
X43520000Y-175895000D03*
X47920000Y-175895000D03*
X47920000Y-177495000D03*
X43520000Y-177495000D03*
G04 #@! TD*
G04 #@! TO.C,U125*
X37760000Y-174295000D03*
X33360000Y-174295000D03*
X33360000Y-175895000D03*
X37760000Y-175895000D03*
X37760000Y-177495000D03*
X33360000Y-177495000D03*
G04 #@! TD*
G04 #@! TO.C,U126*
X27600000Y-174295000D03*
X23200000Y-174295000D03*
X23200000Y-175895000D03*
X27600000Y-175895000D03*
X27600000Y-177495000D03*
X23200000Y-177495000D03*
G04 #@! TD*
G04 #@! TO.C,U128*
X7280000Y-174295000D03*
X2880000Y-174295000D03*
X2880000Y-175895000D03*
X7280000Y-175895000D03*
X7280000Y-177495000D03*
X2880000Y-177495000D03*
G04 #@! TD*
G04 #@! TO.C,U2*
X13040000Y-53035000D03*
X17440000Y-53035000D03*
X17440000Y-51435000D03*
X13040000Y-51435000D03*
X13040000Y-49835000D03*
X17440000Y-49835000D03*
G04 #@! TD*
D22*
G04 #@! TO.C,Q1*
X83385000Y-20985000D03*
X83385000Y-19685000D03*
X85285000Y-20335000D03*
X83385000Y-20335000D03*
X85285000Y-19685000D03*
X85285000Y-20985000D03*
G04 #@! TD*
D23*
G04 #@! TO.C,U132*
X41335000Y-23988096D03*
D24*
G36*
X40624358Y-23988096D02*
X41335000Y-23277454D01*
X42045642Y-23988096D01*
X41335000Y-24698738D01*
X40624358Y-23988096D01*
X40624358Y-23988096D01*
G37*
D23*
X40150596Y-25172500D03*
D24*
G36*
X39439954Y-25172500D02*
X40150596Y-24461858D01*
X40861238Y-25172500D01*
X40150596Y-25883142D01*
X39439954Y-25172500D01*
X39439954Y-25172500D01*
G37*
D23*
X42519404Y-25172500D03*
D24*
G36*
X41808762Y-25172500D02*
X42519404Y-24461858D01*
X43230046Y-25172500D01*
X42519404Y-25883142D01*
X41808762Y-25172500D01*
X41808762Y-25172500D01*
G37*
D23*
X41335000Y-26356904D03*
D24*
G36*
X40624358Y-26356904D02*
X41335000Y-25646262D01*
X42045642Y-26356904D01*
X41335000Y-27067546D01*
X40624358Y-26356904D01*
X40624358Y-26356904D01*
G37*
D25*
X42006751Y-22379428D03*
D26*
X41812297Y-22573882D02*
X42201205Y-22184974D01*
D25*
X42360305Y-22732982D03*
D26*
X42165851Y-22927436D02*
X42554759Y-22538528D01*
D25*
X42713858Y-23086535D03*
D26*
X42519404Y-23280989D02*
X42908312Y-22892081D01*
D25*
X43067412Y-23440088D03*
D26*
X42872958Y-23634542D02*
X43261866Y-23245634D01*
D25*
X43420965Y-23793642D03*
D26*
X43226511Y-23988096D02*
X43615419Y-23599188D01*
D25*
X43774518Y-24147195D03*
D26*
X43580064Y-24341649D02*
X43968972Y-23952741D01*
D25*
X44128072Y-24500749D03*
D26*
X43933618Y-24695203D02*
X44322526Y-24306295D01*
D25*
X44128072Y-25844251D03*
D26*
X43933618Y-25649797D02*
X44322526Y-26038705D01*
D25*
X43774518Y-26197805D03*
D26*
X43580064Y-26003351D02*
X43968972Y-26392259D01*
D25*
X43420965Y-26551358D03*
D26*
X43226511Y-26356904D02*
X43615419Y-26745812D01*
D25*
X43067412Y-26904912D03*
D26*
X42872958Y-26710458D02*
X43261866Y-27099366D01*
D25*
X42713858Y-27258465D03*
D26*
X42519404Y-27064011D02*
X42908312Y-27452919D01*
D25*
X42360305Y-27612018D03*
D26*
X42165851Y-27417564D02*
X42554759Y-27806472D01*
D25*
X42006751Y-27965572D03*
D26*
X41812297Y-27771118D02*
X42201205Y-28160026D01*
D25*
X40663249Y-27965572D03*
D26*
X40468795Y-28160026D02*
X40857703Y-27771118D01*
D25*
X40309695Y-27612018D03*
D26*
X40115241Y-27806472D02*
X40504149Y-27417564D01*
D25*
X39956142Y-27258465D03*
D26*
X39761688Y-27452919D02*
X40150596Y-27064011D01*
D25*
X39602588Y-26904912D03*
D26*
X39408134Y-27099366D02*
X39797042Y-26710458D01*
D25*
X39249035Y-26551358D03*
D26*
X39054581Y-26745812D02*
X39443489Y-26356904D01*
D25*
X38895482Y-26197805D03*
D26*
X38701028Y-26392259D02*
X39089936Y-26003351D01*
D25*
X38541928Y-25844251D03*
D26*
X38347474Y-26038705D02*
X38736382Y-25649797D01*
D25*
X38541928Y-24500749D03*
D26*
X38347474Y-24306295D02*
X38736382Y-24695203D01*
D25*
X38895482Y-24147195D03*
D26*
X38701028Y-23952741D02*
X39089936Y-24341649D01*
D25*
X39249035Y-23793642D03*
D26*
X39054581Y-23599188D02*
X39443489Y-23988096D01*
D25*
X39602588Y-23440088D03*
D26*
X39408134Y-23245634D02*
X39797042Y-23634542D01*
D25*
X39956142Y-23086535D03*
D26*
X39761688Y-22892081D02*
X40150596Y-23280989D01*
D25*
X40309695Y-22732982D03*
D26*
X40115241Y-22538528D02*
X40504149Y-22927436D01*
D25*
X40663249Y-22379428D03*
D26*
X40468795Y-22184974D02*
X40857703Y-22573882D01*
G04 #@! TD*
D27*
G04 #@! TO.C,D1*
X19385000Y-23235000D03*
X19385000Y-25435000D03*
X16785000Y-25435000D03*
D10*
X16785000Y-23335000D03*
G04 #@! TD*
D28*
G04 #@! TO.C,P1*
X2185000Y-28335000D03*
D29*
X4885000Y-26685000D03*
X4885000Y-26035000D03*
X4885000Y-28635000D03*
X4885000Y-27985000D03*
X4885000Y-27335000D03*
D28*
X2185000Y-26335000D03*
G04 #@! TD*
D30*
G04 #@! TO.C,U131*
X63500000Y-26645000D03*
D31*
X63500000Y-20345000D03*
X61200000Y-20345000D03*
X65800000Y-20345000D03*
G04 #@! TD*
D32*
G04 #@! TO.C,JP1*
X49335000Y-20135000D03*
X49335000Y-21035000D03*
G04 #@! TD*
M02*
